<svg width="55" height="64" viewBox="0 0 55 64" fill="none" xmlns="http://www.w3.org/2000/svg">
<g id="Clip path group">
<g id="Group">
<path id="Vector" d="M47.7234 33.8934L46.4776 31.2565C44.8214 27.766 43.1652 24.2755 41.508 20.7875L36.5583 10.3562C35.7314 8.61145 34.9038 6.86499 34.0735 5.12173C33.6621 4.25653 33.2516 3.38889 32.8436 2.52221C32.6642 2.14471 32.5144 1.68545 32.2409 1.36553C32.124 1.23118 31.9783 1.13781 31.8077 1.08979C31.6363 1.04007 31.4643 1.04112 31.2934 1.09222C30.8748 1.19791 30.4738 1.40697 30.0838 1.57079L28.7352 2.14294C27.8545 2.51699 26.9751 2.89445 26.0941 3.27265C24.3217 4.03768 22.5545 4.81047 20.7879 5.58913C17.2664 7.14122 13.7624 8.73004 10.2759 10.3556C9.42255 10.7519 8.56779 11.1448 7.71806 11.5496C6.91427 11.916 6.14529 12.3458 5.40799 12.8365C4.15443 13.7001 3.12212 14.9167 2.80568 16.4421C2.6599 17.1084 2.68831 17.7646 2.89334 18.4117C2.89617 18.4327 2.90311 18.4539 2.91174 18.4743C3.76398 20.4928 4.6179 22.5105 5.4752 24.5267C6.36631 26.623 7.25669 28.7175 8.1478 30.8138C9.05641 32.9468 9.96503 35.0798 10.8736 37.2129C11.7669 39.3142 12.6619 41.4149 13.5542 43.5187C14.4129 45.5525 15.2735 47.5814 16.1351 49.6078L16.4472 50.3471C16.5853 50.6741 17.0908 50.4513 16.9527 50.1243C16.1005 48.1058 15.2449 46.0889 14.3886 44.0702C13.4982 41.9756 12.6071 39.8794 11.715 37.7855C10.8105 35.6527 9.90186 33.5197 8.99083 31.3858C8.09757 29.2844 7.20359 27.1813 6.31105 25.0816C5.44655 23.0483 4.5876 21.0187 3.72936 18.9908C3.62508 18.7438 3.52151 18.4985 3.41723 18.2515C2.96529 16.9294 3.52156 15.4781 4.38523 14.4509C5.13225 13.5701 6.11882 12.9575 7.14376 12.431L21.0801 45.4384C21.2174 45.7637 21.7237 45.5426 21.5856 45.2156L7.64062 12.1878C7.97202 12.0276 8.30557 11.8725 8.63912 11.7174C12.0631 10.1194 15.4985 8.54871 18.9462 7.00695C22.3955 5.46443 25.8566 3.95918 29.3352 2.49065L30.6374 1.93692C30.8267 1.85347 31.0161 1.77001 31.2105 1.69848C31.3474 1.63813 31.5273 1.57501 31.6772 1.62611C31.8261 1.67967 31.9017 1.84436 31.967 1.9752C32.0761 2.19578 32.1778 2.41764 32.2807 2.6329C32.4835 3.06076 32.6854 3.48692 32.8874 3.91307C33.6968 5.6211 34.5062 7.32913 35.3173 9.03641C36.9361 12.4525 38.5558 15.8661 40.1739 19.2804C41.792 22.6948 43.4124 26.1101 45.0312 29.5261C45.8416 31.2317 46.651 32.9398 47.4604 34.6478C47.7132 35.1849 48.1049 35.9416 47.754 36.5306C47.5626 36.8513 47.1948 37.0155 46.8666 37.15C46.45 37.3175 46.0248 37.4645 45.6029 37.6241C42.0813 38.948 38.5831 40.3463 35.1118 41.8178C31.6404 43.2891 28.2016 44.833 24.7975 46.4445C23.404 47.1052 21.9827 47.7377 20.6745 48.5668C19.5963 49.2521 18.557 50.1102 17.9248 51.2535C17.6262 51.7953 17.4413 52.3738 17.3719 52.9882C17.3314 53.3435 17.8762 53.4084 17.9167 53.0532C18.2277 50.2755 21.1614 48.7987 23.3758 47.7318C26.8352 46.0656 30.3271 44.472 33.8507 42.9534C37.3767 41.4357 40.9296 39.991 44.5107 38.6228C44.989 38.4402 45.471 38.2662 45.9522 38.0904C45.8475 38.9205 45.7411 39.7512 45.6364 40.5813C45.5923 40.928 45.61 41.4071 45.3611 41.6865C45.1131 41.9635 44.7334 42.0662 44.4192 42.2007C42.7433 42.9191 41.0702 43.6484 39.3991 44.3829C36.0484 45.8597 32.713 47.3682 29.3919 48.9107C27.7454 49.6748 26.1025 50.4474 24.4649 51.2277C23.6347 51.6219 22.8077 52.0187 21.9797 52.418C21.5814 52.6097 21.1848 52.8007 20.788 52.9958C20.4264 53.1511 20.1007 53.3674 19.8102 53.6389C18.8366 54.6478 19.5516 56.1227 20.6238 56.6724C21.2454 56.9904 22.0121 56.9636 22.6788 56.8092C23.4439 56.6315 24.162 56.2949 24.8812 55.9799L34.9165 51.5851L35.914 51.1455C36.3421 51.9933 36.7685 52.8417 37.1966 53.6895L38.1056 55.491C38.1639 55.6148 38.2603 55.6673 38.394 55.6467C38.5301 55.6272 38.6073 55.5487 38.6296 55.4116L38.9692 53.5992C39.0286 53.2982 39.0832 52.9954 39.1402 52.6934C39.1657 52.559 39.188 52.4219 39.2175 52.2876C39.2258 52.2456 39.2359 52.1745 39.2649 52.1435C39.2957 52.1118 39.2698 52.1313 39.285 52.1245C39.3645 52.0895 39.5454 52.1856 39.6196 52.2094C39.7413 52.2507 39.8621 52.2945 39.9845 52.3375C40.2419 52.4342 40.498 52.5374 40.7496 52.6488C41.2513 52.8681 41.7372 53.1166 42.2073 53.3943C42.3193 53.4742 42.4298 53.47 42.5378 53.384C42.6469 53.2955 42.6756 53.1879 42.6251 53.0586C42.078 51.6774 41.515 50.3013 40.9375 48.9335C43.2236 47.9319 45.5112 46.9338 47.801 45.9407C48.6496 45.5667 49.5007 45.1936 50.3525 44.8222C50.6281 44.7007 50.517 44.2143 50.2102 44.295C50.1769 44.3016 50.1435 44.3082 50.1081 44.3097C50.0948 44.3115 50.0808 44.3116 50.0685 44.311L49.9885 44.3018L49.9185 44.2882L49.9038 44.2866C49.9038 44.2866 49.9038 44.2866 49.8877 44.2816C49.8255 44.2625 49.766 44.2403 49.7047 44.2188C49.452 44.114 49.2106 43.984 48.9823 43.828C48.4588 43.481 47.9614 43.0961 47.4917 42.6769C47.2955 42.5067 47.1013 42.3317 46.9139 42.1537C46.8525 42.108 46.7835 42.092 46.7104 42.104C46.6356 42.1168 46.5749 42.1536 46.5284 42.2145C46.4861 42.2756 46.4695 42.3455 46.4806 42.4194C46.4908 42.4957 46.5266 42.5567 46.5856 42.6015C46.9845 42.9812 47.4019 43.3427 47.8335 43.6859C48.2978 44.0732 48.8021 44.3984 49.3429 44.6631C47.2985 45.5581 45.2527 46.4497 43.2061 47.3396L40.7282 48.4236C40.47 47.8121 40.2077 47.2004 39.9411 46.5927C39.803 46.2656 39.2934 46.4882 39.4356 46.8154C40.2672 48.7137 41.0666 50.6261 41.8339 52.5527C41.2127 52.2306 40.5705 51.954 39.9072 51.7271C39.6937 51.6535 39.4573 51.5496 39.2273 51.5843C39.1086 51.6023 39.0035 51.6526 38.9138 51.7346C38.8234 51.8148 38.7607 51.9132 38.7263 52.0314C38.6608 52.2704 38.6107 52.5127 38.5777 52.7575L38.4297 53.542L38.2433 54.5394L35.3912 48.891C35.1027 48.317 34.815 47.7448 34.5249 47.1716C36.0238 46.4949 37.5248 45.8232 39.028 45.1566C40.6729 44.4316 42.3174 43.7149 43.9623 43.0041C44.3528 42.8319 44.7554 42.6788 45.1409 42.4947C45.4848 42.331 45.8009 42.1109 45.9674 41.7547C46.1331 41.3968 46.1424 40.9724 46.1919 40.591L46.359 39.2627L46.527 37.932C46.5297 37.9147 46.53 37.8964 46.5293 37.8805C46.7392 37.7981 46.9473 37.7165 47.155 37.629C47.8496 37.3411 48.4395 36.8386 48.4467 36.0293C48.4507 35.2599 48.0424 34.5589 47.7234 33.8934ZM35.6666 50.6545L26.0674 54.857C25.2813 55.2035 24.5012 55.5595 23.7132 55.8825C23.0694 56.1481 22.3716 56.3951 21.6677 56.3618C21.3826 56.3562 21.1112 56.2879 20.8565 56.1597C20.6012 56.0298 20.3874 55.8513 20.2129 55.6232C19.9227 55.2541 19.7661 54.7311 20.0013 54.286C20.1656 53.9772 20.4798 53.7761 20.7832 53.6162C21.1564 53.4173 21.5431 53.2408 21.9245 53.0566C22.7346 52.6672 23.5447 52.2778 24.3522 51.8916C25.9719 51.1211 27.5962 50.3567 29.2244 49.5967C30.8219 48.8542 32.4222 48.1186 34.0262 47.3915L35.6666 50.6545Z" fill="black" fill-opacity="0.8"/>
</g>
</g>
</svg>
