<svg width="106" height="67" viewBox="0 0 106 67" fill="none" xmlns="http://www.w3.org/2000/svg">
<g id="Scribble" clip-path="url(#clip0_1745_56077)">
<path id="Vector" fill-rule="evenodd" clip-rule="evenodd" d="M44.5377 52.9043L37.1893 56.9455C39.8404 56.1529 42.2829 54.7747 44.5377 52.9043ZM62.0707 49.8996C59.1158 51.026 56.2235 52.2712 53.1942 52.9659C56.4307 53.0589 59.294 51.5917 62.0707 49.8996ZM53.6792 38.6119C53.5806 37.0917 52.8237 37.3402 52.1259 37.5235C49.766 38.1414 48.7129 40.5786 47.7241 42.9219C47.0032 44.6298 46.4271 46.5281 46.5641 48.6061C46.616 49.3985 46.8294 50.0153 47.5927 49.3892C49.6767 47.6793 51.5134 45.6536 52.7388 42.8673C53.3226 41.5398 53.6891 40.1047 53.6792 38.6119ZM53.071 51.1684C55.0266 51.1443 56.8428 50.3217 58.6617 49.579C66.521 46.3693 72.8953 40.4075 78.5211 32.9899C82.279 28.0347 85.6138 22.6565 88.8012 17.1114C89.0923 16.6058 89.3703 16.0789 89.8465 15.8218C90.3816 15.5332 90.7769 15.56 90.5871 16.5176C90.5409 16.7536 90.3048 16.9886 90.6599 17.097C91.8843 17.4718 91.645 18.5976 91.5095 19.6154C91.2557 21.5257 90.3775 23.0827 89.6466 24.6894C87.5997 29.191 85.4135 33.5927 82.7799 37.5713C80.3348 41.2647 77.4817 44.4479 74.5572 47.5246C72.6955 49.4831 70.7795 51.4414 68.4891 52.4358C66.9674 53.0962 65.7968 54.4047 64.3139 55.0717C61.471 56.3501 58.6275 57.5846 55.5896 58.0305C53.0892 58.3972 50.6668 57.943 48.36 56.5181C47.5996 56.0479 46.9191 56.0625 46.2162 56.5008C44.3216 57.6813 42.389 58.7866 40.4598 59.8498C37.3212 61.5802 33.9623 62.661 30.5875 63.569C25.205 65.0174 19.7611 65.7568 14.195 64.7922C10.9236 64.2253 7.71956 63.3979 5.07536 60.4863C4.37915 59.7197 3.84053 58.8564 3.77894 57.6437C3.75194 57.1212 3.85176 56.7167 4.23692 56.4681C4.69241 56.175 4.76638 56.5996 5.01481 56.9744C6.71811 59.5449 9.1366 59.716 11.4544 60.1394C17.8418 61.3067 24.017 60.0854 30.1297 58.2341C34.8071 56.8173 39.3141 54.8301 43.613 52.1678C43.9544 51.9565 44.4457 51.9352 44.0854 51.1047C42.8304 48.2111 42.7672 45.1602 43.3831 42.1401C44.3333 37.4781 46.1634 33.6187 49.933 31.9126C51.9585 30.9957 53.4124 31.7514 54.8045 33.915C58.3519 39.4267 57.1103 45.7434 53.8397 49.7158C53.5463 50.0711 53.2536 50.4262 52.9611 50.7809C52.9977 50.9104 53.0345 51.0394 53.071 51.1684Z" fill="#DF2B27"/>
<path id="Vector_2" fill-rule="evenodd" clip-rule="evenodd" d="M90.1787 8.48768C92.5428 7.32799 94.7195 5.78489 96.6199 3.68008C94.473 5.28241 92.326 6.88533 90.1787 8.48768ZM96.2009 21.1288C96.0098 17.834 96.2645 14.5758 96.4182 11.309C96.4413 10.8207 96.6726 10.2728 96.1626 9.88621C95.6726 9.51511 95.3494 9.95637 95.0581 10.2401C93.4691 11.7845 91.5942 12.6344 89.8202 13.7461C88.6997 14.4489 87.6827 15.4309 86.5127 16.1075C84.7113 17.1486 82.9742 18.3652 81.2363 19.5654C80.3554 20.1736 79.2731 20.2219 78.5491 21.3087C77.8387 22.3747 76.9636 22.1357 75.8694 20.5315C75.3105 19.713 75.0221 18.5871 75.8015 17.7115C76.4427 16.9916 77.1408 16.3241 77.8838 15.7827C82.8018 12.2002 87.7439 8.66908 92.6653 5.0939C93.77 4.29155 94.8305 3.39182 95.9024 2.52052C97.8513 0.936077 98.7507 1.25403 100.05 3.81763C101.058 5.80771 101.279 7.83025 100.87 10.0619C100.084 14.3578 99.3954 18.6868 99.2665 23.1433C99.2408 24.0363 99.3144 24.9377 99.3163 25.8345C99.3191 26.873 98.9579 27.1654 98.2146 26.6103C96.5665 25.3811 96.4017 24.9374 96.2009 21.1288Z" fill="#DF2B27"/>
</g>
<defs>
<clipPath id="clip0_1745_56077">
<rect width="100.901" height="59.1999" fill="white" transform="translate(0 7.59375) rotate(-4.31594)"/>
</clipPath>
</defs>
</svg>
