<svg width="497" height="330" viewBox="0 0 497 330" fill="none" xmlns="http://www.w3.org/2000/svg">
<g clip-path="url(#clip0_2068_23306)">
<path d="M251.775 92.7501C247.344 85.4212 242.093 77.5962 233.869 75.2031C224.345 72.4317 214.562 77.9371 206.264 83.3698C181.447 99.6171 157.548 117.225 134.676 136.112L134.701 136.396C152.507 135.168 170.314 133.94 188.121 132.712C200.986 131.825 214.293 130.816 225.663 124.73C229.977 122.421 234.183 119.336 239.071 119.121C245.145 118.854 250.441 123.096 254.603 127.527C279.223 153.742 286.347 193.83 313.967 216.862C296.551 173.912 275.755 132.411 251.775 92.7501Z" fill="#F2F2F2"/>
<path d="M403.107 315.097C400.384 311.66 399.272 310.855 396.586 307.385C374.72 279.106 354.167 249.872 334.928 219.682C321.861 199.179 309.441 178.281 297.669 156.99C292.065 146.868 286.614 136.667 281.317 126.386C277.207 118.414 273.188 110.395 269.261 102.328C268.138 100.024 267.047 97.7091 265.961 95.3892C263.403 89.9336 260.892 84.4515 258.195 79.07C255.123 72.9364 251.384 66.5062 245.742 62.3853C243.175 60.433 240.105 59.2517 236.891 58.9795C232.298 58.6829 228.061 60.5791 224.077 62.6502C194.933 77.8464 167.648 96.8988 142.969 118.578C118.227 140.306 96.1113 164.854 77.0735 191.721C76.491 192.552 75.1137 191.758 75.7016 190.921C78.0165 187.648 80.3772 184.409 82.7838 181.207C112.708 141.41 149.4 107.188 191.182 80.1028C198.212 75.5477 205.373 71.2061 212.667 67.0782C216.343 64.9966 220.036 62.9414 223.791 61.0135C227.473 59.1225 231.382 57.4223 235.588 57.3587C249.9 57.1363 257.311 73.3442 262.401 84.2502C264.001 87.6825 265.62 91.1041 267.259 94.5152C273.451 107.466 279.881 120.298 286.55 133.012C290.666 140.862 294.872 148.665 299.168 156.423C312.538 180.582 326.748 204.251 341.799 227.431C361.737 258.136 381.516 285.261 404.23 313.974C404.855 314.769 403.737 315.902 403.107 315.097Z" fill="#E4E4E4"/>
<path d="M141.556 110.575C140.725 109.648 139.898 108.721 139.061 107.795C132.461 100.496 125.379 93.2815 116.316 89.097C111.994 87.0389 107.277 85.9454 102.491 85.8925C97.5432 85.9084 92.7071 87.2061 88.1358 89.0229C85.9746 89.8863 83.8609 90.8662 81.7793 91.9096C79.4008 93.1067 77.0648 94.3832 74.7396 95.6703C70.3747 98.0856 66.0664 100.607 61.8148 103.234C53.3553 108.462 45.1608 114.089 37.2311 120.115C33.1205 123.24 29.0947 126.467 25.1537 129.797C21.4882 132.89 17.8968 136.067 14.3796 139.326C13.6275 140.02 12.5044 138.897 13.2566 138.203C14.1835 137.34 15.1211 136.482 16.0587 135.634C18.7073 133.24 21.3982 130.892 24.1315 128.589C29.1159 124.384 34.2293 120.341 39.4718 116.46C47.624 110.422 56.0569 104.793 64.7704 99.574C69.1246 96.968 73.5388 94.4715 78.013 92.0844C79.3639 91.3641 80.7306 90.6596 82.113 89.9922C85.2499 88.41 88.5093 87.0833 91.8595 86.0249C96.6052 84.4898 101.626 83.9966 106.58 84.579C111.363 85.2746 115.971 86.8687 120.162 89.2771C129.061 94.2508 135.963 101.942 142.679 109.447C143.357 110.21 142.24 111.338 141.556 110.575Z" fill="#E4E4E4"/>
<path d="M323.893 186.211L345.217 178.412L355.804 174.54C359.252 173.279 362.692 171.843 366.257 170.94C369.355 170.055 372.644 170.097 375.718 171.06C378.459 172.075 380.969 173.631 383.097 175.635C385.271 177.637 387.295 179.797 389.15 182.098C391.455 184.868 393.726 187.667 396.007 190.457C405.422 201.97 414.776 213.534 424.068 225.148C433.36 236.761 442.589 248.424 451.757 260.136C460.947 271.877 470.073 283.666 479.137 295.505C480.247 296.956 481.357 298.407 482.465 299.858C483.077 300.66 484.458 299.87 483.837 299.056C474.707 287.098 465.513 275.189 456.255 263.329C446.975 251.441 437.63 239.603 428.221 227.815C418.813 216.028 409.341 204.292 399.805 192.607C397.429 189.696 395.05 186.788 392.666 183.883C390.656 181.433 388.668 178.956 386.463 176.676C382.415 172.49 377.358 168.79 371.304 168.69C367.745 168.631 364.3 169.76 360.993 170.956C357.428 172.246 353.872 173.56 350.312 174.862L328.838 182.715L323.47 184.679C322.517 185.027 322.929 186.563 323.893 186.211Z" fill="#E4E4E4"/>
<path d="M113.508 98.2815C102.672 92.7124 88.7939 93.8031 78.8359 100.761C97.83 104.038 116.616 108.422 135.098 113.891C127.424 109.394 121.42 102.348 113.508 98.2815Z" fill="#F2F2F2"/>
<path d="M78.7307 100.741L76.6445 102.437C77.3502 101.843 78.0838 101.287 78.8374 100.76C78.8018 100.754 78.7663 100.747 78.7307 100.741Z" fill="#F2F2F2"/>
<path d="M382.295 186.289C380.196 183.734 377.926 181.058 374.787 180.021L371.855 180.136C394.17 219.563 424.306 254.015 460.416 281.376C434.376 249.68 408.335 217.984 382.295 186.289Z" fill="#F2F2F2"/>
<path d="M200.012 165.212C201.368 170.14 204.424 174.43 208.639 177.321C210.269 178.431 212.197 179.495 212.754 181.386C213.048 182.591 212.867 183.863 212.25 184.939C211.633 186.002 210.883 186.98 210.018 187.852L209.939 188.148C205.896 185.752 202.049 182.721 199.815 178.585C197.581 174.449 197.269 169.029 200.012 165.212Z" fill="#F2F2F2"/>
<path d="M334.645 282.502C336.001 287.43 339.057 291.72 343.272 294.612C344.902 295.721 346.83 296.785 347.387 298.676C347.68 299.881 347.5 301.153 346.882 302.229C346.266 303.292 345.516 304.27 344.651 305.142L344.572 305.438C340.528 303.042 336.681 300.011 334.448 295.875C332.214 291.739 331.902 286.319 334.645 282.502Z" fill="#F2F2F2"/>
<path d="M65.9572 274.413C67.3137 279.341 70.3698 283.631 74.5846 286.523C76.2142 287.632 78.1422 288.696 78.6996 290.587C78.9929 291.793 78.8122 293.064 78.1948 294.14C77.5786 295.203 76.8288 296.182 75.9637 297.053L75.8848 297.349C71.8409 294.953 67.9938 291.922 65.7601 287.786C63.5263 283.65 63.2144 278.23 65.9572 274.413Z" fill="#F2F2F2"/>
<path d="M375.148 58.9339C391.424 58.9339 404.617 45.7411 404.617 29.467C404.617 13.1928 391.424 0 375.148 0C358.873 0 345.68 13.1928 345.68 29.467C345.68 45.7411 358.873 58.9339 375.148 58.9339Z" fill="#F1C8CF"/>
<path d="M428.326 6.85859C414.044 4.92825 397.739 12.6472 394.038 26.5746C393.105 24.0983 391.409 21.9827 389.195 20.5333C386.981 19.084 384.363 18.376 381.72 18.5116C379.077 18.6472 376.546 19.6194 374.492 21.2877C372.438 22.9561 370.967 25.2342 370.293 27.793L371.928 28.964C402.534 35.5821 434.215 35.4388 464.76 28.5443C454.825 18.1043 442.608 8.7889 428.326 6.85859Z" fill="#F0F0F0"/>
<path d="M367.08 46.1477C352.798 44.2173 336.493 51.9363 332.791 65.8637C331.859 63.3874 330.163 61.2717 327.949 59.8224C325.734 58.373 323.117 57.665 320.474 57.8006C317.831 57.9362 315.3 58.9084 313.246 60.5768C311.192 62.2452 309.721 64.5233 309.047 67.082L310.682 68.253C341.288 74.8711 372.969 74.7279 403.514 67.8333C393.579 57.3934 381.362 48.078 367.08 46.1477Z" fill="#F0F0F0"/>
<path d="M491.729 53.5766C491.67 53.5767 491.611 53.5676 491.555 53.5495C338.776 5.23628 204.122 11.5541 118.065 25.3616C106.353 27.24 94.6102 29.4095 83.1622 31.8104C80.2395 32.4226 77.2074 33.0788 74.1501 33.7621C70.499 34.5752 66.8964 35.4125 63.4419 36.2498C61.9499 36.6031 60.4872 36.9591 59.0535 37.3179C56.8819 37.854 54.6784 38.4126 52.3163 39.0264C49.6769 39.7069 46.9952 40.4207 44.3439 41.148C44.3342 41.1514 44.3244 41.1542 44.3143 41.1565L44.3146 41.157C41.32 41.9746 38.3412 42.8159 35.4605 43.6561C33.9014 44.1063 32.396 44.5504 30.9539 44.9888C30.7929 45.0334 30.6501 45.0763 30.5054 45.1203L30.1956 45.2145C30.0161 45.2692 29.8389 45.3228 29.6618 45.3736L29.6505 45.377L29.6508 45.3776L29.1818 45.5232C28.6226 45.6925 28.077 45.8578 27.5404 46.0225C13.3578 50.3943 5.56124 53.5044 5.48422 53.5349C5.41378 53.5631 5.33848 53.5772 5.26261 53.5763C5.18673 53.5754 5.11177 53.5596 5.042 53.5298C4.97223 53.4999 4.90902 53.4567 4.85598 53.4024C4.80295 53.3481 4.76112 53.2839 4.73288 53.2135C4.70465 53.1431 4.69057 53.0678 4.69144 52.9919C4.69231 52.916 4.70812 52.8411 4.73796 52.7713C4.7678 52.7016 4.81109 52.6384 4.86536 52.5853C4.91962 52.5323 4.98381 52.4905 5.05424 52.4622C5.13183 52.4318 12.9665 49.3059 27.2007 44.9178C27.7393 44.7524 28.2863 44.5871 28.8472 44.4173L29.2828 44.2819C29.2978 44.2762 29.3127 44.2717 29.328 44.2672C29.5043 44.217 29.6804 44.1634 29.8593 44.1092L30.1696 44.015C30.3242 43.9681 30.4766 43.9219 30.6326 43.879C32.0647 43.4434 33.5753 42.9982 35.1383 42.5462C38.0201 41.7055 41.0017 40.8642 43.9986 40.0455C44.0079 40.0421 44.0175 40.0399 44.0268 40.0371C46.6874 39.3075 49.379 38.5903 52.0269 37.9076C54.3926 37.2931 56.6003 36.7334 58.7756 36.1963C60.2153 35.838 61.681 35.4812 63.1724 35.1259C66.6309 34.2874 70.2408 33.449 73.8985 32.6342C76.9605 31.9503 79.9977 31.2924 82.9252 30.6797C94.391 28.2749 106.152 26.102 117.882 24.2208C204.063 10.3935 338.909 4.06547 491.903 52.4481C492.035 52.4896 492.147 52.5768 492.22 52.694C492.293 52.8112 492.321 52.9505 492.3 53.0868C492.279 53.2232 492.21 53.3475 492.105 53.4373C492.001 53.5272 491.867 53.5766 491.729 53.5766Z" fill="#CCCCCC"/>
<path d="M151.959 242.577C151.759 241.992 151.422 241.463 150.976 241.034C150.812 240.881 150.634 240.744 150.445 240.624C148.937 239.618 146.683 239.393 145.25 240.624C145.106 240.749 144.973 240.886 144.852 241.034C144.424 241.56 143.985 242.074 143.534 242.577C142.795 243.42 142.038 244.235 141.246 245.026C141.021 245.246 140.795 245.471 140.564 245.691C140.431 245.824 140.298 245.951 140.165 246.078C139.657 246.563 139.137 247.031 138.611 247.494C138.334 247.742 138.056 247.985 137.773 248.222C137.351 248.574 136.93 248.926 136.502 249.267C136.462 249.296 136.421 249.325 136.381 249.36C136.369 249.366 136.363 249.377 136.352 249.383C136.346 249.383 136.34 249.383 136.335 249.394C136.319 249.401 136.305 249.411 136.294 249.423C136.167 249.51 136.08 249.568 136.017 249.62C136.04 249.608 136.063 249.591 136.086 249.579C135.982 249.66 135.872 249.741 135.768 249.822C134.757 250.567 133.723 251.284 132.665 251.954C130.049 253.628 127.301 255.087 124.449 256.316C124.258 256.391 124.062 256.472 123.865 256.547C116.397 259.607 108.295 260.801 100.261 260.026C99.4408 259.962 98.6203 259.875 97.7998 259.766C96.8522 259.627 95.9103 259.459 94.9743 259.269C91.4106 258.558 87.9238 257.505 84.562 256.126C80.3567 254.2 76.3571 251.854 72.6242 249.123C72.0464 248.713 71.4628 248.302 70.8792 247.904C71.5437 246.274 72.1967 244.645 72.8323 243.004C73.1501 242.213 73.4563 241.421 73.7568 240.624C76.1201 234.482 78.3389 228.282 80.4652 222.059C82.6147 215.756 84.6429 209.416 86.5497 203.039C86.7461 202.392 86.9368 201.745 87.1217 201.097C88.1213 197.729 89.0805 194.353 89.9992 190.969C90.0859 190.64 90.1784 190.316 90.2593 189.987C90.525 189.016 90.7851 188.045 91.0393 187.075C91.6172 184.885 90.3113 182.268 88.0116 181.742C86.9043 181.458 85.7301 181.615 84.7363 182.18C83.7425 182.744 83.0068 183.673 82.6841 184.769C82.4356 185.705 82.1871 186.636 81.9329 187.572C80.7137 192.096 79.4309 196.604 78.0846 201.097C77.8882 201.745 77.6917 202.392 77.4953 203.039C74.5253 212.826 71.2644 222.516 67.7128 232.107C67.2852 233.268 66.8518 234.426 66.4127 235.58C66.1989 236.146 65.9851 236.712 65.7655 237.278C65.3437 238.393 64.9104 239.509 64.477 240.624C64.2285 241.277 63.9743 241.929 63.7201 242.577C63.5525 242.987 63.3907 243.397 63.2289 243.801C61.5814 243.21 59.8746 242.799 58.1383 242.577L57.861 242.542C56.5149 242.38 55.1536 242.392 53.8105 242.577C51.8003 242.811 49.8661 243.484 48.1448 244.549C46.4234 245.613 44.9569 247.042 43.8489 248.736C41.0927 253.075 41.1273 259.28 44.9929 262.967C48.9741 266.763 55.0008 266.734 59.6869 264.359C62.1702 263.016 64.2641 261.053 65.7655 258.662C66.3407 257.795 66.8692 256.898 67.3488 255.975C67.4701 256.056 67.5914 256.137 67.7128 256.224C68.175 256.547 68.6373 256.877 69.0938 257.2C71.7535 259.127 74.5563 260.848 77.4779 262.348C83.7599 265.471 90.5221 267.516 97.482 268.398C97.638 268.415 97.7882 268.438 97.9443 268.456C98.7128 268.554 99.487 268.629 100.261 268.692C111.368 269.529 122.489 267.257 132.376 262.129C133.214 261.695 134.044 261.241 134.867 260.765C136.144 260.026 137.392 259.24 138.611 258.408C139.276 257.957 139.923 257.501 140.564 257.021C143.367 254.957 145.979 252.646 148.371 250.117C149.278 249.163 150.146 248.179 150.976 247.164C151.761 246.334 152.214 245.244 152.248 244.102C152.243 243.58 152.145 243.064 151.959 242.577ZM56.2778 256.339C56.3991 256.253 56.5204 256.16 56.636 256.068C56.6013 256.155 56.4337 256.253 56.2778 256.339ZM58.1325 254.473C57.9997 254.623 57.8783 254.774 57.7454 254.924C57.3411 255.376 56.9067 255.801 56.4453 256.195C56.3818 256.253 56.3124 256.31 56.2431 256.362C56.2423 256.362 56.2416 256.363 56.2408 256.363C56.2401 256.363 56.2395 256.364 56.239 256.364C56.2384 256.365 56.238 256.365 56.2377 256.366C56.2374 256.367 56.2373 256.367 56.2373 256.368C56.1538 256.406 56.0728 256.448 55.9946 256.495C55.7461 256.646 55.4919 256.784 55.2319 256.911C54.7228 257.099 54.1991 257.244 53.666 257.345C53.2564 257.375 52.8453 257.378 52.4353 257.356H52.4237C52.1407 257.293 51.8611 257.216 51.5859 257.125C51.4472 257.056 51.3143 256.975 51.1814 256.894C51.1294 256.848 51.0831 256.802 51.0543 256.773C50.9978 256.721 50.9457 256.665 50.8983 256.605C50.8983 256.604 50.8982 256.604 50.8979 256.603C50.8976 256.602 50.8972 256.602 50.8966 256.601C50.8961 256.601 50.8954 256.6 50.8947 256.6C50.894 256.599 50.8933 256.599 50.8925 256.599C50.8289 256.484 50.7596 256.368 50.6961 256.253C50.6928 256.25 50.6907 256.246 50.6903 256.241C50.6441 256.097 50.6036 255.946 50.5689 255.796C50.5564 255.532 50.5583 255.268 50.5747 255.005C50.6522 254.636 50.7565 254.272 50.8867 253.918C51.0037 253.667 51.1369 253.424 51.2854 253.19C51.297 253.167 51.3548 253.075 51.4183 252.971C51.4241 252.965 51.4241 252.965 51.4241 252.959C51.5108 252.861 51.5975 252.757 51.6899 252.665C51.8459 252.491 52.0135 252.341 52.1811 252.185C52.5069 251.972 52.8445 251.777 53.1922 251.602C53.7439 251.406 54.3099 251.253 54.8852 251.145C55.7337 251.078 56.5864 251.085 57.4334 251.168C58.2357 251.307 59.0273 251.502 59.8025 251.752C59.3327 252.663 58.7978 253.54 58.2019 254.375C58.1788 254.41 58.1557 254.444 58.1325 254.473ZM51.7072 252.572C51.6563 252.654 51.5962 252.73 51.5281 252.798C51.5739 252.712 51.6346 252.636 51.7072 252.572Z" fill="#424242"/>
<path d="M134.592 183.568C134.54 185.382 134.488 187.196 134.436 189.01C134.326 193.038 134.212 197.067 134.095 201.098C133.973 205.633 133.846 210.167 133.713 214.699C133.65 217.039 133.584 219.379 133.517 221.719C133.338 228.022 133.161 234.324 132.985 240.624C132.968 241.277 132.945 241.924 132.928 242.577C132.841 245.703 132.754 248.828 132.668 251.954C132.569 255.346 132.473 258.737 132.379 262.129C132.309 264.671 132.238 267.215 132.165 269.762C131.645 288.21 131.125 306.659 130.605 325.107C130.583 326.25 130.119 327.339 129.311 328.147C128.503 328.955 127.414 329.419 126.271 329.441C125.125 329.432 124.028 328.972 123.217 328.161C122.406 327.351 121.947 326.254 121.938 325.107C122.226 314.73 122.519 304.353 122.816 293.976C123.076 284.593 123.34 275.21 123.607 265.827C123.694 262.736 123.781 259.643 123.867 256.548C124 251.891 124.131 247.234 124.26 242.577C124.278 241.924 124.301 241.277 124.318 240.624C124.33 240.052 124.347 239.486 124.364 238.914C124.619 229.871 124.873 220.827 125.127 211.781C125.231 208.222 125.331 204.661 125.428 201.098C125.543 197.036 125.659 192.976 125.774 188.918C125.826 187.133 125.872 185.353 125.924 183.568C125.946 182.425 126.41 181.336 127.218 180.528C128.026 179.72 129.116 179.256 130.258 179.234C131.405 179.244 132.501 179.703 133.312 180.514C134.123 181.324 134.582 182.421 134.592 183.568Z" fill="#424242"/>
<path d="M372.321 184.77C367.776 201.976 362.345 218.936 356.049 235.581C354.311 240.173 352.534 244.755 350.633 249.282L351.07 248.246C350.222 250.403 349.139 252.459 347.841 254.378C347.752 254.502 347.662 254.624 347.571 254.746C348.02 254.171 348.105 254.058 347.827 254.405C347.68 254.579 347.535 254.753 347.383 254.923C346.979 255.375 346.545 255.801 346.084 256.196C345.968 256.295 345.85 256.392 345.73 256.487L346.272 256.066C346.209 256.214 345.768 256.411 345.63 256.495C345.185 256.764 344.721 256.999 344.241 257.199L345.276 256.762C344.49 257.079 343.669 257.304 342.831 257.433L343.983 257.278C343.16 257.392 342.325 257.401 341.5 257.305L342.652 257.459C341.976 257.366 341.315 257.188 340.684 256.93L341.72 257.366C341.383 257.22 341.059 257.047 340.75 256.849C340.593 256.746 340.111 256.381 340.741 256.863C341.396 257.363 340.825 256.906 340.69 256.773C340.578 256.662 340.477 256.542 340.367 256.429C339.857 255.906 340.943 257.328 340.596 256.717C340.411 256.411 340.242 256.095 340.089 255.771L340.526 256.807C340.327 256.314 340.186 255.8 340.105 255.275L340.26 256.427C340.177 255.773 340.176 255.113 340.258 254.459L340.103 255.611C340.209 254.882 340.402 254.168 340.678 253.485L340.241 254.52C340.433 254.061 340.661 253.617 340.922 253.192C341.042 252.973 341.183 252.765 341.343 252.573C341.371 252.582 340.61 253.447 341.014 253.01C341.119 252.896 341.218 252.776 341.325 252.663C341.496 252.481 341.68 252.315 341.86 252.144C342.464 251.569 341.015 252.702 341.712 252.247C342.217 251.915 342.748 251.626 343.3 251.381L342.265 251.818C343.19 251.438 344.16 251.178 345.151 251.044L343.999 251.199C345.241 251.056 346.495 251.071 347.733 251.243L346.58 251.088C348.148 251.326 349.679 251.756 351.14 252.371L350.105 251.934C353.22 253.271 355.978 255.256 358.731 257.202C361.39 259.128 364.192 260.848 367.113 262.348C373.395 265.471 380.158 267.517 387.118 268.4C397.1 269.622 407.23 268.319 416.577 264.609C425.924 260.898 434.19 254.9 440.616 247.165C441.4 246.333 441.852 245.243 441.885 244.101C441.877 242.953 441.422 241.854 440.616 241.037C439.026 239.577 436.023 239.165 434.487 241.037C433.032 242.813 431.468 244.497 429.803 246.079C429.026 246.816 428.228 247.531 427.41 248.222C426.942 248.617 426.468 249.005 425.988 249.384C425.76 249.564 425.052 250.042 426.14 249.27C425.89 249.447 425.651 249.64 425.405 249.822C421.766 252.504 417.823 254.747 413.657 256.504L414.692 256.067C410.222 257.942 405.527 259.228 400.726 259.893L401.878 259.739C396.938 260.388 391.935 260.381 386.997 259.717L388.149 259.871C383.212 259.193 378.385 257.879 373.786 255.96L374.821 256.396C370.384 254.433 366.173 251.994 362.262 249.122C360.226 247.614 358.08 246.264 355.84 245.08C353.232 243.748 350.407 242.89 347.498 242.545C342.044 241.903 336.486 244.027 333.488 248.739C330.729 253.075 330.764 259.28 334.628 262.967C338.608 266.764 344.635 266.732 349.326 264.357C353.843 262.069 356.556 257.316 358.464 252.835C362.758 242.749 366.559 232.431 370.101 222.06C373.605 211.8 376.783 201.436 379.634 190.968C379.987 189.671 380.335 188.374 380.678 187.074C381.257 184.885 379.95 182.267 377.651 181.744C376.544 181.459 375.369 181.615 374.374 182.18C373.38 182.744 372.643 183.673 372.321 184.77Z" fill="#424242"/>
<path d="M415.559 183.568L413.999 238.915L412.448 293.975L411.57 325.108C411.58 326.254 412.04 327.351 412.85 328.161C413.661 328.972 414.758 329.432 415.904 329.441C417.046 329.419 418.136 328.956 418.944 328.148C419.752 327.34 420.216 326.25 420.238 325.108L421.797 269.76L423.349 214.701L424.227 183.568C424.217 182.421 423.757 181.325 422.947 180.514C422.136 179.704 421.039 179.244 419.893 179.234C418.751 179.256 417.661 179.72 416.853 180.528C416.045 181.336 415.581 182.425 415.559 183.568Z" fill="#424242"/>
<path opacity="0.2" d="M265.559 309.655H266.905V248.386H298.297V247.044H266.905V221.191H291.148C290.792 220.739 290.427 220.293 290.051 219.852H266.905V202.777C266.46 202.588 266.011 202.405 265.559 202.232V219.852H239.181V197.975C238.729 197.995 238.284 198.026 237.835 198.064V219.853H216.791V203.529C216.339 203.73 215.894 203.94 215.452 204.161V219.852H197.762V221.191H215.452V247.044H197.762V248.386H215.452V309.655H216.791V248.386C219.555 248.385 222.291 248.929 224.845 249.987C227.398 251.044 229.718 252.594 231.673 254.548C233.627 256.502 235.177 258.822 236.234 261.375C237.292 263.929 237.836 266.665 237.835 269.429V309.655H239.181V248.386H265.559V309.655ZM216.791 247.044V221.191H237.835V247.044H216.791ZM239.181 247.044V221.191H239.709C243.104 221.191 246.465 221.86 249.602 223.16C252.738 224.459 255.588 226.363 257.989 228.764C260.389 231.165 262.293 234.014 263.592 237.151C264.891 240.287 265.56 243.649 265.559 247.044H239.181Z" fill="black"/>
<path d="M257.344 291.283C255.65 298.84 251.592 305.66 245.759 310.755C245.331 311.125 244.904 311.483 244.459 311.835C243.378 311.933 242.305 312.034 241.24 312.136C240.356 312.217 239.484 312.303 238.617 312.384L238.461 312.401L238.351 311.454L237.912 307.617C236.209 304.836 235.153 301.708 234.823 298.463C234.492 295.218 234.897 291.941 236.005 288.874C237.531 284.76 240.293 281.126 243.009 277.521C246.759 272.54 250.405 267.617 250.537 261.545C252.383 263.906 253.917 266.495 255.102 269.247C253.984 269.773 252.979 270.513 252.144 271.425C251.907 271.685 251.67 272.049 251.832 272.361C251.97 272.627 252.317 272.69 252.618 272.725C253.34 272.8 254.068 272.875 254.79 272.95C255.368 273.014 255.946 273.072 256.524 273.135C257.223 275.43 257.697 277.786 257.939 280.173C258.329 283.884 258.128 287.634 257.344 291.283Z" fill="#424242"/>
<path d="M276.524 276.14C273.115 278.619 271.122 282.184 269.573 286.113C267.986 286.621 266.558 287.532 265.43 288.759C265.193 289.019 264.956 289.383 265.118 289.695C265.257 289.961 265.604 290.024 265.904 290.059C266.626 290.134 267.354 290.209 268.077 290.284C266.528 294.93 265.107 299.737 262.368 303.66C260.546 306.25 258.172 308.403 255.417 309.964C254.665 310.392 253.89 310.776 253.094 311.113C250.159 311.339 247.279 311.579 244.455 311.836C243.375 311.934 242.302 312.034 241.237 312.136C240.353 312.217 239.48 312.304 238.614 312.384C238.608 312.067 238.608 311.749 238.614 311.431C238.796 302.966 241.911 294.826 247.425 288.401C247.685 288.1 247.951 287.806 248.223 287.511C251.017 284.527 254.302 282.045 257.936 280.173C263.662 277.196 270.08 275.804 276.524 276.14Z" fill="#F1C8CF"/>
<path d="M242.238 309.172L241.574 311.136L241.239 312.136C240.355 312.217 239.482 312.303 238.615 312.384L238.459 312.402C237.5 312.5 236.547 312.598 235.593 312.696C235.345 312.407 235.097 312.113 234.854 311.812C228.823 304.509 225.928 295.116 226.801 285.685C227.675 276.254 232.247 267.552 239.517 261.481C238.754 265.474 239.644 269.299 241.106 273.095C240.95 273.158 240.8 273.222 240.655 273.291C239.537 273.818 238.532 274.558 237.697 275.47C237.46 275.73 237.223 276.094 237.385 276.406C237.523 276.671 237.87 276.735 238.171 276.77C238.893 276.845 239.621 276.92 240.343 276.995C240.921 277.058 241.499 277.116 242.077 277.18C242.348 277.209 242.62 277.238 242.891 277.266C242.932 277.353 242.966 277.434 243.007 277.521C244.654 281.091 246.428 284.679 247.427 288.4C247.678 289.334 247.875 290.281 248.017 291.237C248.462 294.469 248.173 297.759 247.173 300.863C246.173 303.968 244.486 306.808 242.238 309.172Z" fill="#F1C8CF"/>
<path d="M300.401 225.37C295.427 215.668 287.72 207.505 278.657 201.506C269.564 195.515 259.13 191.867 248.285 190.886C246.864 190.757 245.438 190.681 244.01 190.659C242.322 190.634 216.93 197.958 208.424 203.938C199.922 209.845 192.929 217.668 188.008 226.776C183.095 235.933 180.679 246.222 181.001 256.609C181.422 267.058 184.335 277.255 189.497 286.351C194.588 295.417 201.817 303.102 210.555 308.738C219.417 314.392 228.32 329.385 238.784 329.914C249.327 330.448 261.35 316.305 270.965 312.01C280.581 307.68 288.894 300.906 295.075 292.363C301.082 283.99 304.968 274.286 306.4 264.082C307.887 253.633 307.194 242.858 303.626 232.872C302.71 230.306 301.633 227.8 300.401 225.37C299.373 223.345 296.359 222.599 294.472 223.816C293.5 224.414 292.796 225.364 292.507 226.469C292.217 227.573 292.364 228.746 292.917 229.745C293.521 230.934 294.083 232.143 294.602 233.372L294.165 232.337C296.13 237.06 297.466 242.021 298.138 247.092L297.984 245.94C298.699 251.442 298.687 257.014 297.945 262.512L298.1 261.36C297.351 266.858 295.884 272.234 293.735 277.35L294.172 276.315C293.067 278.925 291.778 281.454 290.317 283.883C289.576 285.11 288.79 286.308 287.959 287.478C287.594 287.991 287.218 288.495 286.839 288.998C286.344 289.654 287.513 288.141 287.002 288.785C286.915 288.894 286.828 289.004 286.741 289.113C286.478 289.441 286.212 289.767 285.942 290.089C284.141 292.238 282.175 294.244 280.062 296.088C279.536 296.547 279.001 296.996 278.457 297.435C278.186 297.654 277.919 297.881 277.636 298.085C277.647 298.077 278.549 297.392 278.015 297.79C277.847 297.915 277.681 298.042 277.512 298.166C276.391 298.997 275.241 299.785 274.06 300.53C271.343 302.242 268.491 303.733 265.534 304.987L266.569 304.55C261.469 306.697 256.107 308.164 250.624 308.913L251.776 308.758C246.295 309.499 240.74 309.509 235.256 308.788L236.408 308.942C231.425 308.273 226.55 306.956 221.908 305.023L222.943 305.459C220.254 304.324 217.662 302.973 215.191 301.42C213.968 300.65 212.777 299.832 211.618 298.966C211.453 298.843 211.289 298.717 211.124 298.593C210.595 298.194 211.504 298.888 211.511 298.892C211.204 298.672 210.908 298.436 210.624 298.185C210.064 297.729 209.513 297.262 208.971 296.785C206.801 294.874 204.774 292.806 202.908 290.598C202.441 290.045 201.983 289.485 201.536 288.916C201.342 288.67 200.989 288.17 201.77 289.222C201.667 289.083 201.56 288.948 201.457 288.81C201.208 288.48 200.962 288.147 200.72 287.812C199.871 286.638 199.064 285.435 198.3 284.203C196.572 281.415 195.064 278.496 193.79 275.474L194.227 276.509C192.141 271.548 190.715 266.335 189.985 261.003L190.14 262.155C189.481 257.24 189.472 252.26 190.112 247.343L189.957 248.495C190.613 243.733 191.895 239.078 193.768 234.652L193.331 235.687C194.509 232.915 195.899 230.239 197.488 227.681C198.284 226.401 199.127 225.152 200.018 223.934C200.22 223.657 200.425 223.382 200.632 223.109C200.819 222.862 201.334 222.246 200.455 223.333C200.541 223.227 200.624 223.117 200.709 223.01C201.198 222.39 201.699 221.781 202.211 221.181C204.151 218.91 206.253 216.782 208.5 214.813C209.068 214.316 209.644 213.829 210.23 213.352C210.496 213.136 210.764 212.921 211.034 212.709C211.142 212.624 211.251 212.541 211.358 212.456C210.204 213.374 211.038 212.706 211.3 212.509C212.507 211.605 213.746 210.746 215.018 209.932C217.845 208.124 220.819 206.557 223.909 205.247L222.874 205.684C227.357 203.801 247.223 199.358 250.836 199.843L249.684 199.688C254.995 200.429 260.186 201.863 265.124 203.953L264.088 203.517C266.591 204.579 269.023 205.8 271.369 207.173C272.541 207.861 273.691 208.585 274.817 209.347C275.35 209.708 275.877 210.077 276.399 210.454C276.66 210.642 276.919 210.833 277.177 211.025C277.32 211.132 277.463 211.24 277.606 211.348C278.206 211.798 276.778 210.696 277.408 211.194C279.515 212.849 281.515 214.634 283.399 216.54C284.323 217.482 285.217 218.453 286.078 219.455C286.52 219.969 286.952 220.49 287.376 221.019C287.586 221.282 288.303 222.233 287.425 221.068C287.639 221.353 287.857 221.636 288.069 221.923C289.894 224.394 291.516 227.01 292.917 229.745C293.954 231.766 296.954 232.519 298.847 231.299C299.819 230.701 300.523 229.751 300.813 228.647C301.103 227.542 300.955 226.369 300.401 225.37Z" fill="#424242"/>
<path d="M249.904 296.089C249.457 296.109 249.014 295.992 248.635 295.753C248.257 295.513 247.961 295.163 247.789 294.75C247.616 294.337 247.574 293.88 247.669 293.443C247.765 293.005 247.992 292.608 248.321 292.304C248.376 292.085 248.416 291.928 248.471 291.709C248.451 291.661 248.431 291.613 248.411 291.566C246.4 286.772 233.57 300.136 233.015 304.642C232.771 306.634 232.874 308.653 233.32 310.609C229.164 301.544 227.006 291.691 226.992 281.718C226.991 279.216 227.13 276.715 227.408 274.228C227.638 272.19 227.957 270.165 228.366 268.156C230.593 257.251 235.376 247.03 242.321 238.333C246.293 238.554 249.773 237.949 250.11 230.252C250.169 228.883 251.185 227.697 251.409 226.349C251.03 226.398 250.644 226.429 250.265 226.454C250.147 226.46 250.023 226.467 249.904 226.473L249.86 226.475C249.443 226.493 249.03 226.391 248.67 226.181C248.31 225.97 248.018 225.66 247.831 225.287C247.643 224.915 247.567 224.496 247.611 224.081C247.656 223.666 247.82 223.274 248.083 222.95C248.246 222.748 248.41 222.547 248.574 222.346C248.823 222.035 249.078 221.73 249.326 221.419C249.355 221.39 249.382 221.359 249.407 221.326C249.693 220.972 249.979 220.624 250.265 220.269C249.743 219.459 249.041 218.781 248.214 218.287C245.348 216.608 241.395 217.771 239.325 220.363C237.248 222.955 236.857 226.591 237.578 229.829C238.287 232.585 239.46 235.2 241.046 237.562C240.891 237.761 240.729 237.953 240.574 238.152C237.733 241.805 235.257 245.727 233.182 249.863C233.769 245.276 226.588 228.711 223.811 225.203C220.475 220.988 213.635 222.828 213.047 228.17C213.041 228.222 213.036 228.273 213.03 228.325C213.443 228.558 213.847 228.805 214.242 229.066C214.738 229.398 215.123 229.871 215.345 230.425C215.567 230.979 215.617 231.587 215.488 232.17C215.359 232.753 215.057 233.283 214.621 233.691C214.186 234.099 213.637 234.366 213.047 234.457L212.987 234.466C207.465 242.349 225.166 262.867 229.596 258.26C227.511 264.17 226.203 270.325 225.705 276.572C225.423 280.257 225.44 283.959 225.755 287.642L225.736 287.511C224.752 279.491 207.863 267.565 202.932 268.558C200.091 269.131 197.293 269 197.724 271.866C197.731 271.912 197.738 271.957 197.745 272.003C198.51 272.315 199.256 272.674 199.976 273.079C200.389 273.311 200.793 273.558 201.188 273.819C201.684 274.151 202.069 274.625 202.291 275.179C202.514 275.733 202.563 276.341 202.434 276.923C202.305 277.506 202.003 278.036 201.568 278.444C201.132 278.852 200.583 279.119 199.993 279.21L199.933 279.22C199.889 279.226 199.852 279.232 199.809 279.238C197.295 287.886 215.934 301.841 227.265 297.401H227.271C228.394 302.28 230.021 307.03 232.126 311.573H249.469C249.531 311.38 249.587 311.181 249.643 310.988C248.038 311.089 246.426 310.993 244.844 310.703C246.131 309.124 247.418 307.532 248.705 305.954C248.733 305.924 248.76 305.893 248.785 305.86C249.438 305.052 250.097 304.251 250.75 303.443L250.75 303.442C250.785 300.965 250.501 298.494 249.904 296.089L249.904 296.089ZM230.044 257.023L230.053 257.011L230.044 257.036V257.023ZM226.202 291.651L226.053 291.316C226.059 291.073 226.059 290.831 226.053 290.582C226.053 290.514 226.041 290.445 226.041 290.377C226.097 290.806 226.146 291.235 226.208 291.664L226.202 291.651Z" fill="#424242"/>
<path d="M55.0357 260.002C58.546 260.002 61.3917 257.157 61.3917 253.647C61.3917 250.137 58.546 247.291 55.0357 247.291C51.5254 247.291 48.6797 250.137 48.6797 253.647C48.6797 257.157 51.5254 260.002 55.0357 260.002Z" fill="#424242"/>
<path d="M131.309 329.336C134.819 329.336 137.665 326.491 137.665 322.981C137.665 319.471 134.819 316.625 131.309 316.625C127.799 316.625 124.953 319.471 124.953 322.981C124.953 326.491 127.799 329.336 131.309 329.336Z" fill="#424242"/>
<path d="M420.797 329.336C424.308 329.336 427.153 326.491 427.153 322.981C427.153 319.471 424.308 316.625 420.797 316.625C417.287 316.625 414.441 319.471 414.441 322.981C414.441 326.491 417.287 329.336 420.797 329.336Z" fill="#424242"/>
<path d="M436.395 248.447C439.905 248.447 442.751 245.601 442.751 242.091C442.751 238.581 439.905 235.735 436.395 235.735C432.885 235.735 430.039 238.581 430.039 242.091C430.039 245.601 432.885 248.447 436.395 248.447Z" fill="#424242"/>
<path d="M417.907 189.513C421.417 189.513 424.263 186.667 424.263 183.157C424.263 179.647 421.417 176.802 417.907 176.802C414.396 176.802 411.551 179.647 411.551 183.157C411.551 186.667 414.396 189.513 417.907 189.513Z" fill="#424242"/>
<path d="M152.688 242.091C152.684 243.715 152.057 245.274 150.935 246.448C149.813 247.621 148.282 248.319 146.661 248.395C145.039 248.472 143.45 247.922 142.222 246.86C140.994 245.798 140.222 244.304 140.065 242.688C139.908 241.072 140.378 239.458 141.378 238.179C142.378 236.9 143.832 236.055 145.438 235.818C147.044 235.581 148.68 235.97 150.007 236.906C151.334 237.841 152.25 239.251 152.567 240.843C152.648 241.254 152.689 241.672 152.688 242.091Z" fill="#424242"/>
<path d="M279.809 208.002C283.319 208.002 286.165 205.157 286.165 201.647C286.165 198.137 283.319 195.291 279.809 195.291C276.299 195.291 273.453 198.137 273.453 201.647C273.453 205.157 276.299 208.002 279.809 208.002Z" fill="#424242"/>
<path d="M216.825 201.647C216.821 203.27 216.193 204.83 215.071 206.003C213.949 207.177 212.419 207.874 210.797 207.951C209.176 208.028 207.587 207.478 206.359 206.416C205.131 205.353 204.359 203.86 204.202 202.244C204.044 200.628 204.515 199.014 205.515 197.735C206.515 196.456 207.968 195.611 209.575 195.373C211.181 195.136 212.817 195.526 214.144 196.461C215.471 197.397 216.387 198.806 216.704 200.399C216.785 200.81 216.826 201.228 216.825 201.647Z" fill="#424242"/>
<path d="M134.774 183.157C134.77 184.781 134.143 186.341 133.021 187.514C131.899 188.688 130.368 189.385 128.747 189.462C127.125 189.538 125.536 188.989 124.308 187.926C123.08 186.864 122.308 185.371 122.151 183.755C121.994 182.139 122.464 180.524 123.464 179.246C124.464 177.967 125.918 177.121 127.524 176.884C129.13 176.647 130.766 177.037 132.093 177.972C133.42 178.907 134.336 180.317 134.653 181.909C134.734 182.32 134.775 182.738 134.774 183.157Z" fill="#424242"/>
<path d="M346.258 262.314C349.769 262.314 352.614 259.468 352.614 255.958C352.614 252.448 349.769 249.603 346.258 249.603C342.748 249.603 339.902 252.448 339.902 255.958C339.902 259.468 342.748 262.314 346.258 262.314Z" fill="#424242"/>
<path d="M246.296 204.535C251.402 204.535 255.541 200.396 255.541 195.29C255.541 190.185 251.402 186.046 246.296 186.046C241.19 186.046 237.051 190.185 237.051 195.29C237.051 200.396 241.19 204.535 246.296 204.535Z" fill="#424242"/>
<path d="M496.312 329.822L0.687994 330C0.597645 330 0.508178 329.982 0.424706 329.947C0.341234 329.913 0.265395 329.862 0.201508 329.798C0.137622 329.734 0.0869382 329.659 0.0523631 329.575C0.0177879 329.492 0 329.402 0 329.312C0 329.221 0.0177879 329.132 0.0523631 329.049C0.0869382 328.965 0.137622 328.889 0.201508 328.825C0.265395 328.761 0.341234 328.711 0.424706 328.676C0.508178 328.642 0.597645 328.624 0.687994 328.624L496.312 328.446C496.494 328.447 496.669 328.52 496.797 328.648C496.926 328.777 496.998 328.952 496.998 329.134C496.998 329.316 496.926 329.491 496.797 329.62C496.669 329.749 496.494 329.822 496.312 329.822Z" fill="#CACACA"/>
</g>
<defs>
<clipPath id="clip0_2068_23306">
<rect width="497" height="330" fill="white"/>
</clipPath>
</defs>
</svg>
