<svg width="20" height="21" viewBox="0 0 20 21" fill="none" xmlns="http://www.w3.org/2000/svg">
<g id="Social platforms logos" clip-path="url(#clip0_1857_6493)">
<path id="Logo" d="M18.0695 15.797C17.767 16.4958 17.409 17.1389 16.9942 17.7303C16.4288 18.5364 15.9658 19.0944 15.6091 19.4043C15.056 19.9129 14.4634 20.1734 13.8289 20.1882C13.3733 20.1882 12.824 20.0586 12.1845 19.7957C11.5429 19.5339 10.9533 19.4043 10.4142 19.4043C9.84875 19.4043 9.24235 19.5339 8.59372 19.7957C7.94412 20.0586 7.4208 20.1956 7.02069 20.2092C6.41219 20.2351 5.80567 19.9673 5.20025 19.4043C4.81385 19.0673 4.33053 18.4895 3.75153 17.671C3.13032 16.797 2.6196 15.7834 2.21948 14.6279C1.79098 13.3798 1.57617 12.1712 1.57617 11.0011C1.57617 9.66078 1.86579 8.50476 2.4459 7.53603C2.90181 6.7579 3.50833 6.14409 4.26744 5.69349C5.02655 5.24289 5.84678 5.01326 6.73008 4.99857C7.2134 4.99857 7.84721 5.14807 8.63483 5.44189C9.42024 5.7367 9.92455 5.8862 10.1456 5.8862C10.311 5.8862 10.8712 5.71139 11.8209 5.36288C12.719 5.03968 13.477 4.90586 14.098 4.95857C15.7807 5.09437 17.0448 5.75769 17.8855 6.95271C16.3806 7.86453 15.6362 9.14166 15.651 10.78C15.6646 12.0561 16.1276 13.1181 17.0374 13.9613C17.4497 14.3526 17.9102 14.6551 18.4225 14.8699C18.3114 15.1921 18.1942 15.5007 18.0695 15.797ZM14.2103 0.611051C14.2103 1.61128 13.8449 2.54519 13.1165 3.40961C12.2376 4.43723 11.1744 5.03104 10.0215 4.93734C10.0068 4.81734 9.99825 4.69105 9.99825 4.55834C9.99825 3.59812 10.4163 2.5705 11.1586 1.73028C11.5292 1.30486 12.0005 0.951127 12.5721 0.66895C13.1425 0.390983 13.682 0.237262 14.1893 0.210938C14.2042 0.344652 14.2103 0.478376 14.2103 0.611038V0.611051Z" fill="black"/>
</g>
<defs>
<clipPath id="clip0_1857_6493">
<rect width="20" height="20" fill="white" transform="translate(0 0.210938)"/>
</clipPath>
</defs>
</svg>
