<svg width="20" height="21" viewBox="0 0 20 21" fill="none" xmlns="http://www.w3.org/2000/svg">
<g id="Vertical container">
<path id="Vector" d="M20 10.2109C20 4.68809 15.5229 0.210938 10 0.210938C4.47715 0.210938 0 4.68809 0 10.2109C0 15.2021 3.65684 19.3393 8.4375 20.0895V13.1016H5.89844V10.2109H8.4375V8.00781C8.4375 5.50156 9.93047 4.11719 12.2146 4.11719C13.3084 4.11719 14.4531 4.3125 14.4531 4.3125V6.77344H13.1922C11.95 6.77344 11.5625 7.54434 11.5625 8.33594V10.2109H14.3359L13.8926 13.1016H11.5625V20.0895C16.3432 19.3393 20 15.2021 20 10.2109Z" fill="#0A77FF"/>
<path id="Vector_2" d="M13.8926 13.1016L14.3359 10.2109H11.5625V8.33594C11.5625 7.54512 11.95 6.77344 13.1922 6.77344H14.4531V4.3125C14.4531 4.3125 13.3088 4.11719 12.2146 4.11719C9.93047 4.11719 8.4375 5.50156 8.4375 8.00781V10.2109H5.89844V13.1016H8.4375V20.0895C9.47287 20.2514 10.5271 20.2514 11.5625 20.0895V13.1016H13.8926Z" fill="white"/>
</g>
</svg>
