<svg width="20" height="21" viewBox="0 0 20 21" fill="none" xmlns="http://www.w3.org/2000/svg">
<g id="Vertical container">
<path id="Vector" d="M19.8023 10.4402C19.8023 9.7604 19.7472 9.07695 19.6296 8.4082H10.1973V12.259H15.5987C15.3746 13.501 14.6544 14.5996 13.5998 15.2978V17.7964H16.8223C18.7146 16.0547 19.8023 13.4826 19.8023 10.4402Z" fill="#4285F4"/>
<path id="Vector_2" d="M10.198 20.2107C12.895 20.2107 15.1695 19.3252 16.8267 17.7966L13.6042 15.298C12.7076 15.908 11.5502 16.2534 10.2016 16.2534C7.59279 16.2534 5.38077 14.4933 4.58709 12.127H1.26172V14.7027C2.95931 18.0796 6.41697 20.2107 10.198 20.2107Z" fill="#34A853"/>
<path id="Vector_3" d="M4.58271 12.1272C4.16383 10.8852 4.16383 9.5404 4.58271 8.29844V5.72266H1.26102C-0.157318 8.5483 -0.157318 11.8773 1.26102 14.703L4.58271 12.1272Z" fill="#FBBC04"/>
<path id="Vector_4" d="M10.198 4.16899C11.6237 4.14694 13.0016 4.68341 14.0341 5.66816L16.8891 2.81312C15.0813 1.11552 12.6819 0.182216 10.198 0.211611C6.41696 0.211611 2.95931 2.34279 1.26172 5.72328L4.58342 8.29906C5.37342 5.92905 7.58911 4.16899 10.198 4.16899Z" fill="#EA4335"/>
</g>
</svg>
