<svg width="20" height="21" viewBox="0 0 20 21" fill="none" xmlns="http://www.w3.org/2000/svg">
<g id="Button">
<path id="Shape" d="M14.0419 0.210938H5.95811C2.67279 0.210938 0 2.88373 0 6.16905V14.2528C0 17.5381 2.67279 20.2109 5.95811 20.2109H14.0419C17.3272 20.2109 20 17.5381 20 14.2528V6.16905C20 2.88373 17.3272 0.210938 14.0419 0.210938ZM17.988 14.2528C17.988 16.4322 16.2213 18.1989 14.0419 18.1989H5.95811C3.77875 18.1989 2.012 16.4322 2.012 14.2528V6.16905C2.012 3.98965 3.77875 2.22294 5.95811 2.22294H14.0419C16.2213 2.22294 17.988 3.98965 17.988 6.16905V14.2528Z" fill="url(#paint0_linear_1857_6496)"/>
<path id="Shape_2" d="M10.0008 5.03906C7.1486 5.03906 4.82812 7.35954 4.82812 10.2117C4.82812 13.0639 7.1486 15.3844 10.0008 15.3844C12.8531 15.3844 15.1735 13.064 15.1735 10.2117C15.1735 7.3595 12.8531 5.03906 10.0008 5.03906ZM10.0008 13.3725C8.25521 13.3725 6.84012 11.9574 6.84012 10.2118C6.84012 8.46615 8.25525 7.05106 10.0008 7.05106C11.7465 7.05106 13.1615 8.46615 13.1615 10.2118C13.1615 11.9574 11.7464 13.3725 10.0008 13.3725Z" fill="url(#paint1_linear_1857_6496)"/>
<path id="Shape_3" d="M15.1828 6.31679C15.8673 6.31679 16.4223 5.76187 16.4223 5.07734C16.4223 4.39281 15.8673 3.83789 15.1828 3.83789C14.4983 3.83789 13.9434 4.39281 13.9434 5.07734C13.9434 5.76187 14.4983 6.31679 15.1828 6.31679Z" fill="url(#paint2_linear_1857_6496)"/>
</g>
<defs>
<linearGradient id="paint0_linear_1857_6496" x1="10" y1="20.1527" x2="10" y2="0.366273" gradientUnits="userSpaceOnUse">
<stop stop-color="#E09B3D"/>
<stop offset="0.3" stop-color="#C74C4D"/>
<stop offset="0.6" stop-color="#C21975"/>
<stop offset="1" stop-color="#7024C4"/>
</linearGradient>
<linearGradient id="paint1_linear_1857_6496" x1="10.0008" y1="20.1535" x2="10.0008" y2="0.367112" gradientUnits="userSpaceOnUse">
<stop stop-color="#E09B3D"/>
<stop offset="0.3" stop-color="#C74C4D"/>
<stop offset="0.6" stop-color="#C21975"/>
<stop offset="1" stop-color="#7024C4"/>
</linearGradient>
<linearGradient id="paint2_linear_1857_6496" x1="15.1828" y1="20.1529" x2="15.1828" y2="0.366483" gradientUnits="userSpaceOnUse">
<stop stop-color="#E09B3D"/>
<stop offset="0.3" stop-color="#C74C4D"/>
<stop offset="0.6" stop-color="#C21975"/>
<stop offset="1" stop-color="#7024C4"/>
</linearGradient>
</defs>
</svg>
