<svg width="532" height="333" viewBox="0 0 532 333" fill="none" xmlns="http://www.w3.org/2000/svg">
<g clip-path="url(#clip0_2068_23086)">
<path d="M139.038 202.944C194.935 202.944 240.249 157.514 240.249 101.472C240.249 45.4306 194.935 0 139.038 0C83.1415 0 37.8281 45.4306 37.8281 101.472C37.8281 157.514 83.1415 202.944 139.038 202.944Z" fill="#F2F2F2"/>
<path d="M0 24.3643C0 61.2839 23.1017 91.1587 51.6509 91.1587L0 24.3643Z" fill="#424242"/>
<path d="M51.6523 91.1582C51.6523 53.8238 77.4325 23.6133 109.292 23.6133L51.6523 91.1582Z" fill="#F1C8CF"/>
<path d="M18.7148 27.7109C18.7148 62.7806 33.4463 91.1586 51.6516 91.1586L18.7148 27.7109Z" fill="#F1C8CF"/>
<path d="M51.6523 91.158C51.6523 43.4529 81.4501 4.85059 118.274 4.85059L51.6523 91.158Z" fill="#424242"/>
<path d="M40.7852 91.6294C40.7852 91.6294 48.1101 91.4032 50.3177 89.8272C52.5252 88.2512 61.5853 86.3693 62.1329 88.8969C62.6805 91.4245 73.1409 101.468 64.8711 101.535C56.6013 101.602 45.6557 100.243 43.4524 98.8979C41.2491 97.5523 40.7852 91.6294 40.7852 91.6294Z" fill="#A8A8A8"/>
<path opacity="0.2" d="M65.0187 100.655C56.7489 100.722 45.8033 99.3639 43.6 98.0183C41.9221 96.9936 41.2534 93.3165 41.0297 91.6201C40.8748 91.6268 40.7852 91.6297 40.7852 91.6297C40.7852 91.6297 41.2491 97.5526 43.4524 98.8982C45.6557 100.244 56.6013 101.602 64.8711 101.535C67.2583 101.516 68.0828 100.664 68.0376 99.4032C67.7059 100.165 66.7955 100.641 65.0187 100.655Z" fill="black"/>
<path d="M94.3716 214.349C143.445 214.349 183.228 208.923 183.228 202.23C183.228 195.536 143.445 190.11 94.3716 190.11C45.2978 190.11 5.51562 195.536 5.51562 202.23C5.51562 208.923 45.2978 214.349 94.3716 214.349Z" fill="#F6F3F7"/>
<path opacity="0.1" d="M94.3706 212.405C135.572 212.405 168.972 207.849 168.972 202.23C168.972 196.61 135.572 192.055 94.3706 192.055C53.1696 192.055 19.7695 196.61 19.7695 202.23C19.7695 207.849 53.1696 212.405 94.3706 212.405Z" fill="black"/>
<path d="M397.527 333C471.793 333 531.999 324.788 531.999 314.659C531.999 304.529 471.793 296.317 397.527 296.317C323.26 296.317 263.055 304.529 263.055 314.659C263.055 324.788 323.26 333 397.527 333Z" fill="#F6F3F7"/>
<path d="M147.591 318.53C192.203 318.53 228.369 313.598 228.369 307.513C228.369 301.428 192.203 296.495 147.591 296.495C102.978 296.495 66.8125 301.428 66.8125 307.513C66.8125 313.598 102.978 318.53 147.591 318.53Z" fill="#F6F3F7"/>
<path d="M219.816 298.223C262.581 309.18 344.785 283.931 353.813 255.348" stroke="#424242" stroke-width="2" stroke-miterlimit="10"/>
<path d="M147.117 123.387C147.117 123.387 208.889 106.236 212.69 161.498C216.491 216.76 161.847 232.481 204.612 243.438" stroke="#424242" stroke-width="2" stroke-miterlimit="10"/>
<path d="M87.4375 255.959C87.4375 255.959 106.003 250.805 107.146 267.414C108.288 284.023 91.8647 288.748 104.718 292.041" stroke="#424242" stroke-width="2" stroke-miterlimit="10"/>
<path d="M370.015 268.324L366.272 292.285C366.272 292.285 347.844 302.1 360.801 302.388C373.758 302.677 434.8 302.388 434.8 302.388C434.8 302.388 446.605 302.388 427.889 291.996L424.146 266.881L370.015 268.324Z" fill="#424242"/>
<path opacity="0.1" d="M358.194 302.128C361.137 299.503 366.271 296.768 366.271 296.768L370.015 272.808L424.146 272.859L427.889 296.479C432.254 298.903 434.957 300.761 436.539 302.186C438.943 301.636 441.57 299.592 427.889 291.996L424.146 266.881L370.015 268.324L366.271 292.285C366.271 292.285 350.787 300.533 358.194 302.128Z" fill="black"/>
<path d="M510.157 101.324H283.426C278.691 101.324 274.852 105.173 274.852 109.921V263.048C274.852 267.796 278.691 271.645 283.426 271.645H510.157C514.893 271.645 518.732 267.796 518.732 263.048V109.921C518.732 105.173 514.893 101.324 510.157 101.324Z" fill="#424242"/>
<path d="M510.527 110.417H283.059V238.013H510.527V110.417Z" fill="#F6F3F7"/>
<path d="M396.791 107.819C397.586 107.819 398.231 107.173 398.231 106.376C398.231 105.579 397.586 104.933 396.791 104.933C395.996 104.933 395.352 105.579 395.352 106.376C395.352 107.173 395.996 107.819 396.791 107.819Z" fill="#F2F2F2"/>
<path d="M518.732 248.117V263.048C518.732 264.177 518.51 265.295 518.079 266.338C517.649 267.381 517.017 268.329 516.221 269.127C515.424 269.925 514.479 270.558 513.439 270.99C512.398 271.422 511.283 271.645 510.157 271.645H283.426C282.3 271.645 281.185 271.422 280.145 270.99C279.104 270.558 278.159 269.925 277.363 269.127C276.566 268.329 275.935 267.381 275.504 266.338C275.073 265.295 274.851 264.177 274.852 263.048V248.117H518.732Z" fill="#424242"/>
<path d="M460.424 317.978V320.864H305.516V318.555L305.729 317.978L309.547 307.585H457.257L460.424 317.978Z" fill="#424242"/>
<path d="M520.04 315.151C519.758 316.36 518.693 317.636 516.286 318.843C507.648 323.173 490.084 317.688 490.084 317.688C490.084 317.688 476.551 315.379 476.551 309.317C476.931 309.056 477.327 308.82 477.737 308.609C481.369 306.683 493.41 301.93 514.761 308.811C516.334 309.306 517.739 310.229 518.819 311.477C519.685 312.493 520.363 313.781 520.04 315.151Z" fill="#424242"/>
<path opacity="0.1" d="M520.038 315.151C509.465 319.213 500.041 319.516 490.369 312.781C485.491 309.386 481.06 308.546 477.734 308.609C481.366 306.683 493.407 301.93 514.758 308.811C516.331 309.306 517.736 310.229 518.817 311.477C519.682 312.493 520.36 313.781 520.038 315.151Z" fill="black"/>
<path d="M506.782 312.781C508.849 312.781 510.525 312.264 510.525 311.626C510.525 310.989 508.849 310.472 506.782 310.472C504.715 310.472 503.039 310.989 503.039 311.626C503.039 312.264 504.715 312.781 506.782 312.781Z" fill="#F2F2F2"/>
<path d="M396.791 265.438C399.812 265.438 402.262 262.982 402.262 259.953C402.262 256.923 399.812 254.468 396.791 254.468C393.77 254.468 391.32 256.923 391.32 259.953C391.32 262.982 393.77 265.438 396.791 265.438Z" fill="#F2F2F2"/>
<path opacity="0.1" d="M460.424 317.978V320.864H305.516V318.555L305.729 317.978H460.424Z" fill="black"/>
<path d="M150.44 75.7471H51.6055V191.035H150.44V75.7471Z" fill="#424242"/>
<path d="M42.1289 104.783V64.8135H159.92V104.783H42.1289Z" fill="#F6F3F7" stroke="#424242"/>
<path d="M42.1289 153.375V113.405H159.92V153.375H42.1289Z" fill="#F6F3F7" stroke="#424242"/>
<path d="M42.1289 201.968V161.998H159.92V201.968H42.1289Z" fill="#F6F3F7" stroke="#424242"/>
<path opacity="0.4" d="M136.661 71.459H129.059V79.0813H136.661V71.459Z" fill="#F1C8CF"/>
<path opacity="0.8" d="M147.591 71.459H139.988V79.0813H147.591V71.459Z" fill="#F1C8CF"/>
<path d="M158.521 71.459H150.918V79.0813H158.521V71.459Z" fill="#F1C8CF"/>
<path opacity="0.4" d="M136.661 119.575H129.059V127.198H136.661V119.575Z" fill="#F1C8CF"/>
<path opacity="0.8" d="M147.591 119.575H139.988V127.198H147.591V119.575Z" fill="#F1C8CF"/>
<path d="M158.521 119.575H150.918V127.198H158.521V119.575Z" fill="#F1C8CF"/>
<path opacity="0.4" d="M136.661 167.691H129.059V175.314H136.661V167.691Z" fill="#F1C8CF"/>
<path opacity="0.8" d="M147.591 167.691H139.988V175.314H147.591V167.691Z" fill="#F1C8CF"/>
<path d="M158.521 167.691H150.918V175.314H158.521V167.691Z" fill="#F1C8CF"/>
<path d="M150.44 293.935C171.172 293.935 187.979 277.086 187.979 256.3C187.979 235.515 171.172 218.665 150.44 218.665C129.709 218.665 112.902 235.515 112.902 256.3C112.902 277.086 129.709 293.935 150.44 293.935Z" fill="#424242"/>
<path d="M144.74 285.837H133.336V306.322H144.74V285.837Z" fill="#424242"/>
<path d="M167.549 285.837H156.145V306.322H167.549V285.837Z" fill="#424242"/>
<path d="M142.839 310.133C148.088 310.133 152.343 308.534 152.343 306.56C152.343 304.587 148.088 302.987 142.839 302.987C137.591 302.987 133.336 304.587 133.336 306.56C133.336 308.534 137.591 310.133 142.839 310.133Z" fill="#424242"/>
<path d="M165.648 309.657C170.896 309.657 175.151 308.057 175.151 306.084C175.151 304.11 170.896 302.511 165.648 302.511C160.399 302.511 156.145 304.11 156.145 306.084C156.145 308.057 160.399 309.657 165.648 309.657Z" fill="#424242"/>
<path d="M151.392 259.635C158.478 259.635 164.221 253.877 164.221 246.773C164.221 239.669 158.478 233.91 151.392 233.91C144.306 233.91 138.562 239.669 138.562 246.773C138.562 253.877 144.306 259.635 151.392 259.635Z" fill="white"/>
<path d="M151.394 251.06C153.756 251.06 155.67 249.141 155.67 246.773C155.67 244.405 153.756 242.485 151.394 242.485C149.032 242.485 147.117 244.405 147.117 246.773C147.117 249.141 149.032 251.06 151.394 251.06Z" fill="#424242"/>
<path d="M114.028 221.301C110.997 207.691 120.686 193.939 135.669 190.585C150.652 187.231 165.255 195.544 168.286 209.154C171.317 222.763 161.387 227.783 146.404 231.137C131.421 234.491 117.059 234.91 114.028 221.301Z" fill="#F1C8CF"/>
<path d="M185.65 248.794C195.179 244.705 201.867 238.959 200.586 235.959C199.306 232.96 190.543 233.843 181.013 237.933C171.483 242.022 164.796 247.768 166.076 250.768C167.357 253.767 176.12 252.884 185.65 248.794Z" fill="#424242"/>
<path d="M115.326 274.043C124.855 269.954 131.543 264.208 130.262 261.208C128.982 258.209 120.218 259.092 110.689 263.182C101.159 267.271 94.4716 273.017 95.752 276.017C97.0325 279.016 105.796 278.133 115.326 274.043Z" fill="#424242"/>
<path d="M172.299 267.257C172.299 270.941 162.839 278.215 152.342 278.215C141.845 278.215 131.91 271.417 131.91 267.734C131.91 264.05 141.845 264.875 152.342 264.875C162.839 264.875 172.299 263.574 172.299 267.257Z" fill="white"/>
<path d="M372.752 163.088H352.016V174.032C352.912 172.923 354.192 172.027 355.856 171.344C357.52 170.619 359.291 170.256 361.168 170.256C364.581 170.256 367.376 171.003 369.552 172.496C371.728 173.989 373.307 175.909 374.288 178.256C375.269 180.56 375.76 183.035 375.76 185.68C375.76 190.587 374.352 194.533 371.536 197.52C368.763 200.507 364.795 202 359.632 202C354.768 202 350.885 200.784 347.984 198.352C345.083 195.92 343.44 192.741 343.056 188.816H351.76C352.144 190.523 352.997 191.888 354.32 192.912C355.685 193.936 357.413 194.448 359.504 194.448C362.021 194.448 363.92 193.659 365.2 192.08C366.48 190.501 367.12 188.411 367.12 185.808C367.12 183.163 366.459 181.157 365.136 179.792C363.856 178.384 361.957 177.68 359.44 177.68C357.648 177.68 356.155 178.128 354.96 179.024C353.765 179.92 352.912 181.115 352.4 182.608H343.824V155.216H372.752V163.088ZM382.58 178.064C382.58 170.683 383.902 164.901 386.548 160.72C389.236 156.539 393.673 154.448 399.86 154.448C406.046 154.448 410.462 156.539 413.108 160.72C415.796 164.901 417.14 170.683 417.14 178.064C417.14 185.488 415.796 191.312 413.108 195.536C410.462 199.76 406.046 201.872 399.86 201.872C393.673 201.872 389.236 199.76 386.548 195.536C383.902 191.312 382.58 185.488 382.58 178.064ZM408.308 178.064C408.308 174.907 408.094 172.261 407.668 170.128C407.284 167.952 406.473 166.181 405.236 164.816C404.041 163.451 402.249 162.768 399.86 162.768C397.47 162.768 395.657 163.451 394.42 164.816C393.225 166.181 392.414 167.952 391.988 170.128C391.604 172.261 391.412 174.907 391.412 178.064C391.412 181.307 391.604 184.037 391.988 186.256C392.372 188.432 393.182 190.203 394.42 191.568C395.657 192.891 397.47 193.552 399.86 193.552C402.249 193.552 404.062 192.891 405.3 191.568C406.537 190.203 407.348 188.432 407.732 186.256C408.116 184.037 408.308 181.307 408.308 178.064ZM423.955 178.064C423.955 170.683 425.277 164.901 427.923 160.72C430.611 156.539 435.048 154.448 441.235 154.448C447.421 154.448 451.837 156.539 454.483 160.72C457.171 164.901 458.515 170.683 458.515 178.064C458.515 185.488 457.171 191.312 454.483 195.536C451.837 199.76 447.421 201.872 441.235 201.872C435.048 201.872 430.611 199.76 427.923 195.536C425.277 191.312 423.955 185.488 423.955 178.064ZM449.683 178.064C449.683 174.907 449.469 172.261 449.043 170.128C448.659 167.952 447.848 166.181 446.611 164.816C445.416 163.451 443.624 162.768 441.235 162.768C438.845 162.768 437.032 163.451 435.795 164.816C434.6 166.181 433.789 167.952 433.363 170.128C432.979 172.261 432.787 174.907 432.787 178.064C432.787 181.307 432.979 184.037 433.363 186.256C433.747 188.432 434.557 190.203 435.795 191.568C437.032 192.891 438.845 193.552 441.235 193.552C443.624 193.552 445.437 192.891 446.675 191.568C447.912 190.203 448.723 188.432 449.107 186.256C449.491 184.037 449.683 181.307 449.683 178.064Z" fill="#424242"/>
</g>
<defs>
<clipPath id="clip0_2068_23086">
<rect width="532" height="333" fill="white"/>
</clipPath>
</defs>
</svg>
