 <svg
          xmlns="http://www.w3.org/2000/svg"
          width="89"
          height="25"
          viewBox="0 0 89 25"
          fill="none"
        >
          <path
            fillRule="evenodd"
            clipRule="evenodd"
            d="M25.3523 1.51257H27.2542C28.8362 1.51257 29.767 2.4838 29.767 4.1577C29.767 5.83528 28.8362 6.82123 27.2542 6.82123H25.3523V1.51257ZM26.1763 2.2226V6.10753H27.177C28.3027 6.10753 28.9281 5.41956 28.9281 4.16506C28.9281 2.91423 28.3027 2.2226 27.177 2.2226H26.1763ZM32.7022 6.86906C31.547 6.86906 30.8113 6.08177 30.8113 4.82358C30.8113 3.56908 31.5507 2.77443 32.7022 2.77443C33.8537 2.77443 34.5895 3.5654 34.5895 4.82358C34.5895 6.08177 33.8574 6.86906 32.7022 6.86906ZM32.7022 6.20685C33.3791 6.20685 33.7801 5.69548 33.7801 4.82358C33.7801 3.95168 33.3791 3.43663 32.7022 3.43663C32.0253 3.43663 31.6206 3.95536 31.6206 4.82358C31.6206 5.69548 32.0253 6.20685 32.7022 6.20685ZM40.9829 2.82594L39.8829 6.82123H39.0589L38.209 3.81188H38.1906L37.3481 6.82123H36.5278L35.4241 2.82594H36.2187L36.9619 5.98979H36.9766L37.8228 2.82594H38.588L39.4378 5.98979H39.4525L40.1957 2.82594H40.9829ZM42.0088 6.82123V2.82594H42.7703V3.49918H42.785C43.0279 3.02827 43.4289 2.78179 44.0469 2.78179C44.9299 2.78179 45.4339 3.34099 45.4339 4.26071V6.82123H44.6356V4.41155C44.6356 3.80452 44.3559 3.46607 43.771 3.46607C43.1677 3.46607 42.8071 3.88546 42.8071 4.51455V6.82123H42.0088ZM46.7872 6.82123V1.27344H47.5855V6.82123H46.7872ZM50.6679 6.86906C49.5128 6.86906 48.777 6.08177 48.777 4.82358C48.777 3.56908 49.5164 2.77443 50.6679 2.77443C51.8195 2.77443 52.5553 3.5654 52.5553 4.82358C52.5553 6.08177 51.8231 6.86906 50.6679 6.86906ZM50.6679 6.20685C51.3449 6.20685 51.7459 5.69548 51.7459 4.82358C51.7459 3.95168 51.3449 3.43663 50.6679 3.43663C49.991 3.43663 49.5864 3.95536 49.5864 4.82358C49.5864 5.69548 49.991 6.20685 50.6679 6.20685ZM55.1042 6.22525C55.6965 6.22525 56.1453 5.84632 56.1453 5.32024V5.00753L55.1741 5.07375C54.6296 5.10686 54.3463 5.3092 54.3463 5.66237C54.3463 6.00451 54.6443 6.22525 55.1042 6.22525ZM54.8908 6.8617C54.0925 6.8617 53.5407 6.3908 53.5407 5.67709C53.5407 4.9781 54.0815 4.57341 55.0674 4.51087L56.1453 4.44833V4.1393C56.1453 3.68312 55.84 3.43295 55.3065 3.43295C54.8724 3.43295 54.556 3.65737 54.4861 4.00318H53.7394C53.7614 3.29683 54.431 2.77443 55.3286 2.77443C56.3035 2.77443 56.9327 3.28947 56.9327 4.08044V6.82123H56.171V6.15535H56.1527C55.9319 6.58946 55.4353 6.8617 54.8908 6.8617ZM59.7612 6.8617C58.7605 6.8617 58.0762 6.05601 58.0762 4.81991C58.0762 3.59115 58.7605 2.78547 59.7538 2.78547C60.3278 2.78547 60.7839 3.04667 61.012 3.48814H61.0304V1.27344H61.8251V6.82123H61.0525V6.14431H61.0378C60.8023 6.59682 60.3461 6.8617 59.7612 6.8617ZM59.9636 3.46239C59.3197 3.46239 58.893 3.9995 58.893 4.82358C58.893 5.65134 59.3161 6.18477 59.9636 6.18477C60.6037 6.18477 61.0341 5.6403 61.0341 4.82358C61.0341 4.01054 60.6037 3.46239 59.9636 3.46239ZM67.1621 6.86906C66.0069 6.86906 65.2712 6.08177 65.2712 4.82358C65.2712 3.56908 66.0106 2.77443 67.1621 2.77443C68.3136 2.77443 69.0494 3.5654 69.0494 4.82358C69.0494 6.08177 68.3173 6.86906 67.1621 6.86906ZM67.1621 6.20685C67.839 6.20685 68.24 5.69548 68.24 4.82358C68.24 3.95168 67.839 3.43663 67.1621 3.43663C66.4852 3.43663 66.0805 3.95536 66.0805 4.82358C66.0805 5.69548 66.4852 6.20685 67.1621 6.20685ZM70.2114 6.82123V2.82594H70.9729V3.49918H70.9876C71.2305 3.02827 71.6315 2.78179 72.2496 2.78179C73.1325 2.78179 73.6365 3.34099 73.6365 4.26071V6.82123H72.8382V4.41155C72.8382 3.80452 72.5585 3.46607 71.9736 3.46607C71.3703 3.46607 71.0097 3.88546 71.0097 4.51455V6.82123H70.2114ZM77.4542 1.92828H78.2489V2.82594H79.014V3.45503H78.2489V5.68812C78.2489 6.03395 78.4033 6.19581 78.7381 6.19581C78.8228 6.19581 78.9589 6.18477 79.0104 6.17742V6.80652C78.9221 6.82858 78.7345 6.84698 78.5616 6.84698C77.7632 6.84698 77.4542 6.54163 77.4542 5.76906V3.45503H76.9024V2.82594H77.4542V1.92828ZM80.2422 6.82123V1.27344H81.0333V3.49918H81.0516C81.2907 3.02827 81.7028 2.78179 82.3135 2.78179C83.1928 2.78179 83.7188 3.36673 83.7188 4.26807V6.82123H82.9205V4.42258C82.9205 3.8266 82.6225 3.46607 82.0376 3.46607C81.4159 3.46607 81.0406 3.89282 81.0406 4.53295V6.82123H80.2422ZM86.7019 3.4256C86.128 3.4256 85.7123 3.845 85.6681 4.45937H87.6951C87.6768 3.83764 87.2828 3.4256 86.7019 3.4256ZM87.6916 5.65134H88.4527C88.3387 6.36873 87.6368 6.86906 86.7387 6.86906C85.5798 6.86906 84.8588 6.08913 84.8588 4.8383C84.8588 3.58747 85.5872 2.77443 86.7056 2.77443C87.8021 2.77443 88.4936 3.53597 88.4936 4.74633V5.02592H85.6645V5.07375C85.6645 5.76538 86.0986 6.22157 86.7534 6.22157C87.2167 6.22157 87.5811 6.00083 87.6916 5.65134Z"
            fill="#ffffff"
          />
          <path
            fill-rule="evenodd"
            clip-rule="evenodd"
            d="M31.3921 21.939L30.4533 19.1651H26.5414L25.6025 21.939H23.9453L27.6509 11.6756H29.3722L33.0778 21.939H31.3921ZM28.476 13.3826L26.9468 17.8849H30.0478L28.5187 13.3826H28.476ZM38.2092 14.1366C40.1794 14.1366 41.4739 15.68 41.4739 18.0769C41.4739 20.4667 40.1865 22.0173 38.2448 22.0173C37.1353 22.0173 36.2604 21.5265 35.7981 20.673H35.7696V24.4996H34.2262V14.2148H35.7127V15.4951H35.7482C36.1821 14.6629 37.1353 14.1366 38.2092 14.1366ZM37.8181 20.7086C39.0698 20.7086 39.8949 19.6773 39.8949 18.0769C39.8949 16.4837 39.0698 15.4452 37.8181 15.4452C36.5947 15.4452 35.7625 16.505 35.7554 18.0769C35.7625 19.6559 36.5875 20.7086 37.8181 20.7086ZM46.8614 14.1366C48.8315 14.1366 50.126 15.68 50.126 18.0769C50.126 20.4667 48.8387 22.0173 46.8969 22.0173C45.7873 22.0173 44.9125 21.5265 44.4502 20.673H44.4218V24.4996H42.8783V14.2148H44.3648V15.4951H44.4004C44.8343 14.6629 45.7873 14.1366 46.8614 14.1366ZM46.4701 20.7086C47.722 20.7086 48.547 19.6773 48.547 18.0769C48.547 16.4837 47.722 15.4452 46.4701 15.4452C45.2468 15.4452 44.4147 16.505 44.4075 18.0769C44.4147 19.6559 45.2397 20.7086 46.4701 20.7086ZM54.7628 19.0798H56.3347C56.4485 20.0969 57.4372 20.7654 58.7885 20.7654C60.083 20.7654 61.0147 20.0969 61.0147 19.1794C61.0147 18.3827 60.4528 17.9062 59.1228 17.579L57.7927 17.259C55.9079 16.8037 55.0331 15.9218 55.0331 14.4922C55.0331 12.7212 56.5765 11.5049 58.7672 11.5049C60.9366 11.5049 62.423 12.7212 62.4728 14.4922H60.9223C60.8298 13.468 59.9834 12.8492 58.7458 12.8492C57.5082 12.8492 56.6619 13.4751 56.6619 14.3855C56.6619 15.111 57.2024 15.5377 58.5254 15.8649L59.6563 16.1423C61.7616 16.6402 62.6365 17.4865 62.6365 18.9873C62.6365 20.9077 61.1072 22.1098 58.6747 22.1098C56.3987 22.1098 54.8624 20.9362 54.7628 19.0798ZM64.5458 12.4793H66.0822V14.2148H67.5616V15.4311H66.0822V19.7484C66.0822 20.417 66.3809 20.7299 67.0281 20.7299C67.1917 20.7299 67.4548 20.7086 67.5544 20.6944V21.9106C67.3838 21.9533 67.021 21.9888 66.6867 21.9888C65.1433 21.9888 64.5458 21.3985 64.5458 19.9048V15.4311H63.479V14.2148H64.5458V12.4793ZM72.1667 22.0315C69.9333 22.0315 68.5108 20.5094 68.5108 18.0769C68.5108 15.6516 69.9405 14.1152 72.1667 14.1152C74.3928 14.1152 75.8153 15.6444 75.8153 18.0769C75.8153 20.5094 74.4 22.0315 72.1667 22.0315ZM72.1667 20.7513C73.4753 20.7513 74.2506 19.7626 74.2506 18.0769C74.2506 16.3913 73.4753 15.3955 72.1667 15.3955C70.858 15.3955 70.0755 16.3984 70.0755 18.0769C70.0755 19.7626 70.858 20.7513 72.1667 20.7513ZM77.2269 21.939V14.2148H78.6993V15.5164H78.7277C78.9695 14.6558 79.6808 14.1366 80.5912 14.1366C80.8188 14.1366 81.0108 14.1579 81.1317 14.1863V15.6302C81.0037 15.5804 80.7334 15.5377 80.4276 15.5377C79.4105 15.5377 78.7703 16.2419 78.7703 17.3301V21.939H77.2269ZM85.5092 15.3742C84.3997 15.3742 83.5959 16.1849 83.5106 17.3728H87.4298C87.3941 16.1708 86.633 15.3742 85.5092 15.3742ZM87.4228 19.6773H88.8946C88.6745 21.0642 87.3158 22.0315 85.5804 22.0315C83.3399 22.0315 81.9458 20.5236 81.9458 18.1053C81.9458 15.6871 83.3541 14.1152 85.5163 14.1152C87.6359 14.1152 88.9729 15.5875 88.9729 17.9275V18.4681H83.5035V18.5606C83.5035 19.8977 84.3428 20.7797 85.6088 20.7797C86.505 20.7797 87.2088 20.353 87.4228 19.6773Z"
            fill="#ffffff"
          />
          <path
            d="M15.7671 18.9366C14.8857 20.2197 13.9739 21.4951 12.5345 21.5218C11.1178 21.5486 10.6637 20.6864 9.04708 20.6864C7.42878 20.6864 6.92255 21.4951 5.58495 21.5486C4.19527 21.6003 3.13858 20.1626 2.24991 18.8851C0.434389 16.2732 -0.951281 11.5 0.912302 8.2787C1.83514 6.67894 3.48877 5.66676 5.28072 5.64004C6.64547 5.61503 7.9347 6.55606 8.7683 6.55606C9.60316 6.55606 11.168 5.42626 12.8131 5.59197C13.5017 5.62029 15.4344 5.86821 16.6755 7.67639C16.5775 7.74057 14.3687 9.01995 14.3956 11.6853C14.4226 14.8693 17.198 15.9276 17.2302 15.9419C17.2051 16.0168 16.7866 17.4528 15.7671 18.9366ZM9.7232 2.09439C10.4851 1.20555 11.7724 0.544423 12.8348 0.5C12.9705 1.73466 12.4716 2.97101 11.7348 3.86191C10.9964 4.7512 9.78774 5.44396 8.60158 5.35146C8.4404 4.14352 9.03821 2.88376 9.7232 2.09439Z"
            fill="#ffffff"
          />
        </svg>