<svg width="500" height="500" viewBox="0 0 500 500" fill="none" xmlns="http://www.w3.org/2000/svg">
<path d="M158 106.58H75C72.3478 106.58 69.8043 107.634 67.9289 109.509C66.0536 111.384 65 113.928 65 116.58V147.58C65 150.232 66.0536 152.776 67.9289 154.651C69.8043 156.527 72.3478 157.58 75 157.58H157.5L168 171.58V116.58C168 113.928 166.946 111.384 165.071 109.509C163.196 107.634 160.652 106.58 158 106.58Z" fill="#263238"/>
<path d="M83.0703 140.71H80.0703V121.71H83.0703V129.84H86.4503V121.71H89.4503V140.71H86.4503V132.58H83.0703V140.71Z" fill="#E39292"/>
<path d="M91.6602 121.74H94.6602V140.74H91.6602V121.74Z" fill="#E39292"/>
<path d="M100.139 121.74H109.349V124.45H106.229V140.71H103.229V124.45H100.119L100.139 121.74Z" fill="#E39292"/>
<path d="M113.631 140.71H110.631V121.71H113.631V129.84H117.001V121.71H120.001V140.71H117.001V132.58H113.611L113.631 140.71Z" fill="#E39292"/>
<path d="M125.201 129.73H129.291V132.44H125.201V138H130.351V140.71H122.221V121.71H130.351V124.42H125.201V129.73Z" fill="#E39292"/>
<path d="M138.42 140.71C138.176 139.96 138.084 139.167 138.15 138.38V135.38C138.15 133.62 137.56 132.97 136.15 132.97H135.15V140.69H132.15V121.69H136.65C139.74 121.69 141.07 123.13 141.07 126.05V127.54C141.07 129.49 140.44 130.77 139.07 131.39C140.56 132.02 141.07 133.45 141.07 135.39V138.32C141.016 139.102 141.129 139.886 141.4 140.62L138.42 140.71ZM135.17 124.45V130.28H136.34C137.45 130.28 138.13 129.79 138.13 128.28V126.4C138.13 125.05 137.67 124.4 136.61 124.4L135.17 124.45Z" fill="#E39292"/>
<path d="M146.07 129.73H150.16V132.44H146.07V138H151.21V140.71H143.08V121.71H151.21V124.42H146.07V129.73Z" fill="#E39292"/>
<path d="M153.441 136.51L153.061 129.65V121.74H156.061V129.65L155.681 136.51H153.441ZM155.981 137.84V140.71H153.111V137.84H155.981Z" fill="#E39292"/>
<path d="M298 107.58C298 107.58 294.3 106.27 293.46 109.58C292.62 112.89 297.52 114.12 298.12 114.12C298.72 114.12 299.67 113.29 299.07 111.38C298.47 109.47 298 107.58 298 107.58Z" fill="#263238" stroke="#263238" stroke-linecap="round" stroke-linejoin="round"/>
<path d="M319.002 99.46C319.002 99.46 318.642 104.24 318.642 106.15C318.642 108.06 320.642 108.78 321.642 108.78C322.642 108.78 323.082 111.05 322.482 113.44C321.882 115.83 319.852 117.26 314.952 117.26C310.052 117.26 307.072 115.11 306.952 113.56C306.832 112.01 308.022 105.31 310.062 103.56C312.102 101.81 319.002 99.46 319.002 99.46Z" fill="#263238" stroke="#263238" stroke-linecap="round" stroke-linejoin="round"/>
<path d="M301.111 114.15V116C301.112 116.291 301.196 116.576 301.354 116.82C301.512 117.065 301.736 117.259 302.001 117.38C302.86 117.743 303.772 117.963 304.701 118.03C306.574 118.03 308.424 117.621 310.121 116.83C310.356 116.73 310.557 116.562 310.697 116.349C310.838 116.136 310.912 115.885 310.911 115.63V113.7C310.909 113.582 310.878 113.467 310.821 113.364C310.764 113.261 310.683 113.174 310.584 113.109C310.485 113.045 310.372 113.006 310.255 112.996C310.138 112.986 310.02 113.004 309.911 113.05L309.521 113.25C309.521 113.25 303.621 114 301.111 114.15Z" fill="#E39292" stroke="#263238" stroke-linecap="round" stroke-linejoin="round"/>
<path d="M298.49 98.5C297.837 101.127 297.395 103.802 297.17 106.5C296.81 110.92 297.17 114.98 298.96 115.1C300.189 115.102 301.392 114.755 302.43 114.1C302.43 114.1 306.61 114.58 308.04 113.87L309.48 113.15L310.55 106.15C310.55 106.15 310.67 95.28 308.64 94.56C306.61 93.84 298.49 98.5 298.49 98.5Z" fill="white" stroke="#263238" stroke-linecap="round" stroke-linejoin="round"/>
<path d="M301.711 103.4L300.761 105.91C300.761 105.91 298.841 106.39 299.081 107.34C299.321 108.29 300.591 108.15 300.591 108.15" stroke="#263238" stroke-linecap="round" stroke-linejoin="round"/>
<path d="M304.782 104.49C304.592 105.01 304.202 105.35 303.932 105.25C303.662 105.15 303.582 104.64 303.782 104.11C303.982 103.58 304.362 103.24 304.642 103.35C304.922 103.46 305.002 104 304.782 104.49Z" fill="#263238"/>
<path d="M300.28 103.28C300.08 103.81 299.7 104.15 299.42 104.05C299.14 103.95 299.08 103.43 299.27 102.91C299.46 102.39 299.85 102.04 300.13 102.14C300.41 102.24 300.47 102.76 300.28 103.28Z" fill="#263238"/>
<path d="M303.861 101.13C303.861 101.13 306.131 100.53 306.371 102.69" stroke="#263238" stroke-linecap="round" stroke-linejoin="round"/>
<path d="M300.88 100.53C300.88 100.53 298.88 99.8199 298.25 101.53" stroke="#263238" stroke-linecap="round" stroke-linejoin="round"/>
<path d="M302.432 114.15L305.652 112.84" stroke="#263238" stroke-linecap="round" stroke-linejoin="round"/>
<path d="M300 92.9997C300 92.9997 296.18 88.4597 293.31 91.7997C290.44 95.1397 291.31 100.17 296.42 100.41C301.53 100.65 307.29 95.6297 307.29 95.6297C307.29 95.6297 306.69 102.2 308.12 104.47C309.55 106.74 310.63 108.29 310.63 108.29C310.63 108.29 312.63 109.6 316.01 106.98C319.39 104.36 320.19 97.9797 317.8 93.7097C315.41 89.4397 311.23 87.0197 306.21 88.7097C301.19 90.3997 300 92.9997 300 92.9997Z" fill="#263238" stroke="#263238" stroke-linecap="round" stroke-linejoin="round"/>
<path d="M308.281 108.18C308.281 108.18 312.581 104.24 312.581 106.51C312.581 108.78 310.581 110.81 309.001 110.33" fill="white"/>
<path d="M308.281 108.18C308.281 108.18 312.581 104.24 312.581 106.51C312.581 108.78 310.581 110.81 309.001 110.33" stroke="#263238" stroke-linecap="round" stroke-linejoin="round"/>
<path d="M299.08 110C299.645 110.407 300.324 110.626 301.02 110.626C301.716 110.626 302.395 110.407 302.96 110" stroke="#263238" stroke-linecap="round" stroke-linejoin="round"/>
<path d="M321.272 117.551C328.908 109.425 328.511 96.6473 320.385 89.0114C312.259 81.3754 299.482 81.7725 291.846 89.8983C284.21 98.0241 284.607 110.801 292.733 118.437C300.858 126.073 313.636 125.676 321.272 117.551Z" stroke="#263238" stroke-linecap="round" stroke-linejoin="round"/>
<path d="M443.956 267.967C455.432 265.284 462.56 253.805 459.877 242.329C457.193 230.853 445.715 223.725 434.239 226.408C422.762 229.091 415.634 240.57 418.317 252.046C421.001 263.522 432.479 270.651 443.956 267.967Z" stroke="#263238" stroke-linecap="round" stroke-linejoin="round"/>
<path d="M446.382 253.48C446.382 254.884 445.965 256.257 445.185 257.424C444.405 258.592 443.296 259.502 441.999 260.039C440.701 260.577 439.274 260.717 437.897 260.443C436.519 260.169 435.254 259.493 434.261 258.5C433.268 257.507 432.592 256.242 432.318 254.865C432.044 253.488 432.185 252.06 432.722 250.763C433.259 249.465 434.169 248.357 435.337 247.576C436.505 246.796 437.877 246.38 439.282 246.38C441.165 246.38 442.971 247.128 444.302 248.459C445.634 249.791 446.382 251.597 446.382 253.48Z" fill="#E39292" stroke="#263238" stroke-linecap="round" stroke-linejoin="round"/>
<path d="M449.43 258.21C450.962 256.298 451.922 253.993 452.201 251.559C452.479 249.125 452.065 246.662 451.004 244.454C449.944 242.246 448.281 240.382 446.208 239.078C444.135 237.773 441.735 237.081 439.285 237.081C436.836 237.081 434.436 237.773 432.362 239.078C430.289 240.382 428.626 242.246 427.566 244.454C426.506 246.662 426.091 249.125 426.369 251.559C426.648 253.993 427.608 256.298 429.14 258.21H449.43Z" fill="white" stroke="#263238" stroke-linecap="round" stroke-linejoin="round"/>
<path d="M444.35 254.53H433.89C433.279 254.53 432.673 254.409 432.107 254.175C431.542 253.941 431.028 253.598 430.595 253.165C430.163 252.732 429.819 252.219 429.585 251.653C429.351 251.088 429.23 250.482 429.23 249.87C429.229 249.258 429.349 248.651 429.582 248.085C429.816 247.519 430.159 247.005 430.592 246.572C431.025 246.139 431.54 245.796 432.106 245.562C432.672 245.328 433.278 245.209 433.89 245.21H444.35C444.963 245.209 445.569 245.328 446.135 245.562C446.701 245.796 447.216 246.139 447.649 246.572C448.082 247.005 448.425 247.519 448.658 248.085C448.892 248.651 449.012 249.258 449.01 249.87C449.01 251.106 448.52 252.291 447.646 253.165C446.772 254.039 445.586 254.53 444.35 254.53Z" fill="#E39292" stroke="#263238" stroke-linecap="round" stroke-linejoin="round"/>
<path d="M431.371 249.49C431.585 248.89 431.976 248.369 432.492 247.995C433.008 247.62 433.624 247.411 434.261 247.394C434.898 247.376 435.526 247.552 436.061 247.898C436.596 248.243 437.015 248.743 437.261 249.33" stroke="#263238" stroke-width="2" stroke-linecap="round" stroke-linejoin="round"/>
<path d="M441.15 249.49C441.365 248.89 441.755 248.369 442.271 247.995C442.787 247.62 443.404 247.411 444.041 247.394C444.678 247.376 445.305 247.552 445.84 247.898C446.376 248.243 446.794 248.743 447.04 249.33" stroke="#263238" stroke-width="2" stroke-linecap="round" stroke-linejoin="round"/>
<path d="M437.57 251.65C437.617 252.09 437.825 252.497 438.153 252.792C438.482 253.088 438.908 253.251 439.35 253.251C439.792 253.251 440.219 253.088 440.547 252.792C440.876 252.497 441.084 252.09 441.13 251.65H437.57Z" fill="white" stroke="#263238" stroke-linecap="round" stroke-linejoin="round"/>
<path d="M456.09 252.39C455.912 252.39 455.735 252.355 455.57 252.287C455.405 252.218 455.255 252.118 455.129 251.992C455.002 251.865 454.902 251.716 454.834 251.551C454.766 251.386 454.73 251.209 454.73 251.03V247.94C454.73 247.761 454.766 247.585 454.834 247.42C454.902 247.255 455.002 247.105 455.129 246.978C455.255 246.852 455.405 246.752 455.57 246.684C455.735 246.615 455.912 246.58 456.09 246.58C456.269 246.58 456.446 246.615 456.611 246.684C456.776 246.752 456.926 246.852 457.052 246.978C457.178 247.105 457.279 247.255 457.347 247.42C457.415 247.585 457.45 247.761 457.45 247.94V251C457.454 251.181 457.422 251.361 457.356 251.53C457.289 251.698 457.19 251.852 457.063 251.981C456.936 252.111 456.785 252.214 456.618 252.284C456.451 252.354 456.272 252.39 456.09 252.39Z" fill="#263238" stroke="#263238" stroke-linecap="round" stroke-linejoin="round"/>
<path d="M422.11 252.39C421.931 252.39 421.755 252.355 421.59 252.287C421.425 252.218 421.275 252.118 421.148 251.992C421.022 251.865 420.922 251.716 420.854 251.551C420.785 251.386 420.75 251.209 420.75 251.03V247.94C420.75 247.761 420.785 247.585 420.854 247.42C420.922 247.255 421.022 247.105 421.148 246.978C421.275 246.852 421.425 246.752 421.59 246.684C421.755 246.615 421.931 246.58 422.11 246.58C422.289 246.58 422.465 246.615 422.63 246.684C422.795 246.752 422.945 246.852 423.072 246.978C423.198 247.105 423.298 247.255 423.366 247.42C423.435 247.585 423.47 247.761 423.47 247.94V251C423.474 251.181 423.442 251.361 423.375 251.53C423.309 251.698 423.209 251.852 423.082 251.981C422.956 252.111 422.804 252.214 422.637 252.284C422.47 252.354 422.291 252.39 422.11 252.39Z" fill="#263238" stroke="#263238" stroke-linecap="round" stroke-linejoin="round"/>
<path d="M424.621 248.13C424.244 248.128 423.882 247.976 423.616 247.708C423.35 247.44 423.201 247.078 423.201 246.7V244.46C423.197 242.033 423.922 239.661 425.281 237.65C425.379 237.479 425.511 237.33 425.669 237.212C425.827 237.094 426.008 237.01 426.2 236.965C426.392 236.92 426.591 236.916 426.785 236.952C426.979 236.988 427.163 237.063 427.326 237.174C427.49 237.285 427.628 237.428 427.733 237.595C427.839 237.762 427.908 237.948 427.938 238.143C427.967 238.338 427.956 238.537 427.905 238.728C427.854 238.918 427.764 239.096 427.641 239.25C426.601 240.789 426.047 242.604 426.051 244.46V246.7C426.051 247.08 425.901 247.443 425.632 247.711C425.364 247.98 425 248.13 424.621 248.13Z" fill="#263238"/>
<path d="M452.241 239.17C452.124 239.171 452.008 239.142 451.905 239.086C451.802 239.03 451.715 238.949 451.651 238.85C450.734 237.484 449.494 236.364 448.041 235.591C446.588 234.819 444.967 234.416 443.321 234.42H435.381C433.735 234.416 432.114 234.819 430.661 235.591C429.208 236.364 427.968 237.484 427.051 238.85C426.944 239.008 426.778 239.117 426.59 239.152C426.403 239.188 426.209 239.148 426.051 239.04C425.972 238.988 425.904 238.921 425.851 238.842C425.799 238.763 425.763 238.674 425.745 238.581C425.727 238.487 425.728 238.392 425.748 238.299C425.768 238.206 425.807 238.118 425.861 238.04C426.909 236.482 428.325 235.205 429.984 234.322C431.642 233.44 433.492 232.979 435.371 232.98H443.311C445.192 232.979 447.045 233.441 448.705 234.325C450.365 235.21 451.782 236.489 452.831 238.05C452.885 238.129 452.923 238.217 452.942 238.31C452.961 238.403 452.961 238.5 452.943 238.593C452.924 238.686 452.887 238.775 452.833 238.853C452.78 238.932 452.711 238.999 452.631 239.05C452.515 239.127 452.38 239.169 452.241 239.17Z" fill="#263238"/>
<path d="M454.08 248.13C453.701 248.13 453.338 247.98 453.069 247.712C452.801 247.443 452.65 247.08 452.65 246.7V244.46C452.654 242.604 452.1 240.789 451.06 239.25C450.941 239.095 450.855 238.918 450.807 238.728C450.759 238.538 450.751 238.341 450.782 238.148C450.814 237.955 450.885 237.77 450.99 237.605C451.096 237.441 451.235 237.3 451.397 237.191C451.559 237.082 451.743 237.007 451.935 236.972C452.127 236.936 452.325 236.941 452.516 236.985C452.706 237.029 452.886 237.112 453.043 237.228C453.2 237.344 453.332 237.491 453.43 237.66C454.787 239.668 455.508 242.038 455.5 244.46V246.7C455.5 247.078 455.351 247.44 455.085 247.708C454.819 247.976 454.458 248.128 454.08 248.13Z" fill="#263238"/>
<path d="M424.8 254.41C424.053 254.41 423.335 254.113 422.806 253.584C422.278 253.055 421.98 252.338 421.98 251.59V247.11C421.98 246.362 422.278 245.645 422.806 245.116C423.335 244.587 424.053 244.29 424.8 244.29C425.548 244.29 426.266 244.587 426.794 245.116C427.323 245.645 427.62 246.362 427.62 247.11V251.59C427.62 252.338 427.323 253.055 426.794 253.584C426.266 254.113 425.548 254.41 424.8 254.41Z" fill="white" stroke="#263238" stroke-linecap="round" stroke-linejoin="round"/>
<path d="M425.09 244.29H424.51V254.41H425.09V244.29Z" fill="#E39292" stroke="#263238" stroke-linecap="round" stroke-linejoin="round"/>
<path d="M456.38 247.11C456.38 245.553 455.118 244.29 453.56 244.29C452.003 244.29 450.74 245.553 450.74 247.11V251.59C450.74 253.147 452.003 254.41 453.56 254.41C455.118 254.41 456.38 253.147 456.38 251.59V247.11Z" fill="white" stroke="#263238" stroke-linecap="round" stroke-linejoin="round"/>
<path d="M453.852 244.29H453.271V254.41H453.852V244.29Z" fill="#E39292" stroke="#263238" stroke-linecap="round" stroke-linejoin="round"/>
<path d="M439.33 243.37C440.323 243.366 441.3 243.115 442.173 242.641C443.046 242.166 443.787 241.482 444.33 240.65L445.56 238.74C443.61 237.661 441.415 237.103 439.187 237.121C436.958 237.138 434.772 237.73 432.84 238.84L434.68 241.14C435.24 241.834 435.949 242.394 436.753 242.78C437.557 243.166 438.438 243.367 439.33 243.37Z" fill="#E39292" stroke="#263238" stroke-linecap="round" stroke-linejoin="round"/>
<path d="M439.431 255.68C439.547 255.68 439.641 255.586 439.641 255.47C439.641 255.354 439.547 255.26 439.431 255.26C439.315 255.26 439.221 255.354 439.221 255.47C439.221 255.586 439.315 255.68 439.431 255.68Z" fill="#263238"/>
<path d="M439.641 256.2C439.638 256.146 439.615 256.095 439.576 256.058C439.537 256.021 439.485 256 439.431 256C439.404 255.999 439.377 256.003 439.351 256.013C439.326 256.022 439.302 256.036 439.283 256.055C439.263 256.074 439.247 256.096 439.237 256.121C439.226 256.146 439.221 256.173 439.221 256.2C439.221 256.256 439.243 256.309 439.282 256.349C439.322 256.388 439.375 256.41 439.431 256.41C439.486 256.41 439.54 256.388 439.579 256.349C439.619 256.309 439.641 256.256 439.641 256.2Z" fill="#263238"/>
<path d="M438.81 256.09C438.863 256.074 438.907 256.038 438.933 255.989C438.959 255.941 438.965 255.883 438.95 255.83C438.93 255.778 438.891 255.735 438.841 255.709C438.791 255.684 438.734 255.677 438.68 255.69C438.627 255.707 438.583 255.743 438.556 255.792C438.53 255.84 438.524 255.897 438.54 255.95C438.56 256.003 438.599 256.046 438.648 256.071C438.698 256.097 438.755 256.104 438.81 256.09Z" fill="#263238"/>
<path d="M440.12 256.091C440.173 256.074 440.217 256.038 440.243 255.989C440.269 255.941 440.275 255.884 440.26 255.831C440.241 255.777 440.203 255.732 440.153 255.706C440.103 255.68 440.044 255.675 439.99 255.691C439.964 255.698 439.94 255.711 439.919 255.729C439.898 255.747 439.881 255.768 439.869 255.792C439.857 255.817 439.85 255.843 439.848 255.871C439.846 255.898 439.85 255.925 439.86 255.951C439.876 256.003 439.912 256.048 439.961 256.074C440.01 256.1 440.067 256.106 440.12 256.091Z" fill="#263238"/>
<path d="M412.881 138.15H333.311V102.7V93.2998L342.721 102.7H412.881V138.15Z" fill="#D6D6D6" stroke="#263238" stroke-linecap="round" stroke-linejoin="round"/>
<path d="M412.881 189.5H333.311V154.06V144.66L342.721 154.06H412.881V189.5Z" fill="#D6D6D6" stroke="#263238" stroke-linecap="round" stroke-linejoin="round"/>
<path d="M386.441 114.9H405.171" stroke="#263238" stroke-linecap="round" stroke-linejoin="round"/>
<path d="M360.23 114.9H381.63" stroke="#263238" stroke-linecap="round" stroke-linejoin="round"/>
<path d="M344.182 114.9H356.482" stroke="#263238" stroke-linecap="round" stroke-linejoin="round"/>
<path d="M377.881 120.79H405.171" stroke="#263238" stroke-linecap="round" stroke-linejoin="round"/>
<path d="M344.182 120.79H373.072" stroke="#263238" stroke-linecap="round" stroke-linejoin="round"/>
<path d="M399.82 126.67H405.17" stroke="#263238" stroke-linecap="round" stroke-linejoin="round"/>
<path d="M369.861 126.67H395.541" stroke="#263238" stroke-linecap="round" stroke-linejoin="round"/>
<path d="M344.182 126.67H365.582" stroke="#263238" stroke-linecap="round" stroke-linejoin="round"/>
<path d="M386.441 164.65H405.171" stroke="#263238" stroke-linecap="round" stroke-linejoin="round"/>
<path d="M360.23 164.65H381.63" stroke="#263238" stroke-linecap="round" stroke-linejoin="round"/>
<path d="M344.182 164.65H356.482" stroke="#263238" stroke-linecap="round" stroke-linejoin="round"/>
<path d="M377.881 170.54H405.171" stroke="#263238" stroke-linecap="round" stroke-linejoin="round"/>
<path d="M344.182 170.54H373.072" stroke="#263238" stroke-linecap="round" stroke-linejoin="round"/>
<path d="M399.82 176.42H405.17" stroke="#263238" stroke-linecap="round" stroke-linejoin="round"/>
<path d="M369.861 176.42H395.541" stroke="#263238" stroke-linecap="round" stroke-linejoin="round"/>
<path d="M344.182 176.42H365.582" stroke="#263238" stroke-linecap="round" stroke-linejoin="round"/>
<path d="M333.311 333.91H412.881V248.18V238.78L403.471 248.18H333.311V333.91Z" fill="#E39292" stroke="#263238" stroke-linecap="round" stroke-linejoin="round"/>
<path d="M386.441 259.88H405.171" stroke="#263238" stroke-linecap="round" stroke-linejoin="round"/>
<path d="M360.23 259.88H381.63" stroke="#263238" stroke-linecap="round" stroke-linejoin="round"/>
<path d="M344.182 259.88H356.482" stroke="#263238" stroke-linecap="round" stroke-linejoin="round"/>
<path d="M377.881 265.76H405.171" stroke="#263238" stroke-linecap="round" stroke-linejoin="round"/>
<path d="M344.182 265.76H373.072" stroke="#263238" stroke-linecap="round" stroke-linejoin="round"/>
<path d="M399.82 271.65H405.17" stroke="#263238" stroke-linecap="round" stroke-linejoin="round"/>
<path d="M369.861 271.65H395.541" stroke="#263238" stroke-linecap="round" stroke-linejoin="round"/>
<path d="M344.182 271.65H365.582" stroke="#263238" stroke-linecap="round" stroke-linejoin="round"/>
<path d="M386.441 276.46H405.171" stroke="#263238" stroke-linecap="round" stroke-linejoin="round"/>
<path d="M360.23 276.46H381.63" stroke="#263238" stroke-linecap="round" stroke-linejoin="round"/>
<path d="M344.182 276.46H356.482" stroke="#263238" stroke-linecap="round" stroke-linejoin="round"/>
<path d="M377.881 282.35H405.171" stroke="#263238" stroke-linecap="round" stroke-linejoin="round"/>
<path d="M344.182 282.35H373.072" stroke="#263238" stroke-linecap="round" stroke-linejoin="round"/>
<path d="M399.82 288.23H405.17" stroke="#263238" stroke-linecap="round" stroke-linejoin="round"/>
<path d="M369.861 288.23H395.541" stroke="#263238" stroke-linecap="round" stroke-linejoin="round"/>
<path d="M344.182 288.23H365.582" stroke="#263238" stroke-linecap="round" stroke-linejoin="round"/>
<path d="M386.441 293.05H405.171" stroke="#263238" stroke-linecap="round" stroke-linejoin="round"/>
<path d="M360.23 293.05H381.63" stroke="#263238" stroke-linecap="round" stroke-linejoin="round"/>
<path d="M344.182 293.05H356.482" stroke="#263238" stroke-linecap="round" stroke-linejoin="round"/>
<path d="M377.881 298.93H405.171" stroke="#263238" stroke-linecap="round" stroke-linejoin="round"/>
<path d="M344.182 298.93H373.072" stroke="#263238" stroke-linecap="round" stroke-linejoin="round"/>
<path d="M399.82 304.82H405.17" stroke="#263238" stroke-linecap="round" stroke-linejoin="round"/>
<path d="M369.861 304.82H395.541" stroke="#263238" stroke-linecap="round" stroke-linejoin="round"/>
<path d="M344.182 304.82H365.582" stroke="#263238" stroke-linecap="round" stroke-linejoin="round"/>
<path d="M386.441 309.63H405.171" stroke="#263238" stroke-linecap="round" stroke-linejoin="round"/>
<path d="M360.23 309.63H381.63" stroke="#263238" stroke-linecap="round" stroke-linejoin="round"/>
<path d="M344.182 309.63H356.482" stroke="#263238" stroke-linecap="round" stroke-linejoin="round"/>
<path d="M377.881 315.521H405.171" stroke="#263238" stroke-linecap="round" stroke-linejoin="round"/>
<path d="M344.182 315.521H373.072" stroke="#263238" stroke-linecap="round" stroke-linejoin="round"/>
<path d="M399.82 321.4H405.17" stroke="#263238" stroke-linecap="round" stroke-linejoin="round"/>
<path d="M369.861 321.4H395.541" stroke="#263238" stroke-linecap="round" stroke-linejoin="round"/>
<path d="M344.182 321.4H365.582" stroke="#263238" stroke-linecap="round" stroke-linejoin="round"/>
<path d="M439.1 381.58C450.886 381.58 460.44 372.026 460.44 360.24C460.44 348.455 450.886 338.9 439.1 338.9C427.314 338.9 417.76 348.455 417.76 360.24C417.76 372.026 427.314 381.58 439.1 381.58Z" stroke="#263238" stroke-linecap="round" stroke-linejoin="round"/>
<path d="M446.382 366.53C446.384 367.935 445.969 369.309 445.19 370.478C444.411 371.647 443.303 372.558 442.006 373.097C440.708 373.636 439.281 373.778 437.903 373.505C436.525 373.232 435.259 372.557 434.265 371.564C433.271 370.572 432.594 369.307 432.319 367.929C432.044 366.552 432.184 365.124 432.721 363.826C433.258 362.528 434.168 361.418 435.336 360.638C436.504 359.857 437.877 359.44 439.282 359.44C441.163 359.44 442.967 360.187 444.299 361.516C445.63 362.846 446.379 364.649 446.382 366.53Z" fill="#E39292" stroke="#263238" stroke-linecap="round" stroke-linejoin="round"/>
<path d="M449.43 371.26C450.962 369.348 451.922 367.043 452.201 364.609C452.479 362.175 452.065 359.712 451.004 357.504C449.944 355.296 448.281 353.432 446.208 352.127C444.135 350.823 441.735 350.131 439.285 350.131C436.836 350.131 434.436 350.823 432.362 352.127C430.289 353.432 428.626 355.296 427.566 357.504C426.506 359.712 426.091 362.175 426.369 364.609C426.648 367.043 427.608 369.348 429.14 371.26H449.43Z" fill="white" stroke="#263238" stroke-linecap="round" stroke-linejoin="round"/>
<path d="M444.35 367.58H433.89C433.279 367.58 432.673 367.459 432.107 367.225C431.542 366.991 431.028 366.648 430.595 366.215C430.163 365.782 429.819 365.268 429.585 364.703C429.351 364.138 429.23 363.532 429.23 362.92C429.23 362.308 429.351 361.702 429.585 361.136C429.819 360.571 430.163 360.057 430.595 359.625C431.028 359.192 431.542 358.849 432.107 358.614C432.673 358.38 433.279 358.26 433.89 358.26H444.35C444.962 358.26 445.568 358.38 446.134 358.614C446.699 358.849 447.213 359.192 447.646 359.625C448.078 360.057 448.422 360.571 448.656 361.136C448.89 361.702 449.01 362.308 449.01 362.92C449.01 364.156 448.519 365.341 447.646 366.215C446.772 367.089 445.586 367.58 444.35 367.58Z" fill="#E39292" stroke="#263238" stroke-linecap="round" stroke-linejoin="round"/>
<path d="M431.371 362.54C431.585 361.94 431.976 361.419 432.492 361.044C433.008 360.67 433.624 360.461 434.261 360.444C434.898 360.426 435.526 360.602 436.061 360.947C436.596 361.293 437.015 361.792 437.261 362.38" stroke="#263238" stroke-width="2" stroke-linecap="round" stroke-linejoin="round"/>
<path d="M441.15 362.54C441.365 361.94 441.755 361.419 442.271 361.044C442.787 360.67 443.404 360.461 444.041 360.444C444.678 360.426 445.305 360.602 445.84 360.947C446.376 361.293 446.794 361.792 447.04 362.38" stroke="#263238" stroke-width="2" stroke-linecap="round" stroke-linejoin="round"/>
<path d="M437.57 364.7C437.617 365.14 437.825 365.546 438.153 365.842C438.482 366.138 438.908 366.301 439.35 366.301C439.792 366.301 440.219 366.138 440.547 365.842C440.876 365.546 441.084 365.14 441.13 364.7H437.57Z" fill="white" stroke="#263238" stroke-linecap="round" stroke-linejoin="round"/>
<path d="M456.09 365.44C455.73 365.44 455.384 365.296 455.129 365.041C454.874 364.786 454.73 364.44 454.73 364.08V361C454.73 360.639 454.874 360.293 455.129 360.038C455.384 359.783 455.73 359.64 456.09 359.64C456.451 359.64 456.797 359.783 457.052 360.038C457.307 360.293 457.45 360.639 457.45 361V364.09C457.448 364.449 457.303 364.792 457.049 365.045C456.794 365.298 456.449 365.44 456.09 365.44Z" fill="#263238" stroke="#263238" stroke-linecap="round" stroke-linejoin="round"/>
<path d="M422.11 365.44C421.749 365.44 421.403 365.296 421.148 365.041C420.893 364.786 420.75 364.44 420.75 364.08V361C420.75 360.639 420.893 360.293 421.148 360.038C421.403 359.783 421.749 359.64 422.11 359.64C422.471 359.64 422.817 359.783 423.072 360.038C423.327 360.293 423.47 360.639 423.47 361V364.09C423.467 364.449 423.323 364.792 423.068 365.045C422.813 365.298 422.469 365.44 422.11 365.44Z" fill="#263238" stroke="#263238" stroke-linecap="round" stroke-linejoin="round"/>
<path d="M424.621 361.19C424.244 361.187 423.882 361.035 423.616 360.767C423.35 360.499 423.201 360.137 423.201 359.76V357.51C423.198 355.083 423.923 352.711 425.281 350.7C425.506 350.418 425.828 350.232 426.184 350.178C426.54 350.124 426.903 350.207 427.201 350.408C427.499 350.61 427.71 350.917 427.791 351.268C427.873 351.618 427.819 351.987 427.641 352.3C426.601 353.838 426.047 355.653 426.051 357.51V359.76C426.051 360.139 425.901 360.503 425.632 360.771C425.364 361.039 425 361.19 424.621 361.19Z" fill="#263238"/>
<path d="M452.241 352.22C452.125 352.22 452.011 352.191 451.908 352.137C451.805 352.083 451.717 352.005 451.651 351.91C450.735 350.541 449.496 349.42 448.043 348.645C446.59 347.871 444.968 347.467 443.321 347.47H435.381C433.736 347.471 432.117 347.876 430.664 348.648C429.212 349.42 427.971 350.537 427.051 351.9C426.998 351.978 426.931 352.044 426.853 352.095C426.775 352.147 426.687 352.182 426.595 352.2C426.503 352.218 426.409 352.217 426.317 352.198C426.225 352.179 426.138 352.143 426.061 352.09C425.983 352.038 425.917 351.97 425.866 351.892C425.814 351.814 425.778 351.726 425.761 351.634C425.743 351.542 425.744 351.448 425.763 351.356C425.782 351.265 425.818 351.178 425.871 351.1C426.919 349.541 428.335 348.264 429.994 347.382C431.652 346.499 433.502 346.039 435.381 346.04H443.321C445.202 346.041 447.053 346.503 448.713 347.387C450.373 348.271 451.791 349.55 452.841 351.11C452.895 351.188 452.933 351.277 452.952 351.37C452.971 351.463 452.971 351.559 452.953 351.652C452.934 351.746 452.897 351.834 452.843 351.913C452.79 351.991 452.721 352.059 452.641 352.11C452.521 352.185 452.382 352.223 452.241 352.22Z" fill="#263238"/>
<path d="M454.08 361.19C453.701 361.19 453.337 361.039 453.069 360.771C452.801 360.503 452.65 360.139 452.65 359.76V357.51C452.653 355.657 452.099 353.845 451.06 352.31C450.951 352.155 450.874 351.979 450.834 351.793C450.793 351.608 450.79 351.416 450.825 351.229C450.859 351.042 450.93 350.864 451.034 350.705C451.138 350.546 451.273 350.41 451.431 350.303C451.588 350.197 451.765 350.123 451.951 350.086C452.138 350.049 452.33 350.049 452.516 350.087C452.702 350.125 452.879 350.2 453.036 350.307C453.193 350.414 453.327 350.551 453.43 350.71C454.786 352.718 455.507 355.087 455.5 357.51V359.76C455.5 360.138 455.351 360.5 455.085 360.768C454.819 361.036 454.458 361.187 454.08 361.19Z" fill="#263238"/>
<path d="M424.8 367.47C424.053 367.47 423.335 367.173 422.806 366.644C422.278 366.115 421.98 365.398 421.98 364.65V360.16C421.98 359.412 422.278 358.695 422.806 358.166C423.335 357.637 424.053 357.34 424.8 357.34C425.548 357.34 426.266 357.637 426.794 358.166C427.323 358.695 427.62 359.412 427.62 360.16V364.65C427.618 365.397 427.32 366.113 426.792 366.641C426.263 367.169 425.548 367.467 424.8 367.47Z" fill="white" stroke="#263238" stroke-linecap="round" stroke-linejoin="round"/>
<path d="M425.09 357.34H424.51V367.46H425.09V357.34Z" fill="#E39292" stroke="#263238" stroke-linecap="round" stroke-linejoin="round"/>
<path d="M456.38 360.16C456.38 358.602 455.118 357.34 453.56 357.34C452.003 357.34 450.74 358.602 450.74 360.16V364.64C450.74 366.197 452.003 367.46 453.56 367.46C455.118 367.46 456.38 366.197 456.38 364.64V360.16Z" fill="white" stroke="#263238" stroke-linecap="round" stroke-linejoin="round"/>
<path d="M453.852 357.34H453.271V367.46H453.852V357.34Z" fill="#E39292" stroke="#263238" stroke-linecap="round" stroke-linejoin="round"/>
<path d="M439.33 356.42C440.323 356.416 441.3 356.165 442.173 355.691C443.046 355.216 443.787 354.532 444.33 353.7L445.56 351.8C443.61 350.724 441.415 350.167 439.188 350.183C436.961 350.199 434.775 350.787 432.84 351.89L434.68 354.19C435.24 354.884 435.949 355.444 436.753 355.83C437.557 356.216 438.438 356.417 439.33 356.42Z" fill="#E39292" stroke="#263238" stroke-linecap="round" stroke-linejoin="round"/>
<path d="M439.431 368.731C439.547 368.731 439.641 368.637 439.641 368.521C439.641 368.405 439.547 368.311 439.431 368.311C439.315 368.311 439.221 368.405 439.221 368.521C439.221 368.637 439.315 368.731 439.431 368.731Z" fill="#263238"/>
<path d="M439.431 369.47C439.547 369.47 439.641 369.376 439.641 369.26C439.641 369.144 439.547 369.05 439.431 369.05C439.315 369.05 439.221 369.144 439.221 369.26C439.221 369.376 439.315 369.47 439.431 369.47Z" fill="#263238"/>
<path d="M438.812 369.14C438.864 369.124 438.909 369.088 438.935 369.039C438.961 368.99 438.967 368.933 438.952 368.88C438.931 368.828 438.893 368.785 438.843 368.759C438.793 368.733 438.736 368.727 438.682 368.74C438.63 368.758 438.587 368.795 438.561 368.843C438.536 368.891 438.528 368.947 438.542 369C438.549 369.028 438.563 369.053 438.581 369.075C438.599 369.097 438.621 369.115 438.647 369.128C438.672 369.141 438.699 369.149 438.728 369.151C438.756 369.153 438.785 369.149 438.812 369.14Z" fill="#263238"/>
<path d="M440.12 369.14C440.173 369.124 440.217 369.088 440.243 369.039C440.269 368.99 440.275 368.933 440.26 368.88C440.241 368.827 440.203 368.782 440.153 368.756C440.103 368.73 440.044 368.724 439.99 368.74C439.964 368.748 439.94 368.761 439.919 368.779C439.898 368.796 439.881 368.818 439.869 368.842C439.857 368.867 439.85 368.893 439.848 368.92C439.846 368.948 439.85 368.975 439.86 369C439.867 369.027 439.879 369.052 439.896 369.074C439.913 369.096 439.934 369.114 439.959 369.128C439.983 369.141 440.01 369.149 440.038 369.151C440.066 369.153 440.094 369.15 440.12 369.14Z" fill="#263238"/>
<path d="M333.311 411.83H412.881V361.23V351.83L403.471 361.23H333.311V411.83Z" fill="#E39292" stroke="#263238" stroke-linecap="round" stroke-linejoin="round"/>
<path d="M386.441 372.93H405.171" stroke="#263238" stroke-linecap="round" stroke-linejoin="round"/>
<path d="M360.23 372.93H381.63" stroke="#263238" stroke-linecap="round" stroke-linejoin="round"/>
<path d="M344.182 372.93H356.482" stroke="#263238" stroke-linecap="round" stroke-linejoin="round"/>
<path d="M377.881 378.82H405.171" stroke="#263238" stroke-linecap="round" stroke-linejoin="round"/>
<path d="M344.182 378.82H373.072" stroke="#263238" stroke-linecap="round" stroke-linejoin="round"/>
<path d="M399.82 384.7H405.17" stroke="#263238" stroke-linecap="round" stroke-linejoin="round"/>
<path d="M369.861 384.7H395.541" stroke="#263238" stroke-linecap="round" stroke-linejoin="round"/>
<path d="M344.182 384.7H365.582" stroke="#263238" stroke-linecap="round" stroke-linejoin="round"/>
<path d="M386.441 389.521H405.171" stroke="#263238" stroke-linecap="round" stroke-linejoin="round"/>
<path d="M360.23 389.521H381.63" stroke="#263238" stroke-linecap="round" stroke-linejoin="round"/>
<path d="M344.182 389.521H356.482" stroke="#263238" stroke-linecap="round" stroke-linejoin="round"/>
<path d="M377.881 395.4H405.171" stroke="#263238" stroke-linecap="round" stroke-linejoin="round"/>
<path d="M344.182 395.4H373.072" stroke="#263238" stroke-linecap="round" stroke-linejoin="round"/>
<path d="M399.82 401.28H405.17" stroke="#263238" stroke-linecap="round" stroke-linejoin="round"/>
<path d="M369.861 401.28H395.541" stroke="#263238" stroke-linecap="round" stroke-linejoin="round"/>
<path d="M344.182 401.28H365.582" stroke="#263238" stroke-linecap="round" stroke-linejoin="round"/>
<path d="M453.001 55.5801H411.721C411.289 57.8663 410.072 59.93 408.282 61.4158C406.491 62.9016 404.238 63.7165 401.911 63.7201H342.811C340.485 63.7165 338.232 62.9016 336.441 61.4158C334.651 59.93 333.434 57.8663 333.001 55.5801H291.771C288.324 55.5801 285.017 56.9497 282.579 59.3877C280.141 61.8257 278.771 65.1323 278.771 68.5801V417.58C278.771 421.028 280.141 424.334 282.579 426.772C285.017 429.21 288.324 430.58 291.771 430.58H453.001C456.449 430.58 459.756 429.21 462.194 426.772C464.632 424.334 466.001 421.028 466.001 417.58V68.5801C466.001 65.1323 464.632 61.8257 462.194 59.3877C459.756 56.9497 456.449 55.5801 453.001 55.5801Z" stroke="#263238" stroke-width="2" stroke-linecap="round" stroke-linejoin="round"/>
<path d="M466.001 79.1301V68.5901C466.001 65.1423 464.632 61.8357 462.194 59.3977C459.756 56.9597 456.449 55.5901 453.001 55.5901H411.721C411.289 57.8763 410.072 59.94 408.282 61.4258C406.491 62.9116 404.238 63.7265 401.911 63.7301H342.811C340.483 63.726 338.229 62.9097 336.439 61.4219C334.648 59.9341 333.432 57.8681 333.001 55.5801H291.771C288.324 55.5801 285.017 56.9497 282.579 59.3877C280.141 61.8257 278.771 65.1323 278.771 68.5801V79.1301H466.001Z" stroke="#263238" stroke-width="2" stroke-linecap="round" stroke-linejoin="round"/>
<path d="M295.922 64.9998C295.922 67.5598 293.042 68.4798 293.032 70.4298V70.5598H295.822V71.4298H292.102V70.6998C292.102 67.9998 295.002 67.4198 295.002 64.9998C295.002 64.1198 294.712 63.6598 294.002 63.6598C293.292 63.6598 293.002 64.1598 293.002 64.9098V65.6598H292.122V64.9998C292.122 63.6998 292.712 62.8398 294.022 62.8398C295.332 62.8398 295.922 63.6998 295.922 64.9998Z" fill="#263238"/>
<path d="M300.56 65.0004V65.2204C300.603 65.5794 300.528 65.9426 300.348 66.2561C300.168 66.5696 299.892 66.8165 299.56 66.9604C299.895 67.1051 300.174 67.3552 300.355 67.6728C300.535 67.9904 300.607 68.3582 300.56 68.7204V69.3704C300.56 70.6704 299.95 71.5203 298.65 71.5203C297.35 71.5203 296.74 70.6704 296.74 69.3704V68.7904H297.63V69.4304C297.63 70.2004 297.94 70.6604 298.63 70.6604C299.32 70.6604 299.63 70.2104 299.63 69.3504V68.7003C299.63 67.8603 299.27 67.4604 298.56 67.4304H298V66.5903H298.56C298.707 66.5925 298.852 66.5622 298.986 66.5017C299.12 66.4412 299.239 66.3519 299.335 66.2402C299.43 66.1285 299.5 65.9971 299.539 65.8554C299.578 65.7137 299.585 65.5652 299.56 65.4203V65.0004C299.56 64.1304 299.25 63.6804 298.56 63.6804C297.87 63.6804 297.56 64.1503 297.56 64.9203V65.3604H296.67V65.0004C296.67 63.7004 297.28 62.8604 298.58 62.8604C299.88 62.8604 300.56 63.6904 300.56 65.0004Z" fill="#263238"/>
<path d="M302.39 65.6299V66.8099H301.48V65.6299H302.39ZM302.39 70.2499V71.4299H301.48V70.2499H302.39Z" fill="#263238"/>
<path d="M304.31 66.3904C304.435 66.1682 304.618 65.985 304.841 65.8613C305.063 65.7377 305.316 65.6785 305.57 65.6904C306.66 65.6904 307.15 66.4904 307.15 67.6904V69.3504C307.15 70.6504 306.53 71.5004 305.23 71.5004C303.93 71.5004 303.33 70.6504 303.33 69.3504V68.7804H304.21V69.4104C304.21 70.1804 304.53 70.6404 305.21 70.6404C305.89 70.6404 306.21 70.1804 306.21 69.4104V67.7804C306.21 67.0104 305.9 66.5504 305.21 66.5504C305.083 66.5378 304.955 66.552 304.834 66.5921C304.713 66.6321 304.602 66.6971 304.508 66.7829C304.414 66.8687 304.338 66.9734 304.287 67.0901C304.236 67.2068 304.21 67.333 304.21 67.4604V67.6504H303.32L303.55 62.9404H306.9V63.7904H304.4L304.31 66.3904Z" fill="#263238"/>
<path d="M311.86 65.0005V65.1505H311V64.9305C311 64.1705 310.68 63.7205 310 63.7205C309.32 63.7205 309 64.1805 309 65.0905V67.0005C309.098 66.7201 309.284 66.4793 309.532 66.315C309.779 66.1507 310.074 66.0718 310.37 66.0905C311.46 66.0905 311.95 66.8705 311.95 68.0905V69.3705C311.95 70.6705 311.31 71.5205 310.01 71.5205C308.71 71.5205 308 70.6605 308 69.3605V65.0005C308 63.6505 308.6 62.8105 309.95 62.8105C311.3 62.8105 311.86 63.6805 311.86 65.0005ZM308.94 68.1705V69.4405C308.94 70.2105 309.26 70.6705 309.94 70.6705C310.62 70.6705 310.94 70.2105 310.94 69.4405V68.1505C310.94 67.3905 310.61 66.9305 309.94 66.9305C309.27 66.9305 308.94 67.3905 308.94 68.1505V68.1705Z" fill="#263238"/>
<path d="M416.672 65.3496H414.271V71.3396H416.672V65.3496Z" fill="#263238"/>
<path d="M419.871 64.1504H417.471V71.3404H419.871V64.1504Z" fill="#263238"/>
<path d="M423.06 63.2998H420.66V71.3398H423.06V63.2998Z" fill="#263238"/>
<path d="M426.261 61.8105H423.861V71.3405H426.261V61.8105Z" fill="#263238"/>
<path d="M455.911 71.1696H441.531V62.3896H455.911V71.1696ZM442.331 70.3796H455.111V63.1896H442.331V70.3796Z" fill="#263238"/>
<path d="M451.121 64.0605H443.531V69.5106H451.121V64.0605Z" fill="#263238"/>
<path d="M457.22 65.75H455.41V67.82H457.22V65.75Z" fill="#263238"/>
<path d="M436.262 69.2598C436.167 69.2615 436.073 69.2373 435.992 69.1898C433.062 67.4498 431.132 69.0598 431.052 69.1298C430.999 69.1827 430.937 69.2242 430.868 69.2519C430.799 69.2795 430.725 69.2927 430.651 69.2905C430.577 69.2884 430.504 69.2709 430.437 69.2393C430.37 69.2077 430.31 69.1625 430.261 69.1067C430.212 69.0509 430.175 68.9856 430.153 68.9149C430.13 68.8441 430.122 68.7695 430.13 68.6957C430.137 68.6218 430.16 68.5503 430.197 68.4857C430.233 68.421 430.282 68.3645 430.342 68.3198C430.442 68.2298 432.922 66.1098 436.542 68.2598C436.661 68.3361 436.747 68.4557 436.78 68.5936C436.814 68.7315 436.793 68.8771 436.722 68.9998C436.674 69.0796 436.607 69.1456 436.526 69.1912C436.446 69.2368 436.354 69.2605 436.262 69.2598Z" fill="#263238"/>
<path d="M437.342 67.4602C437.246 67.4584 437.153 67.4308 437.072 67.3802C432.842 64.8702 429.992 67.3002 429.962 67.3202C429.909 67.3662 429.848 67.4014 429.782 67.4237C429.716 67.4461 429.646 67.4552 429.576 67.4506C429.507 67.4459 429.439 67.4276 429.376 67.3967C429.313 67.3657 429.258 67.3228 429.212 67.2702C429.166 67.2177 429.13 67.1566 429.108 67.0905C429.086 67.0244 429.077 66.9545 429.081 66.8849C429.086 66.8152 429.104 66.7472 429.135 66.6846C429.166 66.6221 429.209 66.5662 429.262 66.5202C429.262 66.5202 432.722 63.5202 437.622 66.4602C437.743 66.5348 437.831 66.6544 437.864 66.7931C437.898 66.9318 437.875 67.0781 437.802 67.2002C437.754 67.2794 437.686 67.3448 437.606 67.3903C437.525 67.4359 437.434 67.4599 437.342 67.4602Z" fill="#263238"/>
<path d="M438.331 65.3697C438.232 65.3678 438.135 65.3402 438.051 65.2897C432.691 62.1097 429.131 65.1097 428.981 65.2397C428.872 65.3219 428.736 65.3599 428.6 65.346C428.464 65.3321 428.339 65.2673 428.249 65.1647C428.159 65.0622 428.111 64.9294 428.115 64.793C428.119 64.6567 428.175 64.5269 428.271 64.4297C428.321 64.4297 432.551 60.7697 438.601 64.3697C438.662 64.4058 438.715 64.4536 438.758 64.5103C438.8 64.5671 438.831 64.6316 438.849 64.7004C438.867 64.7691 438.871 64.8406 438.861 64.9109C438.851 64.9811 438.827 65.0487 438.791 65.1097C438.742 65.1882 438.674 65.2532 438.594 65.2986C438.513 65.344 438.423 65.3685 438.331 65.3697Z" fill="#263238"/>
<path d="M434.641 70.1604C434.643 70.4282 434.566 70.6906 434.418 70.9141C434.27 71.1376 434.06 71.3122 433.813 71.4156C433.566 71.519 433.293 71.5466 433.03 71.4949C432.768 71.4431 432.526 71.3143 432.337 71.1249C432.147 70.9355 432.019 70.694 431.967 70.4312C431.915 70.1684 431.943 69.8962 432.046 69.6491C432.15 69.402 432.324 69.1913 432.548 69.0437C432.771 68.8961 433.034 68.8184 433.301 68.8203C433.657 68.8203 433.998 68.9615 434.249 69.2128C434.5 69.4641 434.641 69.805 434.641 70.1604Z" fill="#263238"/>
<path d="M451 446.51H472" stroke="#263238" stroke-linecap="round" stroke-linejoin="round"/>
<path d="M55 446.51H444" stroke="#263238" stroke-linecap="round" stroke-linejoin="round"/>
<path d="M27.6504 446.51H42.0004" stroke="#263238" stroke-linecap="round" stroke-linejoin="round"/>
<path d="M171.68 311.84H156.4V444.64H171.68V311.84Z" fill="#263238" stroke="#263238" stroke-linecap="round" stroke-linejoin="round"/>
<path d="M50.5215 359.93V369.27H111.421V359.93H50.5215Z" fill="#263238" stroke="#263238" stroke-linecap="round" stroke-linejoin="round"/>
<path d="M56.7814 327.69H47.4414V365.06H56.7814V327.69Z" fill="#263238" stroke="#263238" stroke-linecap="round" stroke-linejoin="round"/>
<path d="M60.6703 365.22C60.6703 366.344 60.4488 367.456 60.0185 368.494C59.5882 369.532 58.9575 370.475 58.1625 371.269C57.3675 372.063 56.4238 372.693 55.3853 373.122C54.3468 373.551 53.2339 373.771 52.1103 373.77C51.8303 373.77 51.5503 373.77 51.2803 373.77C49.7228 373.616 48.2373 373.038 46.9853 372.099C45.7334 371.159 44.763 369.895 44.1795 368.442C43.5961 366.99 43.422 365.406 43.6761 363.861C43.9303 362.317 44.603 360.872 45.6211 359.683C46.6392 358.494 47.9637 357.608 49.4507 357.119C50.9376 356.631 52.53 356.559 54.0547 356.912C55.5794 357.266 56.9781 358.03 58.0987 359.123C59.2192 360.216 60.0187 361.595 60.4103 363.11C60.581 363.8 60.6683 364.509 60.6703 365.22Z" fill="white" stroke="#263238" stroke-linecap="round" stroke-linejoin="round"/>
<path d="M61.3014 333.45C61.2962 335.718 60.3923 337.891 58.7878 339.493C57.1834 341.096 55.0092 341.997 52.7414 342C52.4614 342 52.1814 342 51.9014 342C50.3432 341.851 48.8557 341.277 47.6008 340.341C46.3459 339.405 45.3717 338.143 44.7841 336.692C44.1965 335.241 44.0181 333.657 44.2682 332.111C44.5183 330.566 45.1874 329.119 46.2026 327.927C47.2179 326.736 48.5405 325.845 50.0265 325.353C51.5125 324.861 53.1051 324.786 54.631 325.135C56.1568 325.485 57.5575 326.247 58.6807 327.337C59.8039 328.428 60.6066 329.805 61.0014 331.32C61.1935 332.014 61.2944 332.73 61.3014 333.45Z" fill="white" stroke="#263238" stroke-linecap="round" stroke-linejoin="round"/>
<path d="M76.6277 310.25L64.1777 316.953L66.7568 321.743L79.2067 315.039L76.6277 310.25Z" fill="#263238" stroke="#263238" stroke-linecap="round" stroke-linejoin="round"/>
<path d="M81.2707 315.56L75.1407 318.86L71.2207 311.59L77.3607 308.28C77.8425 308.016 78.3722 307.851 78.9187 307.794C79.4652 307.738 80.0175 307.791 80.543 307.952C81.0685 308.112 81.5567 308.376 81.9788 308.727C82.4008 309.079 82.7483 309.512 83.0007 310C83.5025 310.968 83.6023 312.094 83.2784 313.135C82.9545 314.176 82.233 315.047 81.2707 315.56Z" fill="white" stroke="#263238" stroke-linecap="round" stroke-linejoin="round"/>
<path d="M54.4013 284.73L53.9613 310.09L48.5312 310L48.9613 284.64L54.4013 284.73Z" fill="#263238" stroke="#263238" stroke-linecap="round" stroke-linejoin="round"/>
<path d="M55.87 283.2L55.76 290.2L47.5 290L47.61 283C47.6191 282.458 47.735 281.922 47.951 281.425C48.167 280.927 48.479 280.477 48.869 280.1C49.259 279.723 49.7195 279.427 50.2241 279.227C50.7287 279.028 51.2676 278.931 51.81 278.94C52.358 278.948 52.8989 279.065 53.4011 279.284C53.9033 279.503 54.3568 279.821 54.7348 280.217C55.1129 280.614 55.4081 281.082 55.603 281.594C55.7979 282.106 55.8887 282.652 55.87 283.2Z" fill="white" stroke="#263238" stroke-linecap="round" stroke-linejoin="round"/>
<path d="M74.7202 293.93L62.7902 316.31L57.9902 313.76L69.9102 291.38L74.7202 293.93Z" fill="#263238" stroke="#263238" stroke-linecap="round" stroke-linejoin="round"/>
<path d="M76.7202 293.24L73.4501 299.39L66.1602 295.52L69.4202 289.36C69.9359 288.396 70.8122 287.675 71.8576 287.355C72.903 287.034 74.0328 287.14 75.0002 287.65C75.9687 288.164 76.6937 289.041 77.0161 290.089C77.3386 291.137 77.2322 292.27 76.7202 293.24Z" fill="white" stroke="#263238" stroke-linecap="round" stroke-linejoin="round"/>
<path d="M35.1205 293.83L46.9405 316.27L42.1305 318.81L30.3105 296.37L35.1205 293.83Z" fill="#263238" stroke="#263238" stroke-linecap="round" stroke-linejoin="round"/>
<path d="M46.2102 310.1C46.0349 309.062 45.5557 308.1 44.8331 307.334C44.1106 306.569 43.1772 306.035 42.1511 305.8C41.125 305.565 40.0523 305.64 39.0687 306.015C38.0852 306.39 37.2351 307.049 36.6259 307.907C36.0168 308.766 35.6759 309.786 35.6466 310.838C35.6173 311.89 35.9007 312.927 36.4611 313.818C37.0215 314.709 37.8336 315.414 38.7947 315.843C39.7558 316.273 40.8227 316.407 41.8602 316.23C43.2494 315.993 44.4876 315.214 45.3031 314.065C46.1187 312.916 46.4449 311.49 46.2102 310.1Z" fill="white" stroke="#263238" stroke-linecap="round" stroke-linejoin="round"/>
<path d="M51.4098 310.8C54.348 310.8 56.7298 308.418 56.7298 305.48C56.7298 302.542 54.348 300.16 51.4098 300.16C48.4717 300.16 46.0898 302.542 46.0898 305.48C46.0898 308.418 48.4717 310.8 51.4098 310.8Z" fill="white" stroke="#263238" stroke-linecap="round" stroke-linejoin="round"/>
<path d="M68.7715 308.55C68.9315 307.51 68.7795 306.445 68.3345 305.492C67.8895 304.538 67.1716 303.737 66.2716 303.192C65.3716 302.646 64.3299 302.38 63.2785 302.426C62.227 302.473 61.2129 302.83 60.3645 303.453C59.5162 304.076 58.8717 304.936 58.5126 305.926C58.1535 306.915 58.0959 307.989 58.3472 309.011C58.5984 310.033 59.1472 310.958 59.9241 311.668C60.7009 312.378 61.671 312.841 62.7115 313C63.4017 313.107 64.1061 313.076 64.7844 312.91C65.4628 312.744 66.1017 312.446 66.6646 312.032C67.2275 311.619 67.7034 311.099 68.0649 310.501C68.4264 309.904 68.6665 309.241 68.7715 308.55Z" fill="white" stroke="#263238" stroke-linecap="round" stroke-linejoin="round"/>
<path d="M35.6706 291.78L38.9306 297.94L31.6306 301.81L28.3706 295.64C28.116 295.161 27.9585 294.636 27.9072 294.096C27.8558 293.556 27.9117 293.011 28.0715 292.493C28.2313 291.974 28.4919 291.492 28.8384 291.075C29.1849 290.657 29.6105 290.312 30.0906 290.06C31.0593 289.551 32.1899 289.446 33.2355 289.769C34.2811 290.091 35.1566 290.814 35.6706 291.78Z" fill="white" stroke="#263238" stroke-linecap="round" stroke-linejoin="round"/>
<path d="M67.7501 320.37C67.7501 324.348 66.1697 328.163 63.3567 330.976C60.5436 333.789 56.7283 335.37 52.7501 335.37C52.2501 335.37 51.7501 335.37 51.2801 335.31C48.5514 335.039 45.9492 334.026 43.7561 332.38C41.563 330.734 39.863 328.519 38.8409 325.974C37.8188 323.43 37.5136 320.654 37.9586 317.948C38.4036 315.243 39.5817 312.711 41.3649 310.628C43.1481 308.545 45.4681 306.991 48.0728 306.134C50.6775 305.277 53.4672 305.151 56.1387 305.768C58.8102 306.386 61.2613 307.724 63.2256 309.637C65.1899 311.55 66.5921 313.965 67.2801 316.62C67.5902 317.846 67.748 319.105 67.7501 320.37Z" fill="white" stroke="#263238" stroke-linecap="round" stroke-linejoin="round"/>
<path d="M67.7497 320.37C67.7497 324.348 66.1693 328.163 63.3563 330.976C60.5432 333.789 56.7279 335.37 52.7497 335.37C52.2497 335.37 51.7497 335.37 51.2797 335.31C50.705 333.09 50.6467 330.769 51.1093 328.523C51.5718 326.278 52.5429 324.168 53.9479 322.357C55.353 320.545 57.1545 319.08 59.2143 318.073C61.274 317.067 63.5371 316.545 65.8297 316.55C66.3197 316.55 66.8297 316.55 67.2997 316.62C67.6031 317.847 67.7542 319.106 67.7497 320.37Z" fill="white" stroke="#263238" stroke-linecap="round" stroke-linejoin="round"/>
<path d="M143.281 365.49C145.828 354.606 139.069 343.718 128.185 341.171C117.3 338.624 106.412 345.383 103.865 356.267C101.319 367.151 108.077 378.039 118.962 380.586C129.846 383.133 140.734 376.374 143.281 365.49Z" fill="white" stroke="#263238" stroke-linecap="round" stroke-linejoin="round"/>
<path d="M127.335 369.93C132.336 367.844 134.698 362.1 132.613 357.099C130.527 352.099 124.783 349.736 119.783 351.821C114.782 353.907 112.419 359.651 114.505 364.652C116.59 369.652 122.335 372.015 127.335 369.93Z" fill="#263238" stroke="#263238" stroke-linecap="round" stroke-linejoin="round"/>
<path d="M120.091 446.51H209.891L211.181 440.43C211.698 438.002 211.233 435.467 209.888 433.38C208.543 431.293 206.426 429.822 204.001 429.29C191.271 426.43 163.711 425.4 163.711 425.4C157.071 425.61 138.591 426.4 125.861 429.3C123.452 429.85 121.357 431.326 120.028 433.409C118.699 435.492 118.244 438.014 118.761 440.43L120.091 446.51Z" fill="white" stroke="#263238" stroke-linecap="round" stroke-linejoin="round"/>
<path d="M186.6 426.88C175.1 425.82 163.74 425.4 163.74 425.4C159.56 425.53 150.68 425.9 141.5 426.88C144.18 436.03 153.26 442.77 164.05 442.77C174.84 442.77 183.92 436 186.6 426.88Z" fill="#E39292" stroke="#263238" stroke-linecap="round" stroke-linejoin="round"/>
<path d="M257.844 403.631L263.43 396.146L214.621 359.725L209.035 367.21L257.844 403.631Z" fill="#263238" stroke="#263238" stroke-linecap="round" stroke-linejoin="round"/>
<path d="M233.555 425.73L241.041 431.315L263.39 401.365L255.904 395.779L233.555 425.73Z" fill="#263238" stroke="#263238" stroke-linecap="round" stroke-linejoin="round"/>
<path d="M252.87 393.32C253.543 392.417 254.388 391.656 255.356 391.08C256.323 390.504 257.395 390.124 258.509 389.963C259.624 389.801 260.759 389.861 261.851 390.138C262.942 390.416 263.968 390.905 264.87 391.58L265.52 392.11C266.677 393.165 267.522 394.516 267.963 396.018C268.405 397.52 268.427 399.114 268.026 400.627C267.625 402.14 266.816 403.514 265.689 404.6C264.561 405.686 263.157 406.442 261.63 406.785C260.103 407.129 258.511 407.047 257.027 406.549C255.543 406.051 254.224 405.155 253.214 403.959C252.203 402.764 251.54 401.314 251.296 399.768C251.052 398.222 251.237 396.638 251.83 395.19C252.099 394.526 252.448 393.898 252.87 393.32Z" fill="white" stroke="#263238" stroke-linecap="round" stroke-linejoin="round"/>
<path d="M233.34 417.25C234.608 415.368 236.572 414.065 238.799 413.63C241.027 413.195 243.337 413.663 245.22 414.93C245.45 415.08 245.67 415.25 245.89 415.42C247.097 416.417 248.008 417.726 248.524 419.204C249.039 420.682 249.139 422.273 248.813 423.804C248.487 425.336 247.748 426.748 246.675 427.888C245.602 429.028 244.237 429.852 242.729 430.271C241.22 430.689 239.626 430.686 238.119 430.261C236.612 429.837 235.251 429.007 234.183 427.862C233.115 426.718 232.381 425.302 232.061 423.77C231.742 422.237 231.848 420.647 232.37 419.17C232.612 418.493 232.938 417.848 233.34 417.25Z" fill="white" stroke="#263238" stroke-linecap="round" stroke-linejoin="round"/>
<path d="M207.637 427.963L221.709 429.346L222.241 423.932L208.169 422.549L207.637 427.963Z" fill="#263238" stroke="#263238" stroke-linecap="round" stroke-linejoin="round"/>
<path d="M206.782 421L213.722 421.68L212.912 429.9L205.972 429.22C204.882 429.114 203.878 428.579 203.183 427.733C202.487 426.887 202.156 425.8 202.262 424.71C202.37 423.619 202.907 422.616 203.755 421.92C204.602 421.225 205.69 420.894 206.782 421Z" fill="white" stroke="#263238" stroke-linecap="round" stroke-linejoin="round"/>
<path d="M220.68 424.5C221.779 422.862 223.19 421.457 224.833 420.366C226.476 419.274 228.318 418.517 230.254 418.138C232.189 417.759 234.181 417.765 236.114 418.157C238.047 418.549 239.884 419.318 241.52 420.42C241.93 420.7 242.32 420.99 242.7 421.3C244.814 423.048 246.409 425.341 247.311 427.931C248.212 430.521 248.387 433.309 247.815 435.991C247.243 438.674 245.946 441.148 244.066 443.145C242.186 445.142 239.795 446.585 237.152 447.318C234.509 448.051 231.715 448.045 229.075 447.301C226.436 446.557 224.05 445.103 222.179 443.098C220.307 441.093 219.022 438.613 218.461 435.929C217.901 433.244 218.087 430.457 219 427.87C219.414 426.68 219.978 425.548 220.68 424.5Z" fill="white" stroke="#263238" stroke-linecap="round" stroke-linejoin="round"/>
<path d="M204.521 440.08L223.121 426.17L226.111 430.16L207.511 444.06L204.521 440.08Z" fill="#263238" stroke="#263238" stroke-linecap="round" stroke-linejoin="round"/>
<path d="M202.59 439.87L207.7 436L212.24 442L207.13 445.83C206.327 446.43 205.319 446.688 204.327 446.545C203.335 446.403 202.441 445.872 201.84 445.07C201.264 444.276 201.02 443.289 201.16 442.318C201.3 441.347 201.813 440.469 202.59 439.87Z" fill="white" stroke="#263238" stroke-linecap="round" stroke-linejoin="round"/>
<path d="M228.54 430.46C228.776 429.433 228.702 428.359 228.327 427.374C227.952 426.389 227.293 425.538 226.434 424.928C225.574 424.319 224.553 423.978 223.499 423.949C222.446 423.921 221.408 424.206 220.516 424.768C219.625 425.33 218.921 426.145 218.493 427.108C218.065 428.071 217.933 429.139 218.114 430.178C218.294 431.216 218.779 432.177 219.506 432.94C220.233 433.702 221.171 434.231 222.2 434.46C223.57 434.765 225.006 434.516 226.194 433.767C227.382 433.017 228.225 431.829 228.54 430.46Z" fill="white" stroke="#263238" stroke-linecap="round" stroke-linejoin="round"/>
<path d="M238.4 454.06L241.16 434.98L245.25 435.56L242.5 454.64L238.4 454.06Z" fill="#263238" stroke="#263238" stroke-linecap="round" stroke-linejoin="round"/>
<path d="M237.15 455.07L237.9 449.82L244.11 450.71L243.36 455.95C243.303 456.359 243.165 456.752 242.956 457.107C242.746 457.462 242.468 457.773 242.139 458.021C241.809 458.269 241.434 458.449 241.034 458.552C240.635 458.655 240.219 458.678 239.81 458.62C238.987 458.501 238.245 458.061 237.746 457.395C237.248 456.73 237.033 455.894 237.15 455.07Z" fill="white" stroke="#263238" stroke-linecap="round" stroke-linejoin="round"/>
<path d="M246.85 434.31C246.379 433.577 245.701 432.999 244.903 432.65C244.104 432.302 243.219 432.198 242.361 432.351C241.503 432.505 240.71 432.909 240.082 433.514C239.453 434.118 239.018 434.895 238.831 435.746C238.644 436.597 238.714 437.485 239.031 438.297C239.348 439.109 239.899 439.809 240.613 440.308C241.328 440.807 242.175 441.083 243.046 441.101C243.918 441.12 244.775 440.879 245.51 440.41C246.496 439.778 247.191 438.781 247.442 437.638C247.693 436.494 247.48 435.297 246.85 434.31Z" fill="white" stroke="#263238" stroke-linecap="round" stroke-linejoin="round"/>
<path d="M219.99 451.52L232.39 431.88L236.6 434.52L224.21 454.17L219.99 451.52Z" fill="#263238" stroke="#263238" stroke-linecap="round" stroke-linejoin="round"/>
<path d="M218.121 452L221.511 446.6L227.921 450.6L224.521 456.01C223.986 456.856 223.138 457.456 222.161 457.679C221.185 457.902 220.16 457.73 219.311 457.2C218.465 456.666 217.865 455.82 217.642 454.845C217.419 453.871 217.591 452.848 218.121 452Z" fill="white" stroke="#263238" stroke-linecap="round" stroke-linejoin="round"/>
<path d="M239.001 433.94C238.852 432.899 238.398 431.925 237.695 431.142C236.993 430.359 236.074 429.803 235.054 429.543C234.035 429.284 232.962 429.333 231.97 429.684C230.979 430.035 230.114 430.673 229.485 431.517C228.857 432.36 228.493 433.371 228.44 434.422C228.387 435.472 228.648 436.515 229.188 437.417C229.729 438.32 230.525 439.041 231.476 439.49C232.427 439.94 233.49 440.096 234.531 439.94C235.918 439.735 237.167 438.988 238.005 437.864C238.843 436.739 239.201 435.328 239.001 433.94Z" fill="white" stroke="#263238" stroke-linecap="round" stroke-linejoin="round"/>
<path d="M216.029 378.249C225.428 372.199 228.143 359.674 222.092 350.275C216.042 340.876 203.518 338.161 194.118 344.212C184.719 350.262 182.004 362.787 188.055 372.186C194.105 381.585 206.63 384.3 216.029 378.249Z" fill="white" stroke="#263238" stroke-linecap="round" stroke-linejoin="round"/>
<path d="M213.998 365.328C216.256 360.403 214.095 354.58 209.171 352.321C204.246 350.062 198.423 352.223 196.164 357.148C193.905 362.072 196.066 367.896 200.991 370.154C205.916 372.413 211.739 370.252 213.998 365.328Z" fill="#263238" stroke="#263238" stroke-linecap="round" stroke-linejoin="round"/>
<path d="M164.041 321.12C181.996 321.12 196.551 306.564 196.551 288.61C196.551 270.655 181.996 256.1 164.041 256.1C146.086 256.1 131.531 270.655 131.531 288.61C131.531 306.564 146.086 321.12 164.041 321.12Z" fill="#E39292" stroke="#263238" stroke-linecap="round" stroke-linejoin="round"/>
<path d="M210.521 310.26C217.503 301.506 221.872 290.96 223.127 279.834C224.381 268.708 222.469 257.454 217.612 247.365C212.754 237.277 205.148 228.765 195.667 222.808C186.187 216.851 175.218 213.69 164.021 213.69C152.824 213.69 141.855 216.851 132.375 222.808C122.894 228.765 115.288 237.277 110.43 247.365C105.573 257.454 103.661 268.708 104.915 279.834C106.17 290.96 110.539 301.506 117.521 310.26H210.521Z" fill="white" stroke="#263238" stroke-linecap="round" stroke-linejoin="round"/>
<path d="M200.42 250.72H126.16C121.643 250.72 117.98 254.382 117.98 258.9V285.22C117.98 289.737 121.643 293.4 126.16 293.4H200.42C204.938 293.4 208.6 289.737 208.6 285.22V258.9C208.6 254.382 204.938 250.72 200.42 250.72Z" fill="#E39292" stroke="#263238" stroke-linecap="round" stroke-linejoin="round"/>
<path d="M127.781 270.33C128.763 267.58 130.553 265.191 132.917 263.477C135.28 261.762 138.106 260.801 141.025 260.719C143.943 260.638 146.819 261.441 149.273 263.022C151.728 264.603 153.648 266.889 154.781 269.58" stroke="#263238" stroke-width="5" stroke-linecap="round" stroke-linejoin="round"/>
<path d="M172.57 270.33C173.552 267.58 175.342 265.191 177.706 263.477C180.069 261.762 182.895 260.801 185.814 260.719C188.733 260.638 191.608 261.441 194.062 263.022C196.517 264.603 198.437 266.889 199.57 269.58" stroke="#263238" stroke-width="5" stroke-linecap="round" stroke-linejoin="round"/>
<path d="M156.201 280.22C156.452 282.203 157.418 284.026 158.918 285.348C160.417 286.669 162.347 287.399 164.346 287.399C166.345 287.399 168.275 286.669 169.775 285.348C171.274 284.026 172.24 282.203 172.491 280.22H156.201Z" fill="white" stroke="#263238" stroke-linecap="round" stroke-linejoin="round"/>
<path d="M241.001 283.6C239.352 283.6 237.77 282.945 236.603 281.778C235.437 280.612 234.781 279.03 234.781 277.38V263.23C234.78 262.412 234.94 261.602 235.252 260.847C235.564 260.091 236.022 259.404 236.6 258.825C237.177 258.247 237.863 257.788 238.619 257.474C239.374 257.161 240.184 257 241.001 257C241.819 256.999 242.629 257.159 243.385 257.471C244.14 257.783 244.827 258.241 245.406 258.818C245.985 259.396 246.444 260.082 246.757 260.837C247.07 261.593 247.231 262.402 247.231 263.22V277.37C247.233 278.189 247.072 278.999 246.76 279.756C246.447 280.512 245.988 281.199 245.409 281.778C244.831 282.357 244.143 282.816 243.387 283.128C242.63 283.441 241.82 283.601 241.001 283.6Z" fill="#263238" stroke="#263238" stroke-linecap="round" stroke-linejoin="round"/>
<path d="M85.3804 283.6C84.5627 283.601 83.7528 283.441 82.997 283.129C82.2412 282.817 81.5544 282.359 80.9757 281.782C80.3971 281.204 79.938 280.518 79.6248 279.763C79.3116 279.007 79.1504 278.198 79.1504 277.38V263.23C79.1491 262.412 79.3093 261.601 79.6219 260.844C79.9346 260.088 80.3934 259.401 80.9722 258.822C81.551 258.243 82.2383 257.784 82.9947 257.472C83.7512 257.159 84.5619 256.999 85.3804 257C86.1972 257 87.006 257.161 87.7607 257.473C88.5153 257.786 89.201 258.244 89.7786 258.822C90.3562 259.399 90.8143 260.085 91.1269 260.84C91.4395 261.594 91.6004 262.403 91.6004 263.22V277.37C91.6017 278.188 91.4418 278.998 91.1298 279.753C90.8178 280.509 90.3599 281.196 89.7821 281.775C89.2044 282.353 88.5183 282.812 87.763 283.126C87.0077 283.439 86.1981 283.6 85.3804 283.6Z" fill="#263238" stroke="#263238" stroke-linecap="round" stroke-linejoin="round"/>
<path d="M105.32 219.75C99.8186 227.879 96.8852 237.474 96.9004 247.29V257.57" stroke="#263238" stroke-width="14" stroke-linecap="round" stroke-linejoin="round"/>
<path d="M223.4 219.79C218.898 213.082 212.814 207.585 205.684 203.785C198.555 199.985 190.599 197.998 182.52 198H146.17C138.103 197.994 130.157 199.972 123.034 203.76C115.91 207.548 109.827 213.028 105.32 219.72" stroke="#263238" stroke-width="7" stroke-linecap="round" stroke-linejoin="round"/>
<path d="M231.78 257.57V247.29C231.796 237.492 228.877 227.914 223.4 219.79" stroke="#263238" stroke-width="14" stroke-linecap="round" stroke-linejoin="round"/>
<path d="M101.861 246.5H93.5212C88.6943 246.5 84.7812 250.413 84.7812 255.24V284.13C84.7812 288.957 88.6943 292.87 93.5212 292.87H101.861C106.688 292.87 110.601 288.957 110.601 284.13V255.24C110.601 250.413 106.688 246.5 101.861 246.5Z" fill="white" stroke="#263238" stroke-linecap="round" stroke-linejoin="round"/>
<path d="M99.0109 246.5H96.3809V292.87H99.0109V246.5Z" fill="#E39292" stroke="#263238" stroke-linecap="round" stroke-linejoin="round"/>
<path d="M233.58 246.5H225.24C220.413 246.5 216.5 250.413 216.5 255.24V284.13C216.5 288.957 220.413 292.87 225.24 292.87H233.58C238.407 292.87 242.32 288.957 242.32 284.13V255.24C242.32 250.413 238.407 246.5 233.58 246.5Z" fill="white" stroke="#263238" stroke-linecap="round" stroke-linejoin="round"/>
<path d="M230.732 246.5H228.102V292.87H230.732V246.5Z" fill="#E39292" stroke="#263238" stroke-linecap="round" stroke-linejoin="round"/>
<path d="M164.25 242.29C168.805 242.291 173.288 241.152 177.29 238.975C181.292 236.799 184.685 233.655 187.16 229.83L192.8 221.1C183.863 216.165 173.805 213.613 163.596 213.692C153.387 213.771 143.37 216.477 134.51 221.55L143 232.09C145.554 235.271 148.789 237.839 152.466 239.604C156.144 241.369 160.17 242.287 164.25 242.29Z" fill="#E39292" stroke="#263238" stroke-linecap="round" stroke-linejoin="round"/>
<path d="M165.66 297.72C165.66 297.522 165.602 297.329 165.492 297.164C165.382 297 165.226 296.872 165.043 296.796C164.86 296.72 164.659 296.7 164.465 296.739C164.271 296.778 164.093 296.873 163.953 297.013C163.813 297.152 163.718 297.331 163.679 297.525C163.641 297.719 163.661 297.92 163.736 298.102C163.812 298.285 163.94 298.441 164.105 298.551C164.269 298.661 164.462 298.72 164.66 298.72C164.925 298.72 165.18 298.614 165.367 298.427C165.555 298.239 165.66 297.985 165.66 297.72Z" fill="#263238"/>
<path d="M165.66 301.08C165.66 300.882 165.602 300.689 165.492 300.525C165.382 300.36 165.226 300.232 165.043 300.156C164.86 300.081 164.659 300.061 164.465 300.099C164.271 300.138 164.093 300.233 163.953 300.373C163.813 300.513 163.718 300.691 163.679 300.885C163.641 301.079 163.661 301.28 163.736 301.463C163.812 301.645 163.94 301.802 164.105 301.912C164.269 302.021 164.462 302.08 164.66 302.08C164.925 302.08 165.18 301.975 165.367 301.787C165.555 301.6 165.66 301.345 165.66 301.08Z" fill="#263238"/>
<path d="M161.85 300.56C162.032 300.442 162.172 300.268 162.246 300.064C162.321 299.859 162.327 299.637 162.264 299.429C162.201 299.221 162.071 299.039 161.896 298.911C161.72 298.783 161.507 298.716 161.29 298.72C161.107 298.838 160.968 299.012 160.893 299.216C160.818 299.42 160.812 299.643 160.875 299.851C160.939 300.059 161.068 300.241 161.244 300.369C161.42 300.497 161.632 300.564 161.85 300.56Z" fill="#263238"/>
<path d="M167.861 300.56C168.015 300.558 168.167 300.519 168.305 300.448C168.442 300.376 168.561 300.274 168.652 300.149C168.743 300.024 168.804 299.879 168.829 299.726C168.855 299.574 168.845 299.417 168.8 299.269C168.755 299.121 168.676 298.986 168.57 298.873C168.463 298.761 168.332 298.675 168.187 298.622C168.042 298.568 167.886 298.55 167.732 298.567C167.578 298.584 167.431 298.636 167.301 298.72C167.146 298.723 166.994 298.762 166.857 298.833C166.719 298.905 166.601 299.007 166.51 299.132C166.419 299.257 166.358 299.402 166.332 299.554C166.307 299.707 166.317 299.863 166.362 300.011C166.407 300.159 166.486 300.295 166.592 300.407C166.698 300.52 166.829 300.606 166.974 300.659C167.12 300.712 167.275 300.731 167.429 300.714C167.583 300.697 167.731 300.644 167.861 300.56Z" fill="#263238"/>
<path d="M204.001 335.24C191.271 332.37 163.711 331.34 163.711 331.34C157.071 331.55 138.591 332.34 125.861 335.25C123.451 335.797 121.354 337.273 120.024 339.357C118.695 341.44 118.241 343.964 118.761 346.38L130.551 401.54C131.13 404.214 132.606 406.611 134.734 408.331C136.862 410.052 139.514 410.993 142.251 411H187.701C190.437 410.993 193.089 410.052 195.217 408.331C197.345 406.611 198.821 404.214 199.4 401.54L211.18 346.38C211.698 343.951 211.233 341.416 209.888 339.329C208.543 337.242 206.426 335.772 204.001 335.24Z" fill="white" stroke="#263238" stroke-linecap="round" stroke-linejoin="round"/>
<path d="M198.201 334.18C184.391 332.12 163.741 331.34 163.741 331.34C153.631 331.629 143.543 332.464 133.521 333.84L146.881 411H183.191L198.201 334.18Z" fill="#E39292" stroke="#263238" stroke-linecap="round" stroke-linejoin="round"/>
<path d="M175.661 348.11H153.541C149.024 348.11 145.361 351.773 145.361 356.29V367.09C145.361 371.608 149.024 375.27 153.541 375.27H175.661C180.179 375.27 183.841 371.608 183.841 367.09V356.29C183.841 351.773 180.179 348.11 175.661 348.11Z" fill="white" stroke="#263238" stroke-linecap="round" stroke-linejoin="round"/>
<path d="M158.14 359.3H151.91V365.53H158.14V359.3Z" fill="white" stroke="#263238" stroke-linecap="round" stroke-linejoin="round"/>
<path d="M167.71 359.3H161.48V365.53H167.71V359.3Z" fill="white" stroke="#263238" stroke-linecap="round" stroke-linejoin="round"/>
<path d="M177.291 359.3H171.061V365.53H177.291V359.3Z" fill="white" stroke="#263238" stroke-linecap="round" stroke-linejoin="round"/>
<path d="M77.0605 393.56H187.901C189.227 393.56 190.498 394.086 191.436 395.024C192.374 395.962 192.901 397.233 192.901 398.56V460.83H72.0605V398.56C72.0605 397.233 72.5873 395.962 73.525 395.024C74.4627 394.086 75.7345 393.56 77.0605 393.56Z" fill="white" stroke="#263238" stroke-linecap="round" stroke-linejoin="round"/>
<path d="M192.901 415.939C177.721 419.789 162.141 429.589 133.111 443.389C105.111 456.709 82.1905 456.479 72.0605 455.449V460.829H192.901V415.939Z" fill="#263238" stroke="#263238" stroke-linecap="round" stroke-linejoin="round"/>
<path d="M192.901 457.1H72.0605V460.84H192.901V457.1Z" fill="white" stroke="#263238" stroke-linecap="round" stroke-linejoin="round"/>
<path d="M138.71 427.2C138.71 428.432 138.345 429.636 137.66 430.661C136.975 431.685 136.003 432.484 134.864 432.956C133.726 433.427 132.473 433.55 131.265 433.31C130.056 433.07 128.946 432.476 128.075 431.605C127.203 430.734 126.61 429.624 126.37 428.415C126.129 427.207 126.253 425.954 126.724 424.816C127.196 423.677 127.994 422.704 129.019 422.02C130.043 421.335 131.248 420.97 132.48 420.97C134.132 420.97 135.717 421.626 136.885 422.794C138.054 423.963 138.71 425.547 138.71 427.2Z" fill="white" stroke="#263238" stroke-linecap="round" stroke-linejoin="round"/>
</svg>
