<svg width="425" height="425" viewBox="0 0 425 425" fill="none" xmlns="http://www.w3.org/2000/svg">
<path d="M359.559 359.21V263.287" stroke="#263238" stroke-linecap="round" stroke-linejoin="round"/>
<path d="M351.781 359.21V311.644" stroke="#263238" stroke-linecap="round" stroke-linejoin="round"/>
<path d="M361.99 279.012C361.99 279.012 354.153 278.12 350.94 271.915C347.727 265.71 347.421 249.704 359.627 231.965C371.833 214.225 378.234 214.038 380.359 228.514C382.484 242.989 382.178 264.01 377.18 271.974C372.182 279.939 361.99 279.012 361.99 279.012Z" fill="#E6FFE8" stroke="#263238" stroke-linecap="round" stroke-linejoin="round"/>
<path d="M364.77 245.599C366.215 240.669 367.94 236.249 369.946 233.223" stroke="#263238" stroke-linecap="round" stroke-linejoin="round"/>
<path d="M358.703 277.949C359.779 268.194 361.482 258.518 363.803 248.981" stroke="#263238" stroke-linecap="round" stroke-linejoin="round"/>
<path d="M366.659 310.148C366.659 310.148 361.627 306.247 362.035 300.637C362.443 295.027 368.903 283.849 384.722 276.76C400.54 269.671 405.054 272.187 400.464 283.05C395.874 293.913 386.864 308.287 380.064 311.687C373.264 315.087 366.659 310.148 366.659 310.148Z" fill="#E6FFE8" stroke="#263238" stroke-linecap="round" stroke-linejoin="round"/>
<path d="M382.562 288.269C385.622 285.481 388.665 283.169 391.309 281.911" stroke="#263238" stroke-linecap="round" stroke-linejoin="round"/>
<path d="M380.531 290.189C374.933 295.796 369.703 301.758 364.874 308.039C364.874 308.039 360.82 313.496 359.621 324.334" stroke="#263238" stroke-linecap="round" stroke-linejoin="round"/>
<path d="M363.801 342.55C363.801 342.55 360.885 340.289 361.123 337.042C361.361 333.795 365.101 327.318 374.273 323.204C383.444 319.09 386.045 320.56 383.385 326.859C380.724 333.157 375.505 341.479 371.578 343.442C367.651 345.406 363.801 342.55 363.801 342.55Z" fill="#E6FFE8" stroke="#263238" stroke-linecap="round" stroke-linejoin="round"/>
<path d="M372.988 329.91C374.504 328.446 376.222 327.207 378.088 326.229" stroke="#263238" stroke-linecap="round" stroke-linejoin="round"/>
<path d="M371.816 331.023C368.574 334.267 365.544 337.717 362.747 341.351C362.747 341.351 360.392 344.513 359.695 350.794" stroke="#263238" stroke-linecap="round" stroke-linejoin="round"/>
<path d="M352.454 297.176C352.454 297.176 357.478 293.275 357.078 287.665C356.679 282.055 350.21 270.878 334.383 263.789C318.556 256.7 314.06 259.215 318.65 270.078C323.24 280.941 332.25 295.315 339.05 298.715C345.85 302.115 352.454 297.176 352.454 297.176Z" fill="#E6FFE8" stroke="#263238" stroke-linecap="round" stroke-linejoin="round"/>
<path d="M336.552 275.297C333.947 272.777 330.999 270.637 327.797 268.939" stroke="#263238" stroke-linecap="round" stroke-linejoin="round"/>
<path d="M338.582 277.219C344.177 282.826 349.404 288.788 354.231 295.069C354.231 295.069 358.285 300.526 359.492 311.363" stroke="#263238" stroke-linecap="round" stroke-linejoin="round"/>
<path d="M349.98 340.502C349.98 340.502 355.08 340.663 357.63 337.595C360.18 334.526 361.71 325.958 355.335 315.495C348.96 305.031 344.888 304.3 342.338 311.95C339.788 319.6 338.301 330.812 340.851 335.495C343.401 340.179 349.98 340.502 349.98 340.502Z" fill="#E6FFE8" stroke="#263238" stroke-linecap="round" stroke-linejoin="round"/>
<path d="M350.781 332.698C350.858 333.744 350.909 334.789 350.934 335.826" stroke="#263238" stroke-linecap="round" stroke-linejoin="round"/>
<path d="M346.871 311.448C348.605 317.609 349.838 323.9 350.56 330.259" stroke="#263238" stroke-linecap="round" stroke-linejoin="round"/>
<path d="M21.1562 278.545H138.805V38.4199" stroke="#263238" stroke-linecap="round" stroke-linejoin="round"/>
<path d="M263.652 278.545H146.004V38.4199" stroke="#263238" stroke-linecap="round" stroke-linejoin="round"/>
<path d="M194.02 278.545H311.668V38.4199" stroke="#263238" stroke-linecap="round" stroke-linejoin="round"/>
<path d="M287.666 94.8008L246.543 140.242" stroke="#263238" stroke-linecap="round" stroke-linejoin="round"/>
<path d="M264.852 129.956L253.445 142.562" stroke="#263238" stroke-linecap="round" stroke-linejoin="round"/>
<path d="M174.214 82.8662L152.004 107.406" stroke="#263238" stroke-linecap="round" stroke-linejoin="round"/>
<path d="M180.215 76.8911L195.226 60.3076" stroke="#263238" stroke-linecap="round" stroke-linejoin="round"/>
<path d="M134.001 228.795L119.594 244.715" stroke="#263238" stroke-linecap="round" stroke-linejoin="round"/>
<path d="M129.2 207.57L102.484 237.091" stroke="#263238" stroke-linecap="round" stroke-linejoin="round"/>
<path d="M400.182 114.652C408.912 92.8138 398.286 68.0327 376.447 59.3023C354.608 50.5719 329.827 61.1982 321.097 83.0368C312.366 104.875 322.993 129.656 344.831 138.387C366.67 147.117 391.451 136.491 400.182 114.652Z" stroke="#263238" stroke-linecap="round" stroke-linejoin="round"/>
<path d="M360.655 136.026C381.184 136.026 397.825 119.384 397.825 98.8551C397.825 78.3264 381.184 61.6846 360.655 61.6846C340.126 61.6846 323.484 78.3264 323.484 98.8551C323.484 119.384 340.126 136.026 360.655 136.026Z" stroke="#263238" stroke-linecap="round" stroke-linejoin="round"/>
<path d="M360.655 101.396C362.058 101.396 363.196 100.259 363.196 98.855C363.196 97.4513 362.058 96.3135 360.655 96.3135C359.251 96.3135 358.113 97.4513 358.113 98.855C358.113 100.259 359.251 101.396 360.655 101.396Z" stroke="#263238" stroke-linecap="round" stroke-linejoin="round"/>
<path d="M360.652 101.396V113.883" stroke="#263238" stroke-linecap="round" stroke-linejoin="round"/>
<path d="M358.112 98.8555H327.801" stroke="#263238" stroke-linecap="round" stroke-linejoin="round"/>
<path d="M167.255 201.637L153.247 179.894C161.783 166.095 164.676 149.539 161.327 133.663C157.977 117.788 148.642 103.812 135.26 94.6373C121.877 85.4628 105.476 81.7949 89.4601 84.3949C73.4445 86.995 59.0455 95.6633 49.2526 108.6C39.4598 121.537 35.0255 137.748 36.8705 153.868C38.7154 169.988 46.6978 184.779 59.1604 195.168C71.623 205.558 87.6082 210.749 103.797 209.663C119.986 208.577 135.135 201.298 146.098 189.337L167.255 201.637Z" fill="#263238" stroke="#263238" stroke-linecap="round" stroke-linejoin="round"/>
<path d="M168.588 196.35L154.571 174.607C163.091 160.814 165.973 144.27 162.616 128.409C159.26 112.548 149.925 98.5895 136.548 89.4305C123.171 80.2715 106.78 76.6162 90.7795 79.2234C74.7785 81.8306 60.3963 90.5001 50.6189 103.432C40.8415 116.364 36.4201 132.564 38.2726 148.67C40.1251 164.776 48.1093 179.549 60.5674 189.924C73.0255 200.298 89.0004 205.476 105.175 204.382C121.35 203.288 136.483 196.007 147.431 184.05L168.588 196.35Z" fill="white" stroke="#263238" stroke-linecap="round" stroke-linejoin="round"/>
<path d="M56.6427 150.45V144.559L66.2987 129.718C67.0297 128.622 67.7182 127.551 68.3727 126.522C69.0022 125.526 69.5372 124.473 69.9707 123.377C70.3869 122.31 70.5975 121.174 70.5912 120.028C70.6627 119.11 70.4167 118.195 69.8942 117.436C69.6651 117.158 69.3748 116.936 69.046 116.789C68.7172 116.641 68.3587 116.572 67.9987 116.586C67.6165 116.564 67.2338 116.619 66.8732 116.747C66.5126 116.876 66.1814 117.075 65.8991 117.334C65.371 117.885 65.0163 118.58 64.8792 119.331C64.6834 120.25 64.5894 121.188 64.5987 122.128V124.1H56.5406V121.958C56.5109 119.784 56.9005 117.626 57.6882 115.6C58.4065 113.772 59.6824 112.216 61.3347 111.154C63.3098 109.99 65.5809 109.426 67.8712 109.531C71.5035 109.531 74.2405 110.471 76.0822 112.353C77.9238 114.234 78.8475 116.855 78.8531 120.215C78.8685 121.765 78.6066 123.305 78.0797 124.763C77.5482 126.188 76.8612 127.551 76.0311 128.826C75.1811 130.143 74.2802 131.512 73.3112 132.948L65.9246 143.998H77.7567V150.45H56.6427Z" fill="#263238" stroke="#263238" stroke-linecap="round" stroke-linejoin="round"/>
<path d="M93.1347 150.449V141.397H80.6992V135.26L91.2392 110.049H100.921V135.209H104.661V141.397H100.921V150.449H93.1347ZM87.0402 135.149H93.1347V118.387L87.0402 135.149Z" fill="#263238" stroke="#263238" stroke-linecap="round" stroke-linejoin="round"/>
<path d="M107.762 150.449L120.138 110.015H124.532L112.105 150.449H107.762Z" fill="#263238" stroke="#263238" stroke-linecap="round" stroke-linejoin="round"/>
<path d="M129.921 150.449L138.71 116.356H127.66V110.015H146.828V115.752L138.064 150.449H129.921Z" fill="#263238" stroke="#263238" stroke-linecap="round" stroke-linejoin="round"/>
<path d="M64.497 176.358C63.5058 176.395 62.5245 176.15 61.6665 175.652C60.9118 175.176 60.319 174.483 59.9665 173.663C59.5635 172.714 59.3277 171.701 59.2695 170.671L60.9695 170.161C61.0439 170.955 61.2006 171.738 61.437 172.499C61.6215 173.141 61.991 173.714 62.4995 174.148C63.0665 174.586 63.7733 174.803 64.4885 174.76C65.2769 174.805 66.0526 174.547 66.656 174.037C66.9376 173.728 67.1517 173.363 67.2849 172.967C67.418 172.57 67.4673 172.15 67.4295 171.734C67.4457 170.888 67.2089 170.056 66.7495 169.345C66.2043 168.567 65.5743 167.851 64.871 167.212L61.199 163.676C60.5983 163.109 60.1058 162.438 59.7455 161.695C59.4339 160.992 59.2774 160.229 59.2865 159.46C59.247 158.844 59.3422 158.227 59.5653 157.651C59.7884 157.076 60.1342 156.556 60.5785 156.128C61.5258 155.327 62.7393 154.912 63.9785 154.963C64.6553 154.956 65.329 155.054 65.976 155.252C66.5533 155.429 67.0786 155.744 67.506 156.17C67.9525 156.639 68.2919 157.198 68.5005 157.811C68.7622 158.604 68.9277 159.426 68.9935 160.259L67.2935 160.701C67.245 159.933 67.1023 159.173 66.8685 158.44C66.6917 157.868 66.3374 157.368 65.857 157.012C65.2933 156.651 64.6296 156.478 63.9615 156.519C63.1987 156.485 62.4487 156.723 61.845 157.19C61.5524 157.45 61.3235 157.774 61.1761 158.137C61.0287 158.499 60.9667 158.891 60.995 159.281C60.9883 159.814 61.0986 160.342 61.318 160.828C61.6354 161.407 62.056 161.923 62.559 162.35L66.248 165.835C67.0693 166.591 67.7918 167.448 68.3985 168.385C69.0007 169.344 69.3135 170.457 69.2995 171.589C69.3311 172.506 69.1199 173.415 68.6875 174.224C68.2997 174.918 67.7055 175.473 66.9875 175.814C66.2092 176.181 65.3577 176.367 64.497 176.358Z" fill="#263238" stroke="#263238" stroke-linecap="round" stroke-linejoin="round"/>
<path d="M71.9102 176.103V155.176H79.4752V156.697H73.8992V164.551H78.4467V165.996H73.8992V174.624H79.5347V176.103H71.9102Z" fill="#263238" stroke="#263238" stroke-linecap="round" stroke-linejoin="round"/>
<path d="M82.2227 176.102V155.175H86.9487C88.0136 155.124 89.0744 155.34 90.0342 155.804C90.7686 156.211 91.3394 156.86 91.6492 157.64C91.9992 158.551 92.1667 159.521 92.1422 160.496C92.1477 161.236 92.0592 161.973 91.8786 162.689C91.7379 163.335 91.4467 163.938 91.0287 164.449C90.5688 164.959 89.9475 165.295 89.2692 165.401L92.4737 176.102H90.5612L87.4927 165.817H84.1522V176.102H82.2227ZM84.1522 164.372H86.8127C87.5201 164.413 88.2253 164.26 88.8527 163.93C89.3387 163.636 89.7035 163.178 89.8812 162.638C90.1109 161.948 90.2173 161.223 90.1957 160.496C90.268 159.485 90.034 158.475 89.5242 157.598C89.0737 156.96 88.1897 156.646 86.8637 156.646H84.1522V164.372Z" fill="#263238" stroke="#263238" stroke-linecap="round" stroke-linejoin="round"/>
<path d="M95.4961 176.103V155.176H97.4596V176.103H95.4961Z" fill="#263238" stroke="#263238" stroke-linecap="round" stroke-linejoin="round"/>
<path d="M104.873 176.103L99.9688 155.176H101.856L105.808 172.55L109.523 155.218H111.35L106.624 176.145L104.873 176.103Z" fill="#263238" stroke="#263238" stroke-linecap="round" stroke-linejoin="round"/>
<path d="M113.898 176.103V155.176H115.862V176.103H113.898Z" fill="#263238" stroke="#263238" stroke-linecap="round" stroke-linejoin="round"/>
<path d="M124.406 176.358C123.254 176.44 122.108 176.141 121.142 175.508C120.367 174.916 119.809 174.085 119.553 173.145C119.246 172.073 119.097 170.962 119.111 169.847V161.5C119.094 160.35 119.246 159.205 119.561 158.1C119.828 157.176 120.396 156.368 121.176 155.805C122.138 155.192 123.267 154.895 124.406 154.955C125.442 154.9 126.47 155.152 127.364 155.677C128.087 156.177 128.627 156.899 128.903 157.734C129.231 158.755 129.389 159.824 129.37 160.896V162.163H127.5V160.956C127.511 160.165 127.437 159.376 127.279 158.601C127.172 158.004 126.856 157.465 126.387 157.08C125.805 156.677 125.103 156.485 124.398 156.536C123.65 156.485 122.907 156.688 122.29 157.114C121.798 157.539 121.463 158.117 121.338 158.754C121.164 159.561 121.082 160.385 121.091 161.211V170.127C121.076 170.987 121.176 171.844 121.389 172.677C121.531 173.304 121.889 173.86 122.4 174.25C122.994 174.624 123.688 174.805 124.389 174.768C125.098 174.816 125.802 174.614 126.378 174.199C126.847 173.786 127.162 173.225 127.271 172.609C127.427 171.823 127.501 171.022 127.492 170.221V168.852H129.353V170.093C129.369 171.194 129.223 172.291 128.92 173.349C128.682 174.23 128.155 175.005 127.424 175.55C126.529 176.132 125.472 176.415 124.406 176.358Z" fill="#263238" stroke="#263238" stroke-linecap="round" stroke-linejoin="round"/>
<path d="M132.414 176.103V155.176H139.988V156.697H134.403V164.551H138.951V165.996H134.403V174.624H140.039V176.103H132.414Z" fill="#263238" stroke="#263238" stroke-linecap="round" stroke-linejoin="round"/>
<path d="M281.077 272.145H326.612C326.612 272.145 301.962 332.758 306.611 359.831H260.465C260.465 359.831 269.075 290.607 281.077 272.145Z" fill="#263238" stroke="#263238" stroke-linecap="round" stroke-linejoin="round"/>
<path d="M241.678 185.138C241.678 185.138 242.129 193.341 257.403 198.126C272.678 202.912 288.182 198.126 296.843 204.926C305.505 211.726 305.275 222.249 302.309 227.494C299.342 232.738 294.557 237.974 308.692 244.128C322.828 250.282 314.387 268.294 308.463 274.907C302.538 281.52 292.313 284.707 280.88 282.429C269.448 280.151 256.035 252.569 241.449 237.974C226.863 223.38 225.078 196.46 234.385 188.742C243.693 181.024 241.678 185.138 241.678 185.138Z" fill="#263238" stroke="#263238" stroke-linecap="round" stroke-linejoin="round"/>
<path d="M239.334 155.634C239.334 155.634 245.624 152.889 247.239 158.184C248.854 163.48 249.33 178.032 249.33 178.032L245.93 177.224C245.93 177.224 246.738 160.768 243.023 158.184C239.309 155.6 236.41 161.414 236.41 161.414L239.334 155.634Z" fill="#A6A6A6" stroke="#263238" stroke-linecap="round" stroke-linejoin="round"/>
<path d="M168.723 332.673L190.211 321.181C190.211 321.181 188.723 298.63 188.936 297.78C189.148 296.93 194.529 252.807 194.529 252.807L179.79 296.505L168.723 332.673Z" fill="#263238" stroke="#263238" stroke-linecap="round" stroke-linejoin="round"/>
<path d="M263.717 230.146C263.717 230.146 284.967 241.723 287.823 242.896C290.679 244.069 288.996 258.833 288.996 268.481C288.996 278.128 274.546 359.601 274.546 359.601H167.531C167.531 359.601 185.611 331.882 186.095 324.649C186.58 317.415 183.443 311.627 182.959 304.64C182.474 297.653 192.844 254.974 194.527 252.79C196.21 250.605 203.452 245.08 203.452 245.08L229.003 222.7L240.818 220.048L263.717 230.146Z" fill="#E88A94" stroke="#263238" stroke-linecap="round" stroke-linejoin="round"/>
<path d="M192.797 332.485L189.227 339.829" stroke="#263238" stroke-linecap="round" stroke-linejoin="round"/>
<path d="M196.219 311.389C196.219 311.389 190.915 315.001 193.567 316.931C196.219 318.86 197.426 322.957 197.426 322.957L194.026 329.579" stroke="#263238" stroke-linecap="round" stroke-linejoin="round"/>
<path d="M221.203 328.949C222.64 329.06 224.153 329.145 225.734 329.187" stroke="#263238" stroke-linecap="round" stroke-linejoin="round"/>
<path d="M198.379 323C198.379 323 204.15 326.859 216.722 328.508" stroke="#263238" stroke-linecap="round" stroke-linejoin="round"/>
<path d="M183.999 168.86C182.983 169.356 182.136 170.141 181.563 171.116C180.99 172.091 180.717 173.213 180.778 174.343C180.778 178.542 184.178 186.761 184.178 186.761L186.116 186.124C186.116 186.124 182.571 177.573 183.056 174.504C183.213 173.609 183.613 172.775 184.213 172.093C184.813 171.411 185.589 170.907 186.456 170.637L185.81 168.537L183.999 168.86Z" fill="#A6A6A6" stroke="#263238" stroke-linecap="round" stroke-linejoin="round"/>
<path d="M192.302 190.459C193.152 194.709 191.699 198.542 189.115 199.044C186.531 199.545 183.777 196.494 182.961 192.244C182.145 187.994 183.564 184.152 186.148 183.659C188.732 183.166 191.486 186.217 192.302 190.459Z" fill="#EFD5B7" stroke="#263238" stroke-linecap="round" stroke-linejoin="round"/>
<path d="M200.147 189.09C201.753 194.513 199.875 199.86 195.948 200.99C192.021 202.121 187.533 198.704 185.918 193.281C184.303 187.858 186.19 182.511 190.117 181.381C194.044 180.25 198.54 183.667 200.147 189.09Z" fill="#263238" stroke="#263238" stroke-linecap="round" stroke-linejoin="round"/>
<path d="M214.709 218.653L218.526 231.063L205.98 246.873L203.889 259.088C203.889 259.088 201.806 293.938 202.996 299.31C204.186 304.682 204.186 306.161 204.186 306.161C204.186 306.161 230.111 276.071 242.921 257.6C255.73 239.13 258.705 227.799 258.705 227.799L246.193 220.999L240.243 193.289L214.709 218.653Z" fill="#EFD5B7" stroke="#263238" stroke-linecap="round" stroke-linejoin="round"/>
<path d="M234.496 206.643L218.524 231.063L214.07 216.69L234.496 206.643Z" fill="#263238" stroke="#263238" stroke-linecap="round" stroke-linejoin="round"/>
<path d="M204 258.399L203.881 259.088C203.881 259.088 201.798 293.938 202.988 299.31C204.178 304.682 204.178 306.161 204.178 306.161C204.178 306.161 230.103 276.071 242.913 257.6C243.916 256.155 244.851 254.753 245.743 253.393C229.704 258.884 213.35 258.977 204 258.399Z" fill="#EFD5B7" stroke="#263238" stroke-linecap="round" stroke-linejoin="round"/>
<path d="M197.717 142.57C197.717 142.57 185.775 149.829 184.483 160.794C183.191 171.759 187.713 183.54 189.489 188.215C191.266 192.89 197.394 211.123 200.616 214.676C203.837 218.229 214.326 223.541 216.103 224.51C217.879 225.479 221.101 225.156 223.846 223.218C226.592 221.28 237.88 207.578 239.656 204.348C241.433 201.118 241.747 194.021 241.747 194.021C241.747 194.021 241.424 179.826 240.787 170.637C240.149 161.449 240.625 152.566 233.043 144.823C225.461 137.079 205.138 136.918 197.717 142.57Z" fill="#EFD5B7" stroke="#263238" stroke-linecap="round" stroke-linejoin="round"/>
<path d="M240.785 170.637C240.139 161.44 240.624 152.566 233.042 144.823C225.46 137.079 205.136 136.918 197.716 142.57C197.716 142.57 185.773 149.829 184.481 160.794C183.733 167.169 184.949 173.799 186.436 179.171C189.182 177.471 198.447 171.793 208.842 164.509C221.261 155.796 225.298 142.247 225.298 142.247C225.298 142.247 226.743 141.44 226.429 143.216C226.114 144.993 221.261 155.473 219.493 157.088L217.716 158.695C217.716 158.695 219.17 158.372 225.783 166.277C232.396 174.182 236.102 177.412 238.04 178.381C239.069 178.753 240.15 178.962 241.244 179.001C241.117 176.103 240.964 173.179 240.785 170.637Z" fill="#263238" stroke="#263238" stroke-linecap="round" stroke-linejoin="round"/>
<path d="M220.921 187.739C221.125 188.921 220.692 189.992 219.944 190.119C219.196 190.247 218.431 189.397 218.244 188.215C218.057 187.034 218.473 185.963 219.221 185.827C219.969 185.691 220.709 186.558 220.921 187.739Z" fill="#263238" stroke="#263238" stroke-linecap="round" stroke-linejoin="round"/>
<path d="M202.852 190.315C203.064 191.505 202.631 192.567 201.883 192.703C201.135 192.839 200.361 191.981 200.183 190.791C200.004 189.601 200.404 188.547 201.152 188.411C201.9 188.275 202.648 189.133 202.852 190.315Z" fill="#263238" stroke="#263238" stroke-linecap="round" stroke-linejoin="round"/>
<path d="M213.52 180.472C213.52 180.472 218.849 176.281 223.72 179.664" stroke="#263238" stroke-linecap="round" stroke-linejoin="round"/>
<path d="M202.713 182.749C202.713 182.749 196.423 179.681 192.062 185.172" stroke="#263238" stroke-linecap="round" stroke-linejoin="round"/>
<path d="M203.844 182.894C203.844 182.894 208.196 184.993 208.519 189.022" stroke="#263238" stroke-linecap="round" stroke-linejoin="round"/>
<path d="M208.68 200.157C208.68 200.157 210.456 201.441 213.516 200.48" stroke="#263238" stroke-linecap="round" stroke-linejoin="round"/>
<path d="M207.398 206.932C211.014 206.776 214.57 205.955 217.887 204.51C223.531 202.087 225.792 198.704 225.792 198.704" stroke="#263238" stroke-linecap="round" stroke-linejoin="round"/>
<path d="M210.137 206.77C211.427 207.911 213.09 208.54 214.812 208.538C217.719 208.538 220.294 203.379 220.294 203.379C220.294 203.379 212.874 206.609 210.137 206.77Z" stroke="#263238" stroke-linecap="round" stroke-linejoin="round"/>
<path d="M243.686 194.828C247.784 194.828 251.107 190.242 251.107 184.585C251.107 178.928 247.784 174.343 243.686 174.343C239.588 174.343 236.266 178.928 236.266 184.585C236.266 190.242 239.588 194.828 243.686 194.828Z" fill="#263238" stroke="#263238" stroke-linecap="round" stroke-linejoin="round"/>
<path d="M246.83 190.637C249.459 190.637 251.59 187.136 251.59 182.817C251.59 178.498 249.459 174.997 246.83 174.997C244.201 174.997 242.07 178.498 242.07 182.817C242.07 187.136 244.201 190.637 246.83 190.637Z" fill="#EFD5B7" stroke="#263238" stroke-linecap="round" stroke-linejoin="round"/>
<path d="M189.113 195.5C189.113 195.5 189.164 212.262 193.516 213.715C197.868 215.169 209.811 212.262 209.811 212.262" stroke="#263238" stroke-width="2" stroke-linecap="round" stroke-linejoin="round"/>
<path d="M215.941 212.194C215.941 213.486 214.352 214.531 212.388 214.531C210.425 214.531 208.844 213.486 208.844 212.194C208.844 210.902 210.433 209.856 212.388 209.856C214.343 209.856 215.941 210.902 215.941 212.194Z" fill="#263238" stroke="#263238" stroke-linecap="round" stroke-linejoin="round"/>
<path d="M216.954 231.837C216.954 231.837 211.854 240.753 208.275 267.273C204.697 293.793 207.068 299.089 207.068 299.089L201.968 302.225C201.968 302.225 191.369 301.018 194.981 275.952C198.594 250.885 200.6 246.78 200.6 246.78L216.954 231.837Z" fill="#E88A94" stroke="#263238" stroke-linecap="round" stroke-linejoin="round"/>
<path d="M249.253 222.699C249.253 222.699 237.685 250.18 225.632 267.299C213.579 284.418 197.199 308.974 197.199 308.974C197.199 308.974 205.878 304.877 224.204 291.124C242.53 277.371 261.085 245.802 263.015 242.674C264.944 239.546 267.834 232.313 267.834 232.313L249.253 222.699Z" fill="#E88A94" stroke="#263238" stroke-linecap="round" stroke-linejoin="round"/>
<path d="M149.114 344.793C146.286 346.514 143.321 347.998 140.248 349.23C134.825 351.449 134.298 351.058 136.058 352.928C137.817 354.798 146.904 351.449 149.369 350.463C151.834 349.477 156.517 347.998 156.517 347.998C156.517 347.998 162.187 351.202 165.638 352.188C169.089 353.174 173.288 351.695 173.288 351.695C173.288 351.695 173.534 347.751 170.576 345.533C167.618 343.314 161.226 338.138 158.991 338.384C156.755 338.631 149.114 344.793 149.114 344.793Z" fill="#EFD5B7" stroke="#263238" stroke-linecap="round" stroke-linejoin="round"/>
<path d="M147.637 338.877C147.637 338.877 144.679 338.138 142.707 339.617C140.735 341.096 138.516 345.779 138.27 347.012C138.023 348.244 138.516 348.984 140.488 347.258C142.46 345.533 145.911 343.068 145.911 343.068L148.869 342.082L147.637 338.877Z" fill="#EFD5B7" stroke="#263238" stroke-linecap="round" stroke-linejoin="round"/>
<path d="M155.277 336.659C155.277 336.659 149.327 334.687 148.128 336.413C146.93 338.138 142.705 347.998 143.938 348.738C145.17 349.477 146.896 347.998 149.114 344.794C151.333 341.589 152.565 339.864 152.565 339.864L155.523 339.371L155.277 336.659Z" fill="#EFD5B7" stroke="#263238" stroke-linecap="round" stroke-linejoin="round"/>
<path d="M165.842 338.869C165.842 338.869 158.133 332.842 156.203 334.287C154.274 335.732 148.009 345.133 147.287 347.037C146.564 348.941 149.939 348.006 152.582 345.592C155.226 343.178 158.371 340.492 158.371 340.492L164.397 343.629L165.842 338.869Z" fill="#EFD5B7" stroke="#263238" stroke-linecap="round" stroke-linejoin="round"/>
<path d="M193.57 343.451C193.57 343.451 183.446 342.966 179.349 341.521C175.252 340.076 167.05 336.94 164.644 337.178C162.239 337.416 153.067 346.341 151.138 348.27C149.208 350.2 149.438 350.718 151.333 350.956C153.229 351.194 157.887 348.032 160.063 346.341C161.409 345.305 162.862 344.416 164.398 343.689C166.128 346.179 168.064 348.519 170.186 350.684C172.592 352.852 178.38 354.535 180.548 354.297C181.927 354.14 183.295 353.899 184.645 353.574L192.847 353.336L193.57 343.451Z" fill="#EFD5B7" stroke="#263238" stroke-linecap="round" stroke-linejoin="round"/>
<path d="M263.957 273.776C263.957 273.776 255.04 284.137 255.525 287.758C256.009 291.379 256.247 294.983 256.247 294.983L249.736 334.279C249.736 334.279 244.194 331.627 244.194 333.794V335.97L192.098 341.274L191.613 359.592L274.539 359.83C274.539 359.83 278.636 355.257 279.121 353.565C279.605 351.874 288.76 322.71 291.174 292.093C293.588 261.476 292.381 247.74 291.174 245.343C289.967 242.946 275.746 238.356 275.746 238.356" fill="#E88A94"/>
<path d="M263.957 273.776C263.957 273.776 255.04 284.137 255.525 287.758C256.009 291.379 256.247 294.983 256.247 294.983L249.736 334.279C249.736 334.279 244.194 331.627 244.194 333.794V335.97L192.098 341.274L191.613 359.592L274.539 359.83C274.539 359.83 278.636 355.257 279.121 353.565C279.605 351.874 288.76 322.71 291.174 292.093C293.588 261.476 292.381 247.74 291.174 245.343C289.967 242.946 275.746 238.356 275.746 238.356" stroke="#263238" stroke-linecap="round" stroke-linejoin="round"/>
<path d="M251.668 334.05C251.668 334.05 259.377 339.107 263.959 340.314L251.668 334.05Z" fill="#EFD5B7"/>
<path d="M251.668 334.05C251.668 334.05 259.377 339.107 263.959 340.314" stroke="#263238" stroke-linecap="round" stroke-linejoin="round"/>
<path d="M179.348 285.149L185.298 266.05C187.711 263.685 189.823 261.033 191.588 258.153C194.138 253.844 194.138 245.76 193.739 244.324C193.339 242.887 198.949 236.427 200.539 234.124C202.128 231.82 203.046 227.655 200.896 224.604C198.745 221.552 197.666 226.584 196.229 228.913C194.793 231.242 189.761 233.58 189.761 233.58L184.448 237.898C184.448 237.898 175.651 245.616 175.098 246.695C174.546 247.775 173.483 251.183 173.483 251.183L174.206 261.596L169.539 279.726L179.348 285.149Z" fill="#EFD5B7" stroke="#263238" stroke-linecap="round" stroke-linejoin="round"/>
<path d="M180.82 231.616C180.82 231.616 185.13 224.816 186.388 222.64C187.646 220.464 189.618 211.871 190.876 212.44C192.134 213.01 193.426 215.84 193.035 219.623C192.644 223.405 188.181 232.007 188.181 232.007L180.82 231.616Z" stroke="#263238" stroke-linecap="round" stroke-linejoin="round"/>
<path d="M170.406 274.345L174.18 261.595L172.548 241.127L177.572 231.437L191.393 229.644C191.393 229.644 199.833 234.132 200.556 234.132C201.278 234.132 200.556 236.104 198.941 236.461C197.326 236.818 194.266 235.925 194.266 235.925L199.476 239.325C199.476 239.325 199.119 240.94 197.861 241.297C196.619 241.548 195.354 241.67 194.087 241.663C194.087 241.663 198.575 244.536 197.487 245.063C196.422 245.552 195.26 245.796 194.087 245.777H190.687L187.993 245.42L183.862 247.035C183.862 247.035 186.735 254.396 186.556 257.991C186.378 261.587 181.89 263.941 181.89 263.941" fill="#EFD5B7"/>
<path d="M170.406 274.345L174.18 261.595L172.548 241.127L177.572 231.437L191.393 229.644C191.393 229.644 199.833 234.132 200.556 234.132C201.278 234.132 200.556 236.104 198.941 236.461C197.326 236.818 194.266 235.925 194.266 235.925L199.476 239.325C199.476 239.325 199.119 240.94 197.861 241.297C196.619 241.548 195.354 241.67 194.087 241.663C194.087 241.663 198.575 244.536 197.487 245.063C196.422 245.552 195.26 245.796 194.087 245.777H190.687L187.993 245.42L183.862 247.035C183.862 247.035 186.735 254.396 186.556 257.991C186.378 261.587 181.89 263.941 181.89 263.941" stroke="#263238" stroke-linecap="round" stroke-linejoin="round"/>
<path d="M194.284 235.925C194.284 235.925 191.411 233.588 189.796 233.588C188.181 233.588 178.312 235.381 178.312 235.381" stroke="#263238" stroke-linecap="round" stroke-linejoin="round"/>
<path d="M194.103 241.671C194.103 241.671 189.436 239.121 188 239.121C186.563 239.121 175.25 241.994 175.25 241.994" stroke="#263238" stroke-linecap="round" stroke-linejoin="round"/>
<path d="M170.635 270.342L185.213 280.159C185.213 280.159 178.719 315.009 178.081 317.993C177.444 320.976 172.769 328.839 170.431 331.185C168.094 333.531 165.331 333.097 158.948 331.397C152.564 329.697 147.048 324.597 147.243 317.993C147.439 311.388 170.635 270.342 170.635 270.342Z" fill="#E88A94" stroke="#263238" stroke-linecap="round" stroke-linejoin="round"/>
<path d="M95.2955 354.807H91.0625V356.107H95.2955V354.807Z" fill="white" stroke="#263238" stroke-linecap="round" stroke-linejoin="round"/>
<path d="M101.159 354.807H96.9258V356.107H101.159V354.807Z" fill="white" stroke="#263238" stroke-linecap="round" stroke-linejoin="round"/>
<path d="M107.026 354.807H102.793V356.107H107.026V354.807Z" fill="white" stroke="#263238" stroke-linecap="round" stroke-linejoin="round"/>
<path d="M112.897 354.807H108.664V356.107H112.897V354.807Z" fill="white" stroke="#263238" stroke-linecap="round" stroke-linejoin="round"/>
<path d="M118.764 354.807H114.531V356.107H118.764V354.807Z" fill="white" stroke="#263238" stroke-linecap="round" stroke-linejoin="round"/>
<path d="M124.628 354.807H120.395V356.107H124.628V354.807Z" fill="white" stroke="#263238" stroke-linecap="round" stroke-linejoin="round"/>
<path d="M130.495 354.807H126.262V356.107H130.495V354.807Z" fill="white" stroke="#263238" stroke-linecap="round" stroke-linejoin="round"/>
<path d="M136.358 354.807H132.125V356.107H136.358V354.807Z" fill="white" stroke="#263238" stroke-linecap="round" stroke-linejoin="round"/>
<path d="M142.225 354.807H137.992V356.107H142.225V354.807Z" fill="white" stroke="#263238" stroke-linecap="round" stroke-linejoin="round"/>
<path d="M148.088 354.807H143.855V356.107H148.088V354.807Z" fill="white" stroke="#263238" stroke-linecap="round" stroke-linejoin="round"/>
<path d="M153.963 354.807H149.73V356.107H153.963V354.807Z" fill="white" stroke="#263238" stroke-linecap="round" stroke-linejoin="round"/>
<path d="M159.827 354.807H155.594V356.107H159.827V354.807Z" fill="white" stroke="#263238" stroke-linecap="round" stroke-linejoin="round"/>
<path d="M165.694 354.807H161.461V356.107H165.694V354.807Z" fill="white" stroke="#263238" stroke-linecap="round" stroke-linejoin="round"/>
<path d="M171.557 354.807H167.324V356.107H171.557V354.807Z" fill="white" stroke="#263238" stroke-linecap="round" stroke-linejoin="round"/>
<path d="M177.42 354.807H173.188V356.107H177.42V354.807Z" fill="white" stroke="#263238" stroke-linecap="round" stroke-linejoin="round"/>
<path d="M183.288 354.807H179.055V356.107H183.288V354.807Z" fill="white" stroke="#263238" stroke-linecap="round" stroke-linejoin="round"/>
<path d="M193.514 355.835H88.6328V359.524H193.514V355.835Z" fill="white" stroke="#263238" stroke-linecap="round" stroke-linejoin="round"/>
<path d="M193.506 355.835H153.301V359.524H193.506V355.835Z" fill="white" stroke="#263238" stroke-linecap="round" stroke-linejoin="round"/>
<path d="M121.356 323.527H38.8978L22.3398 235.841H104.798L121.356 323.527Z" fill="#263238" stroke="white" stroke-linecap="round" stroke-linejoin="round"/>
<path d="M118.851 321.309H38.8571L23.1406 238.06H103.126L118.851 321.309Z" fill="#263238" stroke="white" stroke-linecap="round" stroke-linejoin="round"/>
<path d="M103.447 314.679H43.9727L32.2852 252.79H91.7597L103.447 314.679Z" fill="#263238" stroke="white" stroke-linecap="round" stroke-linejoin="round"/>
<path d="M32.2866 252.79L23.1406 238.06" stroke="#263238" stroke-linecap="round" stroke-linejoin="round"/>
<path d="M91.7578 252.79L103.122 238.06" stroke="white" stroke-linecap="round" stroke-linejoin="round"/>
<path d="M103.445 314.679L118.847 321.309" stroke="white" stroke-linecap="round" stroke-linejoin="round"/>
<path d="M43.9725 314.679L38.8555 321.309" stroke="#263238" stroke-linecap="round" stroke-linejoin="round"/>
<path d="M68.1538 296.14H54.6133L63.2323 288.456H76.7728L68.1538 296.14Z" fill="#263238" stroke="white" stroke-linecap="round" stroke-linejoin="round"/>
<path d="M113.077 354.909H63.5391V359.831H113.077V354.909Z" fill="#263238" stroke="white" stroke-linecap="round" stroke-linejoin="round"/>
<path d="M84.7713 359.831H71.2308L54.6133 340.952H68.1538L84.7713 359.831Z" fill="#263238" stroke="white" stroke-linecap="round" stroke-linejoin="round"/>
<path d="M68.1538 296.454H54.6133V340.756H68.1538V296.454Z" fill="#263238" stroke="white" stroke-linecap="round" stroke-linejoin="round"/>
<path d="M266.398 351.407C268.333 354.918 271.272 357.772 274.839 359.601L266.398 351.407Z" fill="white"/>
<path d="M266.398 351.407C268.333 354.918 271.272 357.772 274.839 359.601" stroke="#263238" stroke-linecap="round" stroke-linejoin="round"/>
<path d="M11.9492 359.831H399.728" stroke="#263238" stroke-linecap="round" stroke-linejoin="round"/>
</svg>
