<svg width="500" height="500" viewBox="0 0 500 500" fill="none" xmlns="http://www.w3.org/2000/svg">
<path d="M215.409 419.9C206.299 406.03 167.409 347.71 156.029 346.15C144.939 344.63 105.529 403.6 94.8691 419.9H215.409Z" fill="#2E353A" stroke="#2E353A" stroke-linecap="round" stroke-linejoin="round"/>
<path d="M265.279 79.1309V213.621" stroke="#2E353A" stroke-width="3" stroke-linecap="round" stroke-linejoin="round"/>
<path d="M281.26 82.7402V213.62" stroke="#2E353A" stroke-width="3" stroke-linecap="round" stroke-linejoin="round"/>
<path d="M298.779 154.36V281.13" stroke="#2E353A" stroke-width="3" stroke-linecap="round" stroke-linejoin="round"/>
<path d="M317.33 82.7402V281.13" stroke="#2E353A" stroke-width="3" stroke-linecap="round" stroke-linejoin="round"/>
<path d="M335.879 82.7402V217.23" stroke="#2E353A" stroke-width="3" stroke-linecap="round" stroke-linejoin="round"/>
<path d="M251.369 97.1602H336.399" stroke="#2E353A" stroke-width="3" stroke-linecap="round" stroke-linejoin="round"/>
<path d="M251.369 127.051H343.579" stroke="#2E353A" stroke-width="3" stroke-linecap="round" stroke-linejoin="round"/>
<path d="M249.83 154.36H352.37" stroke="#2E353A" stroke-width="3" stroke-linecap="round" stroke-linejoin="round"/>
<path d="M248.279 184.771H352.369" stroke="#2E353A" stroke-width="3" stroke-linecap="round" stroke-linejoin="round"/>
<path d="M267.859 217.74H346.699" stroke="#2E353A" stroke-width="3" stroke-linecap="round" stroke-linejoin="round"/>
<path d="M288.469 249.69H339.999" stroke="#2E353A" stroke-width="3" stroke-linecap="round" stroke-linejoin="round"/>
<path d="M152.809 91.9004L170.999 106.14" stroke="#2E353A" stroke-width="2" stroke-linecap="round" stroke-linejoin="round"/>
<path d="M189.189 76.8809L195.519 86.3709" stroke="#2E353A" stroke-width="2" stroke-linecap="round" stroke-linejoin="round"/>
<path d="M221.619 53.9404L227.159 71.3404" stroke="#2E353A" stroke-width="2" stroke-linecap="round" stroke-linejoin="round"/>
<path d="M325.398 277.541H295.398V206.211H254.698V79.8809C237.545 80.0502 220.724 84.6292 205.852 93.1775C190.98 101.726 178.557 113.956 169.777 128.693C160.997 143.429 156.156 160.177 155.718 177.325C155.28 194.473 159.261 211.446 167.278 226.611C170.538 234.201 178.198 252.791 185.868 276.831C192.958 299.021 196.658 321.331 196.658 324.701C196.658 325.031 196.658 325.371 196.658 325.701C196.623 326.704 196.791 327.704 197.15 328.641C197.51 329.578 198.055 330.433 198.752 331.155C199.449 331.878 200.284 332.452 201.208 332.845C202.131 333.237 203.125 333.44 204.128 333.441H307.378C308.382 333.439 309.374 333.235 310.297 332.842C311.22 332.449 312.055 331.874 312.752 331.152C313.449 330.43 313.993 329.576 314.353 328.639C314.713 327.703 314.882 326.704 314.848 325.701C314.848 325.341 314.848 325.001 314.848 324.701C314.828 321.371 318.458 299.491 325.398 277.541Z" fill="#92E3A9" stroke="#2E353A" stroke-width="2" stroke-linecap="round" stroke-linejoin="round"/>
<path d="M220.809 96.0004C223.702 94.6957 226.671 93.5637 229.699 92.6104" stroke="#2E353A" stroke-width="2" stroke-linecap="round" stroke-linejoin="round"/>
<path d="M187.51 121.341C187.51 121.341 195.66 108.341 213.57 99.5908" stroke="#2E353A" stroke-width="2" stroke-linecap="round" stroke-linejoin="round"/>
<path d="M189.648 265.261C193.358 277.381 198.268 294.171 199.968 303.551C202.848 319.371 200.968 327.551 207.168 328.961" stroke="#2E353A" stroke-width="2" stroke-linecap="round" stroke-linejoin="round"/>
<path d="M185.109 250.801C185.109 250.801 186.109 254.051 187.719 259.031" stroke="#2E353A" stroke-width="2" stroke-linecap="round" stroke-linejoin="round"/>
<path d="M249.419 332.47V236.87C249.419 236.87 253.419 211.87 240.419 211.87C227.419 211.87 228.419 224.87 243.419 238.87C258.419 252.87 281.419 239.87 284.419 228.87C287.419 217.87 279.419 212.87 274.419 221.87C269.419 230.87 274.419 332.87 274.419 332.87" stroke="#2E353A" stroke-width="2" stroke-linecap="round" stroke-linejoin="round"/>
<path d="M309.99 332.86H202.08V357.9H309.99V332.86Z" fill="white" stroke="#2E353A" stroke-width="2" stroke-linecap="round" stroke-linejoin="round"/>
<path d="M309.99 363.86H202.08V388.9H309.99V363.86Z" fill="white" stroke="#2E353A" stroke-width="2" stroke-linecap="round" stroke-linejoin="round"/>
<path d="M309.99 357.9H202.08V363.86H309.99V357.9Z" fill="#2E353A" stroke="#2E353A" stroke-linecap="round" stroke-linejoin="round"/>
<path d="M309.99 394.86H202.08V419.9H309.99V394.86Z" fill="white" stroke="#2E353A" stroke-width="2" stroke-linecap="round" stroke-linejoin="round"/>
<path d="M298.699 354.551H306.719" stroke="#2E353A" stroke-linecap="round" stroke-linejoin="round"/>
<path d="M206.318 354.551H294.838" stroke="#2E353A" stroke-linecap="round" stroke-linejoin="round"/>
<path d="M277.898 386.04H303.748" stroke="#2E353A" stroke-linecap="round" stroke-linejoin="round"/>
<path d="M222.34 386.04H274.93" stroke="#2E353A" stroke-linecap="round" stroke-linejoin="round"/>
<path d="M213.729 386.04H218.179" stroke="#2E353A" stroke-linecap="round" stroke-linejoin="round"/>
<path d="M309.99 388.9H202.08V394.86H309.99V388.9Z" fill="#2E353A" stroke="#2E353A" stroke-linecap="round" stroke-linejoin="round"/>
<path d="M253.069 400.351H216.129V419.581H253.069V400.351Z" fill="#92E3A9" stroke="#2E353A" stroke-linecap="round" stroke-linejoin="round"/>
<path d="M301.139 400.351H264.199V419.581H301.139V400.351Z" fill="#92E3A9" stroke="#2E353A" stroke-linecap="round" stroke-linejoin="round"/>
<path d="M334.37 419.9C327.29 413.69 297.06 387.58 288.26 386.9C279.64 386.21 249.04 412.62 240.76 419.9H334.37Z" fill="#2E353A" stroke="#2E353A" stroke-linecap="round" stroke-linejoin="round"/>
<path d="M451.08 419.9H459.76" stroke="#2E353A" stroke-linecap="round" stroke-linejoin="round"/>
<path d="M53.7402 419.9H442.4" stroke="#2E353A" stroke-linecap="round" stroke-linejoin="round"/>
<path d="M40.2402 419.9H46.9902" stroke="#2E353A" stroke-linecap="round" stroke-linejoin="round"/>
<path d="M433.608 362.83H407.658V399.23H418.408H433.608H444.368V381.03L433.608 362.83Z" fill="#2E353A" stroke="#2E353A" stroke-linecap="round" stroke-linejoin="round"/>
<path d="M444.368 399.23H432.479V407.5H444.368V399.23Z" fill="white" stroke="#2E353A" stroke-linecap="round" stroke-linejoin="round"/>
<path d="M388.369 398.82C388.369 398.82 401.369 391.82 396.869 356.82L380.369 347.82L351.869 343.32L326.369 344.32V358.82C326.369 358.82 340.869 371.32 342.369 375.32C343.31 378.058 343.816 380.926 343.869 383.82V397.82L388.369 398.82Z" fill="#92E3A9" stroke="#2E353A" stroke-linecap="round" stroke-linejoin="round"/>
<path d="M396.869 356.82L388.369 398.82" stroke="#2E353A" stroke-linecap="round" stroke-linejoin="round"/>
<path d="M380.369 347.82L370.869 398.82" stroke="#2E353A" stroke-linecap="round" stroke-linejoin="round"/>
<path d="M351.869 343.32L344.869 381.32" stroke="#2E353A" stroke-linecap="round" stroke-linejoin="round"/>
<path d="M327.369 356.82C327.369 356.82 343.869 363.82 350.369 368.32C356.869 372.82 355.869 382.32 355.869 382.32" stroke="#2E353A" stroke-linecap="round" stroke-linejoin="round"/>
<path d="M407.889 399.49H330.359V405.99H407.889V399.49Z" fill="white" stroke="#2E353A" stroke-linecap="round" stroke-linejoin="round"/>
<path d="M423.369 382.82H439.559L430.869 367.82H423.369V382.82Z" fill="white" stroke="#2E353A" stroke-linecap="round" stroke-linejoin="round"/>
<path d="M420.869 367.82H413.869V382.82H420.869V367.82Z" fill="white" stroke="#2E353A" stroke-linecap="round" stroke-linejoin="round"/>
<path d="M377.97 399.23H330.77V410.5H377.97V399.23Z" fill="white" stroke="#2E353A" stroke-linecap="round" stroke-linejoin="round"/>
<path d="M422.683 419.718C428.08 418.743 431.665 413.578 430.69 408.181C429.715 402.784 424.55 399.199 419.153 400.174C413.756 401.149 410.171 406.314 411.146 411.711C412.121 417.108 417.286 420.693 422.683 419.718Z" fill="#2E353A" stroke="#2E353A" stroke-linecap="round" stroke-linejoin="round"/>
<path d="M420.899 415.77C424.097 415.77 426.689 413.178 426.689 409.98C426.689 406.783 424.097 404.19 420.899 404.19C417.702 404.19 415.109 406.783 415.109 409.98C415.109 413.178 417.702 415.77 420.899 415.77Z" fill="white" stroke="#2E353A" stroke-linecap="round" stroke-linejoin="round"/>
<path d="M346.15 419.739C351.551 418.783 355.153 413.63 354.197 408.23C353.241 402.83 348.088 399.227 342.688 400.183C337.288 401.139 333.685 406.292 334.641 411.692C335.597 417.092 340.75 420.695 346.15 419.739Z" fill="#2E353A" stroke="#2E353A" stroke-linecap="round" stroke-linejoin="round"/>
<path d="M344.399 415.77C347.597 415.77 350.189 413.178 350.189 409.98C350.189 406.783 347.597 404.19 344.399 404.19C341.202 404.19 338.609 406.783 338.609 409.98C338.609 413.178 341.202 415.77 344.399 415.77Z" fill="white" stroke="#2E353A" stroke-linecap="round" stroke-linejoin="round"/>
<path d="M375.09 417.252C379.13 413.543 379.398 407.261 375.688 403.221C371.979 399.182 365.697 398.914 361.658 402.624C357.618 406.333 357.351 412.615 361.06 416.654C364.769 420.693 371.051 420.961 375.09 417.252Z" fill="#2E353A" stroke="#2E353A" stroke-linecap="round" stroke-linejoin="round"/>
<path d="M368.37 415.77C371.568 415.77 374.16 413.178 374.16 409.98C374.16 406.783 371.568 404.19 368.37 404.19C365.172 404.19 362.58 406.783 362.58 409.98C362.58 413.178 365.172 415.77 368.37 415.77Z" fill="white" stroke="#2E353A" stroke-linecap="round" stroke-linejoin="round"/>
<path d="M365.119 381.82H340.119C338.324 381.82 336.869 383.275 336.869 385.07V395.57C336.869 397.365 338.324 398.82 340.119 398.82H365.119C366.914 398.82 368.369 397.365 368.369 395.57V385.07C368.369 383.275 366.914 381.82 365.119 381.82Z" fill="#2E353A" stroke="#2E353A" stroke-linecap="round" stroke-linejoin="round"/>
<path d="M324.369 398.82V349.37H334.369V398.82" stroke="#2E353A" stroke-linecap="round" stroke-linejoin="round"/>
<path d="M324.439 355.92H334.259" stroke="#2E353A" stroke-linecap="round" stroke-linejoin="round"/>
<path d="M324.439 363.641H334.259" stroke="#2E353A" stroke-linecap="round" stroke-linejoin="round"/>
<path d="M324.439 371.36H334.259" stroke="#2E353A" stroke-linecap="round" stroke-linejoin="round"/>
<path d="M324.439 379.09H334.259" stroke="#2E353A" stroke-linecap="round" stroke-linejoin="round"/>
<path d="M324.439 386.811H334.259" stroke="#2E353A" stroke-linecap="round" stroke-linejoin="round"/>
<path d="M324.439 394.53H334.259" stroke="#2E353A" stroke-linecap="round" stroke-linejoin="round"/>
<path d="M124.359 420.87H106.359V106.87L124.359 127.8V420.87Z" stroke="#2E353A" stroke-linecap="round" stroke-linejoin="round"/>
<path d="M106.539 354.87H124.189L106.539 337.8H124.189L106.539 354.87Z" stroke="#2E353A" stroke-linecap="round" stroke-linejoin="round"/>
<path d="M106.539 337.37H124.189L106.539 320.3H124.189L106.539 337.37Z" stroke="#2E353A" stroke-linecap="round" stroke-linejoin="round"/>
<path d="M106.539 319.87H124.189L106.539 302.8H124.189L106.539 319.87Z" stroke="#2E353A" stroke-linecap="round" stroke-linejoin="round"/>
<path d="M106.539 302.37H124.189L106.539 285.3H124.189L106.539 302.37Z" stroke="#2E353A" stroke-linecap="round" stroke-linejoin="round"/>
<path d="M106.539 284.87H124.189L106.539 267.8H124.189L106.539 284.87Z" stroke="#2E353A" stroke-linecap="round" stroke-linejoin="round"/>
<path d="M106.539 267.37H124.189L106.539 250.3H124.189L106.539 267.37Z" stroke="#2E353A" stroke-linecap="round" stroke-linejoin="round"/>
<path d="M106.539 249.87H124.189L106.539 232.8H124.189L106.539 249.87Z" stroke="#2E353A" stroke-linecap="round" stroke-linejoin="round"/>
<path d="M106.539 232.37H124.189L106.539 215.3H124.189L106.539 232.37Z" stroke="#2E353A" stroke-linecap="round" stroke-linejoin="round"/>
<path d="M106.539 214.87H124.189L106.539 197.8H124.189L106.539 214.87Z" stroke="#2E353A" stroke-linecap="round" stroke-linejoin="round"/>
<path d="M106.539 197.37H124.189L106.539 180.3H124.189L106.539 197.37Z" stroke="#2E353A" stroke-linecap="round" stroke-linejoin="round"/>
<path d="M106.539 179.87H124.189L106.539 162.8H124.189L106.539 179.87Z" stroke="#2E353A" stroke-linecap="round" stroke-linejoin="round"/>
<path d="M106.539 162.37H124.189L106.539 145.3H124.189L106.539 162.37Z" stroke="#2E353A" stroke-linecap="round" stroke-linejoin="round"/>
<path d="M106.539 144.87H124.189L106.539 127.8H124.189L106.539 144.87Z" stroke="#2E353A" stroke-linecap="round" stroke-linejoin="round"/>
<path d="M207.929 145.341L199.209 139.851H136.979L129.379 145.341H207.929Z" stroke="#2E353A" stroke-linecap="round" stroke-linejoin="round"/>
<path d="M209.369 144.87H57.3691V148.87H209.369V144.87Z" fill="#2E353A" stroke="#2E353A" stroke-linecap="round" stroke-linejoin="round"/>
<path d="M199.209 139.85L106.359 106.87L136.979 139.85" stroke="#2E353A" stroke-linecap="round" stroke-linejoin="round"/>
<path d="M106.369 106.87L57.3691 144.87" stroke="#2E353A" stroke-linecap="round" stroke-linejoin="round"/>
<path d="M137.369 153.37H99.8691V177.37H137.369V153.37Z" fill="#2E353A" stroke="#2E353A" stroke-linecap="round" stroke-linejoin="round"/>
<path d="M129.55 158.37H107.68V165.37H129.55V158.37Z" fill="white" stroke="#2E353A" stroke-linecap="round" stroke-linejoin="round"/>
<path d="M209.369 148.87V191.99" stroke="#2E353A" stroke-linecap="round" stroke-linejoin="round"/>
<path d="M215.069 206.72H203.959V219.31H215.069V206.72Z" fill="#2E353A" stroke="#2E353A" stroke-linecap="round" stroke-linejoin="round"/>
<path d="M203.959 206.72L209.519 191.17L215.079 206.72" stroke="#2E353A" stroke-linecap="round" stroke-linejoin="round"/>
<path d="M179.399 358.651L203.399 396.591L209.399 392.201L191.739 356.881C190.945 355.293 189.725 353.958 188.215 353.025C186.704 352.092 184.964 351.599 183.189 351.601C182.374 351.616 181.578 351.847 180.882 352.272C180.187 352.696 179.617 353.299 179.231 354.016C178.845 354.734 178.657 355.542 178.687 356.356C178.716 357.171 178.962 357.963 179.399 358.651Z" fill="#92E3A9" stroke="#2E353A" stroke-linecap="round" stroke-linejoin="round"/>
<path d="M207.29 387.26L182.6 404.82C182.6 404.82 184.8 414.14 199.06 413.59C213.32 413.04 212.78 398.23 212.78 398.23L207.29 387.26Z" fill="#2E353A" stroke="white" stroke-linecap="round" stroke-linejoin="round"/>
<path d="M138.709 375.74L183.429 355.59C184.904 354.927 186.561 354.788 188.126 355.197C189.691 355.607 191.068 356.539 192.029 357.84C192.59 358.6 192.994 359.464 193.216 360.383C193.437 361.301 193.473 362.254 193.32 363.187C193.167 364.119 192.829 365.011 192.326 365.81C191.822 366.609 191.164 367.3 190.389 367.84L141.459 402.09L138.709 375.74Z" fill="#92E3A9" stroke="#2E353A" stroke-linecap="round" stroke-linejoin="round"/>
<path d="M132.129 400.43H86.0391V407.56H132.129V400.43Z" fill="white" stroke="#2E353A" stroke-linecap="round" stroke-linejoin="round"/>
<path d="M109.63 380.13H69.5801V396.59H109.63V380.13Z" fill="#2E353A" stroke="#2E353A" stroke-linecap="round" stroke-linejoin="round"/>
<path d="M104.418 361.47H138.418C139.214 361.47 139.977 361.786 140.54 362.348C141.102 362.911 141.418 363.674 141.418 364.47V396.57H101.408V364.47C101.408 364.075 101.486 363.684 101.638 363.319C101.789 362.955 102.011 362.624 102.29 362.345C102.57 362.066 102.902 361.845 103.267 361.695C103.632 361.545 104.023 361.468 104.418 361.47Z" fill="#92E3A9" stroke="#2E353A" stroke-linecap="round" stroke-linejoin="round"/>
<path d="M69.1694 419.901H134.739C136.811 419.901 138.797 419.078 140.262 417.613C141.727 416.148 142.549 414.162 142.549 412.091C142.549 410.018 141.727 408.031 140.262 406.564C138.798 405.098 136.812 404.273 134.739 404.271H69.1694C67.0971 404.273 65.1106 405.098 63.6463 406.564C62.1819 408.031 61.3594 410.018 61.3594 412.091C61.3594 414.162 62.1822 416.148 63.6469 417.613C65.1115 419.078 67.098 419.901 69.1694 419.901Z" fill="#2E353A" stroke="#2E353A" stroke-linecap="round" stroke-linejoin="round"/>
<path d="M79.0485 419.901H144.609C146.681 419.901 148.668 419.078 150.135 417.614C151.601 416.149 152.426 414.163 152.429 412.091C152.429 410.017 151.605 408.027 150.138 406.561C148.672 405.094 146.683 404.271 144.609 404.271H79.0485C76.9745 404.271 74.9855 405.094 73.5189 406.561C72.0524 408.027 71.2285 410.017 71.2285 412.091C71.2312 414.163 72.0562 416.149 73.5225 417.614C74.9887 419.078 76.9763 419.901 79.0485 419.901Z" fill="white" stroke="#2E353A" stroke-linecap="round" stroke-linejoin="round"/>
<path d="M141.45 396.59H69.5801V402.08H141.45V396.59Z" fill="white" stroke="#2E353A" stroke-linecap="round" stroke-linejoin="round"/>
<path d="M84.3995 412.09C84.3995 413.067 84.1098 414.023 83.567 414.835C83.0242 415.647 82.2527 416.28 81.35 416.654C80.4473 417.028 79.4541 417.126 78.4958 416.935C77.5375 416.745 76.6573 416.274 75.9664 415.583C75.2756 414.893 74.8051 414.012 74.6145 413.054C74.4238 412.096 74.5217 411.103 74.8956 410.2C75.2695 409.297 75.9026 408.526 76.715 407.983C77.5274 407.44 78.4825 407.15 79.4595 407.15C80.7697 407.15 82.0262 407.671 82.9526 408.597C83.8791 409.524 84.3995 410.78 84.3995 412.09Z" fill="#2E353A" stroke="#2E353A" stroke-linecap="round" stroke-linejoin="round"/>
<path d="M92.6294 417.03C95.3577 417.03 97.5695 414.819 97.5695 412.09C97.5695 409.362 95.3577 407.15 92.6294 407.15C89.9012 407.15 87.6895 409.362 87.6895 412.09C87.6895 414.819 89.9012 417.03 92.6294 417.03Z" fill="#2E353A" stroke="#2E353A" stroke-linecap="round" stroke-linejoin="round"/>
<path d="M105.79 417.03C108.518 417.03 110.73 414.819 110.73 412.09C110.73 409.362 108.518 407.15 105.79 407.15C103.061 407.15 100.85 409.362 100.85 412.09C100.85 414.819 103.061 417.03 105.79 417.03Z" fill="#2E353A" stroke="#2E353A" stroke-linecap="round" stroke-linejoin="round"/>
<path d="M123.9 412.09C123.9 413.067 123.61 414.023 123.067 414.835C122.524 415.647 121.753 416.28 120.85 416.654C119.947 417.028 118.954 417.126 117.996 416.935C117.038 416.745 116.157 416.274 115.466 415.583C114.776 414.893 114.305 414.012 114.114 413.054C113.924 412.096 114.022 411.103 114.396 410.2C114.769 409.297 115.403 408.526 116.215 407.983C117.027 407.44 117.982 407.15 118.96 407.15C120.27 407.15 121.526 407.671 122.453 408.597C123.379 409.524 123.9 410.78 123.9 412.09Z" fill="#2E353A" stroke="#2E353A" stroke-linecap="round" stroke-linejoin="round"/>
<path d="M137.069 412.09C137.069 413.067 136.78 414.023 136.237 414.835C135.694 415.647 134.923 416.28 134.02 416.654C133.117 417.028 132.124 417.126 131.166 416.935C130.207 416.745 129.327 416.274 128.636 415.583C127.945 414.893 127.475 414.012 127.284 413.054C127.094 412.096 127.192 411.103 127.565 410.2C127.939 409.297 128.573 408.526 129.385 407.983C130.197 407.44 131.152 407.15 132.129 407.15C133.44 407.15 134.696 407.671 135.623 408.597C136.549 409.524 137.069 410.78 137.069 412.09Z" fill="#2E353A" stroke="#2E353A" stroke-linecap="round" stroke-linejoin="round"/>
<path d="M150.23 412.09C150.23 413.068 149.94 414.023 149.396 414.836C148.853 415.649 148.081 416.282 147.178 416.655C146.275 417.029 145.281 417.126 144.322 416.935C143.364 416.743 142.483 416.272 141.793 415.58C141.102 414.888 140.633 414.007 140.443 413.048C140.254 412.089 140.353 411.095 140.729 410.193C141.104 409.291 141.739 408.52 142.552 407.978C143.366 407.436 144.322 407.148 145.3 407.15C145.948 407.15 146.59 407.278 147.189 407.527C147.787 407.775 148.331 408.139 148.789 408.598C149.247 409.057 149.61 409.601 149.857 410.201C150.104 410.8 150.231 411.442 150.23 412.09Z" fill="#2E353A" stroke="#2E353A" stroke-linecap="round" stroke-linejoin="round"/>
<path d="M188.639 361.47C188.639 360.925 188.477 360.393 188.175 359.941C187.872 359.488 187.442 359.136 186.939 358.928C186.436 358.72 185.882 358.666 185.348 358.773C184.815 358.88 184.325 359.143 183.941 359.529C183.556 359.914 183.295 360.405 183.19 360.939C183.085 361.473 183.141 362.027 183.351 362.529C183.561 363.031 183.915 363.46 184.368 363.761C184.822 364.062 185.354 364.222 185.899 364.22C186.259 364.22 186.616 364.149 186.95 364.01C187.283 363.872 187.585 363.669 187.84 363.414C188.094 363.158 188.296 362.855 188.433 362.521C188.57 362.188 188.64 361.83 188.639 361.47Z" fill="#2E353A" stroke="#2E353A" stroke-linecap="round" stroke-linejoin="round"/>
<path d="M135.42 365.86H106.34V383.42H135.42V365.86Z" fill="white" stroke="#2E353A" stroke-linecap="round" stroke-linejoin="round"/>
<path d="M135.42 365.86H119.51V383.42H135.42V365.86Z" fill="white" stroke="#2E353A" stroke-linecap="round" stroke-linejoin="round"/>
</svg>
