<svg width="399" height="399" viewBox="0 0 399 399" fill="none" xmlns="http://www.w3.org/2000/svg">
<path d="M62.9308 0H62.1328V108.153H62.9308V0Z" fill="#C7C7C7"/>
<path d="M100.084 144.358L97.0679 150.997H27.985L24.9766 144.358L54.3829 124.001H70.678L100.084 144.358Z" fill="#EBEBEB"/>
<path d="M72.7208 104.387L70.6779 124.002H54.3827L52.3398 104.387H72.7208Z" fill="#DBDBDB"/>
<path d="M100.084 144.358L97.0601 150.998H27.9852L24.9688 144.358H100.084Z" fill="#DBDBDB"/>
<path d="M143.568 0H142.77V86.7346H143.568V0Z" fill="#C7C7C7"/>
<path d="M180.721 122.932L177.705 129.58H108.622L105.613 122.932L135.02 102.575H151.315L180.721 122.932Z" fill="#EBEBEB"/>
<path d="M153.357 82.9678L151.315 102.575H135.019L132.977 82.9678H153.357Z" fill="#DBDBDB"/>
<path d="M180.721 122.939L177.697 129.579H108.622L105.605 122.939H180.721Z" fill="#DBDBDB"/>
<path d="M38.7012 178.226L30.825 190.922L34.7351 193.316C35.2832 193.672 35.7222 194.173 36.0038 194.763C36.2854 195.353 36.3987 196.009 36.3311 196.659C36.2671 197.384 36.2431 198.111 36.2593 198.838C36.2817 199.5 36.1206 200.155 35.7939 200.731C35.4671 201.307 34.9875 201.781 34.408 202.102L30.418 204.264L37.5042 217.463L41.4942 215.301C42.0619 214.996 42.7024 214.854 43.3456 214.889C43.9888 214.924 44.61 215.136 45.1411 215.5C45.7928 215.955 46.4695 216.374 47.168 216.753C47.7353 217.065 48.2045 217.529 48.5231 218.093C48.8416 218.657 48.9969 219.298 48.9715 219.945L48.8278 224.518L63.7664 224.98L63.9021 220.392C63.9231 219.744 64.1237 219.114 64.4816 218.573C64.8394 218.032 65.3405 217.601 65.929 217.328C66.2801 217.16 66.6232 216.984 66.9664 216.801C67.3095 216.617 67.6447 216.426 67.9718 216.226C68.5226 215.888 69.1566 215.708 69.8033 215.708C70.4499 215.708 71.0839 215.888 71.6347 216.226L75.5528 218.62L83.4211 205.924L79.5029 203.49C78.9543 203.135 78.5148 202.634 78.2331 202.044C77.9514 201.454 77.8385 200.797 77.9069 200.147C77.9709 199.425 77.9948 198.7 77.9788 197.976C77.9572 197.313 78.1195 196.658 78.4477 196.082C78.7758 195.506 79.2571 195.032 79.8381 194.712L83.8281 192.55L76.7658 179.383L72.7279 181.545C72.1422 181.852 71.4827 181.989 70.8233 181.943C70.1638 181.896 69.5302 181.668 68.9933 181.282C68.3948 180.867 67.7723 180.484 67.1419 180.141C66.5607 179.838 66.0756 179.378 65.7415 178.814C65.4073 178.25 65.2373 177.604 65.2507 176.949L65.4342 172.368L50.5036 171.897L50.36 176.486C50.333 177.141 50.1248 177.776 49.7585 178.32C49.3922 178.864 48.8822 179.295 48.2852 179.566C47.95 179.718 47.6229 179.885 47.2957 180.061C46.9685 180.237 46.6493 180.42 46.3381 180.612C45.7776 180.956 45.1326 181.138 44.4747 181.138C43.8169 181.138 43.1719 180.956 42.6114 180.612L38.7012 178.226ZM49.9849 188.504C52.063 187.013 54.5559 186.21 57.1135 186.209C59.6711 186.207 62.1649 187.007 64.2448 188.495C66.3246 189.984 67.8861 192.086 68.7098 194.508C69.5335 196.929 69.5782 199.547 68.8375 201.995C68.0968 204.443 66.608 206.598 64.5801 208.156C62.5521 209.715 60.087 210.599 57.5309 210.685C54.9747 210.77 52.4559 210.053 50.3282 208.634C48.2005 207.215 46.5707 205.165 45.6677 202.772C44.7161 200.25 44.6234 197.485 45.404 194.905C46.1846 192.325 47.7949 190.075 49.9849 188.504Z" fill="#EBEBEB"/>
<path d="M366.283 54.2643C365.948 54.0683 365.675 53.7832 365.493 53.4407C365.311 53.0983 365.228 52.7121 365.253 52.3252C365.253 52.1097 365.253 51.8943 365.253 51.6788C365.253 51.4633 365.253 51.2399 365.253 51.0244C365.228 50.6376 365.311 50.2513 365.493 49.9089C365.675 49.5664 365.948 49.2813 366.283 49.0853L368.621 47.7367L364.232 40.1158L361.862 41.4963C361.525 41.6896 361.141 41.7847 360.753 41.7705C360.365 41.7564 359.989 41.6338 359.667 41.4165C359.3 41.1851 358.925 40.9617 358.534 40.7622C358.189 40.5888 357.898 40.3235 357.694 39.9954C357.49 39.6673 357.38 39.2892 357.377 38.9028V36.1816H348.599V38.8709C348.59 39.2537 348.475 39.6266 348.268 39.9488C348.062 40.2711 347.77 40.5304 347.426 40.6983C347.035 40.8978 346.628 41.1213 346.293 41.3527C345.971 41.5699 345.595 41.6926 345.207 41.7067C344.819 41.7208 344.435 41.6258 344.098 41.4325L341.76 40.0839L337.363 47.7048L339.709 49.0614C340.051 49.2567 340.329 49.5449 340.513 49.8925C340.696 50.24 340.778 50.6326 340.747 51.0244C340.747 51.2399 340.747 51.4554 340.747 51.6708C340.747 51.8863 340.747 52.1017 340.747 52.3172C340.773 52.7062 340.689 53.0947 340.506 53.4387C340.323 53.7828 340.047 54.0688 339.709 54.2643L337.363 55.6129L341.76 63.2338L344.09 61.8852C344.427 61.6925 344.81 61.5972 345.198 61.6099C345.585 61.6226 345.962 61.7428 346.285 61.957C346.652 62.1995 347.033 62.4206 347.426 62.6194C347.77 62.7931 348.06 63.0588 348.263 63.3869C348.466 63.7151 348.574 64.093 348.575 64.4787V67.168H357.353V64.4707C357.356 64.0843 357.466 63.7063 357.67 63.3782C357.874 63.0501 358.165 62.7848 358.51 62.6114C358.902 62.4109 359.283 62.1898 359.651 61.9491C359.973 61.7346 360.348 61.6142 360.734 61.6016C361.121 61.5889 361.503 61.6843 361.838 61.8772L364.176 63.2259L368.565 55.605L366.283 54.2643ZM353.004 58.8847C351.584 58.8847 350.195 58.4635 349.014 57.6744C347.833 56.8852 346.912 55.7635 346.369 54.4512C345.825 53.1388 345.683 51.6948 345.96 50.3016C346.237 48.9084 346.921 47.6287 347.926 46.6243C348.93 45.6199 350.21 44.9359 351.603 44.6587C352.996 44.3816 354.44 44.5238 355.752 45.0674C357.065 45.611 358.187 46.5316 358.976 47.7126C359.765 48.8937 360.186 50.2823 360.186 51.7027C360.185 52.6472 359.998 53.5823 359.635 54.4543C359.272 55.3263 358.741 56.1181 358.071 56.7845C357.402 57.4509 356.608 57.9787 355.734 58.3377C354.86 58.6967 353.925 58.8799 352.98 58.8768L353.004 58.8847Z" fill="#EBEBEB"/>
<path d="M168.312 254.45C167.999 254.267 167.74 254.006 167.558 253.693C167.376 253.38 167.278 253.025 167.274 252.663C167.274 252.304 167.274 251.952 167.274 251.593C167.236 251.233 167.257 250.869 167.338 250.516C167.426 250.163 167.608 249.84 167.865 249.582C168.136 249.345 168.436 249.144 168.759 248.984L170.618 247.899V247.939L166.181 240.342H166.285L163.843 241.778C163.394 242.002 162.88 242.064 162.391 241.954C161.929 241.81 161.491 241.6 161.09 241.331L160.483 240.988C160.26 240.871 160.057 240.717 159.885 240.533C159.531 240.165 159.317 239.685 159.278 239.176V236.344L159.462 236.527L150.684 236.607L150.955 236.344V239.184C150.93 239.592 150.801 239.986 150.58 240.33C150.359 240.674 150.055 240.955 149.694 241.148L149.096 241.507L148.497 241.858C148.266 242.003 148.013 242.111 147.747 242.177C147.21 242.295 146.648 242.23 146.151 241.993L143.677 240.581L144.156 240.453L139.791 248.09L139.648 247.555L142.121 248.976C142.469 249.215 142.752 249.537 142.943 249.914C143.134 250.29 143.227 250.709 143.215 251.131V251.833V252.527C143.219 252.797 143.181 253.066 143.103 253.325C142.937 253.864 142.59 254.329 142.121 254.642L139.648 256.062L139.783 255.559L144.14 263.196L143.693 263.077L146.175 261.68C146.673 261.447 147.235 261.388 147.771 261.513C148.027 261.58 148.272 261.685 148.497 261.824L149.104 262.183L149.702 262.534C149.935 262.662 150.145 262.826 150.325 263.021C150.684 263.414 150.898 263.918 150.931 264.449V267.298L150.716 267.083L159.494 267.17L159.366 267.298V264.465C159.404 263.969 159.613 263.5 159.957 263.14C160.319 262.823 160.721 262.554 161.154 262.342C161.552 262.081 161.985 261.874 162.438 261.728C162.914 261.614 163.415 261.674 163.851 261.896L166.301 263.316H166.245L170.666 255.711L168.312 254.45ZM168.312 254.45L170.65 255.791L166.285 263.42V263.46L163.827 262.063C163.41 261.861 162.936 261.81 162.486 261.919C162.026 262.058 161.589 262.268 161.194 262.542C160.777 262.753 160.393 263.021 160.052 263.34C159.743 263.674 159.56 264.106 159.534 264.561V267.386V267.513H159.406L150.628 267.601H150.421V267.33V264.513C150.388 264.097 150.213 263.706 149.926 263.404C149.781 263.255 149.614 263.128 149.431 263.029L148.809 262.678L148.186 262.326C148.011 262.221 147.82 262.145 147.62 262.103C147.218 262.013 146.799 262.064 146.431 262.247L144.037 263.675L143.757 263.843L143.59 263.555L139.161 255.958L138.977 255.639L139.296 255.456L141.69 254.043C142.009 253.824 142.242 253.503 142.353 253.134C142.407 252.947 142.434 252.753 142.433 252.559V251.841V251.123C142.434 250.928 142.407 250.735 142.353 250.548C142.241 250.181 142.004 249.864 141.682 249.654L139.288 248.234L138.945 248.042L139.145 247.707L143.566 240.11L143.749 239.799L144.053 239.974L146.447 241.387C146.803 241.563 147.208 241.61 147.596 241.523C147.791 241.482 147.978 241.406 148.146 241.299L148.769 240.948L149.399 240.597C149.576 240.503 149.738 240.382 149.878 240.238C150.16 239.944 150.33 239.559 150.357 239.153V236.352V236.072H150.62L159.398 236.152H159.598V236.336V239.153C159.627 239.592 159.804 240.008 160.1 240.334C160.436 240.651 160.815 240.92 161.225 241.132C161.601 241.4 162.016 241.61 162.454 241.754C162.891 241.858 163.349 241.81 163.755 241.618L166.221 240.238L166.285 240.198V240.262L170.65 247.899L168.783 248.968C168.462 249.123 168.164 249.322 167.897 249.558C167.641 249.808 167.459 250.122 167.37 250.468C167.286 250.818 167.262 251.18 167.298 251.538C167.298 251.897 167.298 252.256 167.298 252.607C167.29 252.976 167.379 253.341 167.557 253.665C167.735 253.988 167.996 254.259 168.312 254.45Z" fill="#EBEBEB"/>
<path d="M155.035 259.071C153.813 259.066 152.611 258.758 151.536 258.175C150.462 257.593 149.548 256.753 148.877 255.732C148.205 254.71 147.798 253.539 147.689 252.321C147.581 251.104 147.776 249.878 148.256 248.754C148.737 247.63 149.488 246.643 150.443 245.88C151.398 245.117 152.527 244.602 153.729 244.381C154.931 244.161 156.169 244.241 157.333 244.615C158.496 244.99 159.549 245.646 160.398 246.526C161.77 247.96 162.516 249.88 162.472 251.865C162.408 253.788 161.601 255.611 160.219 256.951C158.838 258.29 156.991 259.042 155.067 259.047L155.035 259.071ZM155.035 259.071C155.969 259.07 156.894 258.882 157.755 258.519C158.616 258.155 159.395 257.623 160.047 256.954C160.699 256.285 161.211 255.492 161.552 254.622C161.893 253.752 162.057 252.823 162.033 251.889C161.979 250.066 161.218 248.336 159.91 247.065C158.602 245.794 156.851 245.083 155.027 245.082C153.169 245.082 151.387 245.82 150.073 247.134C148.759 248.448 148.021 250.23 148.021 252.088C148.021 253.946 148.759 255.728 150.073 257.042C151.387 258.356 153.169 259.095 155.027 259.095L155.035 259.071Z" fill="#EBEBEB"/>
<path d="M24.5469 349.332L68.2853 349.141L112.024 349.069L199.5 348.941L286.977 349.069L330.716 349.141L374.454 349.332L330.716 349.532L286.977 349.604L199.5 349.731L112.024 349.604L68.2853 349.532L24.5469 349.332Z" fill="#263238"/>
<path d="M367.304 71.8281H234.996V205.557H367.304V71.8281Z" fill="#EBEBEB"/>
<path d="M295.827 63.7604C300.24 58.5814 307.797 57.3365 315.107 58.8128C322.416 60.2891 331.17 63.9759 331.968 76.2012C332.623 86.1284 329.574 95.8081 329.574 106.884C329.574 117.961 342.111 144.941 322.049 158.108C304.022 169.934 267.498 159.074 266.373 134.727C265.487 115.431 288.374 97.5876 290.784 89.9508C293.194 82.3139 290.991 69.4262 295.827 63.7604Z" fill="#263238"/>
<path d="M292.531 74.6533C292.396 80.1755 291.598 85.7615 289.339 90.9724C288.754 92.2922 287.988 93.5248 287.065 94.6352C286.179 95.7524 285.238 96.8058 284.296 97.8272C282.397 99.8941 280.522 101.945 278.71 104.076C275.112 108.25 272.139 112.924 269.884 117.953C267.722 123.005 266.533 128.42 266.381 133.913C266.156 131.14 266.239 128.352 266.628 125.598C267.06 122.829 267.774 120.113 268.759 117.49C270.838 112.235 273.783 107.366 277.473 103.086C279.285 100.923 281.208 98.8567 283.123 96.8138C285.038 94.7709 286.977 92.8238 288.166 90.4298C289.386 87.9821 290.315 85.4004 290.935 82.7371C291.636 80.0784 292.169 77.3786 292.531 74.6533Z" fill="#263238"/>
<path d="M331.467 84.54C331.331 90.1739 330.972 95.7998 331.123 101.394C331.189 104.18 331.423 106.959 331.826 109.717C332.241 112.43 333.055 115.143 333.733 117.888C334.411 120.634 335.018 123.419 335.465 126.228C335.896 129.05 336.078 131.904 336.007 134.758C335.877 137.626 335.34 140.461 334.411 143.177C333.34 145.847 331.741 148.273 329.711 150.311C331.49 148.124 332.843 145.623 333.701 142.938C334.445 140.267 334.816 137.506 334.802 134.734C334.576 129.154 333.703 123.619 332.201 118.24C331.562 115.502 330.748 112.789 330.357 109.908C329.991 107.086 329.847 104.239 329.926 101.394C330.095 95.7497 330.609 90.1212 331.467 84.54Z" fill="#263238"/>
<path d="M302.444 131.917C284.09 152.123 269.111 161.826 254.348 161.826C240.311 161.826 210.322 127.744 208.12 123.251C206.221 119.373 230.839 98.1538 234.622 100.795C241.006 105.216 261.482 130.808 263.653 130.928C265.823 131.047 273.819 125.765 293.075 116.747C304.774 111.281 315.212 117.912 302.444 131.917Z" fill="#EFD5B7"/>
<path d="M210.977 126.611C208.279 123.69 196.956 109.111 194.713 104.355C192.471 99.5985 187.037 85.4419 190.508 83.3592C193.979 81.2764 195.894 85.2903 195.894 85.2903C195.894 85.2903 194.546 78.9542 198.233 77.1747C201.919 75.3951 204.696 81.7392 204.696 81.7392C204.696 81.7392 203.787 75.1318 207.585 73.6156C211.384 72.0994 213.123 78.9622 213.123 78.9622C213.123 78.9622 212.006 72.9532 215.661 73.0251C220.058 73.1128 220.864 84.4205 223.729 89.4878C224.375 90.6369 238.564 111.832 238.564 111.832L210.977 126.611Z" fill="#EFD5B7"/>
<path d="M212.97 78.3794C213.585 86.6865 215.293 90.2217 220.152 96.8211C220.248 96.9488 220.081 97.1164 219.969 96.9967C214.598 90.9638 211.821 86.8462 212.548 78.3874C212.603 77.9724 212.939 77.9804 212.97 78.3794Z" fill="#263238"/>
<path d="M204.673 81.0846C206.062 89.6631 207.865 93.5095 212.486 100.795C212.55 100.899 212.382 101.019 212.31 100.923C207.195 94.1479 204.514 89.9744 204.25 81.2203C204.235 80.8213 204.61 80.6856 204.673 81.0846Z" fill="#263238"/>
<path d="M196.15 85.6569C198.097 93.8683 199.909 98.1695 205.287 104.665C205.415 104.825 205.199 105.024 205.064 104.881C198.935 98.784 196.637 93.4294 195.911 85.7287C195.863 85.218 196.03 85.1382 196.15 85.6569Z" fill="#263238"/>
<path d="M244.891 113.859C244.891 113.859 244.708 103.413 243.614 98.8406C242.521 94.268 232.219 78.7389 228.7 80.7818C224.207 83.4152 228.404 93.5498 231.094 98.258C231.094 98.258 220.72 104.355 222.132 112.287C223.545 120.219 244.891 113.859 244.891 113.859Z" fill="#EFD5B7"/>
<path d="M227.704 81.9063C225.31 87.2688 229.3 93.2139 231.575 97.962C231.611 98.0304 231.631 98.1064 231.632 98.1839C231.634 98.2614 231.616 98.338 231.582 98.4075C231.548 98.477 231.497 98.5372 231.435 98.5833C231.373 98.6293 231.3 98.6598 231.224 98.6723C227.026 101.521 221.943 106.748 221.879 112.095C221.879 112.126 221.866 112.157 221.844 112.179C221.822 112.202 221.791 112.214 221.759 112.214C221.728 112.214 221.697 112.202 221.675 112.179C221.652 112.157 221.64 112.126 221.64 112.095C220.929 106.349 225.502 100.795 230.29 97.978C227.896 93.1341 224.169 87.0055 227.657 81.8584L227.704 81.9063Z" fill="#263238"/>
<path d="M270.793 125.055L285.54 152.57C285.54 152.57 305.538 133.154 308.73 125.055C311.922 116.955 308.483 111.074 294.254 115.407C286.126 117.816 278.265 121.049 270.793 125.055Z" fill="#E88A94"/>
<path d="M288.951 146.832C288.224 145.34 287.586 143.8 286.828 142.316C286.07 140.831 285.312 139.363 284.522 137.911C282.926 134.974 281.33 132.029 279.67 129.133C278.728 127.537 277.739 125.893 276.709 124.345C276.669 124.273 276.534 124.345 276.574 124.4C279.279 130.457 282.559 136.259 285.83 142.02C286.78 143.688 287.857 145.276 288.847 146.92C288.879 146.96 288.991 146.888 288.951 146.832Z" fill="#263238"/>
<path d="M308.73 125.055C305.538 133.154 285.541 152.57 285.541 152.57L275.605 134.064L308.379 115.941C310.263 117.904 310.239 121.232 308.73 125.055Z" fill="#263238"/>
<path d="M274.153 171.378C274.153 171.378 266.045 190.785 268.91 205.549H358.302C355.397 165.417 335.391 130.928 323.573 119.764C314.045 110.762 304.014 111.568 297.031 116.173C295.387 117.266 277.249 142.331 275.286 146.297C267.497 161.946 274.153 171.378 274.153 171.378Z" fill="#E88A94"/>
<path d="M297.654 114.992C297.654 114.992 292.068 131.056 295.308 131.894C303.367 133.968 314.18 120.809 314.827 119.469C314.986 119.126 315.704 110.132 316.239 103.134C316.582 98.6329 316.846 94.9541 316.846 94.9541L296.959 101.777L297.598 114.106L297.654 114.992Z" fill="#EFD5B7"/>
<path d="M296.93 101.777L297.568 114.106C301.614 113.54 310.512 111.345 316.209 103.134C316.553 98.6329 316.816 94.9541 316.816 94.9541L314.326 95.7521L296.93 101.777Z" fill="#263238"/>
<path d="M282.12 84.5162C281.881 90.7805 282.503 95.8478 284.027 99.2154C285.333 102.092 287.411 104.55 290.03 106.316C292.649 108.083 295.706 109.089 298.862 109.222C301.256 109.31 308.151 108.68 313.138 104.881C317.017 101.929 319.355 96.6059 320.679 87.2454C323.712 65.843 313.92 58.6451 304.273 57.7832C294.625 56.9214 282.918 62.9224 282.12 84.5162Z" fill="#EFD5B7"/>
<path d="M287.65 79.7445C288.152 79.6727 288.615 79.5291 289.102 79.4173C289.631 79.3697 290.132 79.1545 290.531 78.8029C290.63 78.6662 290.684 78.5013 290.684 78.3321C290.684 78.1628 290.63 77.9979 290.531 77.8612C290.282 77.6303 289.977 77.4695 289.646 77.3952C289.315 77.3209 288.97 77.3358 288.647 77.4383C287.959 77.5477 287.336 77.9089 286.9 78.4518C286.797 78.5774 286.734 78.7316 286.721 78.8935C286.708 79.0555 286.745 79.2176 286.827 79.3582C286.908 79.4987 287.031 79.611 287.178 79.6801C287.325 79.7491 287.49 79.7716 287.65 79.7445Z" fill="#263238"/>
<path d="M301.749 80.279C301.26 80.1927 300.775 80.0808 300.297 79.9438C299.767 79.8997 299.268 79.6807 298.876 79.3214C298.776 79.1847 298.723 79.0198 298.723 78.8506C298.723 78.6813 298.776 78.5164 298.876 78.3797C299.127 78.1494 299.434 77.9902 299.767 77.9187C300.099 77.8471 300.445 77.8658 300.768 77.9728C301.461 78.0836 302.088 78.4511 302.523 79.0022C302.623 79.1298 302.682 79.2848 302.692 79.4467C302.701 79.6085 302.662 79.7695 302.578 79.9081C302.493 80.0468 302.369 80.1565 302.221 80.2228C302.073 80.289 301.909 80.3086 301.749 80.279Z" fill="#263238"/>
<path d="M298.221 85.673C298.221 85.6171 298.333 85.7448 298.333 85.8086C298.213 87.269 298.333 89.0006 299.634 89.5273C299.634 89.5273 299.634 89.6151 299.634 89.6071C298.006 89.3039 297.878 87.0376 298.221 85.673Z" fill="#263238"/>
<path d="M299.612 84.1969C302.006 84.1331 301.943 88.8812 299.74 88.945C297.538 89.0089 297.657 84.2528 299.612 84.1969Z" fill="#263238"/>
<path d="M300.544 84.4605C300.951 84.7318 301.342 85.2106 301.852 85.2585C302.363 85.3063 302.874 84.8275 303.257 84.3487C303.297 84.3009 303.337 84.3487 303.337 84.4046C303.337 85.3143 302.985 86.248 302.004 86.3757C301.022 86.5033 300.488 85.6734 300.264 84.7797C300.224 84.5881 300.376 84.3487 300.544 84.4605Z" fill="#263238"/>
<path d="M290.36 85.0509C290.36 84.9951 290.249 85.1228 290.249 85.1786C290.249 86.6549 290.097 88.3706 288.764 88.8335C288.724 88.8335 288.724 88.9212 288.764 88.9133C290.4 88.6898 290.64 86.4395 290.36 85.0509Z" fill="#263238"/>
<path d="M289.055 83.511C286.661 83.3275 286.493 88.0756 288.688 88.2432C290.882 88.4108 291.034 83.6706 289.055 83.511Z" fill="#263238"/>
<path d="M288.079 83.79C287.696 84.0294 287.281 84.4683 286.858 84.4842C286.435 84.5002 285.973 83.9655 285.661 83.4628C285.661 83.4069 285.59 83.4628 285.582 83.5107C285.526 84.4204 285.781 85.37 286.651 85.5855C287.521 85.8009 288.055 85.0189 288.303 84.1251C288.319 83.9496 288.199 83.6942 288.079 83.79Z" fill="#263238"/>
<path d="M298.08 97.1007C297.737 97.4598 297.402 97.9466 296.875 98.0104C296.328 98.0144 295.785 97.9086 295.279 97.6992C295.27 97.6907 295.257 97.6864 295.244 97.6871C295.232 97.6879 295.22 97.6936 295.211 97.7032C295.203 97.7127 295.199 97.7252 295.199 97.7379C295.2 97.7506 295.206 97.7625 295.215 97.771C295.437 98.0526 295.73 98.2694 296.064 98.3986C296.398 98.5278 296.761 98.5646 297.115 98.5052C297.409 98.413 297.671 98.2373 297.868 97.9993C298.065 97.7613 298.188 97.4713 298.224 97.1645C298.228 97.1463 298.226 97.1271 298.218 97.1102C298.21 97.0934 298.196 97.0799 298.179 97.0723C298.162 97.0647 298.142 97.0634 298.124 97.0685C298.106 97.0737 298.091 97.0851 298.08 97.1007Z" fill="#263238"/>
<path d="M292.07 91.6499C292.07 91.6499 291.719 93.8444 291.703 94.8818C291.703 94.9776 291.951 95.0255 292.302 95.0574C292.302 95.0574 292.302 95.0574 292.342 95.0574C293.222 95.2316 294.134 95.1616 294.978 94.8549C295.822 94.5483 296.566 94.0168 297.13 93.3178C297.201 93.222 297.074 93.1103 296.978 93.1741C295.637 94.0476 294.051 94.4672 292.453 94.3711C292.389 94.0759 293.179 90.6365 293.012 90.6205C292.195 90.6712 291.39 90.8351 290.618 91.1073C291.216 86.5188 292.541 82.066 293.06 77.4934C293.06 77.3338 292.844 77.278 292.796 77.4216C291.073 81.9862 290.275 87.253 289.533 91.9691C289.469 92.5676 291.623 91.8255 292.07 91.6499Z" fill="#263238"/>
<path d="M292.965 94.5146C293.476 95.2968 294.179 95.9344 295.008 96.366C295.464 96.5837 295.977 96.6561 296.476 96.5734C297.569 96.3739 297.673 95.3924 297.545 94.5386C297.467 94.0841 297.339 93.6398 297.162 93.2139C295.938 94.0843 294.467 94.5401 292.965 94.5146Z" fill="#263238"/>
<path d="M295.008 96.3661C295.465 96.5838 295.977 96.6562 296.476 96.5735C297.569 96.3741 297.673 95.3925 297.545 94.5387C296.979 94.5133 296.42 94.6799 295.959 95.0115C295.499 95.3431 295.163 95.8204 295.008 96.3661Z" fill="#FF98B9"/>
<path d="M320.285 85.3221C317.931 85.3939 311.252 79.5206 310.039 68.2369C310.039 68.2369 311.834 78.2917 312.728 79.7042C313.622 81.1166 308.994 76.3925 307.884 67.3112C307.884 67.3112 303.176 71.413 298.979 73.009C294.781 74.605 292.156 74.8124 291.797 74.5252C291.438 74.2379 297.606 71.6683 299.138 69.5456C299.138 69.5456 288.182 75.9296 282.947 76.7915C282.34 76.8872 283.362 67.4629 291.031 61.3981C298.699 55.3333 309.241 56.8495 313.024 59.8819C313.024 59.8819 317.157 60.0973 322.137 65.7232C327.116 71.3491 322.815 85.2423 320.285 85.3221Z" fill="#263238"/>
<path d="M317.183 88.7698C317.183 88.7698 321.564 81.8032 324.7 83.3354C327.836 84.8676 324.78 94.8027 321.261 96.3109C320.823 96.5372 320.344 96.6724 319.852 96.7083C319.36 96.7442 318.866 96.68 318.4 96.5196C317.934 96.3593 317.505 96.1061 317.14 95.7753C316.774 95.4445 316.479 95.0431 316.273 94.5952L317.183 88.7698Z" fill="#EFD5B7"/>
<path d="M323.751 86.1836C323.815 86.1836 323.823 86.2554 323.751 86.2794C321.285 87.4205 320.08 89.8225 319.266 92.2883C319.977 91.3147 320.966 90.7561 322.259 91.5861C322.323 91.626 322.259 91.7377 322.195 91.7217C321.751 91.6131 321.284 91.642 320.857 91.8044C320.429 91.9669 320.061 92.2552 319.801 92.6314C319.371 93.2765 319.007 93.9637 318.716 94.6823C318.612 94.9137 318.197 94.818 318.277 94.5546C318.273 94.5335 318.273 94.5119 318.277 94.4908C318.053 91.2669 320.328 86.6544 323.751 86.1836Z" fill="#263238"/>
<path d="M330.492 124.145C339.333 134.351 364.119 171.299 358.374 181.282C352.86 190.858 340.355 193.555 333.157 180.691C327.978 171.49 319.272 144.039 317.109 130.872C315.354 120.211 322.32 114.705 330.492 124.145Z" fill="#EFD5B7"/>
<path d="M322.235 156.854L351.537 146.089C351.537 146.089 335.09 123.578 327.517 119.293C319.944 115.007 313.64 117.593 315.954 132.284C317.2 140.668 319.304 148.901 322.235 156.854Z" fill="#E88A94"/>
<path d="M346.334 141.909C344.738 142.427 343.142 142.842 341.546 143.385C339.95 143.928 338.418 144.478 336.87 145.061C333.733 146.226 330.605 147.391 327.501 148.644C325.761 149.346 324.022 150.104 322.322 150.902C322.242 150.902 322.274 151.07 322.322 151.046C328.706 149.21 334.899 146.768 341.059 144.335C342.847 143.624 344.562 142.739 346.326 142.028C346.446 141.996 346.39 141.885 346.334 141.909Z" fill="#263238"/>
<path d="M323.886 156.169C323.305 156.297 322.737 156.473 322.186 156.695C321.388 154.964 319.497 147.351 319.058 145.396C318.18 141.501 317.462 137.567 316.544 133.673C316.544 133.561 316.329 133.593 316.344 133.673C316.616 135.835 316.951 137.99 317.326 140.129C316.927 139.107 316.528 138.078 316.217 137.032C316.22 137.025 316.221 137.017 316.221 137.009C316.22 137.001 316.217 136.994 316.213 136.987C316.209 136.98 316.203 136.975 316.196 136.971C316.189 136.967 316.181 136.965 316.173 136.965C316.165 136.965 316.157 136.967 316.15 136.971C316.143 136.975 316.137 136.98 316.133 136.987C316.128 136.994 316.126 137.001 316.125 137.009C316.125 137.017 316.126 137.025 316.129 137.032C316.492 138.331 316.937 139.605 317.462 140.847C317.773 144.837 321.404 157.517 321.508 157.469C322.328 157.097 323.128 156.679 323.902 156.216C323.989 156.24 323.989 156.161 323.886 156.169Z" fill="#263238"/>
<path d="M309.392 81.0532L301.053 116.652C300.694 117.697 301.229 118.535 302.25 118.519L318.17 121.759C318.728 121.708 319.26 121.499 319.704 121.158C320.147 120.816 320.485 120.354 320.676 119.828L329.015 84.2293C329.374 83.1839 328.84 82.346 327.818 82.3699L311.898 79.1221C311.34 79.1731 310.808 79.3818 310.365 79.7237C309.921 80.0657 309.584 80.5268 309.392 81.0532Z" fill="#A6A6A6"/>
<path d="M310.759 81.2524L302.444 116.851C302.085 117.897 302.619 118.735 303.641 118.719L319.561 121.958C320.118 121.908 320.649 121.701 321.093 121.36C321.536 121.02 321.874 120.56 322.067 120.035L330.374 84.4365C330.733 83.3831 330.198 82.5532 329.177 82.5691L313.265 79.3213C312.708 79.3751 312.177 79.5848 311.734 79.9264C311.291 80.268 310.953 80.7276 310.759 81.2524Z" fill="#DBDBDB"/>
<path d="M315.801 82.7843C315.809 83.1036 315.721 83.4179 315.548 83.6865C315.375 83.9551 315.126 84.1658 314.832 84.2912C314.539 84.4167 314.214 84.4511 313.901 84.3902C313.587 84.3292 313.299 84.1756 313.074 83.9492C312.849 83.7228 312.697 83.434 312.637 83.1202C312.578 82.8065 312.614 82.4821 312.741 82.1891C312.868 81.896 313.08 81.6478 313.349 81.4765C313.619 81.3053 313.934 81.2188 314.253 81.2282C314.664 81.2304 315.058 81.3952 315.348 81.6868C315.638 81.9784 315.801 82.373 315.801 82.7843Z" fill="#263238"/>
<path d="M337.41 183.915C342.589 193.491 356.299 188.032 358.373 181.281C363.241 165.441 360.225 139.107 357.32 124.4C356.386 119.668 324.243 124.4 324.434 129.515C324.658 135.7 327.259 165.082 337.41 183.915Z" fill="#EFD5B7"/>
<path d="M356.963 131.43C358.582 124.452 358.68 117.207 357.25 110.187C355.558 102.535 350.028 86.3032 327.796 79.0653C322.521 77.3417 313.783 78.6264 321.412 84.5636C326.807 88.785 331.499 89.8304 334.18 92.8628C334.18 92.8628 323.263 95.8154 321.747 101.162C320.42 105.842 319.425 110.61 318.771 115.43C319.626 115.751 320.5 116.017 321.388 116.228C320.919 120.883 322.002 125.563 324.468 129.539L356.963 131.43Z" fill="#EFD5B7"/>
<path d="M354.463 103.141C351.16 100.747 344.089 95.6562 336.836 93.5654C328.792 91.1714 312.68 88.8572 311.004 94.8023C309.775 99.1674 315.848 100.612 315.848 100.612C315.848 100.612 308.985 101.043 308.738 105.224C308.515 109.039 313.279 109.877 313.279 109.877C313.279 109.877 309.161 110.85 309.648 114.569C310.238 119.03 318.785 116.253 323.294 120.259C324.307 121.136 354.463 103.141 354.463 103.141Z" fill="#EFD5B7"/>
<path d="M335.769 102.447C332.29 100.659 323.337 98.6405 315.979 100.468C315.811 100.468 315.756 100.651 315.915 100.651C322.579 100.472 329.24 101.099 335.753 102.519C335.793 102.535 335.809 102.463 335.769 102.447Z" fill="#263238"/>
<path d="M333.165 110.491C329.973 109.262 320.676 107.586 313.286 109.693C313.119 109.741 313.071 109.892 313.231 109.884C319.885 109.353 326.578 109.583 333.181 110.571C333.191 110.569 333.201 110.562 333.207 110.553C333.212 110.544 333.215 110.533 333.213 110.523C333.21 110.512 333.204 110.503 333.195 110.497C333.186 110.491 333.175 110.489 333.165 110.491Z" fill="#263238"/>
<path d="M334.477 177.243C334.238 176.445 334.006 175.647 333.751 174.921C333.224 173.325 332.769 171.729 332.306 170.133C331.365 166.941 330.463 163.701 329.673 160.445C328.096 153.956 326.9 147.38 326.09 140.751C325.867 138.915 325.675 137.08 325.475 135.245C325.276 133.409 325.212 131.502 324.861 129.659C324.861 129.563 323.927 128.158 323.56 127.464C323.179 126.742 322.846 125.996 322.563 125.23C321.966 123.667 321.562 122.038 321.358 120.378C321.354 120.368 321.347 120.359 321.337 120.352C321.328 120.346 321.317 120.343 321.306 120.343C321.295 120.343 321.284 120.346 321.275 120.352C321.265 120.359 321.258 120.368 321.254 120.378C321.15 122.267 321.388 124.159 321.956 125.964C322.448 127.473 323.297 128.842 324.43 129.954C324.43 130.193 324.486 133.146 324.582 134.798C324.677 136.45 324.829 138.101 325.013 139.745C325.388 143.049 325.851 146.345 326.433 149.625C327.572 156.259 329.155 162.81 331.173 169.231C331.173 169.335 331.245 169.439 331.277 169.543C331.277 169.782 331.277 170.021 331.277 170.261C331.289 170.851 331.337 171.44 331.421 172.024C331.584 173.187 331.87 174.329 332.274 175.432C332.271 175.442 332.27 175.452 332.271 175.462C332.272 175.472 332.276 175.482 332.282 175.491C332.288 175.499 332.296 175.506 332.305 175.511C332.314 175.515 332.324 175.518 332.334 175.518C332.345 175.518 332.355 175.515 332.364 175.511C332.373 175.506 332.381 175.499 332.387 175.491C332.393 175.482 332.396 175.472 332.398 175.462C332.399 175.452 332.398 175.442 332.394 175.432C332.111 174.278 331.919 173.104 331.82 171.921L331.676 170.708C332.115 172.001 332.578 173.293 333.033 174.578C333.352 175.472 333.679 176.342 334.046 177.211C334.413 178.081 334.7 178.927 335.131 179.733C335.131 179.797 335.259 179.733 335.243 179.685C335.044 178.831 334.724 178.049 334.477 177.243Z" fill="#263238"/>
<path d="M234.996 205.549V184.099L210.617 205.549H234.996Z" fill="#EBEBEB"/>
<path d="M109.703 251.027C116.726 281.582 131.249 318.211 137.45 324.156C145.294 331.673 197.188 345.462 199.774 345.742C206.158 346.388 219.029 300.256 212.199 299.258C201.825 297.758 164.031 295.707 161.773 293.385C159.515 291.063 143.475 270.841 127.084 248.122C115.768 232.426 105.338 232.066 109.703 251.027Z" fill="#EFD5B7"/>
<path d="M194.633 343.251C195.391 343.634 206.236 349.093 212.939 351.032C217.943 352.484 232.45 356.275 234.597 350.92C236.065 347.281 227.79 344.049 221.996 341.631C218.94 340.355 215.173 337.163 216.075 335.2C217.671 331.768 225.516 335.2 230.687 338.216C240.686 344.025 254.004 354.487 260.109 349.388C262.415 347.473 259.734 343.978 255.816 340.554C262.2 344.544 268.967 347.816 271.608 345.789C273.132 344.632 273.204 343.044 272.358 341.24C274.321 341.879 276.053 341.751 277.266 340.442C279.333 338.272 278.327 335.08 276.061 331.8C276.45 331.76 276.824 331.627 277.151 331.414C277.479 331.2 277.751 330.911 277.944 330.571C282.325 323.892 260.388 304.716 252.815 302.92C230.511 297.614 207.002 298.603 207.002 298.603C198.24 305.634 194.609 343.235 194.633 343.251Z" fill="#EFD5B7"/>
<path d="M227.431 322.719C232.742 323.548 237.815 325.499 242.314 328.44C247.971 332.175 251.722 336.548 256.462 340.945C256.481 340.97 256.491 341 256.489 341.032C256.488 341.063 256.476 341.093 256.456 341.116C256.435 341.14 256.407 341.155 256.376 341.16C256.345 341.166 256.314 341.16 256.287 341.144C254.028 339.054 244.66 331.185 242.242 329.398C237.868 326.107 232.804 323.853 227.431 322.806C227.359 322.798 227.375 322.703 227.431 322.719Z" fill="#263238"/>
<path d="M231.589 313.247C237.454 314.843 243.463 316.439 248.905 319.248C254.858 322.28 259.519 327.228 264.067 332.016C266.823 334.873 269.512 337.799 272.135 340.794C272.239 340.921 272.071 341.121 271.959 340.993C267.31 336.078 262.522 331.29 257.595 326.629C253.036 322.302 247.666 318.917 241.795 316.67C238.443 315.385 234.996 314.372 231.549 313.351C231.501 313.335 231.525 313.231 231.589 313.247Z" fill="#263238"/>
<path d="M237.852 304.972C243.549 306.145 248.521 307.142 253.564 310.191C260.244 314.236 266.691 321.043 268.95 323.461C271.447 326.127 273.857 328.872 276.22 331.657C276.315 331.768 276.124 331.944 276.02 331.832C270.607 325.726 264.804 319.976 258.648 314.619C255.752 312.026 252.473 309.894 248.928 308.299C245.334 306.888 241.626 305.788 237.844 305.011C237.844 305.011 237.804 304.964 237.852 304.972Z" fill="#263238"/>
<path d="M203.412 296.768L187.452 347.33C187.452 347.33 144.24 334.993 136.38 326.478C128.52 317.963 113.908 273.993 109.623 252.679C105.338 231.364 116.111 231.931 126.014 245.329C135.917 258.728 160.575 291.334 161.924 292.044C163.272 292.754 203.412 296.768 203.412 296.768Z" fill="#FFC2C2"/>
<path opacity="0.1" d="M203.412 296.768L187.452 347.33C187.452 347.33 144.24 334.993 136.38 326.478C128.52 317.963 113.908 273.993 109.623 252.679C105.338 231.364 116.111 231.931 126.014 245.329C135.917 258.728 160.575 291.334 161.924 292.044C163.272 292.754 203.412 296.768 203.412 296.768Z" fill="black"/>
<path d="M183.302 324.866C185.241 318.905 187.22 312.96 188.928 306.927C189.902 303.503 190.891 300.072 191.833 296.641C191.873 296.505 191.657 296.433 191.609 296.561C189.431 302.466 187.26 308.395 185.353 314.396C183.446 320.397 181.507 326.366 179.687 332.327C178.658 335.743 177.724 339.174 176.902 342.645C176.902 342.709 176.998 342.749 177.022 342.685C179.4 336.852 181.355 330.867 183.302 324.866Z" fill="#263238"/>
<path d="M165.657 340.379L163.742 339.708C160.143 338.423 156.472 337.043 153.017 335.63C152.57 335.455 152.131 335.271 151.7 335.088C151.006 334.8 150.312 334.505 149.642 334.21L148.636 333.771L148.277 333.611L147.24 333.133C145.867 332.502 144.566 331.872 143.353 331.233L142.555 330.787C140.659 329.811 138.872 328.637 137.225 327.283C137.073 327.148 136.921 327.012 136.786 326.876C136.65 326.741 136.506 326.605 136.387 326.477C128.487 317.963 113.915 273.993 109.63 252.678L109.486 251.944V251.785C109.199 250.189 108.943 248.162 108.736 245.991C108.138 235.386 113.157 233.654 119.357 238.314C134.815 271.487 158.491 326.302 165.657 340.379Z" fill="#263238"/>
<path d="M143.242 348.869L49.0781 349.364C49.1579 347.337 62.5643 288.046 73.2256 266.164C86.8953 238.107 93.9736 235.84 98.1471 234.34C103.534 232.409 113.126 233.367 115.4 234.444C117.985 235.649 126.205 249.997 129.149 260.523C135.039 281.693 144.567 347.576 143.242 348.869Z" fill="#EBEBEB"/>
<path d="M93.3212 236.559C93.3212 236.559 105.291 280.887 105.89 283.832C106.791 288.109 112.76 349.14 112.76 349.14L47.125 349.364C47.125 349.364 61.4491 292.865 72.1104 268.127C83.7452 240.995 93.3212 236.559 93.3212 236.559Z" fill="#FFC2C2"/>
<g opacity="0.1">
<path d="M93.3212 236.559C93.3212 236.559 105.291 280.887 105.89 283.832C106.791 288.109 112.76 349.14 112.76 349.14L47.125 349.364C47.125 349.364 61.4491 292.865 72.1104 268.127C83.7452 240.995 93.3212 236.559 93.3212 236.559Z" fill="black"/>
</g>
<path d="M116.262 235.131C116.613 236.543 127.649 272.557 128.415 281.535C129.269 291.494 136.818 349.365 136.818 349.365H146.394C146.394 349.365 132.533 266.221 128.726 257.435C120.938 239.504 116.262 235.131 116.262 235.131Z" fill="#FFC2C2"/>
<path opacity="0.1" d="M116.262 235.131C116.613 236.543 127.649 272.557 128.415 281.535C129.269 291.494 136.818 349.365 136.818 349.365H146.394C146.394 349.365 132.533 266.221 128.726 257.435C120.938 239.504 116.262 235.131 116.262 235.131Z" fill="black"/>
<path d="M80.9281 246.925C65.1596 263.819 26.8237 327.914 38.9852 339.605C51.1467 351.296 118.666 335.559 137.626 326.518C143.268 323.836 121.834 288.661 115.202 287.839C109.68 287.16 81.4628 300.064 80.6408 298.444C79.7231 296.609 84.2079 283.067 91.0148 258.544C98.8272 230.279 87.9026 239.456 80.9281 246.925Z" fill="#EFD5B7"/>
<path d="M143.227 276.491C156.936 274.576 160.783 276.196 171.468 268.439C178.498 263.348 184.77 265.654 180.757 273.738C174.197 286.969 157.024 293.145 150.433 293.576L143.227 276.491Z" fill="#EFD5B7"/>
<path d="M106.805 289.673C106.805 289.673 122.214 281.119 136.626 277.639C146.585 275.245 168.849 272.413 190.156 294.397C195.207 299.608 198.71 310.621 187.371 305.107C179.311 301.188 175.401 296.273 170.286 294.844C170.286 294.844 173.079 309.376 167.66 314.236C162.924 318.483 157.892 322.387 152.602 325.918C151.732 325.1 150.916 324.226 150.16 323.301C150.16 323.301 144.67 327.363 134.344 326.373L106.805 289.673Z" fill="#EFD5B7"/>
<path d="M146.505 276.905C151.293 279.387 161.276 284.821 167.915 292.115C175.296 300.223 187.322 317.811 181.281 323.237C176.86 327.187 171.705 320.843 171.705 320.843C171.705 320.843 175.145 329.166 170.365 331.856C166.016 334.313 162.297 329.19 162.297 329.19C162.297 329.19 163.518 334.593 158.866 336.149C153.28 338.016 151.636 326.381 144.334 323.381C142.666 322.663 146.505 276.905 146.505 276.905Z" fill="#EFD5B7"/>
<path d="M158.063 298.452C162.157 301.524 169.674 310.885 171.749 320.581C171.797 320.804 171.661 320.956 171.573 320.764C167.968 312.829 163.413 305.361 158.007 298.524C157.943 298.452 158.007 298.452 158.063 298.452Z" fill="#263238"/>
<path d="M150.099 306.137C153.363 309.153 160.68 319.144 162.444 329.047C162.484 329.271 162.332 329.414 162.26 329.215C159.065 321.106 154.961 313.385 150.027 306.2C149.979 306.153 150.027 306.097 150.099 306.137Z" fill="#263238"/>
<path d="M170.288 294.749C174.757 296.066 177.662 298.26 181.46 300.878C183.309 302.199 185.23 303.417 187.214 304.525C189.033 305.506 191.723 306.991 193.654 305.45C194.739 304.597 194.723 303.056 194.452 301.804C193.906 299.99 193.077 298.274 191.994 296.72C191.994 296.656 192.05 296.585 192.098 296.64C193.143 298.057 194.041 299.575 194.779 301.173C195.262 302.268 195.404 303.483 195.186 304.66C194.524 307.118 191.619 307.445 189.6 306.767C188.377 306.318 187.2 305.748 186.089 305.067C185.004 304.445 183.95 303.775 182.897 303.072C180.774 301.636 178.739 300.08 176.633 298.62C174.586 297.245 172.453 296.003 170.249 294.901C170.232 294.893 170.218 294.879 170.211 294.862C170.203 294.846 170.201 294.826 170.206 294.809C170.21 294.791 170.221 294.775 170.236 294.764C170.252 294.753 170.27 294.748 170.288 294.749Z" fill="#263238"/>
<path d="M179.649 310.47C178.492 307.924 172.228 297.311 170.201 294.853C170.193 294.841 170.19 294.826 170.192 294.812C170.194 294.798 170.2 294.785 170.21 294.775C170.22 294.764 170.233 294.758 170.248 294.756C170.262 294.755 170.276 294.758 170.289 294.765C173.776 298.069 179.37 306.839 180.663 309.648C181.955 312.457 183.44 315.976 183.44 319.064C183.44 323.733 180.343 324.65 179.202 324.85C177.837 325.097 176.427 324.866 175.212 324.196C173.791 323.327 172.563 322.175 171.605 320.812C171.557 320.748 171.645 320.66 171.701 320.724C173.297 322.568 176.01 324.379 178.54 324.044C179.101 323.991 179.646 323.826 180.142 323.559C180.638 323.291 181.076 322.927 181.429 322.488C182.12 321.365 182.386 320.031 182.179 318.729C181.806 315.854 180.95 313.061 179.649 310.47Z" fill="#263238"/>
<path d="M106.806 289.674L128.416 335.16C128.416 335.16 43.8915 354.136 36.5978 339.421C29.304 324.706 62.1337 267.122 76.9207 250.348C94.0697 230.909 96.2562 237.525 92.4817 254.753C88.4917 272.788 80.8867 298.867 80.8867 298.867L106.806 289.674Z" fill="#FFC2C2"/>
<path opacity="0.1" d="M106.806 289.674L128.416 335.16C128.416 335.16 43.8915 354.136 36.5978 339.421C29.304 324.706 62.1337 267.122 76.9207 250.348C94.0697 230.909 96.2562 237.525 92.4817 254.753C88.4917 272.788 80.8867 298.867 80.8867 298.867L106.806 289.674Z" fill="black"/>
<path d="M55.1993 310.972C62.9957 305.558 71.5568 301.338 80.5996 298.452C83.1612 297.654 85.7467 296.895 88.3322 296.153C88.412 296.153 88.444 296.257 88.3322 296.281C83.8228 297.74 79.4023 299.462 75.0934 301.436C70.7895 303.351 66.5335 305.344 62.3254 307.413C59.9314 308.586 57.6013 309.871 55.2551 311.124C55.2394 311.12 55.2248 311.113 55.2126 311.102C55.2005 311.092 55.1912 311.078 55.1856 311.063C55.18 311.048 55.1784 311.032 55.1807 311.016C55.1831 311 55.1895 310.985 55.1993 310.972Z" fill="#263238"/>
<path d="M106.582 289.554C106.159 289.666 83.0407 297.303 82.2826 297.654C82.3783 297.303 86.5279 285.014 87.1504 283.21C87.2062 283.035 87.2621 282.851 87.3259 282.675C87.7409 281.877 88.1718 281.079 88.5628 280.281C89.0576 279.236 89.5524 278.175 90.0391 277.089H89.9913L88.3953 280.178C88.1479 280.649 87.9165 281.135 87.685 281.622C88.092 280.353 88.483 279.076 88.8741 277.792C89.4965 275.757 90.0551 273.698 90.6057 271.639C90.6057 271.567 90.5259 271.551 90.502 271.639C89.2731 275.222 87.9324 278.765 86.6955 282.348C85.4586 285.931 80.7025 299.106 80.7424 299.106C80.7823 299.106 106.199 290.121 106.693 289.921C106.717 289.914 106.74 289.902 106.759 289.886C106.779 289.87 106.795 289.85 106.807 289.828C106.819 289.806 106.826 289.781 106.828 289.756C106.831 289.731 106.828 289.706 106.821 289.682C106.814 289.658 106.802 289.635 106.786 289.616C106.77 289.596 106.75 289.58 106.728 289.568C106.706 289.557 106.681 289.549 106.656 289.547C106.631 289.544 106.606 289.547 106.582 289.554Z" fill="#263238"/>
<path d="M108.139 319.2C105.745 314.133 103.423 309.033 100.862 304.038C99.4014 301.205 97.957 298.364 96.4727 295.547C96.4169 295.444 96.2254 295.547 96.2732 295.635C98.4598 300.822 100.662 306.009 103.088 311.108C105.514 316.208 107.876 321.243 110.342 326.27C111.746 329.127 113.239 331.939 114.819 334.705C114.819 334.761 114.946 334.705 114.922 334.705C112.912 329.422 110.541 324.323 108.139 319.2Z" fill="#263238"/>
<path d="M129.511 335.862C128.665 334.457 127.596 332.446 126.694 331.074C126.454 330.714 126.175 330.786 126.367 331.161C127.013 332.438 127.548 333.867 128.178 335.151C126.997 335.391 125.784 335.598 124.619 335.846C123.246 336.133 121.882 336.428 120.509 336.707C117.817 337.239 115.126 337.771 112.434 338.303C106.975 339.32 101.496 340.213 95.9948 340.985C84.9746 342.598 73.8781 343.64 62.7501 344.105C59.6379 344.217 56.5177 344.272 53.4055 344.233C50.3356 344.24 47.2673 344.091 44.2126 343.786C44.1248 343.786 44.1088 343.921 44.2126 343.937C46.8411 344.493 49.5094 344.84 52.1926 344.975C55.0095 345.11 57.8344 345.174 60.6593 345.142C66.2453 345.078 71.8872 344.711 77.4812 344.201C88.5734 343.179 99.6337 341.679 110.598 339.74C113.673 339.208 116.74 338.631 119.799 338.008C121.347 337.697 122.887 337.386 124.428 337.043C125.968 336.699 129.654 336.101 129.511 335.862Z" fill="#263238"/>
<path d="M116.278 251.673C110.692 253.213 100.693 244.954 96.6075 238.107C96.3282 237.636 96.8788 232.561 97.2539 226.361C97.4693 222.602 97.6129 218.381 97.4693 214.566C97.4693 213.768 121.752 219.53 121.752 219.53C121.752 219.53 119.678 227.653 119.965 234.341C119.99 234.878 120.065 235.413 120.188 235.937C120.21 236.02 120.226 236.106 120.236 236.192C120.835 239.152 121.681 250.181 116.278 251.673Z" fill="#EFD5B7"/>
<path d="M98.9531 214.662C100.31 221.11 104.922 236.631 117.77 236.448C118.594 236.439 119.416 236.365 120.228 236.224C120.238 236.137 120.238 236.048 120.228 235.961C120.109 235.436 120.032 234.902 119.996 234.365C119.717 227.67 121.784 219.538 121.784 219.538C121.784 219.538 104.212 215.388 98.9531 214.662Z" fill="#263238"/>
<path d="M124.65 203.05C124.379 208.94 128.353 213.903 133.524 214.143C138.695 214.382 143.1 209.786 143.363 203.896C143.626 198.007 139.652 193.044 134.489 192.812C129.326 192.581 124.913 197.161 124.65 203.05Z" fill="#455A64"/>
<path d="M142.414 204.222C142.71 197.671 138.289 192.149 132.539 191.889C126.789 191.629 121.888 196.729 121.591 203.28C121.295 209.832 125.716 215.353 131.466 215.614C137.216 215.874 142.117 210.774 142.414 204.222Z" fill="#C7C7C7"/>
<path d="M100.637 184.011C96.4559 191.895 96.1926 216.96 101.108 223.52C108.234 233.016 122.239 236.503 130.874 227.43C139.277 218.604 139.037 185.934 133.331 179.733C124.945 170.58 106.814 172.368 100.637 184.011Z" fill="#EFD5B7"/>
<path d="M121.479 203.386C121.479 203.323 121.344 203.474 121.352 203.546C121.439 205.23 121.264 207.177 119.756 207.767C119.708 207.767 119.716 207.871 119.756 207.863C121.623 207.56 121.83 204.974 121.479 203.386Z" fill="#263238"/>
<path d="M119.934 201.662C117.212 201.518 117.125 206.969 119.638 207.096C122.152 207.224 122.216 201.782 119.934 201.662Z" fill="#263238"/>
<path d="M130.931 203.593C130.931 203.53 131.059 203.681 131.059 203.745C130.979 205.437 131.17 207.384 132.655 207.967C132.703 207.967 132.655 208.07 132.655 208.062C130.811 207.767 130.58 205.182 130.931 203.593Z" fill="#263238"/>
<path d="M132.469 201.893C135.182 201.726 135.31 207.176 132.788 207.328C130.267 207.479 130.187 201.989 132.469 201.893Z" fill="#263238"/>
<path d="M117.491 197.305C118.289 197.266 118.952 197.098 119.71 196.986C120.509 196.971 121.281 196.69 121.904 196.188C122.071 195.996 122.17 195.754 122.184 195.5C122.199 195.245 122.128 194.994 121.984 194.784C121.635 194.417 121.195 194.149 120.708 194.009C120.221 193.869 119.706 193.861 119.215 193.986C118.175 194.068 117.204 194.538 116.494 195.303C116.345 195.486 116.252 195.708 116.226 195.942C116.2 196.177 116.242 196.414 116.348 196.625C116.453 196.836 116.617 197.013 116.819 197.134C117.022 197.254 117.255 197.314 117.491 197.305Z" fill="#263238"/>
<path d="M135.03 197.904C134.301 197.743 133.582 197.544 132.875 197.305C132.09 197.211 131.358 196.86 130.792 196.308C130.649 196.097 130.58 195.845 130.596 195.59C130.612 195.336 130.712 195.095 130.88 194.903C131.27 194.576 131.741 194.359 132.243 194.273C132.745 194.188 133.26 194.237 133.737 194.416C134.757 194.631 135.662 195.217 136.274 196.06C136.394 196.261 136.454 196.491 136.447 196.724C136.441 196.957 136.368 197.184 136.237 197.377C136.107 197.571 135.924 197.723 135.71 197.816C135.496 197.909 135.26 197.94 135.03 197.904Z" fill="#263238"/>
<path d="M118.401 219.035C118.8 219.434 119.199 219.985 119.805 220.048C120.433 220.043 121.053 219.907 121.625 219.649C121.636 219.647 121.648 219.648 121.659 219.652C121.67 219.656 121.68 219.662 121.688 219.671C121.695 219.68 121.7 219.691 121.701 219.703C121.703 219.715 121.701 219.726 121.697 219.737C121.452 220.067 121.122 220.323 120.742 220.479C120.363 220.635 119.948 220.685 119.542 220.623C119.199 220.527 118.892 220.332 118.659 220.062C118.426 219.792 118.278 219.46 118.233 219.107C118.209 219.011 118.337 218.971 118.401 219.035Z" fill="#263238"/>
<path d="M120.259 214.007C120.675 214.681 121.227 215.262 121.88 215.713C122.532 216.163 123.271 216.474 124.049 216.624C124.728 216.769 125.424 216.815 126.116 216.76C126.25 216.755 126.383 216.742 126.515 216.72L126.882 216.664C126.972 216.649 127.055 216.606 127.119 216.539C127.182 216.473 127.222 216.388 127.233 216.297C127.237 216.239 127.237 216.18 127.233 216.122V215.97C127.289 214.669 127.233 212.69 127.233 212.69C127.704 212.938 130.114 214.071 130.082 213.392C129.842 207.759 129.571 201.502 128.143 195.956C128.135 195.921 128.115 195.889 128.087 195.867C128.058 195.844 128.023 195.832 127.987 195.832C127.951 195.832 127.916 195.844 127.888 195.867C127.859 195.889 127.84 195.921 127.832 195.956C127.832 201.375 128.821 206.753 128.925 212.195C128.07 211.782 127.163 211.489 126.228 211.326C126.044 211.382 126.475 215.148 126.403 215.731C126.405 215.752 126.405 215.773 126.403 215.794C124.209 216.034 122.573 215.348 120.482 213.847C120.29 213.76 120.155 213.863 120.259 214.007Z" fill="#263238"/>
<path d="M125.359 216.082C124.633 217.001 123.682 217.716 122.598 218.157C121.999 218.379 121.347 218.409 120.731 218.245C119.39 217.862 119.374 216.649 119.637 215.572C119.784 215.017 119.996 214.481 120.268 213.976C121.697 215.202 123.481 215.94 125.359 216.082Z" fill="#263238"/>
<path d="M122.598 218.157C121.999 218.378 121.347 218.409 120.731 218.245C119.39 217.862 119.374 216.649 119.637 215.571C121.082 215.747 122.494 216.752 122.598 218.157Z" fill="#FF98B9"/>
<path opacity="0.2" d="M97.5 201.71C99.1439 201.447 103.086 195.884 104.754 193.674C106.422 191.464 107.387 179.613 107.539 176.916C104.612 178.571 102.216 181.023 100.628 183.986C98.7608 187.529 97.6835 194.496 97.5 201.71Z" fill="#263238"/>
<path d="M127.929 186.732C126.954 187.8 125.723 188.603 124.352 189.062C122.98 189.522 121.514 189.623 120.092 189.357C118.642 189.09 117.283 188.456 116.146 187.516C115.009 186.576 114.132 185.361 113.597 183.986C113.597 183.899 113.437 183.947 113.469 184.026C113.901 185.524 114.733 186.875 115.876 187.934C117.02 188.993 118.431 189.72 119.957 190.035C121.473 190.264 123.023 190.09 124.451 189.53C125.878 188.969 127.133 188.043 128.088 186.843C128.094 186.823 128.093 186.801 128.086 186.781C128.078 186.761 128.065 186.744 128.048 186.732C128.03 186.719 128.01 186.713 127.988 186.713C127.967 186.713 127.946 186.719 127.929 186.732Z" fill="#263238"/>
<path d="M119.821 165.489C114.898 165.441 110.301 168.019 108.394 171.306C107.335 173.18 106.941 175.357 107.277 177.483C107.277 177.571 107.46 177.555 107.452 177.483C107.411 175.609 107.875 173.759 108.794 172.126C109.714 170.493 111.056 169.138 112.679 168.202C114.457 167.113 116.463 166.45 118.54 166.268C120.618 166.085 122.709 166.387 124.649 167.149C126.541 167.849 128.12 169.202 129.102 170.963C129.198 171.147 129.565 171.043 129.493 170.859C128.248 167.731 124.266 165.529 119.821 165.489Z" fill="#263238"/>
<path d="M148.03 177.052C147.3 174.599 145.729 172.483 143.593 171.075C140.633 169.112 137.209 169.279 133.826 169.519C133.807 169.519 133.788 169.526 133.775 169.54C133.761 169.553 133.754 169.571 133.754 169.59C133.754 169.609 133.761 169.628 133.775 169.641C133.788 169.655 133.807 169.662 133.826 169.662C136.714 169.471 139.659 169.439 142.261 170.883C144.426 172.055 146.118 173.942 147.049 176.222C147.934 178.56 147.946 181.14 147.081 183.486C146.215 185.832 144.532 187.786 142.34 188.99C141.062 189.65 139.662 190.042 138.227 190.143C136.792 190.243 135.351 190.049 133.993 189.572C133.882 189.532 133.802 189.684 133.906 189.732C135.739 190.455 137.738 190.653 139.678 190.304C141.619 189.956 143.423 189.074 144.891 187.758C146.359 186.442 147.431 184.743 147.988 182.853C148.545 180.962 148.565 178.953 148.046 177.052H148.03Z" fill="#263238"/>
<path d="M98.8593 188.838C98.8593 188.838 94.5022 179.877 98.588 174.929C100.902 172.128 108.228 172.767 108.228 172.767C108.228 172.767 110.742 168.641 116.87 167.468C122.999 166.295 130.229 170.133 130.229 170.133C130.229 170.133 136.182 167.013 141.528 170.333C148.99 174.961 147.617 186.524 139.813 189.972C134.338 192.366 127.204 187.37 127.204 187.37C126.494 187.442 119.136 191.512 113.934 184.896C113.934 184.896 109.369 188.663 105.499 185.766C104.84 186.897 103.85 187.798 102.663 188.348C101.475 188.897 100.147 189.069 98.8593 188.838Z" fill="#263238"/>
<path d="M101.994 204.743C101.994 204.743 97.8522 195.965 93.95 197.274C90.0477 198.582 92.2103 210.728 96.1205 213.01C96.603 213.338 97.1466 213.564 97.7188 213.676C98.291 213.788 98.8799 213.783 99.4502 213.661C100.02 213.54 100.56 213.304 101.037 212.969C101.514 212.633 101.918 212.205 102.225 211.709L101.994 204.743Z" fill="#EFD5B7"/>
<path d="M94.6542 200.729C94.5903 200.729 94.5584 200.808 94.6542 200.84C97.3833 202.532 98.4606 205.525 99.0512 208.533C98.3729 207.296 97.2796 206.498 95.6517 207.28C95.6348 207.291 95.6219 207.307 95.6148 207.326C95.6077 207.345 95.6067 207.366 95.612 207.385C95.6174 207.405 95.6287 207.422 95.6444 207.435C95.6601 207.447 95.6794 207.455 95.6996 207.456C96.2445 207.382 96.799 207.478 97.2874 207.731C97.7758 207.983 98.1743 208.381 98.4287 208.868C98.8423 209.688 99.1687 210.549 99.4023 211.438C99.498 211.725 99.9928 211.661 99.9449 211.342C99.9487 211.318 99.9487 211.294 99.9449 211.27C100.615 207.543 98.6123 201.806 94.6542 200.729Z" fill="#263238"/>
<path d="M111.02 222.418L103.16 219.027L96.8398 211.158L98.0528 210.177L104.134 217.75L111.643 220.99L111.02 222.418Z" fill="#C7C7C7"/>
<path d="M110.182 221.166C110.98 218.875 117.364 219.721 116.207 223.185C115.05 226.648 109.408 223.44 110.182 221.166Z" fill="#37474F"/>
<path d="M93.8292 197.033C93.8292 197.033 92.9753 184.162 96.7419 177.083C100.939 169.175 118.336 161.65 130.258 170.149C130.258 170.149 110.89 166.685 101.865 177.65C98.0666 182.262 98.1623 197.393 98.1623 197.393L93.8292 197.033Z" fill="#C7C7C7"/>
<path d="M95.5873 215.521C101.343 215.463 105.956 210.101 105.891 203.543C105.825 196.986 101.107 191.716 95.351 191.773C89.5955 191.831 84.9826 197.193 85.0478 203.751C85.1131 210.308 89.8317 215.578 95.5873 215.521Z" fill="#C7C7C7"/>
<path d="M102.847 203.202C102.903 209.099 98.761 213.919 93.59 213.967C88.419 214.015 84.1736 209.283 84.1177 203.385C84.0619 197.488 88.2035 192.668 93.3745 192.62C98.5456 192.573 102.791 197.305 102.847 203.202Z" fill="#455A64"/>
<path d="M120.141 235.793L114.515 249.997L96.8151 232.138L91.8516 237.915C91.8516 237.915 109.208 266.332 109.312 265.047L115.097 252.798L123.572 261.265L122.774 239.926L120.141 235.793Z" fill="#EBEBEB"/>
<path d="M123.78 250.691C123.533 247.172 123.389 243.621 122.982 240.118C122.982 239.998 122.775 239.942 122.743 240.118C122.056 243.525 123.07 256.971 123.07 260.203H123.03C122.679 259.836 115.178 252.758 115.106 252.87C113.853 254.817 109.6 263.73 109.312 264.544C106.567 260.028 94.9484 242.24 91.6766 237.971C91.6608 237.944 91.6346 237.923 91.6039 237.915C91.5733 237.907 91.5406 237.911 91.513 237.927C91.4855 237.943 91.4654 237.969 91.4572 238C91.449 238.031 91.4533 238.063 91.4692 238.091C93.8632 242.879 108.945 266.348 109.153 266.284C111.392 262.076 113.413 257.756 115.21 253.341C116.478 254.881 124.044 262.877 124.067 262.35C124.178 258.461 124.082 254.57 123.78 250.691Z" fill="#263238"/>
<path d="M313.485 198.446H288.803C286.41 198.444 284.115 197.493 282.423 195.8C280.731 194.108 279.779 191.814 279.777 189.421C279.777 187.027 280.728 184.732 282.421 183.039C284.113 181.346 286.409 180.396 288.803 180.396H313.485C315.879 180.396 318.174 181.346 319.867 183.039C321.559 184.732 322.51 187.027 322.51 189.421C322.51 190.606 322.277 191.78 321.823 192.875C321.37 193.97 320.705 194.965 319.867 195.803C319.029 196.641 318.034 197.306 316.939 197.759C315.844 198.213 314.67 198.446 313.485 198.446Z" fill="#455A64"/>
<path d="M294.199 189.261C294.217 188.975 294.31 188.7 294.471 188.463L294.694 188.136L295.165 187.665L295.715 187.266C296.474 186.783 297.32 186.455 298.205 186.3C300.247 185.893 302.348 185.893 304.39 186.3C305.264 186.45 306.1 186.773 306.847 187.25C307.039 187.378 307.231 187.521 307.414 187.657L307.877 188.12C307.998 188.295 308.11 188.476 308.212 188.662C308.29 188.854 308.354 189.052 308.404 189.253H304.358C304.326 189.257 304.294 189.251 304.267 189.235C304.24 189.219 304.218 189.194 304.206 189.165C304.096 188.951 303.93 188.769 303.727 188.639C303.524 188.508 303.29 188.434 303.049 188.423C301.872 188.347 300.691 188.347 299.514 188.423C299.275 188.433 299.042 188.506 298.84 188.635C298.639 188.764 298.474 188.944 298.365 189.157C298.365 189.213 298.309 189.253 298.229 189.253H294.199V189.261Z" fill="white"/>
<path d="M294.198 191.519V190.043H298.188C298.188 190.131 298.188 190.227 298.188 190.33V191.519C298.199 191.589 298.194 191.66 298.172 191.727C298.15 191.794 298.113 191.855 298.063 191.905C298.013 191.954 297.952 191.992 297.885 192.013C297.818 192.035 297.747 192.041 297.678 192.03H294.701C294.632 192.041 294.561 192.036 294.494 192.014C294.427 191.992 294.367 191.955 294.318 191.905C294.268 191.855 294.232 191.794 294.211 191.727C294.19 191.659 294.186 191.588 294.198 191.519Z" fill="white"/>
<path d="M304.389 191.567C304.389 191.064 304.389 190.561 304.389 190.066H308.34V190.154C308.34 190.617 308.34 191.088 308.34 191.551C308.347 191.618 308.34 191.685 308.317 191.749C308.295 191.812 308.259 191.87 308.212 191.917C308.164 191.965 308.106 192.001 308.043 192.023C307.979 192.046 307.912 192.053 307.845 192.045H304.836C304.774 192.048 304.712 192.037 304.654 192.014C304.597 191.99 304.545 191.954 304.503 191.909C304.46 191.863 304.428 191.809 304.409 191.75C304.389 191.691 304.382 191.628 304.389 191.567Z" fill="white"/>
<path d="M212.22 350.322H206.746V353.897H212.22V350.322Z" fill="#455A64"/>
<path d="M219.318 350.083H213.844V353.658H219.318V350.083Z" fill="#455A64"/>
<path d="M226.42 349.844H220.945V353.419H226.42V349.844Z" fill="#455A64"/>
<path d="M233.521 349.612H228.047V353.187H233.521V349.612Z" fill="#455A64"/>
<path d="M240.623 349.373H235.148V352.948H240.623V349.373Z" fill="#455A64"/>
<path d="M247.724 349.142H242.25V352.717H247.724V349.142Z" fill="#455A64"/>
<path d="M254.826 348.901H249.352V352.476H254.826V348.901Z" fill="#455A64"/>
<path d="M261.931 348.662H256.457V352.237H261.931V348.662Z" fill="#455A64"/>
<path d="M269.025 348.431H263.551V352.006H269.025V348.431Z" fill="#455A64"/>
<path d="M270.372 355.948H205.398V351.599L270.372 349.787V355.948Z" fill="#37474F"/>
<path d="M333.782 338.799H226.531L243.585 258.951H350.836L333.782 338.799Z" fill="#455A64"/>
<path d="M337.747 338.799H230.496L247.549 258.951H354.801L337.747 338.799Z" fill="#37474F"/>
<path d="M299.447 298.733C302.357 296.044 302.854 291.849 300.557 289.363C298.259 286.877 294.038 287.042 291.128 289.731C288.218 292.42 287.722 296.615 290.019 299.101C292.316 301.587 296.537 301.422 299.447 298.733Z" fill="#263238"/>
<path d="M307.416 359.651H254.668V355.549L307.416 353.85V359.651Z" fill="#455A64"/>
<path d="M321.757 359.643H293.436L276.375 314.899H304.696L321.757 359.643Z" fill="#455A64"/>
<path d="M326.417 359.643H298.096L281.043 314.899H309.364L326.417 359.643Z" fill="#263238"/>
<path d="M203.396 360.736H149.012C144.376 360.736 151.087 347.521 168.029 342.454C184.97 337.386 208.743 355.78 203.396 360.736Z" fill="#37474F"/>
<path d="M182.059 360.736C182.102 359.231 182.352 357.738 182.801 356.3C183.239 354.85 183.853 353.459 184.628 352.158C185.409 350.851 186.383 349.67 187.517 348.655C188.639 347.636 189.933 346.826 191.339 346.261C190.757 346.74 190.094 347.059 189.56 347.593L188.762 348.304L187.964 349.102C186.955 350.154 186.072 351.318 185.33 352.573C184.577 353.828 183.931 355.144 183.399 356.507C182.858 357.885 182.41 359.298 182.059 360.736Z" fill="#263238"/>
<path d="M188.496 348.159C191.726 349.228 194.783 350.763 197.569 352.716C198.977 353.689 200.252 354.842 201.36 356.147C201.904 356.814 202.372 357.539 202.756 358.31C203.136 359.079 203.353 359.919 203.395 360.776C203.204 359.963 202.872 359.19 202.413 358.493C201.979 357.794 201.471 357.144 200.897 356.554C199.734 355.376 198.465 354.307 197.107 353.362C195.758 352.389 194.329 351.519 192.901 350.657C192.183 350.226 191.449 349.811 190.715 349.412C189.98 349.013 189.238 348.566 188.496 348.159Z" fill="#263238"/>
<path d="M207.289 179.462C206.82 183.913 205.123 188.146 202.389 191.689C199.654 195.232 195.989 197.945 191.803 199.527C187.616 201.108 183.072 201.495 178.678 200.645C174.284 199.795 170.213 197.741 166.918 194.712L154.812 196.515L160.861 186.07C159.35 182.39 158.779 178.391 159.202 174.435C159.511 171.263 160.446 168.184 161.951 165.374C163.456 162.565 165.502 160.081 167.971 158.066C170.439 156.05 173.283 154.543 176.337 153.631C179.39 152.719 182.594 152.421 185.764 152.752C188.934 153.084 192.007 154.039 194.806 155.563C197.605 157.087 200.075 159.15 202.073 161.633C204.072 164.115 205.559 166.969 206.45 170.029C207.341 173.089 207.618 176.295 207.265 179.462H207.289Z" fill="white"/>
<path d="M207.29 179.463C206.826 183.917 205.138 188.157 202.414 191.712C201.737 192.596 201.007 193.438 200.228 194.234C199.42 195.001 198.567 195.721 197.674 196.388C195.896 197.741 193.935 198.835 191.849 199.636C189.764 200.453 187.575 200.974 185.345 201.184C184.228 201.289 183.105 201.31 181.986 201.248C180.864 201.222 179.746 201.107 178.642 200.905C174.181 200.086 170.036 198.041 166.672 195L166.959 195.087L154.885 196.947L154.016 197.106L154.455 196.308L160.471 185.831V186.246C159.06 182.813 158.449 179.104 158.687 175.4C158.924 171.696 160.004 168.095 161.843 164.872C163.682 161.648 166.232 158.886 169.299 156.796C172.366 154.706 175.869 153.343 179.542 152.811C183.216 152.28 186.962 152.593 190.496 153.727C194.03 154.861 197.258 156.786 199.936 159.355C202.614 161.925 204.67 165.072 205.949 168.556C207.227 172.041 207.694 175.771 207.314 179.463H207.29ZM207.29 179.463C207.669 175.826 207.21 172.15 205.948 168.719C204.685 165.287 202.654 162.19 200.009 159.665C197.364 157.141 194.176 155.255 190.689 154.154C187.203 153.053 183.51 152.765 179.895 153.312C176.31 153.847 172.895 155.195 169.912 157.254C166.962 159.33 164.495 162.02 162.682 165.138C160.898 168.273 159.845 171.77 159.602 175.369C159.379 178.975 159.965 182.584 161.317 185.934L161.405 186.15L161.285 186.341L155.205 196.771L154.774 196.133L166.871 194.441H167.039L167.159 194.553C170.387 197.575 174.394 199.64 178.73 200.514C179.811 200.731 180.908 200.864 182.009 200.913C183.109 200.989 184.213 200.989 185.313 200.913C187.521 200.744 189.694 200.266 191.769 199.492C193.854 198.739 195.817 197.682 197.594 196.356C198.485 195.694 199.337 194.983 200.148 194.226C200.93 193.439 201.663 192.604 202.343 191.728C205.096 188.177 206.809 183.93 207.29 179.463Z" fill="#263238"/>
<path d="M196.732 177.682C196.734 178.262 196.563 178.829 196.243 179.312C195.922 179.794 195.465 180.171 194.93 180.394C194.395 180.617 193.806 180.676 193.237 180.564C192.669 180.452 192.146 180.173 191.736 179.764C191.325 179.355 191.046 178.833 190.932 178.265C190.818 177.696 190.876 177.107 191.097 176.571C191.319 176.036 191.694 175.578 192.176 175.256C192.658 174.934 193.224 174.762 193.804 174.762C194.188 174.761 194.569 174.835 194.924 174.982C195.279 175.128 195.602 175.343 195.874 175.614C196.146 175.886 196.362 176.208 196.509 176.563C196.657 176.918 196.732 177.298 196.732 177.682Z" fill="#263238"/>
<path d="M186.248 177.682C186.25 178.262 186.079 178.83 185.758 179.312C185.437 179.795 184.979 180.172 184.444 180.395C183.908 180.617 183.319 180.676 182.75 180.563C182.181 180.45 181.658 180.171 181.248 179.761C180.838 179.351 180.559 178.829 180.447 178.26C180.334 177.691 180.392 177.101 180.615 176.566C180.838 176.03 181.214 175.573 181.697 175.252C182.18 174.931 182.747 174.76 183.327 174.762C184.102 174.762 184.845 175.069 185.392 175.617C185.94 176.165 186.248 176.908 186.248 177.682Z" fill="#263238"/>
<path d="M175.767 177.682C175.769 178.262 175.599 178.829 175.278 179.312C174.957 179.794 174.5 180.171 173.965 180.394C173.43 180.617 172.841 180.676 172.272 180.564C171.704 180.452 171.181 180.173 170.771 179.764C170.36 179.355 170.081 178.833 169.967 178.265C169.853 177.696 169.911 177.107 170.132 176.571C170.354 176.036 170.729 175.578 171.211 175.256C171.693 174.934 172.259 174.762 172.839 174.762C173.614 174.762 174.358 175.069 174.907 175.617C175.456 176.164 175.765 176.907 175.767 177.682Z" fill="#263238"/>
<path d="M217.529 54.1598C217.998 58.6104 219.694 62.8432 222.428 66.3864C225.162 69.9295 228.826 72.6438 233.012 74.2267C237.198 75.8096 241.742 76.1989 246.136 75.3511C250.53 74.5034 254.603 72.452 257.9 69.4256L269.981 71.1971L263.941 60.7513C265.326 57.3498 265.918 53.6772 265.671 50.0127C265.424 46.3482 264.345 42.7882 262.516 39.6033C260.687 36.4183 258.155 33.6923 255.115 31.6323C252.074 29.5723 248.604 28.2325 244.968 27.7148C241.331 27.1972 237.625 27.5152 234.13 28.6448C230.636 29.7744 227.444 31.6858 224.799 34.2337C222.154 36.7817 220.124 39.8991 218.864 43.3491C217.605 46.7991 217.148 50.4909 217.529 54.1439V54.1598Z" fill="white"/>
<path d="M224.759 34.2023C227.391 31.607 230.584 29.6513 234.091 28.4863C237.599 27.3212 241.327 26.978 244.989 27.4831C248.676 27.9694 252.203 29.2933 255.299 31.3534C259.989 34.4844 263.453 39.1406 265.104 44.5332C266.755 49.9258 266.49 55.7232 264.356 60.9432V60.5283L270.357 71.022L270.796 71.82L269.926 71.6843L257.844 69.833L258.132 69.7452C254.768 72.787 250.623 74.8318 246.162 75.6504C245.058 75.8527 243.94 75.9674 242.818 75.9935C241.701 76.0521 240.581 76.0307 239.467 75.9297C234.991 75.5029 230.721 73.8458 227.129 71.1417C226.237 70.4741 225.384 69.7546 224.576 68.9871C223.798 68.19 223.068 67.348 222.389 66.4654C218.772 61.7392 217.014 55.8504 217.448 49.9145C217.881 43.9787 220.477 38.4081 224.743 34.2581L224.759 34.2023ZM222.477 66.3537C223.157 67.2277 223.89 68.0592 224.672 68.8434C225.478 69.6055 226.331 70.3171 227.225 70.9741C229.002 72.307 230.968 73.3667 233.059 74.1182C235.132 74.8882 237.302 75.3663 239.506 75.5387C240.609 75.6145 241.716 75.6145 242.818 75.5387C243.917 75.4899 245.011 75.3565 246.09 75.1397C250.426 74.2654 254.432 72.2013 257.661 69.1786L257.781 69.0669H257.948L270.046 70.7586L269.615 71.397L263.534 60.9672L263.414 60.7677L263.502 60.5522C264.857 57.2154 265.438 53.6151 265.202 50.0216C264.965 46.4281 263.918 42.9348 262.138 39.8042C260.327 36.684 257.86 33.9939 254.908 31.92C251.927 29.8625 248.515 28.514 244.933 27.9779C240.198 27.2468 235.353 27.9561 231.026 30.0137C226.699 32.0712 223.091 35.382 220.67 39.5162C218.249 43.6503 217.127 48.4169 217.449 53.197C217.771 57.9771 219.523 62.5499 222.477 66.3218V66.3537Z" fill="#263238"/>
<path d="M243.712 54.5996V57.616C243.718 57.9165 243.664 58.2152 243.552 58.4941C243.44 58.7729 243.273 59.0263 243.06 59.2388C242.848 59.4513 242.594 59.6186 242.315 59.7305C242.037 59.8425 241.738 59.8969 241.437 59.8904C240.835 59.8883 240.258 59.648 239.832 59.2219C239.406 58.7958 239.165 58.2186 239.163 57.616V52.828C239.163 52.7802 239.211 52.7802 239.211 52.7323C239.211 52.6844 239.163 52.6844 239.163 52.6445C239.179 52.0464 239.424 51.4773 239.847 51.0542C240.27 50.6311 240.839 50.3863 241.437 50.3702C242.153 50.4264 242.872 50.3339 243.55 50.0988C244.228 49.8636 244.85 49.4907 245.377 49.0035C245.904 48.5164 246.324 47.9255 246.612 47.2681C246.899 46.6106 247.048 45.9008 247.048 45.1832C247.048 44.4656 246.899 43.7558 246.612 43.0984C246.324 42.4409 245.904 41.85 245.377 41.3629C244.85 40.8758 244.228 40.5029 243.55 40.2677C242.872 40.0325 242.153 39.94 241.437 39.9962C240.536 39.9926 239.65 40.2268 238.868 40.6751C238.086 41.1235 237.437 41.7701 236.985 42.5498C236.829 42.8138 236.623 43.0443 236.378 43.2277C236.132 43.4112 235.853 43.5439 235.556 43.6182C235.259 43.6925 234.95 43.7068 234.647 43.6604C234.344 43.614 234.054 43.5077 233.793 43.3478C233.535 43.1964 233.31 42.9956 233.131 42.757C232.952 42.5184 232.821 42.2467 232.747 41.9576C232.673 41.6684 232.656 41.3674 232.699 41.0719C232.741 40.7764 232.842 40.4922 232.995 40.2356C233.802 38.8343 234.945 37.6558 236.321 36.8063C237.698 35.9568 239.263 35.4628 240.878 35.369C242.493 35.2751 244.105 35.5843 245.57 36.2687C247.036 36.953 248.308 37.9911 249.272 39.2894C250.237 40.5877 250.863 42.1055 251.095 43.706C251.327 45.3066 251.157 46.9397 250.6 48.4583C250.044 49.9769 249.119 51.3333 247.908 52.4053C246.697 53.4774 245.239 54.2314 243.664 54.5996H243.712ZM243.712 64.7582V65.5562C243.719 65.8569 243.666 66.1561 243.554 66.4355C243.443 66.7149 243.275 66.9687 243.063 67.1814C242.85 67.3941 242.596 67.5614 242.317 67.673C242.037 67.7845 241.738 67.8381 241.437 67.8305C240.834 67.8305 240.256 67.5908 239.829 67.1643C239.403 66.7378 239.163 66.1593 239.163 65.5562V64.7582C239.171 64.1575 239.414 63.5838 239.838 63.1591C240.263 62.7344 240.837 62.4921 241.437 62.4839C241.737 62.4806 242.034 62.5373 242.312 62.6504C242.589 62.7636 242.841 62.931 243.053 63.1428C243.265 63.3547 243.432 63.6067 243.545 63.884C243.658 64.1614 243.715 64.4586 243.712 64.7582Z" fill="#FFC2C2"/>
</svg>
