<svg width="500" height="500" viewBox="0 0 500 500" fill="none" xmlns="http://www.w3.org/2000/svg">
<path d="M245.911 125.84H172.301V227.89H245.911V125.84Z" stroke="#263238" stroke-width="1.25474" stroke-miterlimit="10"/>
<path d="M236.862 138.39H181.352V215.35H236.862V138.39Z" stroke="#263238" stroke-width="1.25474" stroke-miterlimit="10"/>
<path d="M380.851 178.54H329.561V249.64H380.851V178.54Z" stroke="#263238" stroke-width="1.25474" stroke-miterlimit="10"/>
<path d="M374.551 187.28H335.871V240.9H374.551V187.28Z" stroke="#263238" stroke-width="1.25474" stroke-miterlimit="10"/>
<path d="M446.661 313.18C446.661 313.18 447.661 309.62 447.661 309.39C448.041 306.69 447.181 301.25 444.431 299.92C443.969 299.713 443.468 299.605 442.961 299.604C442.454 299.604 441.953 299.709 441.49 299.915C441.027 300.121 440.612 300.422 440.273 300.798C439.934 301.174 439.677 301.618 439.521 302.1C438.781 304.1 439.711 306.61 440.821 308.32C442.121 310.32 446.651 313.18 446.661 313.18Z" fill="#263238"/>
<path d="M392.461 311.999C394.651 312.999 400.011 312.839 400.021 312.839C400.031 312.839 398.861 309.329 398.761 309.119C397.591 306.659 393.871 302.599 390.841 303.009C390.341 303.091 389.864 303.276 389.441 303.554C389.018 303.833 388.658 304.197 388.385 304.623C388.113 305.05 387.933 305.529 387.858 306.03C387.783 306.531 387.815 307.042 387.951 307.529C388.451 309.629 390.601 311.189 392.461 311.999Z" fill="#263238"/>
<path d="M400.781 301.14H400.831C400.711 302 400.591 302.92 400.481 303.94C400.301 305.81 400.111 307.94 400.051 310.24C399.965 312.738 400.025 315.239 400.231 317.73C400.449 320.519 400.915 323.283 401.621 325.99V326.08C401.141 325.33 399.721 323.26 399.621 323.08C397.831 321.02 393.181 318.08 390.371 319.27C389.908 319.48 389.496 319.786 389.16 320.168C388.824 320.549 388.572 320.997 388.421 321.482C388.27 321.967 388.223 322.479 388.283 322.983C388.344 323.488 388.51 323.974 388.771 324.41C389.771 326.29 392.291 327.23 394.301 327.52C396.571 327.85 401.361 326.52 401.741 326.35C402.523 329.08 403.492 331.753 404.641 334.35C405.291 335.87 406.001 337.35 406.741 338.89C406.301 338.25 405.901 337.69 405.841 337.61C404.061 335.55 399.401 332.61 396.591 333.81C396.122 334.021 395.704 334.329 395.364 334.714C395.024 335.1 394.771 335.553 394.62 336.045C394.47 336.536 394.426 337.054 394.491 337.563C394.557 338.073 394.731 338.563 395.001 339C396.001 340.89 398.521 341.82 400.541 342.12C402.561 342.42 406.681 341.31 407.761 341.01C408.051 341.58 408.331 342.16 408.621 342.74C410.001 345.49 411.401 348.24 412.681 350.97C413.131 351.97 413.541 352.9 413.961 353.87C413.571 353.3 413.241 352.87 413.181 352.76C411.401 350.7 406.741 347.76 403.931 348.96C403.47 349.171 403.058 349.476 402.723 349.857C402.388 350.237 402.137 350.684 401.986 351.168C401.835 351.652 401.788 352.162 401.847 352.665C401.907 353.169 402.071 353.654 402.331 354.09C403.331 355.98 405.851 356.91 407.871 357.2C409.891 357.49 413.611 356.51 414.871 356.15C415.261 357.15 415.661 358.15 416.001 359.15C416.211 359.83 416.471 360.47 416.641 361.15C416.811 361.83 417.021 362.51 417.211 363.15C417.521 364.46 417.861 365.8 418.131 367.08C418.331 367.97 418.501 368.82 418.671 369.68C418.231 368.68 417.331 366.84 417.241 366.68C415.791 364.38 411.631 360.77 408.671 361.52C408.184 361.659 407.732 361.9 407.343 362.226C406.955 362.551 406.64 362.955 406.417 363.41C406.195 363.865 406.07 364.362 406.052 364.869C406.034 365.375 406.122 365.88 406.311 366.35C407.051 368.35 409.361 369.68 411.311 370.27C413.451 370.93 418.201 370.33 418.791 370.27C419.081 371.69 419.341 373.07 419.571 374.38C420.291 378.49 420.761 382 421.081 384.6H423.131C422.761 381.95 422.201 378.33 421.351 374.05C421.061 372.61 420.731 371.05 420.351 369.5C421.779 368.915 423.171 368.247 424.521 367.5C426.081 369.19 430.091 371.17 430.601 371.42C430.061 372.76 429.521 374.06 428.991 375.27C427.341 379.07 425.811 382.22 424.641 384.56H427.001C428.061 382.28 429.371 379.38 430.761 375.98C431.321 374.62 431.891 373.16 432.461 371.65C433.041 371.77 437.731 372.72 439.921 372.23C441.921 371.78 444.311 370.66 445.201 368.69C445.427 368.234 445.555 367.737 445.575 367.229C445.596 366.721 445.509 366.214 445.32 365.742C445.131 365.27 444.845 364.843 444.48 364.49C444.114 364.136 443.679 363.863 443.201 363.69C440.311 362.69 435.891 366.01 434.271 368.2C434.181 368.33 433.271 369.85 432.761 370.82C432.991 370.2 433.221 369.6 433.451 368.96C433.911 367.71 434.331 366.44 434.791 365.07C434.991 364.41 435.201 363.73 435.401 363.07C435.601 362.41 435.761 361.67 435.941 360.96C436.341 359.31 436.651 357.61 436.941 355.9C438.041 356.3 441.941 357.67 444.021 357.53C446.101 357.39 448.601 356.64 449.771 354.83C450.061 354.415 450.261 353.944 450.358 353.447C450.454 352.95 450.445 352.438 450.331 351.945C450.217 351.452 450 350.988 449.695 350.584C449.39 350.18 449.004 349.845 448.561 349.6C445.851 348.2 440.981 350.78 439.051 352.7C438.931 352.82 437.701 354.35 437.051 355.21C437.211 354.21 437.381 353.15 437.511 352.1C437.881 349.1 438.171 346 438.511 342.93C438.601 341.99 438.701 341.06 438.801 340.12C439.191 340.27 443.801 342 446.121 341.84C448.121 341.7 450.701 340.95 451.881 339.15C452.173 338.734 452.373 338.262 452.47 337.763C452.567 337.265 452.557 336.752 452.442 336.257C452.327 335.762 452.109 335.298 451.802 334.893C451.495 334.489 451.106 334.154 450.661 333.91C447.951 332.51 443.091 335.09 441.151 337.01C441.011 337.16 439.241 339.37 438.821 339.95C439.041 337.89 439.271 335.84 439.591 333.82C439.999 331.097 440.586 328.404 441.351 325.76C441.531 325.83 446.351 327.66 448.711 327.49C450.711 327.35 453.291 326.61 454.461 324.8C454.751 324.384 454.951 323.912 455.048 323.415C455.145 322.917 455.136 322.405 455.022 321.911C454.908 321.417 454.691 320.952 454.386 320.547C454.081 320.142 453.694 319.806 453.251 319.56C450.541 318.16 445.671 320.74 443.741 322.67C443.611 322.79 442.271 324.47 441.641 325.29L441.491 325.21C442.329 322.57 443.4 320.01 444.691 317.56C445.381 316.2 446.121 314.94 446.871 313.73C447.741 314.16 451.721 316.1 453.871 316.18C456.021 316.26 458.521 315.8 459.871 314.13C460.206 313.75 460.458 313.304 460.609 312.82C460.76 312.337 460.807 311.827 460.748 311.324C460.688 310.821 460.523 310.336 460.264 309.901C460.004 309.466 459.656 309.091 459.241 308.8C456.691 307.11 451.581 309.14 449.441 310.8C449.331 310.89 448.251 311.96 447.441 312.75C447.791 312.21 448.131 311.64 448.441 311.13C449.711 309.21 451.001 307.53 452.151 306.05C452.821 305.21 453.431 304.47 454.011 303.78C455.091 303.78 459.401 303.63 461.291 302.78C463.181 301.93 465.291 300.3 465.691 298.19C465.812 297.699 465.829 297.188 465.74 296.69C465.652 296.192 465.46 295.719 465.178 295.299C464.895 294.88 464.528 294.525 464.1 294.256C463.671 293.988 463.191 293.812 462.691 293.74C459.691 293.42 456.051 297.58 454.941 300.07C454.841 300.28 453.731 303.82 453.791 303.82H453.851C453.281 304.47 452.671 305.18 452.021 305.96C450.831 307.42 449.501 309.08 448.181 310.96C446.724 312.993 445.389 315.11 444.181 317.3C442.824 319.748 441.686 322.311 440.781 324.96V325.05C440.781 324.16 440.781 321.66 440.731 321.47C440.381 318.76 438.121 313.75 435.121 313.19C434.619 313.11 434.107 313.138 433.616 313.27C433.126 313.402 432.669 313.637 432.276 313.958C431.882 314.278 431.561 314.679 431.333 315.132C431.104 315.586 430.974 316.082 430.951 316.59C430.771 318.74 432.331 320.89 433.851 322.24C435.561 323.77 440.321 325.24 440.691 325.37C439.84 328.085 439.172 330.855 438.691 333.66C438.391 335.29 438.151 336.95 437.931 338.61C437.931 337.84 437.931 337.14 437.931 337.05C437.581 334.34 435.311 329.33 432.311 328.77C431.81 328.692 431.299 328.721 430.809 328.854C430.32 328.987 429.865 329.221 429.472 329.542C429.08 329.863 428.76 330.262 428.532 330.715C428.304 331.168 428.174 331.663 428.151 332.17C427.971 334.32 429.531 336.47 431.051 337.82C432.571 339.17 436.611 340.54 437.681 340.89L437.441 342.8C437.081 345.86 436.721 348.92 436.291 351.91C436.131 352.96 435.941 353.99 435.761 355.03C435.761 354.34 435.761 353.76 435.761 353.67C435.411 350.97 433.141 345.95 430.141 345.4C429.64 345.32 429.128 345.348 428.638 345.48C428.148 345.613 427.692 345.847 427.299 346.168C426.907 346.489 426.586 346.889 426.359 347.343C426.132 347.796 426.003 348.293 425.981 348.8C425.801 350.94 427.361 353.09 428.881 354.45C430.401 355.81 434.051 357.04 435.321 357.45C435.101 358.5 434.881 359.56 434.621 360.57C434.421 361.25 434.281 361.92 434.041 362.57C433.801 363.22 433.611 363.92 433.401 364.57C432.941 365.83 432.471 367.13 431.991 368.35C431.671 369.2 431.341 370 430.991 370.81C431.151 369.81 431.431 367.71 431.431 367.54C431.4 365.14 430.753 362.788 429.551 360.71C429.564 360.445 429.547 360.18 429.501 359.92C429.44 359.416 429.273 358.931 429.012 358.496C428.75 358.061 428.4 357.687 427.984 357.397C427.567 357.107 427.094 356.908 426.596 356.814C426.097 356.72 425.584 356.732 425.091 356.85C422.141 357.64 420.271 362.85 420.091 365.54C420.091 365.7 420.181 367.45 420.271 368.54C420.121 367.9 419.981 367.28 419.821 366.62C419.511 365.31 419.171 364.02 418.821 362.62C418.621 361.95 418.411 361.28 418.211 360.62C418.011 359.96 417.731 359.25 417.491 358.56C416.911 356.96 416.241 355.37 415.491 353.79C416.631 353.51 420.681 352.48 422.301 351.24C423.921 350 425.631 347.97 425.611 345.82C425.625 345.313 425.532 344.808 425.339 344.34C425.145 343.871 424.855 343.448 424.487 343.099C424.119 342.75 423.682 342.482 423.203 342.314C422.725 342.145 422.216 342.079 421.711 342.12C418.711 342.45 416.041 347.28 415.491 349.95C415.491 350.12 415.281 352.08 415.201 353.16C414.761 352.21 414.341 351.26 413.871 350.31C412.511 347.58 411.051 344.86 409.611 342.14L408.301 339.63C408.711 339.54 413.541 338.42 415.361 337.02C416.971 335.78 418.681 333.76 418.671 331.6C418.684 331.093 418.59 330.59 418.396 330.121C418.201 329.653 417.911 329.231 417.544 328.883C417.176 328.534 416.739 328.266 416.262 328.097C415.784 327.928 415.276 327.86 414.771 327.9C411.771 328.23 409.101 333.07 408.551 335.74C408.551 335.94 408.251 338.74 408.221 339.48C407.271 337.64 406.331 335.8 405.481 333.94C404.319 331.442 403.317 328.874 402.481 326.25C402.671 326.25 407.721 325.06 409.581 323.63C411.201 322.39 412.911 320.36 412.891 318.21C412.905 317.703 412.812 317.198 412.619 316.73C412.425 316.261 412.135 315.838 411.767 315.489C411.399 315.14 410.962 314.872 410.483 314.704C410.005 314.535 409.496 314.469 408.991 314.51C405.991 314.84 403.321 319.67 402.771 322.34C402.771 322.52 402.541 324.67 402.471 325.69H402.301C401.537 323.026 401.019 320.298 400.751 317.54C400.571 316.02 400.501 314.54 400.451 313.14C401.451 313.03 405.801 312.44 407.621 311.34C409.441 310.24 411.291 308.46 411.511 306.34C411.58 305.837 411.542 305.326 411.401 304.839C411.26 304.352 411.018 303.9 410.69 303.513C410.363 303.125 409.958 302.811 409.502 302.59C409.046 302.369 408.548 302.246 408.041 302.23C404.981 302.23 401.841 306.74 401.041 309.34C400.991 309.48 400.681 310.96 400.481 312.05C400.481 311.41 400.481 310.74 400.481 310.13C400.481 307.82 400.631 305.71 400.771 303.84C400.861 302.77 400.961 301.84 401.071 300.92C401.951 300.31 405.481 297.82 406.571 296.04C407.661 294.26 408.501 291.79 407.711 289.78C407.536 289.303 407.263 288.868 406.909 288.504C406.555 288.14 406.128 287.854 405.657 287.665C405.185 287.477 404.679 287.389 404.172 287.409C403.664 287.429 403.166 287.555 402.711 287.78C400.001 289.18 399.291 294.64 399.711 297.33C399.711 297.6 400.731 301.17 400.781 301.14Z" fill="#263238"/>
<path d="M260.841 388.22H218.151L187.311 404.87H233.861L260.841 388.22Z" fill="white" stroke="#263238" stroke-width="1.25474" stroke-linecap="round" stroke-linejoin="round"/>
<path d="M217.711 392.25H249.981" stroke="#263238" stroke-width="1.25474" stroke-linecap="round" stroke-linejoin="round"/>
<path d="M212.75 394.84H245.02" stroke="#263238" stroke-width="1.25474" stroke-linecap="round" stroke-linejoin="round"/>
<path d="M207.801 397.43H240.071" stroke="#263238" stroke-width="1.25474" stroke-linecap="round" stroke-linejoin="round"/>
<path d="M202.85 400.03H235.12" stroke="#263238" stroke-width="1.25474" stroke-linecap="round" stroke-linejoin="round"/>
<path d="M187.311 404.87V407.74H234.831L233.861 404.87H187.311Z" fill="white" stroke="#263238" stroke-width="1.25474" stroke-linecap="round" stroke-linejoin="round"/>
<path d="M234.831 407.74L262.091 390.67L260.841 388.22L233.861 404.87L234.831 407.74Z" fill="white" stroke="#263238" stroke-width="1.25474" stroke-linecap="round" stroke-linejoin="round"/>
<path d="M188.081 403.999C188.008 403.712 187.971 403.416 187.971 403.119C187.971 402.465 188.165 401.825 188.529 401.281C188.893 400.737 189.409 400.313 190.014 400.062C190.619 399.812 191.284 399.746 191.926 399.874C192.568 400.002 193.158 400.317 193.621 400.779" stroke="#263238" stroke-width="1.25474" stroke-linecap="round" stroke-linejoin="round"/>
<path d="M192.411 402C192.339 401.716 192.302 401.424 192.301 401.13C192.301 400.476 192.495 399.836 192.859 399.292C193.223 398.748 193.74 398.324 194.344 398.073C194.949 397.823 195.614 397.757 196.256 397.885C196.898 398.012 197.488 398.328 197.951 398.79" stroke="#263238" stroke-width="1.25474" stroke-linecap="round" stroke-linejoin="round"/>
<path d="M196.401 400C196.326 399.716 196.285 399.424 196.281 399.13C196.284 398.476 196.481 397.837 196.846 397.294C197.211 396.75 197.728 396.327 198.333 396.077C198.938 395.827 199.603 395.761 200.245 395.888C200.887 396.015 201.477 396.329 201.941 396.79" stroke="#263238" stroke-width="1.25474" stroke-linecap="round" stroke-linejoin="round"/>
<path d="M200.22 397.91C200.139 397.627 200.099 397.334 200.1 397.04C200.103 396.386 200.299 395.747 200.664 395.204C201.029 394.66 201.546 394.237 202.151 393.987C202.756 393.737 203.421 393.671 204.063 393.798C204.705 393.925 205.295 394.239 205.76 394.7" stroke="#263238" stroke-width="1.25474" stroke-linecap="round" stroke-linejoin="round"/>
<path d="M204.46 395.449C204.387 395.165 204.35 394.873 204.35 394.579C204.35 393.925 204.544 393.285 204.908 392.741C205.271 392.197 205.788 391.773 206.393 391.522C206.998 391.272 207.663 391.206 208.305 391.334C208.947 391.462 209.537 391.777 210 392.239" stroke="#263238" stroke-width="1.25474" stroke-linecap="round" stroke-linejoin="round"/>
<path d="M209.001 392.9C208.92 392.617 208.88 392.324 208.881 392.03C208.881 391.375 209.075 390.735 209.439 390.191C209.803 389.647 210.32 389.223 210.924 388.973C211.529 388.722 212.194 388.657 212.836 388.784C213.478 388.912 214.068 389.227 214.531 389.69" stroke="#263238" stroke-width="1.25474" stroke-linecap="round" stroke-linejoin="round"/>
<path d="M211.44 391.37C211.36 391.087 211.32 390.794 211.32 390.5C211.319 389.844 211.511 389.203 211.874 388.657C212.237 388.112 212.754 387.686 213.359 387.434C213.964 387.183 214.63 387.116 215.273 387.244C215.916 387.371 216.507 387.686 216.97 388.15" stroke="#263238" stroke-width="1.25474" stroke-linecap="round" stroke-linejoin="round"/>
<path d="M266.56 398.17C266.56 398.17 269.81 405.33 264.42 407.39L296.42 427.93C296.42 427.93 299.53 429.72 303.49 426.16C307.45 422.6 304.15 414.79 302.37 413.8C300.59 412.81 266.56 398.17 266.56 398.17Z" fill="white" stroke="#263238" stroke-width="1.25474" stroke-linecap="round" stroke-linejoin="round"/>
<path d="M306.661 381.88L265.261 397.77L298.381 415.77C300.116 416.964 301.562 418.532 302.611 420.36C302.802 420.822 302.953 421.301 303.061 421.79C303.258 422.701 303.184 423.65 302.849 424.52C302.513 425.39 301.931 426.142 301.173 426.686C300.415 427.229 299.515 427.538 298.584 427.576C297.652 427.614 296.73 427.379 295.931 426.9L264.421 407.43C264.421 407.43 261.491 407.43 264.841 409.94C267.621 412 289.001 425 295.791 429C296.478 429.408 297.248 429.656 298.045 429.725C298.841 429.794 299.643 429.683 300.391 429.4L345.561 411.11C346.222 410.673 346.786 410.103 347.217 409.437C347.647 408.771 347.934 408.023 348.061 407.24C348.325 405.68 348.065 404.076 347.321 402.679C346.578 401.283 345.392 400.172 343.951 399.52L306.661 381.88Z" fill="#263238" stroke="#263238" stroke-width="1.25474" stroke-linecap="round" stroke-linejoin="round"/>
<mask id="mask0_1745_53677" style="mask-type:luminance" maskUnits="userSpaceOnUse" x="55" y="125" width="101" height="260">
<path d="M155.439 125.54H55.6895V384.13H155.439V125.54Z" fill="white"/>
</mask>
<g mask="url(#mask0_1745_53677)">
<path d="M77.6593 179.96L71.5293 162.45L77.6593 169.89L72.8393 143.63L80.2893 162.45L82.9093 125.68L87.2893 160.7L92.1093 153.69V162.45L97.7993 150.63L94.7293 171.21L99.9893 167.71L91.6693 179.09L77.6593 179.96Z" fill="#92B7E3"/>
<path d="M96.9182 175.59H74.1582L78.2482 221.55H92.8282L96.9182 175.59Z" fill="#263238" stroke="#263238" stroke-width="1.25474" stroke-linecap="round" stroke-linejoin="round"/>
<path d="M139.609 221.02H62.0586V385.29H139.609V221.02Z" fill="white" stroke="#263238" stroke-width="1.25474" stroke-linecap="round" stroke-linejoin="round"/>
<path d="M143.868 221.02H100.838V385.29H143.868V221.02Z" fill="white" stroke="#263238" stroke-width="1.25474" stroke-linecap="round" stroke-linejoin="round"/>
<path d="M139.018 221.02H100.838V385.29H139.018V221.02Z" fill="#263238" stroke="#263238" stroke-width="1.25474" stroke-linecap="round" stroke-linejoin="round"/>
<path d="M134.728 347.109H100.838V380.749H134.728V347.109Z" fill="#92B7E3" stroke="#263238" stroke-width="1.25474" stroke-linecap="round" stroke-linejoin="round"/>
<path d="M134.728 348.93H100.838V353.24H134.728V348.93Z" fill="white" stroke="#263238" stroke-width="1.25474" stroke-linecap="round" stroke-linejoin="round"/>
<path d="M134.728 373.689H100.838V377.999H134.728V373.689Z" fill="white" stroke="#263238" stroke-width="1.25474" stroke-linecap="round" stroke-linejoin="round"/>
<path d="M107.27 347.8V390.34" stroke="#263238" stroke-width="1.25474" stroke-linecap="round" stroke-linejoin="round"/>
<path d="M119.088 347.8V390.34" stroke="#263238" stroke-width="1.25474" stroke-linecap="round" stroke-linejoin="round"/>
<path d="M129.459 347.8V390.34" stroke="#263238" stroke-width="1.25474" stroke-linecap="round" stroke-linejoin="round"/>
<path d="M134.728 227.13H100.838V276.59H134.728V227.13Z" fill="#92B7E3" stroke="#263238" stroke-width="1.25474" stroke-linecap="round" stroke-linejoin="round"/>
<path d="M134.728 229.199H100.838V234.099H134.728V229.199Z" fill="white" stroke="#263238" stroke-width="1.25474" stroke-linecap="round" stroke-linejoin="round"/>
<path d="M134.728 260.899H100.838V265.799H134.728V260.899Z" fill="white" stroke="#263238" stroke-width="1.25474" stroke-linecap="round" stroke-linejoin="round"/>
<path d="M107.27 227.92V276.25" stroke="#263238" stroke-width="1.25474" stroke-linecap="round" stroke-linejoin="round"/>
<path d="M119.088 227.92V276.25" stroke="#263238" stroke-width="1.25474" stroke-linecap="round" stroke-linejoin="round"/>
<path d="M129.459 227.92V276.25" stroke="#263238" stroke-width="1.25474" stroke-linecap="round" stroke-linejoin="round"/>
<path d="M134.728 286.739H100.838V336.199H134.728V286.739Z" fill="#92B7E3" stroke="#263238" stroke-width="1.25474" stroke-linecap="round" stroke-linejoin="round"/>
<path d="M134.728 288.81H100.838V293.71H134.728V288.81Z" fill="white" stroke="#263238" stroke-width="1.25474" stroke-linecap="round" stroke-linejoin="round"/>
<path d="M134.728 320.52H100.838V325.42H134.728V320.52Z" fill="white" stroke="#263238" stroke-width="1.25474" stroke-linecap="round" stroke-linejoin="round"/>
<path d="M107.27 287.529V335.859" stroke="#263238" stroke-width="1.25474" stroke-linecap="round" stroke-linejoin="round"/>
<path d="M119.088 287.529V335.859" stroke="#263238" stroke-width="1.25474" stroke-linecap="round" stroke-linejoin="round"/>
<path d="M129.459 287.529V335.859" stroke="#263238" stroke-width="1.25474" stroke-linecap="round" stroke-linejoin="round"/>
<path d="M139.618 275.91H100.838V281.53H139.618V275.91Z" fill="white" stroke="#263238" stroke-width="1.25474" stroke-linecap="round" stroke-linejoin="round"/>
<path d="M139.618 335.899H100.838V341.519H139.618V335.899Z" fill="white" stroke="#263238" stroke-width="1.25474" stroke-linecap="round" stroke-linejoin="round"/>
<path d="M139.619 221.02V385.29" stroke="#263238" stroke-width="1.25474" stroke-linecap="round" stroke-linejoin="round"/>
<path d="M95.3789 221.02V385.29H100.839V227.13H138.949V220.96L95.3789 221.02Z" fill="white" stroke="#263238" stroke-width="1.25474" stroke-linecap="round" stroke-linejoin="round"/>
<path d="M100.838 227.13V221.02" stroke="#263238" stroke-width="1.25474" stroke-linecap="round" stroke-linejoin="round"/>
</g>
<path d="M473.449 384.37H30.1895" stroke="#263238" stroke-width="1.25474" stroke-linecap="round" stroke-linejoin="round"/>
<path d="M260 317.45H190.7C182.1 316.79 181.58 320.21 181.58 320.21L168.58 384.4H254.14C254.59 381.19 261.34 333.72 262.61 326.05C263.94 318.11 260 317.45 260 317.45Z" fill="white" stroke="#263238" stroke-width="1.25474" stroke-linecap="round" stroke-linejoin="round"/>
<path d="M260 317.45H259.87C259.37 317.45 257.5 317.95 256.36 323.07C255.22 328.19 248.71 372.19 246.91 384.4H254.17C254.62 381.19 261.37 333.72 262.64 326.05C263.94 318.11 260 317.45 260 317.45Z" fill="#263238" stroke="#263238" stroke-width="1.25474" stroke-linecap="round" stroke-linejoin="round"/>
<path d="M147.629 384.4H228.279C227.859 371.79 226.279 326.32 225.079 320.68C223.699 314.12 220.249 313.09 215.419 312.74C210.589 312.39 206.999 313.64 197.339 313.64C187.679 313.64 178.339 312.64 178.339 312.64C178.339 312.64 174.549 312.29 172.479 312.29C170.409 312.29 169.029 313.67 166.269 313.67C161.313 313.733 156.357 313.502 151.429 312.98C146.249 312.29 140.039 315.05 139.009 320.23C138.109 324.73 136.009 372.49 135.479 384.8H147.609L147.629 384.4Z" fill="#92B7E3" stroke="#263238" stroke-width="1.25474" stroke-linecap="round" stroke-linejoin="round"/>
<path d="M170.92 319.689C170.92 319.689 173.77 333.369 181.74 336.779" stroke="#263238" stroke-width="1.25474" stroke-linecap="round" stroke-linejoin="round"/>
<path d="M163.508 317.41C163.508 317.41 159.508 325.96 165.218 338.49" stroke="#263238" stroke-width="1.25474" stroke-linecap="round" stroke-linejoin="round"/>
<path d="M210.8 335.08C210.8 335.08 201.69 358.43 181.74 369.26" stroke="#263238" stroke-width="1.25474" stroke-linecap="round" stroke-linejoin="round"/>
<path d="M173.189 304.67C173.189 304.67 173.879 314.33 174.909 319.85C175.939 325.37 181.809 328.85 188.369 326.75C194.929 324.65 197.679 320.2 198.029 317.09C198.379 313.98 198.369 302.26 198.369 302.26C198.369 302.26 187.999 309.16 173.189 304.67Z" fill="white" stroke="#263238" stroke-width="1.25474" stroke-linecap="round" stroke-linejoin="round"/>
<path d="M208.59 249.71C208.59 249.71 209.53 248.46 207.03 244.71C204.53 240.96 198.59 238.46 198.59 238.46L202.34 243.46C202.34 243.46 191.72 237.84 187.34 237.84C182.96 237.84 172 239.4 172 239.4L177.31 240.65C177.31 240.65 164.19 244.71 162.63 246.58C161.07 248.45 153.57 254.71 155.13 254.71C156.69 254.71 164.5 253.46 164.5 253.46C164.5 253.46 156.69 260.96 156.69 264.08C156.69 267.2 163.56 282.2 163.56 282.2C163.56 282.2 168.25 290.64 169.81 286.57C171.37 282.5 168.87 272.83 169.19 271.89C169.51 270.95 187.62 269.39 191.68 269.39C195.74 269.39 195.12 279.08 196.68 280.64C198.24 282.2 205.78 285 207 285C208.22 285 210.44 284.07 210.44 282.82C210.517 280.144 211.045 277.5 212 275C213.25 271.87 214.81 269.06 215.12 265.31C215.43 261.56 213.25 253.13 213.25 253.13H216.06C216.06 253.13 213.28 248.46 208.59 249.71Z" fill="#263238" stroke="#263238" stroke-width="1.25474" stroke-linecap="round" stroke-linejoin="round"/>
<path d="M165.169 280C165.169 280 163.599 274.07 160.789 278.13C158.979 280.75 163.599 291.25 166.099 291.88C168.599 292.51 165.169 280 165.169 280Z" fill="white" stroke="#263238" stroke-width="1.25474" stroke-linecap="round" stroke-linejoin="round"/>
<path d="M165.17 268.14C165.17 268.14 165.17 290.95 166.73 296.57C168.29 302.19 174.54 310.63 183.6 310.63C192.66 310.63 198.91 305.94 201.41 302.51C203.91 299.08 205.15 292.2 205.15 292.2C205.15 292.2 207.97 294.39 211.4 290.32C214.83 286.25 215.33 279.03 213.9 278.14C211.4 276.58 208.59 278.45 207.34 279.7L204.84 282.2C204.84 282.2 200.78 279.39 200.78 275.64C200.78 271.89 201.41 265.02 201.41 265.02L198.59 266.89L198.91 264.39C198.91 264.39 198.28 265.02 194.53 265.02C190.78 265.02 181.72 265.64 181.72 265.64L186.41 259.39C186.41 259.39 177.35 263.46 174.23 265.33C171.11 267.2 165.17 268.14 165.17 268.14Z" fill="white" stroke="#263238" stroke-width="1.25474" stroke-linecap="round" stroke-linejoin="round"/>
<path d="M176.91 281.83C176.91 283.52 176.24 284.9 175.41 284.9C174.58 284.9 173.91 283.52 173.91 281.83C173.91 280.14 174.58 278.76 175.41 278.76C176.24 278.76 176.91 280.14 176.91 281.83Z" fill="#263238"/>
<path d="M191.369 282.25C191.369 283.94 190.699 285.31 189.869 285.31C189.039 285.31 188.369 283.94 188.369 282.25C188.369 280.56 189.039 279.18 189.869 279.18C190.699 279.18 191.369 280.55 191.369 282.25Z" fill="#263238"/>
<path d="M179.41 289.08C179.41 289.08 179.41 293.47 184.85 292.42" stroke="#263238" stroke-width="1.25474" stroke-linecap="round" stroke-linejoin="round"/>
<path d="M177.74 297C177.74 297 182.13 299.71 188.2 296.79" stroke="#263238" stroke-width="1.25474" stroke-linecap="round" stroke-linejoin="round"/>
<path d="M170 275.9C170.535 274.926 171.388 274.167 172.417 273.748C173.446 273.329 174.587 273.277 175.65 273.6" stroke="#263238" stroke-width="1.25474" stroke-linecap="round" stroke-linejoin="round"/>
<path d="M186.939 273.6C186.939 273.6 191.939 272.14 193.839 275.49" stroke="#263238" stroke-width="1.25474" stroke-linecap="round" stroke-linejoin="round"/>
<path d="M139.629 318.24L125.769 356.41C125.769 356.41 116.889 362.86 115.939 364.53C113.549 368.7 116.659 374.62 119.529 377.71C124.049 382.56 133.239 383.25 138.739 379.65C142.349 377.29 144.469 372.49 145.829 368.54L147.289 335" fill="#92B7E3"/>
<path d="M139.629 318.24L125.769 356.41C125.769 356.41 116.889 362.86 115.939 364.53C113.549 368.7 116.659 374.62 119.529 377.71C124.049 382.56 133.239 383.25 138.739 379.65C142.349 377.29 144.469 372.49 145.829 368.54L147.289 335" stroke="#263238" stroke-width="1.25474" stroke-linecap="round" stroke-linejoin="round"/>
<path d="M119.77 359.76C119.77 359.76 126.88 353.91 138.59 360.6" stroke="#263238" stroke-width="1.25474" stroke-linecap="round" stroke-linejoin="round"/>
<path d="M125.91 362.62L135.3 364.62C135.3 364.62 144.3 360.95 145.09 365.03C145.88 369.11 139.79 370.34 138.15 370.34C136.51 370.34 132.44 369.93 130.81 370.34C129.18 370.75 127.14 372.78 123.47 373.19C123.47 373.19 113.27 377.27 109.19 374.82C105.11 372.37 108.37 363.82 113.68 360.95C118.99 358.08 125.91 362.62 125.91 362.62Z" fill="white" stroke="#263238" stroke-width="1.25474" stroke-linecap="round" stroke-linejoin="round"/>
<path d="M104.999 365.64C104.999 365.64 100.999 363.26 99.7394 366.29C98.4794 369.32 94.8094 376.35 97.0994 375.72C99.3894 375.09 104.999 365.64 104.999 365.64Z" fill="white" stroke="#263238" stroke-width="1.25474" stroke-linecap="round" stroke-linejoin="round"/>
<path d="M111.23 361.4C111.23 361.4 104.65 360.69 103.88 362.62C102.46 366.21 100.62 376.09 103.48 376.9C106.34 377.71 107.15 371.6 108.78 367.9C109.731 365.786 110.549 363.615 111.23 361.4Z" fill="white" stroke="#263238" stroke-width="1.25474" stroke-linecap="round" stroke-linejoin="round"/>
<path d="M114.9 357.32C114.9 357.32 110 356.91 108.37 360.18C106.74 363.45 105.79 376.52 107.37 376.52C108.95 376.52 108.55 377.81 111 372.52C112.2 369.93 114 361.41 114 361.41L114.9 357.32Z" fill="white" stroke="#263238" stroke-width="1.25474" stroke-linecap="round" stroke-linejoin="round"/>
<path d="M127.089 363.73C127.089 363.73 120.589 358.19 118.879 357.24C117.169 356.29 116.009 355.9 114.099 357.62C112.189 359.34 111.809 365.45 110.289 369.27C108.769 373.09 107.229 377.09 109.139 377.09C111.049 377.09 112.769 376.14 114.289 374.09C115.809 372.04 118.689 364.54 118.689 364.54" fill="white"/>
<path d="M127.089 363.73C127.089 363.73 120.589 358.19 118.879 357.24C117.169 356.29 116.009 355.9 114.099 357.62C112.189 359.34 111.809 365.45 110.289 369.27C108.769 373.09 107.229 377.09 109.139 377.09C111.049 377.09 112.769 376.14 114.289 374.09C115.809 372.04 118.689 364.54 118.689 364.54" stroke="#263238" stroke-width="1.25474" stroke-linecap="round" stroke-linejoin="round"/>
<path d="M117.729 368.31C117.729 368.31 120.019 369.31 123.269 367.16L117.729 368.31Z" fill="white"/>
<path d="M117.729 368.31C117.729 368.31 120.019 369.31 123.269 367.16" stroke="#263238" stroke-width="1.25474" stroke-linecap="round" stroke-linejoin="round"/>
<path d="M213.82 312.47C213.82 312.47 221.63 310.97 225.42 314.77C229.21 318.57 240.12 347.07 243.92 356.77C247.72 366.47 251.51 373.33 250.47 378.16C249.43 382.99 241.47 384.71 235.64 385.06C229.01 385.45 224.64 381.26 224.64 379.88C224.64 378.5 222.22 375.4 226.71 364.7L223.6 341.93" fill="#92B7E3"/>
<path d="M213.82 312.47C213.82 312.47 221.63 310.97 225.42 314.77C229.21 318.57 240.12 347.07 243.92 356.77C247.72 366.47 251.51 373.33 250.47 378.16C249.43 382.99 241.47 384.71 235.64 385.06C229.01 385.45 224.64 381.26 224.64 379.88C224.64 378.5 222.22 375.4 226.71 364.7L223.6 341.93" stroke="#263238" stroke-width="1.25474" stroke-linecap="round" stroke-linejoin="round"/>
<path d="M234.2 366.24C234.2 366.24 227.64 363.39 226.54 363.39C225.619 364.504 225.083 365.886 225.01 367.33C225.01 369.52 225.23 378.49 226.32 378.93C227.41 379.37 230.7 377.4 232.89 374.34C235.08 371.28 235.51 366.89 234.2 366.24Z" fill="white" stroke="#263238" stroke-width="1.25474" stroke-linecap="round" stroke-linejoin="round"/>
<path d="M229.39 354L225.67 384.17L227 389L229.19 384.84L233.13 354.42C233.183 353.93 233.041 353.438 232.734 353.052C232.427 352.666 231.98 352.418 231.49 352.36C231.244 352.326 230.994 352.342 230.754 352.407C230.514 352.472 230.29 352.584 230.094 352.737C229.898 352.89 229.735 353.08 229.614 353.297C229.493 353.514 229.417 353.753 229.39 354Z" fill="white" stroke="#263238" stroke-width="1.25474" stroke-linecap="round" stroke-linejoin="round"/>
<path d="M229.17 384.84L225.67 384.18L226.98 389L229.17 384.84Z" fill="white" stroke="#263238" stroke-width="1.25474" stroke-linecap="round" stroke-linejoin="round"/>
<path d="M231.47 352.36C231.225 352.329 230.976 352.348 230.738 352.415C230.5 352.481 230.278 352.595 230.084 352.749C229.89 352.902 229.729 353.093 229.61 353.309C229.491 353.526 229.416 353.764 229.39 354.01L228.91 357.91L232.56 358.64L233.11 354.42C233.164 353.93 233.021 353.438 232.714 353.052C232.407 352.667 231.96 352.418 231.47 352.36Z" fill="white" stroke="#263238" stroke-width="1.25474" stroke-linecap="round" stroke-linejoin="round"/>
<path d="M226.539 363.39C225.449 363.39 223.259 366.24 221.949 367.77C220.639 369.3 221.069 372.58 222.159 375.21C223.249 377.84 223.699 382.65 225.009 382.87C226.319 383.09 227.419 381.78 227.419 379.37C227.419 376.96 226.979 371.93 226.979 371.93" fill="white"/>
<path d="M226.539 363.39C225.449 363.39 223.259 366.24 221.949 367.77C220.639 369.3 221.069 372.58 222.159 375.21C223.249 377.84 223.699 382.65 225.009 382.87C226.319 383.09 227.419 381.78 227.419 379.37C227.419 376.96 226.979 371.93 226.979 371.93" stroke="#263238" stroke-width="1.25474" stroke-linecap="round" stroke-linejoin="round"/>
<path d="M241.2 378.93C241.2 378.93 242.74 383.09 240.99 385.28C239.24 387.47 233.54 386.59 232.45 385.72C231.36 384.85 237.27 383.31 241.2 378.93Z" fill="white" stroke="#263238" stroke-width="1.25474" stroke-linecap="round" stroke-linejoin="round"/>
<path d="M240.549 375C241.13 375.642 241.52 376.434 241.674 377.286C241.828 378.138 241.739 379.016 241.419 379.82C240.329 382.66 236.419 385.07 233.539 385.51C230.659 385.95 228.289 384.41 229.609 383.51C230.929 382.61 237.479 378.28 240.549 375Z" fill="white" stroke="#263238" stroke-width="1.25474" stroke-linecap="round" stroke-linejoin="round"/>
<path d="M237.92 370.18C237.92 370.18 240.55 372.58 240.55 374.99C240.55 377.4 234.2 383.09 231.14 384.18C228.08 385.27 226.54 384.18 227.42 382.18C228.3 380.18 237.05 370.37 237.05 370.37C237.05 370.37 236.61 369.74 237.92 370.18Z" fill="white" stroke="#263238" stroke-width="1.25474" stroke-linecap="round" stroke-linejoin="round"/>
<path d="M230.48 370.18C230.48 370.18 225.67 378.49 225.01 381.12C224.35 383.75 226.76 383.75 228.29 382.65C229.82 381.55 237.05 372.8 237.92 370.18C238.79 367.56 237.27 364.71 234.42 365.18C231.57 365.65 230.48 370.18 230.48 370.18Z" fill="white" stroke="#263238" stroke-width="1.25474" stroke-linecap="round" stroke-linejoin="round"/>
<path d="M403.83 384.35C405.25 373.99 410.94 332.47 412.1 325.54C413.42 317.6 409.45 316.94 409.45 316.94H340.18C331.58 316.28 331.06 319.7 331.06 319.7L318.4 384.35H403.83Z" fill="white" stroke="#263238" stroke-width="1.25474" stroke-linecap="round" stroke-linejoin="round"/>
<path d="M403.83 384.349C405.25 373.989 410.94 332.469 412.1 325.539C413.42 317.599 409.45 316.939 409.45 316.939H409.32C408.82 316.939 406.95 317.439 405.82 322.559C404.74 327.409 398.75 369.559 396.59 384.349H403.83Z" fill="#263238" stroke="#263238" stroke-width="1.25474" stroke-linecap="round" stroke-linejoin="round"/>
<path d="M262.631 384.35C267.911 378.57 284.741 360.17 288.991 355.91C294.061 350.84 297.921 346.02 297.921 346.02L299.371 384.35H379.691C379.601 383.83 375.071 355.01 371.251 335.17C367.391 315.17 363.531 296.09 354.851 284.03C346.171 271.97 320.351 259.67 320.351 259.67L298.161 277C298.161 277 291.651 284.72 289.721 292.2C287.791 299.68 282.961 318.73 280.791 326.2C278.791 333.05 254.151 377 250.031 384.31L262.631 384.35Z" fill="#92B7E3" stroke="#263238" stroke-width="1.25474" stroke-linecap="round" stroke-linejoin="round"/>
<path d="M353.301 318.27C357.581 338.73 361.351 357.55 365.301 377.5" stroke="#263238" stroke-width="1.25474" stroke-linecap="round" stroke-linejoin="round"/>
<path d="M335.451 324.22C338.761 341.22 341.271 360.06 344.551 377.58" stroke="#263238" stroke-width="1.25474" stroke-linecap="round" stroke-linejoin="round"/>
<path d="M316 287.43C318.72 317.43 321.22 347.51 324.66 377.43" stroke="#263238" stroke-width="1.25474" stroke-linecap="round" stroke-linejoin="round"/>
<path d="M298.111 295.55C301.111 323.67 303.631 350.02 307.171 377.6" stroke="#263238" stroke-width="1.25474" stroke-linecap="round" stroke-linejoin="round"/>
<path d="M291.622 301.5C291.622 301.5 283.512 337.75 279.182 347.5" stroke="#263238" stroke-width="1.25474" stroke-linecap="round" stroke-linejoin="round"/>
<path d="M293.781 329.09C293.781 329.09 288.921 349.09 285.131 356.68" stroke="#263238" stroke-width="1.25474" stroke-linecap="round" stroke-linejoin="round"/>
<path d="M320.84 270.119L333.28 278.769" stroke="#263238" stroke-width="1.25474" stroke-linecap="round" stroke-linejoin="round"/>
<path d="M297.92 346.02L293.82 313.22" stroke="#263238" stroke-width="1.25474" stroke-linecap="round" stroke-linejoin="round"/>
<path d="M262.631 384.35C267.631 378.86 283.041 362.02 288.161 356.76C283.881 353.96 276.581 349.2 271.431 345.93C264.021 360.31 252.771 379.69 250.051 384.35H262.631Z" fill="white" stroke="#263238" stroke-width="1.25474" stroke-linecap="round" stroke-linejoin="round"/>
<path d="M268 352.29C268 352.29 282 362.42 283.2 362.42C284.4 362.42 291.4 355.42 291.88 353.98C292.36 352.54 275 340.71 274 340.71C273 340.71 268 348.92 268 352.29Z" fill="white" stroke="#263238" stroke-width="1.25474" stroke-linecap="round" stroke-linejoin="round"/>
<path d="M301.541 284.75L303.951 310.08L308.291 309.12L307.811 303.57" stroke="#263238" stroke-width="1.25474" stroke-linecap="round" stroke-linejoin="round"/>
<path d="M291.411 281.13L290.201 291.02L299.131 281.86L291.411 281.13Z" fill="white" stroke="#263238" stroke-width="1.25474" stroke-linecap="round" stroke-linejoin="round"/>
<path d="M296.47 272.93L291.41 281.13L305.16 286.44L309.01 276.31L296.47 272.93Z" fill="white" stroke="#263238" stroke-width="1.25474" stroke-linecap="round" stroke-linejoin="round"/>
<path d="M260.05 217.45C260.05 217.45 258.12 229.76 258.84 232.17C259.56 234.58 262.7 237.48 262.94 239.65C263.18 241.82 257.4 249.29 259.08 251.22C260.76 253.15 264.39 254.6 264.39 254.6C264.39 254.6 271.63 273.66 275 274.38C278.37 275.1 289.24 269.32 289.24 269.32C289.24 269.32 302.74 281.62 303.47 282.32C304.2 283.02 317.7 255.79 317.7 255.79C317.7 255.79 311.7 243.97 311.7 243.24C311.7 242.51 321.11 216.71 320.62 206.34C320.13 195.97 290.47 185.84 284.44 186.8C278.41 187.76 265.63 194.8 265.63 194.8C265.63 194.8 270.21 190.94 266.35 191.18C262.49 191.42 250.91 200.11 251.4 207.58C251.89 215.05 260.05 217.45 260.05 217.45Z" fill="white" stroke="#263238" stroke-width="1.25474" stroke-linecap="round" stroke-linejoin="round"/>
<path d="M301.301 256.77C303.711 250.02 298.401 237.23 298.881 234.34C299.361 231.45 301.781 224.45 306.121 224.45C310.461 224.45 309.741 233.13 309.261 236.75C308.802 239.303 307.902 241.756 306.601 244C306.601 244 309.441 243.49 311.691 243.14C312.241 240.97 321.061 216.42 320.591 206.37C320.111 196 290.441 185.87 284.411 186.83C278.381 187.79 265.601 194.83 265.601 194.83C265.601 194.83 270.181 190.97 266.321 191.21C262.461 191.45 250.881 200.14 251.371 207.61C251.861 215.08 260.051 217.5 260.051 217.5C260.051 217.5 275.491 209.79 281.051 209.06C286.611 208.33 279.371 214.37 278.881 217.75C278.391 221.13 286.881 223.75 289.981 226.67C293.081 229.59 295.041 248.14 293.121 252.48C291.201 256.82 282.021 254.65 277.681 252.96C273.341 251.27 264.411 254.65 264.411 254.65C264.411 254.65 271.651 273.71 275.021 274.43C276.871 274.83 280.951 273.27 284.271 271.79L289.271 269.37C289.271 269.37 298.881 263.53 301.301 256.77Z" fill="#263238" stroke="#263238" stroke-width="1.25474" stroke-linecap="round" stroke-linejoin="round"/>
<path d="M270.39 239.149C270.77 240.699 270.61 242.069 270.03 242.219C269.45 242.369 268.66 241.219 268.28 239.659C267.9 238.099 268.06 236.739 268.64 236.589C269.22 236.439 270 237.589 270.39 239.149Z" fill="#263238"/>
<path d="M268 258.939C268 258.939 272.82 258.939 275.48 255.079" stroke="#7D7D7D" stroke-width="1.25474" stroke-linecap="round" stroke-linejoin="round"/>
<path d="M264.15 233.13C264.15 233.13 264.87 229.76 270.9 232.13" stroke="#263238" stroke-width="2.50947" stroke-linecap="round" stroke-linejoin="round"/>
<path d="M316.73 251.71L300.09 284.27L309.01 295.37L324.21 259.43L316.73 251.71Z" fill="white" stroke="#263238" stroke-width="1.25474" stroke-linecap="round" stroke-linejoin="round"/>
<path d="M336.271 280.89C336.271 280.89 328.791 279.89 325.901 282.1C323.011 284.31 308.291 319 308.291 319C312.688 320.274 316.625 322.788 319.631 326.24C324.211 331.79 327.631 341.68 327.631 341.68C327.631 341.68 347.171 317.8 350.781 312.49" fill="#92B7E3"/>
<path d="M336.271 280.89C336.271 280.89 328.791 279.89 325.901 282.1C323.011 284.31 308.291 319 308.291 319C312.688 320.274 316.625 322.788 319.631 326.24C324.211 331.79 327.631 341.68 327.631 341.68C327.631 341.68 347.171 317.8 350.781 312.49" stroke="#263238" stroke-width="1.25474" stroke-linecap="round" stroke-linejoin="round"/>
<path d="M337.61 285.81C337.61 285.81 331.12 286.35 328.95 290.14C326.78 293.93 310 328.55 310 328.55L317 334.5C317 334.5 331.61 303.66 335.94 298.25C338.778 294.9 342.542 292.465 346.76 291.25" stroke="#263238" stroke-width="1.25474" stroke-linecap="round" stroke-linejoin="round"/>
<path d="M347.89 302.04L324.08 335.04" stroke="#263238" stroke-width="1.25474" stroke-linecap="round" stroke-linejoin="round"/>
<path d="M304.67 317.319C304.67 317.319 298.16 321.419 298.16 325.999C298.16 330.579 303.95 340.999 310.22 345.999C316.49 350.999 322.04 349.619 325.22 347.449C328.4 345.279 336.07 344.069 336.55 335.389C337.03 326.709 325.22 314.159 320.15 312.469C315.08 310.779 304.67 317.319 304.67 317.319Z" fill="white" stroke="#263238" stroke-width="1.25474" stroke-linecap="round" stroke-linejoin="round"/>
<path d="M198.541 345.999C198.541 345.999 195.891 348.409 193.231 350.339C190.571 352.269 187.691 353.719 190.101 354.929C192.511 356.139 195.161 355.169 197.821 354.679C200.481 354.189 203.611 353.479 203.821 351.549C204.031 349.619 203.611 343.849 198.541 345.999Z" fill="white" stroke="#263238" stroke-width="1.25474" stroke-linecap="round" stroke-linejoin="round"/>
<path d="M321.321 345.059C321.321 345.059 325.181 338.299 321.561 331.549C317.941 324.799 310.941 321.659 306.561 321.659C302.181 321.659 228.171 342.399 228.171 342.399C228.171 342.399 205.741 336.129 203.081 337.099C200.421 338.069 184.511 346.739 180.891 348.429C177.271 350.119 177.271 352.289 178.961 352.529C180.651 352.769 184.961 351.329 187.161 350.599C189.361 349.869 196.571 347.229 196.571 347.229C195.964 348.96 195.479 350.731 195.121 352.529C195.121 353.529 201.881 357.119 203.121 357.119C204.361 357.119 208.431 357.839 211.321 356.879C214.211 355.919 210.121 351.809 210.121 351.809L215.181 349.639C215.181 349.639 220.251 352.289 224.591 352.049C226.939 351.997 229.245 351.419 231.341 350.359C231.341 350.359 309.741 348.189 321.321 345.059Z" fill="white" stroke="#263238" stroke-width="1.25474" stroke-linecap="round" stroke-linejoin="round"/>
<path d="M201 345.06C201 345.06 197.87 351.06 198.59 352.29C199.31 353.52 205.59 356.88 205.59 356.88" stroke="#263238" stroke-width="1.25474" stroke-linecap="round" stroke-linejoin="round"/>
<path d="M206.001 345.3C206.001 345.3 202.861 351.3 203.831 352.53C204.801 353.76 211.301 356.88 211.301 356.88" stroke="#263238" stroke-width="1.25474" stroke-linecap="round" stroke-linejoin="round"/>
<path d="M196.611 347.23L197.091 345.06" stroke="#263238" stroke-width="1.25474" stroke-linecap="round" stroke-linejoin="round"/>
<path d="M191.271 383.67H110.451L79.6113 400.33H164.281L191.271 383.67Z" fill="white" stroke="#263238" stroke-width="1.25474" stroke-linecap="round" stroke-linejoin="round"/>
<path d="M115.74 388.03H175.41" stroke="#263238" stroke-width="1.25474" stroke-linecap="round" stroke-linejoin="round"/>
<path d="M111.391 391.13H171.061" stroke="#263238" stroke-width="1.25474" stroke-linecap="round" stroke-linejoin="round"/>
<path d="M107.031 394.24H166.711" stroke="#263238" stroke-width="1.25474" stroke-linecap="round" stroke-linejoin="round"/>
<path d="M175.721 388.03L158.631 396.42" stroke="#263238" stroke-width="1.25474" stroke-linecap="round" stroke-linejoin="round"/>
<path d="M166.401 388.03L149.311 396.42" stroke="#263238" stroke-width="1.25474" stroke-linecap="round" stroke-linejoin="round"/>
<path d="M65.1504 342.2H149.83L164.28 400.33H79.6104L65.1504 342.2Z" fill="#263238" stroke="#263238" stroke-width="1.25474" stroke-linecap="round" stroke-linejoin="round"/>
<path d="M79.6013 404.46H164.281V400.33H79.6013V404.46Z" fill="white" stroke="#263238" stroke-width="1.25474" stroke-linecap="round" stroke-linejoin="round"/>
<path d="M64.2109 342.2H148.891L163.351 400.33H78.6709L64.2109 342.2Z" fill="white" stroke="#263238" stroke-width="1.25474" stroke-linecap="round" stroke-linejoin="round"/>
<path d="M164.281 400.33L191.271 383.67V387.09L164.281 404.46V400.33Z" fill="#263238" stroke="#263238" stroke-width="1.25474" stroke-linecap="round" stroke-linejoin="round"/>
<path d="M117.46 369.501C117.594 370.368 117.473 371.254 117.112 372.054C116.751 372.853 116.165 373.531 115.427 374.004C114.688 374.477 113.828 374.725 112.951 374.719C112.074 374.713 111.218 374.452 110.486 373.969C109.754 373.485 109.178 372.8 108.829 371.995C108.479 371.191 108.37 370.303 108.516 369.438C108.661 368.573 109.055 367.769 109.649 367.123C110.242 366.477 111.011 366.018 111.86 365.801C113.093 365.552 114.374 365.802 115.424 366.496C116.473 367.189 117.205 368.269 117.46 369.501Z" stroke="#263238" stroke-width="1.25474" stroke-linecap="round" stroke-linejoin="round"/>
</svg>
