<svg
          xmlns="http://www.w3.org/2000/svg"
          width="96"
          height="25"
          viewBox="0 0 96 25"
          fill="none"
        >
          <path
            fill-rule="evenodd"
            clip-rule="evenodd"
            d="M0.449219 11.2439V2.14643C0.449219 1.62657 0.883465 1.19336 1.31771 1.19336C1.75195 1.19336 1.92565 1.28 2.18621 1.45329L18.9481 10.6374C19.2955 10.8106 19.4692 11.0706 19.4692 11.3306C19.4692 11.5904 19.2955 11.8504 18.9481 12.0236L2.18621 21.2078C2.01251 21.2944 1.75195 21.4677 1.31771 21.4677C0.883465 21.4677 0.449219 21.0345 0.449219 20.5146V11.2439Z"
            fill="url(#paint0_linear_1857_19408)"
          />
          <path
            fill-rule="evenodd"
            clip-rule="evenodd"
            d="M11.4035 11.3716L1.24219 1.23438C1.32904 1.23438 1.32904 1.23438 1.41589 1.23438C1.85013 1.23438 2.02383 1.32102 2.28438 1.4943L14.617 8.25242L11.4035 11.3716Z"
            fill="url(#paint1_linear_1857_19408)"
          />
          <path
            fill-rule="evenodd"
            clip-rule="evenodd"
            d="M14.5348 14.4928L11.4082 11.3737L14.6216 8.16797L19.0509 10.5939C19.3983 10.7673 19.572 11.0272 19.572 11.2871C19.572 11.547 19.3983 11.807 19.0509 11.9802L14.5348 14.4928Z"
            fill="url(#paint2_linear_1857_19408)"
          />
          <path
            fill-rule="evenodd"
            clip-rule="evenodd"
            d="M1.33203 21.4217L11.4065 11.3711L14.5331 14.4902L2.28738 21.1617C2.02682 21.3351 1.85312 21.4217 1.33203 21.4217C1.41888 21.4217 1.41888 21.4217 1.33203 21.4217Z"
            fill="url(#paint3_linear_1857_19408)"
          />
          <path
            fill-rule="evenodd"
            clip-rule="evenodd"
            d="M53.6887 23.6336C53.2544 23.287 52.907 22.6805 52.7333 22.3339L54.1229 21.7274C54.2098 21.9007 54.3835 22.1606 54.5572 22.4206C54.9046 22.7671 55.4257 23.1137 55.9468 23.1137C56.4679 23.1137 57.0759 22.8538 57.4233 22.4206C57.6838 21.9873 57.8575 21.5541 57.8575 20.9477V20.4277C56.8153 21.7274 54.6441 21.5541 53.4281 20.1679C52.1254 18.7815 52.1254 16.4422 53.4281 15.056C54.7309 13.7563 56.6416 13.583 57.7707 14.796V14.1895H59.2471V20.6877C59.2471 22.3339 58.6392 23.287 57.8575 23.8935C57.3364 24.3267 56.5548 24.5 55.86 24.5C55.0783 24.4134 54.2966 24.1534 53.6887 23.6336ZM90.0785 23.9801L91.555 20.5145L88.9495 14.5361H90.4259L92.2498 18.7815L94.0736 14.5361H95.55L91.555 23.9801H90.0785ZM83.0438 20.6877C82.6095 20.2545 82.4358 19.648 82.4358 19.0415C82.4358 18.5217 82.6095 18.0018 82.9569 17.6552C83.5649 17.0487 84.4334 16.7888 85.3887 16.7888C85.9966 16.7888 86.5177 16.8754 86.952 17.1354C86.952 16.0957 86.0835 15.6624 85.3887 15.6624C84.7808 15.6624 84.1728 16.009 83.9123 16.6155L82.6095 16.0957C82.8701 15.4892 83.5649 14.3628 85.3019 14.3628C86.1703 14.3628 87.0388 14.6228 87.5599 15.2292C88.081 15.8357 88.2547 16.5289 88.2547 17.4819V21.1209H86.7783V20.5145C86.6046 20.7743 86.2572 20.9477 85.9966 21.1209C85.6492 21.2942 85.215 21.3809 84.7808 21.3809C84.2597 21.2942 83.478 21.1209 83.0438 20.6877ZM36.7532 17.5686C36.7532 15.8357 38.0559 13.9296 40.4008 13.9296C42.6589 13.9296 44.0485 15.8357 44.0485 17.5686C44.0485 19.3015 42.7457 21.2075 40.4008 21.2075C38.0559 21.2075 36.7532 19.3015 36.7532 17.5686ZM44.5695 17.5686C44.5695 15.8357 45.8723 13.9296 48.2172 13.9296C50.4753 13.9296 51.8648 15.8357 51.8648 17.5686C51.8648 19.3015 50.5621 21.2075 48.2172 21.2075C45.9591 21.2075 44.5695 19.3015 44.5695 17.5686ZM26.9392 19.4747C24.7679 17.3087 24.8548 13.7563 27.026 11.5036C28.1551 10.3772 29.5446 9.85742 31.0211 9.85742C32.4107 9.85742 33.8003 10.3772 34.8425 11.417L33.8003 12.5434C32.237 10.9838 29.7183 11.0704 28.2419 12.63C26.6786 14.2762 26.6786 16.7888 28.2419 18.435C29.8052 20.0812 32.4107 20.1679 33.974 18.5217C34.4951 18.0018 34.6688 17.3087 34.7556 16.6155H31.1079V15.056H36.2321C36.3189 15.4025 36.3189 15.8357 36.3189 16.2689C36.3189 17.5686 35.7978 18.8683 34.9293 19.7347C33.974 20.6877 32.5844 21.2075 31.1948 21.2075C29.6315 21.1209 28.0682 20.6011 26.9392 19.4747ZM63.6764 20.0812C62.3737 18.6949 62.3737 16.3556 63.6764 14.8826C64.9791 13.4964 67.1503 13.4964 68.3662 14.8826C68.8005 15.3159 69.061 15.9224 69.3216 16.5289L64.5449 18.5217C64.8054 19.1281 65.4134 19.648 66.2819 19.648C67.0635 19.648 67.5846 19.3881 68.1057 18.6083L69.4084 19.4747C69.2347 19.648 69.061 19.8213 68.9742 19.9945C67.4977 21.4675 64.9791 21.4675 63.6764 20.0812ZM72.7087 21.1209V11.5036H75.8352C77.6591 11.5036 79.1356 12.8032 79.1356 14.3628C79.1356 15.9224 77.8327 17.222 76.1826 17.222H74.2719V21.0343H72.7087V21.1209ZM80.0041 21.1209V11.5036H81.4805V21.1209H80.0041ZM60.3761 20.9477V10.204H61.9394V20.9477H60.3761ZM86.8651 18.2617C86.5177 18.0018 85.9966 17.9151 85.4756 17.9151C84.4334 17.9151 83.8254 18.435 83.8254 19.0415C83.8254 19.648 84.4334 19.9945 85.0413 19.9945C85.9098 19.9945 86.8651 19.3015 86.8651 18.2617ZM42.3983 17.5686C42.3983 16.5289 41.7035 15.4025 40.4008 15.4025C39.0981 15.4025 38.4033 16.5289 38.4033 17.5686C38.4033 18.6083 39.0981 19.7347 40.4008 19.7347C41.6167 19.7347 42.3983 18.6083 42.3983 17.5686ZM50.2147 17.5686C50.2147 16.5289 49.5199 15.4025 48.2172 15.4025C46.9145 15.4025 46.2197 16.5289 46.2197 17.5686C46.2197 18.6083 46.9145 19.7347 48.2172 19.7347C49.5199 19.7347 50.2147 18.6083 50.2147 17.5686ZM57.9444 18.1751C57.9444 18.0885 57.9444 18.0018 58.0312 17.9151C58.0312 17.8285 58.0312 17.6552 58.0312 17.5686C58.0312 17.4819 58.0312 17.3087 58.0312 17.222V17.1354C58.0312 17.0487 57.9444 16.8754 57.9444 16.7888C57.6838 15.9224 56.9022 15.3159 56.1205 15.3159C55.0783 15.3159 54.2098 16.3556 54.2098 17.4819C54.2098 18.6949 55.0783 19.648 56.2074 19.648C56.9022 19.7347 57.597 19.1281 57.9444 18.1751ZM64.2843 17.3953L67.4977 16.009C67.1503 15.4025 66.6293 15.2292 66.195 15.2292C64.8923 15.3159 64.1106 16.7022 64.2843 17.3953ZM77.5722 14.4494C77.5722 13.583 76.8774 12.9766 75.9221 12.9766H74.1851V16.009H76.0089C76.8774 16.009 77.5722 15.3159 77.5722 14.4494Z"
            fill="#ffffff"
          />
          <path
            d="M25.7233 3.01264C25.7233 1.45307 26.8523 0.5 28.2419 0.5C29.1972 0.5 29.8052 0.933213 30.2394 1.53971L29.5446 1.97292C29.2841 1.62636 28.8499 1.36642 28.2419 1.36642C27.2866 1.36642 26.5918 2.05957 26.5918 3.09928C26.5918 4.13898 27.2866 4.83213 28.2419 4.83213C28.763 4.83213 29.1972 4.5722 29.3709 4.39892V3.61913H27.9814V2.83935H30.3263V4.65884C29.892 5.1787 29.1972 5.52526 28.3288 5.52526C26.8523 5.52526 25.7233 4.48556 25.7233 3.01264Z"
            fill="#ffffff"
          />
          <path
            d="M31.3685 5.43862V0.586643H34.6688V1.36643H32.1501V2.57942H34.5819V3.3592H32.1501V4.74549H34.6688V5.52526L31.3685 5.43862Z"
            fill="#ffffff"
          />
          <path
            d="M37.1005 5.43862V1.36643H35.6241V0.586643H39.4455V1.36643H37.969V5.43862H37.1005Z"
            fill="#ffffff"
          />
          <path
            d="M42.3983 5.43862V0.586643H43.2668V5.43862H42.3983Z"
            fill="#ffffff"
          />
          <path
            d="M45.6117 5.43862V1.36643H44.1353V0.586643H47.9567V1.36643H46.4802V5.43862H45.6117Z"
            fill="#ffffff"
          />
          <path
            d="M50.7358 3.01264C50.7358 1.53971 51.778 0.5 53.2544 0.5C54.7309 0.5 55.7731 1.53971 55.7731 3.01264C55.7731 4.48556 54.7309 5.52526 53.2544 5.52526C51.778 5.52526 50.7358 4.39892 50.7358 3.01264ZM54.8178 3.01264C54.8178 1.97292 54.2098 1.27978 53.1676 1.27978C52.2122 1.27978 51.5175 2.05957 51.5175 3.01264C51.5175 4.05234 52.1254 4.74549 53.1676 4.74549C54.2098 4.74549 54.8178 3.9657 54.8178 3.01264Z"
            fill="#ffffff"
          />
          <path
            d="M60.1156 5.43862L57.597 1.97292V5.43862H56.7285V0.586643H57.597L60.1156 3.9657V0.586643H60.9841V5.43862H60.1156Z"
            fill="#ffffff"
          />
          <defs>
            <linearGradient
              id="paint0_linear_1857_19408"
              x1="6.0661"
              y1="-0.0425098"
              x2="10.9281"
              y2="19.8774"
              gradientUnits="userSpaceOnUse"
            >
              <stop stop-color="#006884" />
              <stop offset="1" stop-color="#8AD1D0" />
            </linearGradient>
            <linearGradient
              id="paint1_linear_1857_19408"
              x1="-0.459449"
              y1="2.83189"
              x2="12.7903"
              y2="9.97773"
              gradientUnits="userSpaceOnUse"
            >
              <stop stop-color="#24BBB6" />
              <stop offset="1" stop-color="#DBE692" />
            </linearGradient>
            <linearGradient
              id="paint2_linear_1857_19408"
              x1="4.62911"
              y1="8.0121"
              x2="4.62911"
              y2="1.12541"
              gradientUnits="userSpaceOnUse"
            >
              <stop stop-color="#FCC072" />
              <stop offset="1" stop-color="#F58A5B" />
            </linearGradient>
            <linearGradient
              id="paint3_linear_1857_19408"
              x1="2.02222"
              y1="13.1639"
              x2="12.489"
              y2="2.53698"
              gradientUnits="userSpaceOnUse"
            >
              <stop stop-color="#712B8F" />
              <stop offset="1" stop-color="#EA1D27" />
            </linearGradient>
          </defs>
        </svg>