<svg width="395" height="395" viewBox="0 0 395 395" fill="none" xmlns="http://www.w3.org/2000/svg">
<path d="M321.531 38.449C321.531 38.449 278.682 6.79368 223.911 24.229C169.14 41.6643 146.862 88.7799 115.831 121.905C99.5729 139.285 75.2725 146.489 55.8543 160.156C-6.24761 203.859 4.54379 295.246 53.4843 327.636C95.8757 355.705 148.284 356.448 216.051 331.215C283.817 305.982 332.354 290.475 373.577 225.197C414.799 159.919 374.343 81.662 321.531 38.449Z" fill="#F1C8CF"/>
<path opacity="0.8" d="M321.531 38.449C321.531 38.449 278.682 6.79368 223.911 24.229C169.14 41.6643 146.862 88.7799 115.831 121.905C99.5729 139.285 75.2725 146.489 55.8543 160.156C-6.24761 203.859 4.54379 295.246 53.4843 327.636C95.8757 355.705 148.284 356.448 216.051 331.215C283.817 305.982 332.354 290.475 373.577 225.197C414.799 159.919 374.343 81.662 321.531 38.449Z" fill="white"/>
<path d="M322.398 272.93L330.401 349.575" stroke="#263238" stroke-miterlimit="10"/>
<path d="M329.107 334.905L325.48 331.073" stroke="#263238" stroke-miterlimit="10"/>
<path d="M326.587 332.226C326.58 331.64 326.447 331.061 326.198 330.53C325.948 329.998 325.588 329.526 325.141 329.146C324.209 328.316 319.311 326.254 318.821 327.984C318.371 329.857 323.356 333.546 326.587 332.226Z" fill="#F1C8CF" stroke="#263238" stroke-miterlimit="10"/>
<path d="M326.587 332.227L321.926 329.319" stroke="#263238" stroke-width="0.5" stroke-miterlimit="10"/>
<path d="M330.021 343.626L326.395 339.795" stroke="#263238" stroke-miterlimit="10"/>
<path d="M327.496 340.941C327.488 340.355 327.355 339.778 327.106 339.248C326.857 338.718 326.497 338.247 326.051 337.868C325.118 337.03 320.22 334.976 319.731 336.698C319.257 338.579 324.265 342.26 327.496 340.941Z" fill="#F1C8CF" stroke="#263238" stroke-miterlimit="10"/>
<path d="M327.493 340.94L322.832 338.033" stroke="#263238" stroke-width="0.5" stroke-miterlimit="10"/>
<path d="M326.888 313.638L323.262 309.807" stroke="#263238" stroke-miterlimit="10"/>
<path d="M324.364 310.952C324.356 310.366 324.223 309.789 323.974 309.259C323.725 308.729 323.365 308.258 322.919 307.879C321.987 307.049 317.089 304.988 316.599 306.71C316.117 308.59 321.133 312.271 324.364 310.952Z" fill="#F1C8CF" stroke="#263238" stroke-miterlimit="10"/>
<path d="M324.364 310.952L319.703 308.045" stroke="#263238" stroke-width="0.5" stroke-miterlimit="10"/>
<path d="M327.802 322.352L324.176 318.521" stroke="#263238" stroke-miterlimit="10"/>
<path d="M325.274 319.674C325.266 319.087 325.133 318.508 324.884 317.977C324.635 317.445 324.275 316.974 323.828 316.593C322.896 315.763 317.998 313.701 317.508 315.431C317.034 317.304 322.043 320.993 325.274 319.674Z" fill="#F1C8CF" stroke="#263238" stroke-miterlimit="10"/>
<path d="M325.274 319.674L320.613 316.767" stroke="#263238" stroke-width="0.5" stroke-miterlimit="10"/>
<path d="M325.407 299.473L321.781 295.649" stroke="#263238" stroke-miterlimit="10"/>
<path d="M322.888 296.795C322.881 296.208 322.748 295.629 322.498 295.098C322.249 294.567 321.889 294.095 321.442 293.714C320.51 292.884 315.612 290.822 315.122 292.553C314.64 294.425 319.657 298.114 322.888 296.795Z" fill="#F1C8CF" stroke="#263238" stroke-miterlimit="10"/>
<path d="M322.888 296.795L318.219 293.888" stroke="#263238" stroke-width="0.5" stroke-miterlimit="10"/>
<path d="M323.923 285.253L320.297 281.422" stroke="#263238" stroke-miterlimit="10"/>
<path d="M321.403 282.575C321.396 281.988 321.263 281.41 321.014 280.878C320.765 280.347 320.405 279.875 319.958 279.494C319.026 278.665 314.128 276.603 313.638 278.333C313.156 280.205 318.172 283.894 321.403 282.575Z" fill="#F1C8CF" stroke="#263238" stroke-miterlimit="10"/>
<path d="M321.403 282.575L316.742 279.668" stroke="#263238" stroke-width="0.5" stroke-miterlimit="10"/>
<path d="M328.496 329.746L331.253 325.251" stroke="#263238" stroke-miterlimit="10"/>
<path d="M330.419 326.602C330.307 326.026 330.32 325.432 330.456 324.861C330.593 324.291 330.849 323.756 331.209 323.292C331.951 322.288 336.32 319.263 337.126 320.851C337.995 322.589 333.847 327.226 330.419 326.602Z" fill="#F1C8CF" stroke="#263238" stroke-miterlimit="10"/>
<path d="M330.418 326.602L334.613 322.589" stroke="#263238" stroke-width="0.5" stroke-miterlimit="10"/>
<path d="M326.105 306.812L328.863 302.317" stroke="#263238" stroke-miterlimit="10"/>
<path d="M328.025 303.668C327.913 303.092 327.925 302.499 328.062 301.928C328.198 301.357 328.455 300.822 328.815 300.358C329.557 299.355 333.926 296.321 334.732 297.917C335.601 299.647 331.453 304.285 328.025 303.668Z" fill="#F1C8CF" stroke="#263238" stroke-miterlimit="10"/>
<path d="M328.023 303.669L332.218 299.647" stroke="#263238" stroke-width="0.5" stroke-miterlimit="10"/>
<path d="M325.055 296.732L327.812 292.237" stroke="#263238" stroke-miterlimit="10"/>
<path d="M326.972 293.58C326.858 293.006 326.87 292.413 327.006 291.843C327.143 291.273 327.4 290.739 327.762 290.278C328.505 289.275 332.866 286.241 333.679 287.837C334.548 289.567 330.401 294.204 326.972 293.58Z" fill="#F1C8CF" stroke="#263238" stroke-miterlimit="10"/>
<path d="M326.973 293.588L331.168 289.566" stroke="#263238" stroke-width="0.5" stroke-miterlimit="10"/>
<path d="M323.512 281.951L326.269 277.456" stroke="#263238" stroke-miterlimit="10"/>
<path d="M325.424 278.807C325.311 278.231 325.324 277.637 325.46 277.066C325.596 276.495 325.853 275.96 326.214 275.497C326.948 274.494 331.317 271.468 332.131 273.056C333 274.786 328.86 279.431 325.424 278.807Z" fill="#F1C8CF" stroke="#263238" stroke-miterlimit="10"/>
<path d="M325.426 278.807L329.629 274.794" stroke="#263238" stroke-width="0.5" stroke-miterlimit="10"/>
<path d="M322.32 272.503C322.206 271.927 322.217 271.333 322.354 270.762C322.49 270.191 322.748 269.656 323.11 269.193C323.845 268.19 328.213 265.164 329.027 266.752C329.912 268.49 325.764 273.127 322.32 272.503Z" fill="#F1C8CF" stroke="#263238" stroke-miterlimit="10"/>
<path d="M322.336 272.502L326.531 268.489" stroke="#263238" stroke-width="0.5" stroke-miterlimit="10"/>
<path d="M322.572 272.676C321.988 272.729 321.4 272.656 320.847 272.462C320.294 272.269 319.788 271.959 319.365 271.554C318.448 270.717 315.889 266.024 317.563 265.416C319.372 264.721 323.552 269.327 322.572 272.676Z" fill="#F1C8CF" stroke="#263238" stroke-miterlimit="10"/>
<path d="M322.574 272.677L319.027 268.079" stroke="#263238" stroke-width="0.5" stroke-miterlimit="10"/>
<path d="M343.498 283.483L335.543 360.137" stroke="#263238" stroke-miterlimit="10"/>
<path d="M337.3 345.515L334.543 341.02" stroke="#263238" stroke-miterlimit="10"/>
<path d="M335.385 342.37C335.497 341.794 335.485 341.201 335.348 340.63C335.212 340.059 334.955 339.523 334.595 339.06C333.852 338.057 329.483 335.031 328.678 336.627C327.801 338.357 331.948 342.994 335.385 342.37Z" fill="#F1C8CF" stroke="#263238" stroke-miterlimit="10"/>
<path d="M335.388 342.37L331.422 338.57" stroke="#263238" stroke-width="0.5" stroke-miterlimit="10"/>
<path d="M339.511 324.24L336.746 319.753" stroke="#263238" stroke-miterlimit="10"/>
<path d="M337.589 321.096C337.702 320.521 337.689 319.929 337.553 319.359C337.417 318.789 337.16 318.256 336.799 317.794C336.065 316.79 331.696 313.765 330.882 315.353C330.013 317.083 334.169 321.728 337.589 321.096Z" fill="#F1C8CF" stroke="#263238" stroke-miterlimit="10"/>
<path d="M337.591 321.096L333.625 317.296" stroke="#263238" stroke-width="0.5" stroke-miterlimit="10"/>
<path d="M338.601 332.962L335.844 328.467" stroke="#263238" stroke-miterlimit="10"/>
<path d="M336.689 329.818C336.802 329.241 336.789 328.648 336.653 328.077C336.517 327.506 336.26 326.971 335.899 326.507C335.157 325.504 330.788 322.478 329.982 324.074C329.105 325.804 333.253 330.442 336.689 329.818Z" fill="#F1C8CF" stroke="#263238" stroke-miterlimit="10"/>
<path d="M336.688 329.818L332.723 326.01" stroke="#263238" stroke-width="0.5" stroke-miterlimit="10"/>
<path d="M340.98 310.083L338.215 305.588" stroke="#263238" stroke-miterlimit="10"/>
<path d="M339.058 306.939C339.171 306.362 339.159 305.769 339.022 305.198C338.886 304.627 338.629 304.092 338.268 303.629C337.534 302.625 333.165 299.6 332.351 301.195C331.482 302.925 335.63 307.563 339.058 306.939Z" fill="#F1C8CF" stroke="#263238" stroke-miterlimit="10"/>
<path d="M339.06 306.939L335.094 303.131" stroke="#263238" stroke-width="0.5" stroke-miterlimit="10"/>
<path d="M342.456 295.863L339.691 291.368" stroke="#263238" stroke-miterlimit="10"/>
<path d="M340.537 292.719C340.649 292.143 340.637 291.549 340.501 290.978C340.365 290.407 340.107 289.872 339.747 289.409C339.012 288.406 334.644 285.38 333.83 286.968C332.953 288.706 337.1 293.343 340.537 292.719Z" fill="#F1C8CF" stroke="#263238" stroke-miterlimit="10"/>
<path d="M340.536 292.719L336.57 288.911" stroke="#263238" stroke-width="0.5" stroke-miterlimit="10"/>
<path d="M337.766 340.34L341.392 336.509" stroke="#263238" stroke-miterlimit="10"/>
<path d="M340.293 337.662C340.298 337.076 340.429 336.497 340.677 335.965C340.925 335.434 341.284 334.962 341.731 334.581C342.663 333.791 347.561 331.69 348.051 333.412C348.533 335.284 343.524 338.974 340.293 337.662Z" fill="#F1C8CF" stroke="#263238" stroke-miterlimit="10"/>
<path d="M340.293 337.662L345.223 334.597" stroke="#263238" stroke-width="0.5" stroke-miterlimit="10"/>
<path d="M340.148 317.407L343.767 313.567" stroke="#263238" stroke-miterlimit="10"/>
<path d="M342.672 314.721C342.679 314.134 342.811 313.556 343.058 313.025C343.306 312.494 343.665 312.022 344.11 311.64C345.042 310.81 349.94 308.748 350.43 310.47C350.912 312.351 345.903 316.04 342.672 314.721Z" fill="#F1C8CF" stroke="#263238" stroke-miterlimit="10"/>
<path d="M342.672 314.72L347.609 311.655" stroke="#263238" stroke-width="0.5" stroke-miterlimit="10"/>
<path d="M341.191 307.318L344.818 303.486" stroke="#263238" stroke-miterlimit="10"/>
<path d="M343.715 304.64C343.722 304.053 343.855 303.474 344.104 302.943C344.354 302.411 344.714 301.939 345.161 301.559C346.093 300.729 350.991 298.667 351.481 300.389C351.962 302.27 346.946 305.951 343.715 304.64Z" fill="#F1C8CF" stroke="#263238" stroke-miterlimit="10"/>
<path d="M343.715 304.64L348.652 301.575" stroke="#263238" stroke-width="0.5" stroke-miterlimit="10"/>
<path d="M342.727 292.545L346.353 288.714" stroke="#263238" stroke-miterlimit="10"/>
<path d="M345.23 289.859C345.236 289.273 345.367 288.694 345.615 288.163C345.863 287.631 346.222 287.159 346.668 286.778C347.6 285.949 352.498 283.887 352.988 285.609C353.494 287.489 348.477 291.179 345.23 289.859Z" fill="#F1C8CF" stroke="#263238" stroke-miterlimit="10"/>
<path d="M345.254 289.859L350.183 286.794" stroke="#263238" stroke-width="0.5" stroke-miterlimit="10"/>
<path d="M343.516 283.057C343.523 282.47 343.656 281.891 343.905 281.36C344.154 280.829 344.515 280.357 344.961 279.976C345.894 279.186 350.792 277.084 351.281 278.807C351.763 280.679 346.747 284.4 343.516 283.057Z" fill="#F1C8CF" stroke="#263238" stroke-miterlimit="10"/>
<path d="M343.516 283.057L348.453 279.992" stroke="#263238" stroke-width="0.5" stroke-miterlimit="10"/>
<path d="M343.72 283.271C343.138 283.204 342.578 283.012 342.076 282.71C341.575 282.407 341.144 282 340.813 281.517C340.078 280.506 338.546 275.418 340.308 275.134C342.227 274.826 345.371 280.198 343.72 283.271Z" fill="#F1C8CF" stroke="#263238" stroke-miterlimit="10"/>
<path d="M343.719 283.271L341.191 278.041" stroke="#263238" stroke-width="0.5" stroke-miterlimit="10"/>
<path d="M334.383 252.271V349.204" stroke="#263238" stroke-miterlimit="10"/>
<path d="M334.461 334.628L331.246 330.441" stroke="#263238" stroke-miterlimit="10"/>
<path d="M332.226 331.697C332.28 331.114 332.208 330.527 332.016 329.974C331.824 329.42 331.516 328.915 331.113 328.49C330.267 327.566 325.583 325.006 324.974 326.673C324.271 328.49 328.877 332.677 332.226 331.697Z" fill="#F1C8CF" stroke="#263238" stroke-miterlimit="10"/>
<path d="M332.228 331.698L327.891 328.324" stroke="#263238" stroke-width="0.5" stroke-miterlimit="10"/>
<path d="M334.461 316.411L331.246 312.224" stroke="#263238" stroke-miterlimit="10"/>
<path d="M332.226 313.48C332.28 312.897 332.208 312.309 332.016 311.756C331.824 311.203 331.516 310.697 331.113 310.272C330.267 309.348 325.583 306.788 324.974 308.455C324.271 310.272 328.877 314.459 332.226 313.48Z" fill="#F1C8CF" stroke="#263238" stroke-miterlimit="10"/>
<path d="M332.228 313.48L327.891 310.106" stroke="#263238" stroke-width="0.5" stroke-miterlimit="10"/>
<path d="M334.461 295.026L331.246 290.839" stroke="#263238" stroke-miterlimit="10"/>
<path d="M332.226 292.095C332.28 291.512 332.208 290.924 332.016 290.371C331.824 289.818 331.516 289.312 331.113 288.888C330.267 287.963 325.583 285.404 324.974 287.071C324.271 288.888 328.877 293.09 332.226 292.095Z" fill="#F1C8CF" stroke="#263238" stroke-miterlimit="10"/>
<path d="M332.228 292.095L327.891 288.722" stroke="#263238" stroke-width="0.5" stroke-miterlimit="10"/>
<path d="M334.461 280.79L331.246 276.603" stroke="#263238" stroke-miterlimit="10"/>
<path d="M332.226 277.859C332.28 277.276 332.208 276.688 332.016 276.135C331.824 275.582 331.516 275.076 331.113 274.651C330.267 273.727 325.583 271.167 324.974 272.834C324.271 274.651 328.877 278.87 332.226 277.859Z" fill="#F1C8CF" stroke="#263238" stroke-miterlimit="10"/>
<path d="M332.228 277.859L327.891 274.485" stroke="#263238" stroke-width="0.5" stroke-miterlimit="10"/>
<path d="M334.461 266.491L331.246 262.304" stroke="#263238" stroke-miterlimit="10"/>
<path d="M332.226 263.56C332.28 262.977 332.208 262.389 332.016 261.836C331.824 261.283 331.516 260.777 331.113 260.352C330.267 259.428 325.583 256.868 324.974 258.535C324.271 260.352 328.877 264.539 332.226 263.56Z" fill="#F1C8CF" stroke="#263238" stroke-miterlimit="10"/>
<path d="M332.228 263.56L327.891 260.187" stroke="#263238" stroke-width="0.5" stroke-miterlimit="10"/>
<path d="M334.391 340.19L337.598 336.003" stroke="#263238" stroke-miterlimit="10"/>
<path d="M336.618 337.259C336.566 336.675 336.638 336.087 336.832 335.534C337.025 334.981 337.335 334.475 337.74 334.052C338.577 333.127 343.27 330.568 343.878 332.235C344.573 334.052 339.968 338.239 336.618 337.259Z" fill="#F1C8CF" stroke="#263238" stroke-miterlimit="10"/>
<path d="M336.617 337.259L341.215 333.704" stroke="#263238" stroke-width="0.5" stroke-miterlimit="10"/>
<path d="M334.391 311.22L337.598 307.033" stroke="#263238" stroke-miterlimit="10"/>
<path d="M336.618 308.29C336.566 307.707 336.638 307.118 336.832 306.565C337.025 306.012 337.335 305.507 337.74 305.083C338.577 304.159 343.27 301.599 343.878 303.266C344.573 305.083 339.968 309.262 336.618 308.29Z" fill="#F1C8CF" stroke="#263238" stroke-miterlimit="10"/>
<path d="M336.617 308.289L341.215 304.734" stroke="#263238" stroke-width="0.5" stroke-miterlimit="10"/>
<path d="M334.391 296.921L337.598 292.734" stroke="#263238" stroke-miterlimit="10"/>
<path d="M336.618 293.99C336.566 293.407 336.638 292.819 336.832 292.265C337.025 291.712 337.335 291.207 337.74 290.783C338.577 289.859 343.27 287.299 343.878 288.966C344.573 290.783 339.968 294.962 336.618 293.99Z" fill="#F1C8CF" stroke="#263238" stroke-miterlimit="10"/>
<path d="M336.617 293.991L341.215 290.436" stroke="#263238" stroke-width="0.5" stroke-miterlimit="10"/>
<path d="M334.391 278.017L337.598 273.838" stroke="#263238" stroke-miterlimit="10"/>
<path d="M336.618 275.094C336.565 274.509 336.638 273.92 336.832 273.365C337.025 272.811 337.335 272.304 337.74 271.879C338.577 270.955 343.27 268.403 343.878 270.07C344.574 271.879 339.968 276.066 336.618 275.094Z" fill="#F1C8CF" stroke="#263238" stroke-miterlimit="10"/>
<path d="M336.617 275.094L341.215 271.531" stroke="#263238" stroke-width="0.5" stroke-miterlimit="10"/>
<path d="M334.391 263.165L337.598 258.978" stroke="#263238" stroke-miterlimit="10"/>
<path d="M336.618 260.234C336.565 259.649 336.638 259.059 336.832 258.505C337.025 257.95 337.335 257.444 337.74 257.018C338.577 256.102 343.27 253.542 343.878 255.209C344.574 257.018 339.968 261.205 336.618 260.234Z" fill="#F1C8CF" stroke="#263238" stroke-miterlimit="10"/>
<path d="M336.617 260.234L341.215 256.679" stroke="#263238" stroke-width="0.5" stroke-miterlimit="10"/>
<path d="M334.169 253.646C334.116 253.061 334.189 252.472 334.383 251.917C334.576 251.363 334.886 250.856 335.291 250.431C336.128 249.506 340.821 246.955 341.429 248.621C342.148 250.431 337.542 254.618 334.169 253.646Z" fill="#F1C8CF" stroke="#263238" stroke-miterlimit="10"/>
<path d="M334.195 253.646L338.793 250.083" stroke="#263238" stroke-width="0.5" stroke-miterlimit="10"/>
<path d="M334.423 253.843C333.837 253.833 333.26 253.698 332.73 253.448C332.2 253.197 331.729 252.836 331.35 252.389C330.513 251.457 328.459 246.559 330.189 246.069C332.061 245.595 335.75 250.612 334.423 253.843Z" fill="#F1C8CF" stroke="#263238" stroke-miterlimit="10"/>
<path d="M334.424 253.843L331.367 248.897" stroke="#263238" stroke-width="0.5" stroke-miterlimit="10"/>
<path d="M338.374 374.342H328.104L326.824 348.414H339.654L338.374 374.342Z" fill="#263238" stroke="#263238" stroke-miterlimit="10"/>
<path d="M307.309 375.25H388.679" stroke="#263238" stroke-linecap="round" stroke-linejoin="round"/>
<path d="M80.5781 375.25H300.988" stroke="#263238" stroke-linecap="round" stroke-linejoin="round"/>
<path d="M11.0586 375.25H71.8886" stroke="#263238" stroke-linecap="round" stroke-linejoin="round"/>
<path d="M129.145 375.266L123.599 318.631L119.27 319.579L127.098 375.266H129.145Z" fill="#808080" stroke="#808080" stroke-linecap="round" stroke-linejoin="round"/>
<path d="M65.1046 375.266L72.9335 319.579L68.6122 318.631L63.0664 375.266H65.1046Z" fill="#808080" stroke="#808080" stroke-linecap="round" stroke-linejoin="round"/>
<path d="M69.885 325.48L67.1042 259.246C67.0636 258.31 67.213 257.376 67.5434 256.5C67.8738 255.623 68.3783 254.823 69.0265 254.146C69.6746 253.47 70.453 252.932 71.3148 252.565C72.1765 252.198 73.1037 252.009 74.0404 252.01H120.445C121.402 252.01 122.348 252.208 123.225 252.592C124.102 252.975 124.89 253.536 125.54 254.238C126.189 254.941 126.687 255.77 127.001 256.674C127.315 257.578 127.439 258.537 127.365 259.491L122.222 325.48H69.885Z" fill="#808080" stroke="#808080" stroke-linecap="round" stroke-linejoin="round"/>
<path d="M126.623 310.951H65.043V325.463H126.623V310.951Z" fill="#808080" stroke="#808080" stroke-linecap="round" stroke-linejoin="round"/>
<path d="M69.8846 325.48H65.2236L61.9609 298.209C61.9609 297.161 62.3771 296.156 63.1179 295.416C63.8586 294.675 64.8633 294.259 65.9109 294.259C66.9585 294.259 67.9632 294.675 68.704 295.416C69.4448 296.156 69.8609 297.161 69.8609 298.209L69.8846 325.48Z" fill="#808080" stroke="#808080" stroke-linecap="round" stroke-linejoin="round"/>
<path d="M122.223 325.48H126.884L130.154 298.209C130.154 297.161 129.738 296.156 128.997 295.416C128.257 294.675 127.252 294.259 126.204 294.259C125.157 294.259 124.152 294.675 123.411 295.416C122.67 296.156 122.254 297.161 122.254 298.209L122.223 325.48Z" fill="#808080" stroke="#808080" stroke-linecap="round" stroke-linejoin="round"/>
<path d="M37.5883 253.132H76.7644C77.2882 253.132 77.7905 253.34 78.1609 253.71C78.5313 254.081 78.7394 254.583 78.7394 255.107V278.744H35.6133V255.107C35.6133 254.583 35.8214 254.081 36.1917 253.71C36.5621 253.34 37.0645 253.132 37.5883 253.132Z" fill="white" stroke="#808080" stroke-linecap="round" stroke-linejoin="round"/>
<path d="M173.8 375.266L168.681 285.933H164.305L171.81 375.266H173.8Z" fill="#808080" stroke="#808080" stroke-linecap="round" stroke-linejoin="round"/>
<path d="M189.902 375.266L184.783 285.933H180.398L187.903 375.266H189.902Z" fill="#808080" stroke="#808080" stroke-linecap="round" stroke-linejoin="round"/>
<path d="M47.893 375.266L54.2841 285.933H49.9154L45.918 375.266H47.893Z" fill="#808080" stroke="#808080" stroke-linecap="round" stroke-linejoin="round"/>
<path d="M29.8891 375.266L36.2723 285.933H31.9115L27.9141 375.266H29.8891Z" fill="#808080" stroke="#808080" stroke-linecap="round" stroke-linejoin="round"/>
<path d="M190.392 280.893H29.0586V288.706H190.392V280.893Z" fill="white" stroke="#808080" stroke-linecap="round" stroke-linejoin="round"/>
<path d="M190.392 280.893H29.0586V283.571H190.392V280.893Z" fill="#808080" stroke="#808080" stroke-linecap="round" stroke-linejoin="round"/>
<path d="M192.817 278.285H26.6328V281.263H192.817V278.285Z" fill="white" stroke="#808080" stroke-linecap="round" stroke-linejoin="round"/>
<path opacity="0.15" d="M327.85 30.8096H52.9297V245.69H327.85V30.8096Z" fill="black"/>
<path d="M337.589 22.4043H61.8398V237.79H337.589V22.4043Z" fill="#F1C8CF"/>
<path d="M337.589 22.4043H61.8398V237.79H337.589V22.4043Z" fill="white" stroke="#263238" stroke-linecap="round" stroke-linejoin="round"/>
<path d="M325.503 63.9424H68.4766V180.933H325.503V63.9424Z" fill="white"/>
<path d="M76.6211 164.106H316.054" stroke="#8C8C8C" stroke-width="0.5" stroke-miterlimit="10"/>
<path d="M76.6211 164.107V161.761" stroke="#8C8C8C" stroke-width="0.5" stroke-miterlimit="10"/>
<path d="M89.2227 164.107V161.761" stroke="#8C8C8C" stroke-width="0.5" stroke-miterlimit="10"/>
<path d="M101.824 164.107V161.761" stroke="#8C8C8C" stroke-width="0.5" stroke-miterlimit="10"/>
<path d="M114.422 164.107V161.761" stroke="#8C8C8C" stroke-width="0.5" stroke-miterlimit="10"/>
<path d="M127.023 164.107V161.761" stroke="#8C8C8C" stroke-width="0.5" stroke-miterlimit="10"/>
<path d="M139.625 164.107V161.761" stroke="#8C8C8C" stroke-width="0.5" stroke-miterlimit="10"/>
<path d="M152.234 164.107V161.761" stroke="#8C8C8C" stroke-width="0.5" stroke-miterlimit="10"/>
<path d="M164.832 164.107V161.761" stroke="#8C8C8C" stroke-width="0.5" stroke-miterlimit="10"/>
<path d="M177.434 164.107V161.761" stroke="#8C8C8C" stroke-width="0.5" stroke-miterlimit="10"/>
<path d="M190.035 164.107V161.761" stroke="#8C8C8C" stroke-width="0.5" stroke-miterlimit="10"/>
<path d="M202.633 164.107V161.761" stroke="#8C8C8C" stroke-width="0.5" stroke-miterlimit="10"/>
<path d="M215.234 164.107V161.761" stroke="#8C8C8C" stroke-width="0.5" stroke-miterlimit="10"/>
<path d="M227.844 164.107V161.761" stroke="#8C8C8C" stroke-width="0.5" stroke-miterlimit="10"/>
<path d="M240.445 164.107V161.761" stroke="#8C8C8C" stroke-width="0.5" stroke-miterlimit="10"/>
<path d="M253.043 164.107V161.761" stroke="#8C8C8C" stroke-width="0.5" stroke-miterlimit="10"/>
<path d="M265.645 164.107V161.761" stroke="#8C8C8C" stroke-width="0.5" stroke-miterlimit="10"/>
<path d="M278.246 164.107V161.761" stroke="#8C8C8C" stroke-width="0.5" stroke-miterlimit="10"/>
<path d="M290.848 164.107V161.761" stroke="#8C8C8C" stroke-width="0.5" stroke-miterlimit="10"/>
<path d="M303.445 164.107V161.761" stroke="#8C8C8C" stroke-width="0.5" stroke-miterlimit="10"/>
<path d="M316.055 164.107V161.761" stroke="#8C8C8C" stroke-width="0.5" stroke-miterlimit="10"/>
<path d="M76.6211 164.107V70.1914" stroke="#8C8C8C" stroke-width="0.5" stroke-miterlimit="10"/>
<path d="M76.6211 164.106H82.6014" stroke="#8C8C8C" stroke-width="0.5" stroke-miterlimit="10"/>
<path d="M76.6201 145.328H70.0078" stroke="#8C8C8C" stroke-width="0.5" stroke-miterlimit="10"/>
<path d="M76.6201 126.542H70.0078" stroke="#8C8C8C" stroke-width="0.5" stroke-miterlimit="10"/>
<path d="M76.6201 107.756H70.0078" stroke="#8C8C8C" stroke-width="0.5" stroke-miterlimit="10"/>
<path d="M76.6201 88.9775H70.0078" stroke="#8C8C8C" stroke-width="0.5" stroke-miterlimit="10"/>
<path d="M76.6201 70.1914H70.0078" stroke="#8C8C8C" stroke-width="0.5" stroke-miterlimit="10"/>
<path d="M297.148 88.9779L309.749 74.75" stroke="#F1C8CF" stroke-width="2" stroke-miterlimit="10" stroke-linecap="round"/>
<path d="M284.551 120.909L297.151 88.9775" stroke="#F1C8CF" stroke-width="2" stroke-miterlimit="10" stroke-linecap="round"/>
<path d="M271.949 107.756L284.55 120.909" stroke="#F1C8CF" stroke-width="2" stroke-miterlimit="10" stroke-linecap="round"/>
<path d="M259.34 141.568L271.948 107.756" stroke="#F1C8CF" stroke-width="2" stroke-miterlimit="10" stroke-linecap="round"/>
<path d="M246.742 88.9775L259.343 141.568" stroke="#F1C8CF" stroke-width="2" stroke-miterlimit="10" stroke-linecap="round"/>
<path d="M234.141 70.1914L246.741 88.9776" stroke="#F1C8CF" stroke-width="2" stroke-miterlimit="10" stroke-linecap="round"/>
<path d="M221.539 154.721L234.14 70.1914" stroke="#F1C8CF" stroke-width="2" stroke-miterlimit="10" stroke-linecap="round"/>
<path d="M208.938 149.081L221.538 154.722" stroke="#F1C8CF" stroke-width="2" stroke-miterlimit="10" stroke-linecap="round"/>
<path d="M196.34 147.2L208.94 149.08" stroke="#F1C8CF" stroke-width="2" stroke-miterlimit="10" stroke-linecap="round"/>
<path d="M183.73 109.968L196.339 147.2" stroke="#F1C8CF" stroke-width="2" stroke-miterlimit="10" stroke-linecap="round"/>
<path d="M171.129 102.455L183.729 109.968" stroke="#F1C8CF" stroke-width="2" stroke-miterlimit="10" stroke-linecap="round"/>
<path d="M158.527 137.815L171.128 102.455" stroke="#F1C8CF" stroke-width="2" stroke-miterlimit="10" stroke-linecap="round"/>
<path d="M145.93 145.328L158.53 137.815" stroke="#F1C8CF" stroke-width="2" stroke-miterlimit="10" stroke-linecap="round"/>
<path d="M133.328 105.884L145.929 145.328" stroke="#F1C8CF" stroke-width="2" stroke-miterlimit="10" stroke-linecap="round"/>
<path d="M120.727 100.243L133.327 105.884" stroke="#F1C8CF" stroke-width="2" stroke-miterlimit="10" stroke-linecap="round"/>
<path d="M108.129 92.7305L120.729 100.243" stroke="#F1C8CF" stroke-width="2" stroke-miterlimit="10" stroke-linecap="round"/>
<path d="M95.5195 100.243L108.128 92.7305" stroke="#F1C8CF" stroke-width="2" stroke-miterlimit="10" stroke-linecap="round"/>
<path d="M82.918 107.756L95.5185 100.243" stroke="#F1C8CF" stroke-width="2" stroke-miterlimit="10" stroke-linecap="round"/>
<path d="M309.751 72.5215C309.16 72.5215 308.594 72.7562 308.176 73.174C307.758 73.5918 307.523 74.1584 307.523 74.7493C307.523 75.3401 307.758 75.9068 308.176 76.3246C308.594 76.7424 309.16 76.9771 309.751 76.9771C310.342 76.9771 310.909 76.7424 311.327 76.3246C311.744 75.9068 311.979 75.3401 311.979 74.7493C311.979 74.1584 311.744 73.5918 311.327 73.174C310.909 72.7562 310.342 72.5215 309.751 72.5215Z" fill="white" stroke="#F1C8CF" stroke-linecap="round" stroke-linejoin="round"/>
<path d="M297.15 86.75C296.559 86.75 295.992 86.9847 295.574 87.4025C295.157 87.8203 294.922 88.387 294.922 88.9778C294.922 89.5686 295.157 90.1353 295.574 90.5531C295.992 90.9709 296.559 91.2056 297.15 91.2056C297.741 91.2056 298.307 90.9709 298.725 90.5531C299.143 90.1353 299.377 89.5686 299.377 88.9778C299.377 88.387 299.143 87.8203 298.725 87.4025C298.307 86.9847 297.741 86.75 297.15 86.75Z" fill="white" stroke="#F1C8CF" stroke-linecap="round" stroke-linejoin="round"/>
<path d="M284.548 118.682C283.957 118.682 283.391 118.916 282.973 119.334C282.555 119.752 282.32 120.319 282.32 120.909C282.32 121.5 282.555 122.067 282.973 122.485C283.391 122.903 283.957 123.137 284.548 123.137C285.138 123.135 285.704 122.9 286.121 122.482C286.538 122.065 286.774 121.5 286.776 120.909C286.776 120.319 286.541 119.752 286.123 119.334C285.706 118.916 285.139 118.682 284.548 118.682Z" fill="white" stroke="#F1C8CF" stroke-linecap="round" stroke-linejoin="round"/>
<path d="M271.95 105.528C271.36 105.528 270.793 105.763 270.375 106.181C269.957 106.599 269.723 107.165 269.723 107.756C269.723 108.347 269.957 108.914 270.375 109.331C270.793 109.749 271.36 109.984 271.95 109.984C272.243 109.984 272.532 109.926 272.802 109.814C273.072 109.702 273.317 109.538 273.523 109.331C273.729 109.124 273.893 108.878 274.004 108.608C274.115 108.338 274.171 108.048 274.17 107.756C274.17 107.167 273.937 106.601 273.521 106.184C273.105 105.766 272.54 105.53 271.95 105.528Z" fill="white" stroke="#F1C8CF" stroke-linecap="round" stroke-linejoin="round"/>
<path d="M259.341 139.34C258.75 139.34 258.184 139.575 257.766 139.992C257.348 140.41 257.113 140.977 257.113 141.568C257.113 142.158 257.348 142.725 257.766 143.143C258.184 143.561 258.75 143.795 259.341 143.795C259.932 143.795 260.499 143.561 260.916 143.143C261.334 142.725 261.569 142.158 261.569 141.568C261.569 140.977 261.334 140.41 260.916 139.992C260.499 139.575 259.932 139.34 259.341 139.34Z" fill="white" stroke="#F1C8CF" stroke-linecap="round" stroke-linejoin="round"/>
<path d="M246.74 86.75C246.149 86.75 245.582 86.9847 245.164 87.4025C244.746 87.8203 244.512 88.387 244.512 88.9778C244.514 89.568 244.749 90.1335 245.167 90.5508C245.584 90.9681 246.149 91.2035 246.74 91.2056C247.33 91.2056 247.897 90.9709 248.315 90.5531C248.733 90.1353 248.967 89.5686 248.967 88.9778C248.967 88.387 248.733 87.8203 248.315 87.4025C247.897 86.9847 247.33 86.75 246.74 86.75Z" fill="white" stroke="#F1C8CF" stroke-linecap="round" stroke-linejoin="round"/>
<path d="M234.138 67.9395C233.547 67.9395 232.98 68.1742 232.563 68.592C232.145 69.0098 231.91 69.5764 231.91 70.1673C231.91 70.7581 232.145 71.3248 232.563 71.7425C232.98 72.1603 233.547 72.3951 234.138 72.3951C234.729 72.3951 235.295 72.1603 235.713 71.7425C236.131 71.3248 236.366 70.7581 236.366 70.1673C236.366 69.5764 236.131 69.0098 235.713 68.592C235.295 68.1742 234.729 67.9395 234.138 67.9395Z" fill="#263238" stroke="#F1C8CF" stroke-linecap="round" stroke-linejoin="round"/>
<path d="M221.54 152.47C220.949 152.47 220.383 152.704 219.965 153.122C219.547 153.54 219.313 154.107 219.313 154.698C219.312 154.99 219.37 155.279 219.482 155.549C219.594 155.819 219.759 156.064 219.965 156.27C220.172 156.476 220.418 156.64 220.688 156.751C220.959 156.862 221.248 156.918 221.54 156.917C221.832 156.918 222.122 156.862 222.392 156.751C222.663 156.64 222.908 156.476 223.115 156.27C223.322 156.064 223.486 155.819 223.598 155.549C223.71 155.279 223.768 154.99 223.768 154.698C223.768 154.107 223.533 153.54 223.116 153.122C222.698 152.704 222.131 152.47 221.54 152.47Z" fill="white" stroke="#F1C8CF" stroke-linecap="round" stroke-linejoin="round"/>
<path d="M208.939 146.853C208.348 146.853 207.781 147.087 207.363 147.505C206.946 147.923 206.711 148.489 206.711 149.08C206.711 149.671 206.946 150.238 207.363 150.656C207.781 151.073 208.348 151.308 208.939 151.308C209.53 151.308 210.096 151.073 210.514 150.656C210.932 150.238 211.167 149.671 211.167 149.08C211.164 148.49 210.929 147.925 210.512 147.507C210.094 147.09 209.529 146.855 208.939 146.853Z" fill="white" stroke="#F1C8CF" stroke-linecap="round" stroke-linejoin="round"/>
<path d="M196.337 144.98C196.045 144.979 195.755 145.036 195.485 145.147C195.215 145.258 194.969 145.422 194.762 145.628C194.555 145.834 194.391 146.079 194.279 146.349C194.167 146.619 194.109 146.908 194.109 147.2C194.109 147.791 194.344 148.358 194.762 148.776C195.18 149.193 195.746 149.428 196.337 149.428C196.928 149.428 197.495 149.193 197.912 148.776C198.33 148.358 198.565 147.791 198.565 147.2C198.563 146.611 198.327 146.046 197.91 145.63C197.492 145.214 196.927 144.98 196.337 144.98Z" fill="white" stroke="#F1C8CF" stroke-linecap="round" stroke-linejoin="round"/>
<path d="M183.732 107.74C183.439 107.74 183.15 107.798 182.88 107.91C182.61 108.022 182.365 108.186 182.159 108.393C181.953 108.6 181.79 108.846 181.678 109.116C181.567 109.386 181.511 109.676 181.512 109.968C181.511 110.26 181.567 110.55 181.678 110.82C181.79 111.09 181.953 111.336 182.159 111.543C182.365 111.75 182.61 111.914 182.88 112.026C183.15 112.138 183.439 112.196 183.732 112.196C184.322 112.196 184.889 111.961 185.307 111.543C185.725 111.126 185.959 110.559 185.959 109.968C185.959 109.377 185.725 108.811 185.307 108.393C184.889 107.975 184.322 107.74 183.732 107.74Z" fill="white" stroke="#F1C8CF" stroke-linecap="round" stroke-linejoin="round"/>
<path d="M171.13 100.228C170.539 100.228 169.973 100.462 169.555 100.88C169.137 101.298 168.902 101.864 168.902 102.455C168.902 103.046 169.137 103.613 169.555 104.031C169.973 104.448 170.539 104.683 171.13 104.683C171.721 104.683 172.288 104.448 172.705 104.031C173.123 103.613 173.358 103.046 173.358 102.455C173.358 101.864 173.123 101.298 172.705 100.88C172.288 100.462 171.721 100.228 171.13 100.228Z" fill="white" stroke="#F1C8CF" stroke-linecap="round" stroke-linejoin="round"/>
<path d="M158.529 135.588C157.938 135.588 157.371 135.823 156.953 136.24C156.535 136.658 156.301 137.225 156.301 137.816C156.301 138.407 156.535 138.973 156.953 139.391C157.371 139.809 157.938 140.043 158.529 140.043C159.119 140.043 159.686 139.809 160.104 139.391C160.522 138.973 160.756 138.407 160.756 137.816C160.756 137.225 160.522 136.658 160.104 136.24C159.686 135.823 159.119 135.588 158.529 135.588Z" fill="white" stroke="#F1C8CF" stroke-linecap="round" stroke-linejoin="round"/>
<path d="M145.927 143.101C145.632 143.101 145.34 143.159 145.067 143.273C144.795 143.387 144.548 143.554 144.341 143.764C144.133 143.974 143.97 144.224 143.86 144.498C143.75 144.772 143.695 145.065 143.699 145.36C143.699 145.951 143.934 146.517 144.352 146.935C144.77 147.353 145.336 147.588 145.927 147.588C146.518 147.588 147.085 147.353 147.503 146.935C147.92 146.517 148.155 145.951 148.155 145.36C148.159 145.065 148.105 144.772 147.995 144.498C147.885 144.224 147.721 143.974 147.514 143.764C147.307 143.554 147.06 143.387 146.787 143.273C146.515 143.159 146.222 143.101 145.927 143.101Z" fill="white" stroke="#F1C8CF" stroke-linecap="round" stroke-linejoin="round"/>
<path d="M133.329 103.656C132.749 103.666 132.196 103.902 131.787 104.313C131.379 104.725 131.147 105.28 131.141 105.86C131.141 106.451 131.375 107.017 131.793 107.435C132.211 107.853 132.778 108.088 133.368 108.088C133.959 108.088 134.526 107.853 134.944 107.435C135.362 107.017 135.596 106.451 135.596 105.86C135.593 105.566 135.532 105.275 135.416 105.005C135.3 104.735 135.132 104.491 134.921 104.286C134.711 104.081 134.461 103.92 134.188 103.812C133.915 103.703 133.623 103.65 133.329 103.656Z" fill="white" stroke="#F1C8CF" stroke-linecap="round" stroke-linejoin="round"/>
<path d="M120.728 98.0156C120.137 98.0156 119.57 98.2503 119.153 98.6681C118.735 99.0859 118.5 99.6526 118.5 100.243C118.5 100.834 118.735 101.401 119.153 101.819C119.57 102.237 120.137 102.471 120.728 102.471C121.319 102.471 121.885 102.237 122.303 101.819C122.721 101.401 122.956 100.834 122.956 100.243C122.954 99.6532 122.718 99.0878 122.301 98.6704C121.883 98.2531 121.318 98.0177 120.728 98.0156Z" fill="white" stroke="#F1C8CF" stroke-linecap="round" stroke-linejoin="round"/>
<path d="M108.126 90.502C107.535 90.502 106.969 90.7367 106.551 91.1545C106.133 91.5723 105.898 92.1389 105.898 92.7298C105.898 93.3206 106.133 93.8873 106.551 94.305C106.969 94.7228 107.535 94.9576 108.126 94.9576C108.418 94.9576 108.708 94.8999 108.978 94.7878C109.247 94.6758 109.493 94.5115 109.699 94.3046C109.905 94.0976 110.068 93.8519 110.179 93.5817C110.291 93.3115 110.347 93.0219 110.346 92.7298C110.346 92.1403 110.113 91.5748 109.696 91.1573C109.28 90.7397 108.716 90.504 108.126 90.502Z" fill="white" stroke="#F1C8CF" stroke-linecap="round" stroke-linejoin="round"/>
<path d="M95.5169 98.0156C94.9267 98.0177 94.3612 98.2531 93.9439 98.6704C93.5265 99.0878 93.2911 99.6532 93.2891 100.243C93.2891 100.834 93.5238 101.401 93.9416 101.819C94.3594 102.237 94.926 102.471 95.5169 102.471C96.1077 102.471 96.6744 102.237 97.0922 101.819C97.5099 101.401 97.7447 100.834 97.7447 100.243C97.7447 99.6526 97.5099 99.0859 97.0922 98.6681C96.6744 98.2503 96.1077 98.0156 95.5169 98.0156Z" fill="white" stroke="#F1C8CF" stroke-linecap="round" stroke-linejoin="round"/>
<path d="M82.9505 105.528C82.3602 105.53 81.7948 105.766 81.3775 106.183C80.9601 106.6 80.7247 107.166 80.7227 107.756C80.7227 108.347 80.9574 108.914 81.3752 109.331C81.793 109.749 82.3596 109.984 82.9505 109.984C83.5413 109.984 84.108 109.749 84.5257 109.331C84.9435 108.914 85.1783 108.347 85.1783 107.756C85.1783 107.165 84.9435 106.599 84.5257 106.181C84.108 105.763 83.5413 105.528 82.9505 105.528Z" fill="white" stroke="#F1C8CF" stroke-linecap="round" stroke-linejoin="round"/>
<path d="M337.591 22.4043H330.465V237.79H337.591V22.4043Z" fill="#DBDBDB" stroke="#263238" stroke-miterlimit="10"/>
<path d="M337.591 89.1357H330.465V147.335H337.591V89.1357Z" fill="#878787"/>
<path d="M337.589 22.4043H61.8398V36.3952H337.589V22.4043Z" fill="#F1C8CF" stroke="#263238" stroke-linecap="round" stroke-linejoin="round"/>
<path d="M61.8398 40.6455H131.068C131.487 40.6455 131.888 40.812 132.185 41.1083C132.481 41.4046 132.648 41.8065 132.648 42.2255V50.2677C132.648 50.6867 132.481 51.0886 132.185 51.3849C131.888 51.6812 131.487 51.8477 131.068 51.8477H61.8398V40.6455Z" fill="#263238"/>
<path d="M72.9315 47.1074L73.6662 42.2568H75.1514V49.0903H74.1402V44.1923L73.3976 49.0903H72.3864L71.5964 44.2634V49.0903H70.6484V42.2568H72.1415L72.9315 47.1074Z" fill="#F1C8CF"/>
<path d="M79.4088 49.0903H78.3265L78.1448 47.85H76.8255L76.628 49.0903H75.6562L76.7465 42.2568H78.3265L79.4088 49.0903ZM76.9598 46.9257H77.9947L77.4812 43.4497L76.9598 46.9257Z" fill="#F1C8CF"/>
<path d="M82.1616 49.0903C82.076 48.82 82.0438 48.5356 82.0668 48.2529V47.1785C82.0668 46.5465 81.8535 46.3095 81.3637 46.3095H80.9924V49.0903H79.918V42.2568H81.498C82.6119 42.2568 83.078 42.7782 83.078 43.8368V44.374C83.1141 44.6496 83.0664 44.9297 82.9409 45.1777C82.8155 45.4257 82.6182 45.6302 82.3749 45.7644C82.9121 45.9856 83.0859 46.4991 83.0859 47.218V48.2687C83.0707 48.5374 83.111 48.8063 83.2044 49.0587L82.1616 49.0903ZM80.9924 43.2364V45.3299H81.3716C81.7745 45.3299 82.0194 45.1561 82.0194 44.611V43.9395C82.0194 43.4497 81.8535 43.2364 81.4743 43.2364H80.9924Z" fill="#F1C8CF"/>
<path d="M86.9452 46.547V47.4476C86.9452 48.5457 86.4001 49.1698 85.3652 49.1698C84.3303 49.1698 83.7852 48.5457 83.7852 47.4476V43.9005C83.7852 42.8103 84.3303 42.1862 85.3652 42.1862C85.5885 42.1707 85.8124 42.2055 86.0205 42.2882C86.2285 42.3708 86.4153 42.4992 86.567 42.6638C86.7187 42.8284 86.8315 43.025 86.8969 43.2391C86.9624 43.4532 86.9789 43.6792 86.9452 43.9005V44.5641H85.934V43.8294C85.934 43.3475 85.7128 43.1579 85.3731 43.1579C85.0334 43.1579 84.8201 43.3475 84.8201 43.8294V47.5187C84.8201 48.0085 85.0334 48.1823 85.3731 48.1823C85.7128 48.1823 85.934 48.0085 85.934 47.5187V46.547H86.9452Z" fill="#F1C8CF"/>
<path d="M88.676 49.0903H87.6016V42.2568H88.676V45.1877H89.8926V42.2568H90.9828V49.0903H89.8926V46.1594H88.676V49.0903Z" fill="#F1C8CF"/>
<path d="M257.264 24.79H79.9805V32.6821H257.264V24.79Z" fill="white"/>
<path d="M88.75 166.689H76.7578V172.204H88.75V166.689Z" fill="#A1A1A1"/>
<path d="M101.363 166.689H89.3711V172.204H101.363V166.689Z" fill="#595959"/>
<path d="M113.98 166.689H101.988V172.204H113.98V166.689Z" fill="#A1A1A1"/>
<path d="M126.598 166.689H114.605V172.204H126.598V166.689Z" fill="#595959"/>
<path d="M139.223 166.689H127.23V172.204H139.223V166.689Z" fill="#A1A1A1"/>
<path d="M151.836 166.689H139.844V172.204H151.836V166.689Z" fill="#595959"/>
<path d="M164.453 166.689H152.461V172.204H164.453V166.689Z" fill="#A1A1A1"/>
<path d="M177.07 166.689H165.078V172.204H177.07V166.689Z" fill="#595959"/>
<path d="M189.688 166.689H177.695V172.204H189.688V166.689Z" fill="#A1A1A1"/>
<path d="M202.305 166.689H190.312V172.204H202.305V166.689Z" fill="#595959"/>
<path d="M214.918 166.689H202.926V172.204H214.918V166.689Z" fill="#A1A1A1"/>
<path d="M227.535 166.689H215.543V172.204H227.535V166.689Z" fill="#595959"/>
<path d="M240.152 166.689H228.16V172.204H240.152V166.689Z" fill="#A1A1A1"/>
<path d="M252.777 166.689H240.785V172.204H252.777V166.689Z" fill="#595959"/>
<path d="M265.391 166.689H253.398V172.204H265.391V166.689Z" fill="#A1A1A1"/>
<path d="M278.008 166.689H266.016V172.204H278.008V166.689Z" fill="#595959"/>
<path d="M290.625 166.689H278.633V172.204H290.625V166.689Z" fill="#A1A1A1"/>
<path d="M303.242 166.689H291.25V172.204H303.242V166.689Z" fill="#595959"/>
<path d="M315.859 166.689H303.867V172.204H315.859V166.689Z" fill="#A1A1A1"/>
<path d="M89.3864 56.335H68.957V61.8492H89.3864V56.335Z" fill="#A1A1A1"/>
<path d="M110.875 56.335H90.4453V61.8492H110.875V56.335Z" fill="#595959"/>
<path d="M132.363 56.335H111.934V61.8492H132.363V56.335Z" fill="#A1A1A1"/>
<path d="M153.859 56.335H133.43V61.8492H153.859V56.335Z" fill="#595959"/>
<path d="M175.347 56.335H154.918V61.8492H175.347V56.335Z" fill="#A1A1A1"/>
<path d="M196.843 56.335H176.414V61.8492H196.843V56.335Z" fill="#595959"/>
<path d="M218.332 56.335H197.902V61.8492H218.332V56.335Z" fill="#A1A1A1"/>
<path d="M239.82 56.335H219.391V61.8492H239.82V56.335Z" fill="#595959"/>
<path d="M261.316 56.335H240.887V61.8492H261.316V56.335Z" fill="#A1A1A1"/>
<path d="M282.804 56.335H262.375V61.8492H282.804V56.335Z" fill="#595959"/>
<path d="M304.293 56.335H283.863V61.8492H304.293V56.335Z" fill="#A1A1A1"/>
<path d="M325.789 56.335H305.359V61.8492H325.789V56.335Z" fill="#595959"/>
<path d="M187.443 70.2148H229.526L219.865 75.0496V84.9088C219.865 85.6031 219.589 86.269 219.099 86.7607C218.609 87.2523 217.944 87.5296 217.25 87.5316H187.443C186.749 87.5296 186.084 87.2523 185.594 86.7607C185.103 86.269 184.828 85.6031 184.828 84.9088V72.8297C184.828 72.4864 184.896 72.1463 185.027 71.8291C185.159 71.5118 185.351 71.2236 185.594 70.9807C185.837 70.7379 186.125 70.5453 186.442 70.4139C186.76 70.2825 187.1 70.2148 187.443 70.2148Z" fill="#263238"/>
<path d="M196.496 75.9029C196.496 74.8996 196.148 74.631 195.587 74.631C195.026 74.631 194.679 74.9312 194.679 75.7291V76.448H193.02V75.8397C193.02 74.0543 193.912 73.0352 195.634 73.0352C197.357 73.0352 198.289 74.0543 198.289 75.8397V76.132C198.289 77.3249 197.91 78.0754 197.064 78.423C197.941 78.8101 198.289 79.6396 198.289 80.793V81.6699C198.289 83.4553 197.396 84.4823 195.674 84.4823C193.952 84.4823 193.059 83.4553 193.059 81.6699V80.7456H194.718V81.7805C194.718 82.5705 195.066 82.8865 195.627 82.8865C196.187 82.8865 196.535 82.61 196.535 81.6225V80.7456C196.535 79.7107 196.187 79.3236 195.39 79.3236H194.797V77.7436H195.484C196.14 77.7436 196.535 77.4592 196.535 76.5665L196.496 75.9029Z" fill="#F1C8CF"/>
<path d="M199.285 75.8397C199.285 74.0543 200.233 73.0352 201.955 73.0352C203.678 73.0352 204.61 74.0543 204.61 75.8397V81.6462C204.61 83.4316 203.67 84.4586 201.948 84.4586C200.225 84.4586 199.277 83.4316 199.277 81.6462L199.285 75.8397ZM201.047 81.7568C201.047 82.5468 201.395 82.8628 201.955 82.8628C202.516 82.8628 202.864 82.5547 202.864 81.7568V75.7291C202.864 74.9391 202.508 74.631 201.955 74.631C201.402 74.631 201.047 74.9312 201.047 75.7291V81.7568Z" fill="#F1C8CF"/>
<path d="M208.045 79.8771L207.5 80.8962V84.3327H205.746V73.1621H207.5V78.0285L209.799 73.1621H211.553L209.112 78.1391L211.553 84.3327H209.751L208.045 79.8771Z" fill="#F1C8CF"/>
<path d="M98.7514 205.677V206.609C98.7514 207.32 99.0595 207.581 99.5414 207.581C100.023 207.581 100.331 207.32 100.331 206.609V204.405C100.331 203.686 100.015 203.417 99.5414 203.417C99.0674 203.417 98.7514 203.686 98.7514 204.405V204.705H97.2583L97.5506 198.898H101.698V200.328H98.9647L98.8383 202.698C98.9786 202.464 99.18 202.273 99.4208 202.145C99.6616 202.017 99.9327 201.957 100.205 201.972C101.366 201.972 101.951 202.762 101.951 204.263V206.49C101.951 208.07 101.161 209.01 99.5809 209.01C98.0009 209.01 97.2109 208.094 97.2109 206.49V205.7L98.7514 205.677Z" fill="#263238"/>
<path d="M102.824 201.3C102.824 199.72 103.67 198.788 105.194 198.788C106.719 198.788 107.564 199.697 107.564 201.3V206.506C107.564 208.086 106.719 209.026 105.194 209.026C103.67 209.026 102.824 208.11 102.824 206.506V201.3ZM104.404 206.609C104.404 207.32 104.72 207.597 105.194 207.597C105.668 207.597 105.984 207.32 105.984 206.609V201.205C105.984 200.487 105.668 200.218 105.194 200.218C104.72 200.218 104.404 200.487 104.404 201.205V206.609Z" fill="#263238"/>
<path d="M108.492 201.3C108.492 199.72 109.337 198.788 110.862 198.788C112.387 198.788 113.232 199.697 113.232 201.3V206.506C113.232 208.086 112.387 209.026 110.862 209.026C109.337 209.026 108.492 208.11 108.492 206.506V201.3ZM110.072 206.609C110.072 207.32 110.388 207.597 110.862 207.597C111.336 207.597 111.652 207.32 111.652 206.609V201.205C111.652 200.487 111.336 200.218 110.862 200.218C110.388 200.218 110.072 200.487 110.072 201.205V206.609Z" fill="#263238"/>
<path d="M116.343 204.918L115.861 205.835V208.908H114.281V198.898H115.861V203.259L117.923 198.898H119.503L117.315 203.362L119.503 208.892H117.923L116.343 204.918Z" fill="#263238"/>
<path d="M96.7109 215.907H119.645" stroke="#263238" stroke-miterlimit="10"/>
<path d="M184.861 205.677V206.609C184.861 207.32 185.177 207.581 185.651 207.581C186.125 207.581 186.441 207.32 186.441 206.609V204.405C186.441 203.686 186.125 203.417 185.651 203.417C185.177 203.417 184.861 203.686 184.861 204.405V204.705H183.376L183.66 198.898H187.807V200.328H185.074L184.948 202.698C185.089 202.464 185.292 202.272 185.534 202.144C185.776 202.016 186.049 201.956 186.322 201.972C187.476 201.972 188.068 202.762 188.068 204.263V206.49C188.068 208.07 187.278 209.01 185.698 209.01C184.118 209.01 183.328 208.094 183.328 206.49V205.7L184.861 205.677Z" fill="#263238"/>
<path d="M188.945 201.3C188.945 199.72 189.791 198.788 191.315 198.788C192.84 198.788 193.685 199.697 193.685 201.3V206.506C193.685 208.086 192.848 209.026 191.315 209.026C189.783 209.026 188.945 208.11 188.945 206.506V201.3ZM190.525 206.609C190.525 207.32 190.841 207.597 191.315 207.597C191.789 207.597 192.105 207.32 192.105 206.609V201.205C192.105 200.487 191.789 200.218 191.315 200.218C190.841 200.218 190.525 200.487 190.525 201.205V206.609Z" fill="#263238"/>
<path d="M194.609 201.3C194.609 199.72 195.455 198.788 196.979 198.788C198.504 198.788 199.349 199.697 199.349 201.3V206.506C199.349 208.086 198.512 209.026 196.979 209.026C195.447 209.026 194.609 208.11 194.609 206.506V201.3ZM196.189 206.609C196.189 207.32 196.505 207.597 196.979 207.597C197.453 207.597 197.769 207.32 197.769 206.609V201.205C197.769 200.487 197.453 200.218 196.979 200.218C196.505 200.218 196.189 200.487 196.189 201.205V206.609Z" fill="#263238"/>
<path d="M202.46 204.918L201.971 205.835V208.908H200.391V198.898H201.971V203.259L204.033 198.898H205.613L203.424 203.362L205.613 208.892H204.033L202.46 204.918Z" fill="#263238"/>
<path d="M182.82 215.907H205.762" stroke="#263238" stroke-miterlimit="10"/>
<path d="M278.326 205.677V206.609C278.326 207.32 278.642 207.581 279.116 207.581C279.59 207.581 279.906 207.32 279.906 206.609V204.405C279.906 203.686 279.59 203.417 279.116 203.417C278.642 203.417 278.326 203.686 278.326 204.405V204.705H276.833L277.125 198.898H281.241V200.328H278.508L278.381 202.698C278.522 202.464 278.723 202.273 278.964 202.145C279.205 202.017 279.476 201.957 279.748 201.972C280.909 201.972 281.494 202.762 281.494 204.263V206.49C281.494 208.07 280.704 209.01 279.124 209.01C277.544 209.01 276.754 208.094 276.754 206.49V205.7L278.326 205.677Z" fill="#263238"/>
<path d="M282.441 201.3C282.441 199.72 283.287 198.788 284.811 198.788C286.336 198.788 287.181 199.697 287.181 201.3V206.506C287.181 208.086 286.336 209.026 284.811 209.026C283.287 209.026 282.441 208.11 282.441 206.506V201.3ZM284.021 206.609C284.021 207.32 284.337 207.597 284.811 207.597C285.285 207.597 285.601 207.32 285.601 206.609V201.205C285.601 200.487 285.285 200.218 284.811 200.218C284.337 200.218 284.021 200.487 284.021 201.205V206.609Z" fill="#263238"/>
<path d="M288.113 201.3C288.113 199.72 288.951 198.788 290.483 198.788C292.016 198.788 292.853 199.697 292.853 201.3V206.506C292.853 208.086 292.008 209.026 290.483 209.026C288.959 209.026 288.113 208.11 288.113 206.506V201.3ZM289.693 206.609C289.693 207.32 290.001 207.597 290.483 207.597C290.965 207.597 291.273 207.32 291.273 206.609V201.205C291.273 200.487 290.957 200.218 290.483 200.218C290.009 200.218 289.693 200.487 289.693 201.205V206.609Z" fill="#263238"/>
<path d="M295.956 204.918L295.475 205.835V208.908H293.895V198.898H295.475V203.259L297.536 198.898H299.116L296.928 203.362L299.116 208.892H297.497L295.956 204.918Z" fill="#263238"/>
<path d="M276.324 215.907H299.266" stroke="#263238" stroke-miterlimit="10"/>
<path d="M152.516 190.382V218.3" stroke="#263238" stroke-miterlimit="10"/>
<path d="M246.18 190.382V218.3" stroke="#263238" stroke-miterlimit="10"/>
<path d="M100.188 185.887H102.976V186.677H102.028V191.591H101.12V186.677H100.18L100.188 185.887Z" fill="#263238"/>
<path d="M103.293 187.23C103.279 187.041 103.303 186.851 103.366 186.673C103.428 186.494 103.527 186.33 103.656 186.191C103.784 186.052 103.94 185.942 104.114 185.866C104.287 185.79 104.474 185.751 104.664 185.751C104.853 185.751 105.04 185.79 105.214 185.866C105.387 185.942 105.543 186.052 105.672 186.191C105.8 186.33 105.899 186.494 105.961 186.673C106.024 186.851 106.049 187.041 106.034 187.23V190.216C106.049 190.405 106.024 190.594 105.961 190.773C105.899 190.952 105.8 191.116 105.672 191.254C105.543 191.393 105.387 191.504 105.214 191.58C105.04 191.656 104.853 191.695 104.664 191.695C104.474 191.695 104.287 191.656 104.114 191.58C103.94 191.504 103.784 191.393 103.656 191.254C103.527 191.116 103.428 190.952 103.366 190.773C103.303 190.594 103.279 190.405 103.293 190.216V187.23ZM104.194 190.271C104.194 190.682 104.375 190.84 104.66 190.84C104.944 190.84 105.134 190.682 105.134 190.271V187.23C105.134 186.819 104.952 186.661 104.66 186.661C104.367 186.661 104.194 186.819 104.194 187.23V190.271Z" fill="#263238"/>
<path d="M106.648 185.887H108.078C108.979 185.887 109.421 186.384 109.421 187.301V190.208C109.421 191.124 108.979 191.622 108.078 191.622H106.648V185.887ZM107.557 186.677V190.777H108.063C108.347 190.777 108.521 190.627 108.521 190.216V187.23C108.521 186.819 108.347 186.677 108.063 186.677H107.557Z" fill="#263238"/>
<path d="M112.867 191.622H111.958L111.8 190.587H110.694L110.536 191.622H109.746L110.599 185.887H111.919L112.867 191.622ZM110.813 189.805H111.682L111.247 186.906L110.813 189.805Z" fill="#263238"/>
<path d="M114.13 189.726L112.969 185.887H113.917L114.604 188.502L115.291 185.887H116.152L115.015 189.726V191.622H114.114L114.13 189.726Z" fill="#263238"/>
<path d="M189.599 188.565L189.275 191.622H188.019L187.379 185.887H188.256L188.746 190.413L189.18 185.887H190.049L190.499 190.445L190.966 185.887H191.756L191.116 191.622H189.923L189.599 188.565Z" fill="#263238"/>
<path d="M193.1 188.304H194.34V189.094H193.107V190.777H194.687V191.567H192.223V185.887H194.687V186.677H193.107L193.1 188.304Z" fill="#263238"/>
<path d="M196.108 188.304H197.348V189.094H196.108V190.777H197.688V191.567H195.207V185.887H197.672V186.677H196.092L196.108 188.304Z" fill="#263238"/>
<path d="M199.404 189.339L199.127 189.86V191.622H198.227V185.887H199.127V188.383L200.312 185.887H201.213L199.957 188.446L201.213 191.606H200.281L199.404 189.339Z" fill="#263238"/>
<path d="M281.24 189.963L281.848 185.887H283.104V191.622H282.251V187.506L281.627 191.622H280.782L280.102 187.569V191.622H279.312V185.887H280.569L281.24 189.963Z" fill="#263238"/>
<path d="M283.688 187.23C283.688 186.868 283.831 186.52 284.088 186.264C284.344 186.007 284.692 185.863 285.054 185.863C285.417 185.863 285.764 186.007 286.021 186.264C286.277 186.52 286.421 186.868 286.421 187.23V190.216C286.421 190.579 286.277 190.926 286.021 191.183C285.764 191.439 285.417 191.583 285.054 191.583C284.692 191.583 284.344 191.439 284.088 191.183C283.831 190.926 283.688 190.579 283.688 190.216V187.23ZM284.588 190.271C284.588 190.682 284.77 190.84 285.054 190.84C285.339 190.84 285.52 190.682 285.52 190.271V187.23C285.52 186.819 285.339 186.661 285.054 186.661C284.77 186.661 284.588 186.819 284.588 187.23V190.271Z" fill="#263238"/>
<path d="M287.813 187.467V191.622H287.023V185.887H288.153L289.077 189.323V185.887H289.867V191.622H288.943L287.813 187.467Z" fill="#263238"/>
<path d="M290.246 185.887H293.035V186.677H292.087V191.591H291.186V186.677H290.246V185.887Z" fill="#263238"/>
<path d="M294.322 191.622H293.422V185.887H294.322V188.344H295.349V185.887H296.25V191.622H295.334V189.165H294.307L294.322 191.622Z" fill="#263238"/>
<path d="M324.159 41.3408H310.469" stroke="#263238" stroke-miterlimit="10"/>
<path d="M324.159 45.5596H310.469" stroke="#263238" stroke-miterlimit="10"/>
<path d="M324.159 49.7695H310.469" stroke="#263238" stroke-miterlimit="10"/>
<path d="M222.545 215.812L182.152 212.064L179.687 238.637L220.08 242.384L222.545 215.812Z" fill="white" stroke="#263238" stroke-linecap="round" stroke-linejoin="round"/>
<path d="M184.922 229.424L189.733 222.614L194.141 223.815L198.154 231.028L205.367 224.218L209.783 233.84H212.588L219.405 222.614" stroke="#F1C8CF" stroke-width="2" stroke-miterlimit="10" stroke-linecap="round"/>
<path d="M222.392 224.471C221.029 223.125 219.527 221.925 217.913 220.893C214.753 218.72 212.928 218.333 212.383 218.594C211.838 218.854 207.643 222.812 207.524 224.219C207.406 225.625 206.734 226.905 206.734 227.418C206.734 227.932 207.627 227.544 208.52 226.905C209.412 226.265 210.1 224.092 210.439 223.705C210.779 223.318 213.125 223.191 213.513 223.191C213.9 223.191 214.405 225.372 214.405 225.372C214.405 225.372 214.658 228.951 215.811 229.464C216.965 229.978 221.183 229.843 221.183 229.843L222.392 224.471Z" fill="white" stroke="#263238" stroke-linecap="round" stroke-linejoin="round"/>
<path d="M221.112 219.099L203.59 230.609" stroke="#263238" stroke-width="2" stroke-linecap="round" stroke-linejoin="round"/>
<path d="M215.741 224.218L213.181 226.264C212.542 226.777 208.323 227.544 207.809 227.796C207.296 228.049 205.89 228.436 206.79 228.95C207.691 229.463 210.116 229.74 211.135 229.74C212.154 229.74 215.085 230.767 216.381 230.127L218.68 228.974" fill="white"/>
<path d="M215.741 224.218L213.181 226.264C212.542 226.777 208.323 227.544 207.809 227.796C207.296 228.049 205.89 228.436 206.79 228.95C207.691 229.463 210.116 229.74 211.135 229.74C212.154 229.74 215.085 230.767 216.381 230.127L218.68 228.974" stroke="#263238" stroke-linecap="round" stroke-linejoin="round"/>
<path d="M226.349 223.966L221.238 223.452L220.211 230.736L226.349 232.403V223.966Z" fill="#F1C8CF" stroke="#263238" stroke-linecap="round" stroke-linejoin="round"/>
<path d="M231.548 172.86C231.548 172.86 231.011 176.81 232.086 178.39C232.718 179.323 233.2 180.349 233.515 181.431C233.515 181.431 231.548 187.696 232.259 188.02C233.13 188.305 234.032 188.485 234.945 188.557C234.945 188.557 237.623 194.458 238.516 194.996C239.009 195.302 239.54 195.541 240.096 195.707L241.676 196.963L255.62 190.524L253.297 183.912C252.86 181.607 252.86 179.241 253.297 176.936C254.008 172.986 248.288 168.175 244.536 167.101C240.783 166.026 234.527 167.638 234.527 167.638L231.548 172.86Z" fill="white" stroke="#263238" stroke-linecap="round" stroke-linejoin="round"/>
<path d="M236.377 164.273C236.377 164.273 228.872 168.571 229.046 170.893C229.201 172.368 229.827 173.753 230.831 174.843L234.631 173.01C234.631 173.01 233.051 175.87 233.912 176.234C234.184 176.321 234.474 176.334 234.753 176.27C235.031 176.206 235.286 176.068 235.492 175.87L236.567 179.267L238.889 177.3C238.889 177.3 242.839 186.243 245.502 186.598C248.164 186.954 252.296 186.417 253.726 185.524C255.155 184.631 257.123 176.234 257.834 173.01C258.545 169.787 254.8 163.72 249.61 161.95C244.419 160.181 237.096 163.917 237.096 163.917L236.377 164.273Z" fill="#263238" stroke="#263238" stroke-linecap="round" stroke-linejoin="round"/>
<path d="M237.625 177.506C238.262 178.628 238.743 179.832 239.055 181.085C239.955 183.944 240.848 188.052 241.385 183.407C241.923 178.762 238.699 174.291 237.625 177.506Z" fill="white" stroke="#263238" stroke-linecap="round" stroke-linejoin="round"/>
<path d="M226.232 368.251C226.232 368.251 223.373 372.003 222.835 372.201C222.298 372.398 217.116 373.986 216.934 375.061C216.87 375.817 217.059 376.573 217.471 377.209C220.348 377.86 223.284 378.217 226.232 378.276C229.223 378.234 232.208 377.996 235.167 377.565C237.191 377.754 239.227 377.754 241.25 377.565C243.217 377.209 243.391 375.985 243.391 375.985L242.317 365.976L230.522 366.331L226.232 368.251Z" fill="white" stroke="#263238" stroke-linecap="round" stroke-linejoin="round"/>
<path d="M252.509 368.433L248.219 373.434C248.219 373.434 246.252 373.971 246.434 375.764C246.615 377.557 248.575 377.731 250.384 377.731C252.193 377.731 263.608 378.087 265.394 377.194C267.179 376.301 263.814 367.358 263.814 367.358L252.509 368.433Z" fill="white" stroke="#263238" stroke-linecap="round" stroke-linejoin="round"/>
<path d="M224.398 269.39C224.398 269.39 224.042 298.533 224.216 304.94C224.39 311.347 226.538 349.101 226.72 352.34C226.902 355.579 227.076 360.24 227.076 360.24C227.076 360.24 225.827 362.207 225.827 363.1V366.141C225.827 366.141 231.729 372.035 234.762 372.035C237.796 372.035 242.986 370.249 242.986 370.249C242.986 370.249 244.416 361.133 244.78 359.521C245.143 357.91 243.318 331.958 243.318 331.429C243.318 330.9 242.425 320.163 242.425 319.444C242.425 318.726 246.897 343.224 247.078 346.621C247.26 350.018 249.401 361.631 249.401 361.631C249.025 361.923 248.729 362.306 248.541 362.744C248.353 363.182 248.28 363.661 248.327 364.135C248.508 365.715 248.682 369.136 248.682 369.136C250.239 370.496 252.163 371.367 254.212 371.64C256.758 372.001 259.327 372.181 261.899 372.177C262.61 372.177 264.221 372.359 264.759 371.103C265.296 369.847 264.94 360.374 264.94 358.589C264.94 356.804 264.221 351.977 264.221 350.729C264.221 349.48 261.006 316.94 261.18 309.427C261.354 301.914 261.362 284.045 262.081 282.433C262.799 280.821 265.296 270.812 265.296 269.003C265.296 267.194 256.353 273.119 245.269 271.863C238.241 271.044 231.26 269.852 224.358 268.292L224.398 269.39Z" fill="#263238" stroke="#263238" stroke-linecap="round" stroke-linejoin="round"/>
<path d="M252.468 279.226L246.741 283.515C246.741 283.515 244.782 307.65 243.881 311.955C242.98 316.261 242.633 317.485 242.633 317.485" stroke="#757575" stroke-linecap="round" stroke-linejoin="round"/>
<path d="M210.993 240.429C210.993 240.429 204.555 237.032 203.093 236.858C201.632 236.684 197.018 237.395 197.018 237.395C197.018 237.395 193.795 235.965 192.547 237.032C191.299 238.098 192.01 238.288 192.902 238.612C193.795 238.936 198.267 239.868 198.267 239.868C198.267 239.868 197.192 243.257 197.729 243.818C198.267 244.379 201.482 244.537 201.482 244.537C202.17 244.832 202.829 245.192 203.449 245.611C204.523 246.322 207.399 246.149 207.92 245.785C208.442 245.422 209.5 244.892 209.5 244.892L210.993 240.429Z" fill="white" stroke="#263238" stroke-linecap="round" stroke-linejoin="round"/>
<path d="M238.879 198.78L241.739 194.665C241.739 194.665 249.599 189.664 252.799 188.945C255.998 188.226 261.023 193.061 261.023 193.061C261.023 193.061 258.163 193.598 251.543 195.565C244.922 197.532 238.879 198.78 238.879 198.78Z" fill="#F1C8CF" stroke="#263238" stroke-linecap="round" stroke-linejoin="round"/>
<path d="M241.741 196.995C241.741 196.995 226.905 202.525 226.731 205.574C226.557 208.624 224.227 246.33 224.227 246.33L221.367 271.357C221.367 271.357 231.021 276.184 240.493 276.54C249.965 276.895 254.8 276.722 258.197 275.473C261.594 274.225 268.917 268.324 268.917 268.324C268.917 268.324 264.967 246.156 264.967 243.47C264.967 240.784 271.042 221.303 272.291 215.583C273.361 210.463 273.977 205.257 274.131 200.028C274.131 197.35 259.651 193.061 259.651 193.061C259.651 193.061 250.139 193.598 241.741 196.995Z" fill="#F1C8CF" stroke="#263238" stroke-linecap="round" stroke-linejoin="round"/>
<path d="M262.658 219.312C260.288 224.052 256.464 231.526 253.359 235.784L262.658 219.312Z" fill="white"/>
<path d="M262.658 219.312C260.288 224.052 256.464 231.526 253.359 235.784" stroke="#263238" stroke-linecap="round" stroke-linejoin="round"/>
<path d="M264.801 214.881C264.801 214.881 264.398 215.75 263.727 217.148L264.801 214.881Z" fill="white"/>
<path d="M264.801 214.881C264.801 214.881 264.398 215.75 263.727 217.148" stroke="#263238" stroke-linecap="round" stroke-linejoin="round"/>
<path d="M255.092 236.376C253.559 238.493 252.011 240.626 251.75 240.966" stroke="#263238" stroke-linecap="round" stroke-linejoin="round"/>
<path d="M258.332 231.85C258.332 231.85 257.226 233.39 255.906 235.199" stroke="#263238" stroke-linecap="round" stroke-linejoin="round"/>
<path d="M238.344 229.883L243.882 217.551" stroke="#263238" stroke-linecap="round" stroke-linejoin="round"/>
<path d="M236.914 232.568L243.345 225.419" stroke="#263238" stroke-linecap="round" stroke-linejoin="round"/>
<path d="M236.209 199.491C236.209 199.491 226.729 202.714 226.555 203.781C226.382 204.847 223.696 241.148 223.696 241.148L210.108 239.568C209.321 240.799 208.889 242.223 208.859 243.684V247.974C208.859 247.974 210.645 248.147 216.759 250.478C222.874 252.808 229.984 254.23 231.596 254.049C233.207 253.867 236.604 248.685 236.604 245.825C236.604 242.965 241.249 216.69 241.249 216.69" fill="#F1C8CF"/>
<path d="M236.209 199.491C236.209 199.491 226.729 202.714 226.555 203.781C226.382 204.847 223.696 241.148 223.696 241.148L210.108 239.568C209.321 240.799 208.889 242.223 208.859 243.684V247.974C208.859 247.974 210.645 248.147 216.759 250.478C222.874 252.808 229.984 254.23 231.596 254.049C233.207 253.867 236.604 248.685 236.604 245.825C236.604 242.965 241.249 216.69 241.249 216.69" stroke="#263238" stroke-linecap="round" stroke-linejoin="round"/>
<path d="M224.361 246.946L223.706 241.147C223.706 241.147 222.339 245.327 222.544 247.349" stroke="#263238" stroke-linecap="round" stroke-linejoin="round"/>
<path d="M139.019 186.377L138.039 192.776L154.447 198.614V192.91L149.857 171.367L139.153 178.319L139.019 186.377Z" fill="white" stroke="#263238" stroke-linecap="round" stroke-linejoin="round"/>
<path d="M160.426 167.614C160.426 167.614 160.561 173.587 160.561 174.843C160.411 176.043 160.084 177.215 159.589 178.319C159.589 178.319 160.979 181.376 161.256 182.205C161.532 183.035 159.589 184.433 159.589 184.433C159.589 184.433 159.313 186.938 159.17 187.348C158.78 187.99 158.181 188.479 157.473 188.732C156.766 188.985 155.993 188.988 155.284 188.739C153.198 187.949 151.112 180.262 150.828 177.758C150.544 175.253 150.694 169.858 153.474 167.891C156.255 165.924 160.426 167.614 160.426 167.614Z" fill="white" stroke="#263238" stroke-linecap="round" stroke-linejoin="round"/>
<path d="M151.942 178.035C151.942 178.035 155.56 175.957 155.971 175.12C156.382 174.282 155.837 172.197 155.56 170.38C155.284 168.563 159.313 168.294 160.427 168.847C161.54 169.4 163.207 170.38 163.207 166.761C163.207 163.143 159.581 158.158 151.523 158.435C143.465 158.711 135.676 160.939 133.875 169.558C132.073 178.177 136.648 185.405 137.208 186.654C137.769 187.902 140.961 189.995 145.108 187.215C149.256 184.434 148.268 180.816 148.268 180.816C148.268 180.816 148.268 178.446 148.964 178.446C149.659 178.446 149.793 179.141 149.793 184.426C149.793 189.711 149.659 194.159 152.85 195.273C156.042 196.386 159.384 194.712 159.668 191.512C159.953 188.313 159.384 185.816 157.993 185.816C156.603 185.816 155.773 187.902 154.383 184.568C152.993 181.234 151.942 178.035 151.942 178.035Z" fill="#263238" stroke="#263238" stroke-linecap="round" stroke-linejoin="round"/>
<path d="M150 179.986C150 179.986 150.276 172.876 147.772 175.957C145.267 179.038 148.19 183.596 148.19 183.596L149.028 182.206" fill="white"/>
<path d="M150 179.986C150 179.986 150.276 172.876 147.772 175.957C145.267 179.038 148.19 183.596 148.19 183.596L149.028 182.206" stroke="#263238" stroke-linecap="round" stroke-linejoin="round"/>
<path d="M136.372 189.601L132.723 196.316C132.723 196.316 140.125 195.415 145.687 197.224C151.248 199.033 156.257 200.977 156.257 200.977L154.305 194.341C154.305 194.341 148.191 191.425 143.19 190.588C138.189 189.751 136.372 189.601 136.372 189.601Z" fill="#F1C8CF" stroke="#263238" stroke-linecap="round" stroke-linejoin="round"/>
<path d="M162.014 368.093C162.014 368.093 164.874 371.846 165.411 372.043C165.948 372.241 171.131 373.829 171.313 374.903C171.372 375.656 171.183 376.408 170.775 377.044C167.899 377.699 164.964 378.059 162.014 378.118C159.023 378.076 156.039 377.835 153.079 377.399C151.056 377.592 149.019 377.592 146.996 377.399C145.029 377.044 144.855 375.819 144.855 375.819L145.922 365.771L157.725 366.126L162.014 368.093Z" fill="white" stroke="#263238" stroke-linecap="round" stroke-linejoin="round"/>
<path d="M135.739 368.267L140.029 373.275C140.029 373.275 141.996 373.812 141.814 375.598C141.633 377.383 139.665 377.565 137.864 377.565C136.063 377.565 124.64 377.92 122.854 377.028C121.069 376.135 124.434 367.2 124.434 367.2L135.739 368.267Z" fill="white" stroke="#263238" stroke-linecap="round" stroke-linejoin="round"/>
<path d="M124.475 270.283C124.475 270.283 125.439 281.556 125.905 282.796C126.442 284.234 128.227 320.519 126.442 325.527C124.657 330.536 123.227 340.364 123.938 344.298C124.521 347.906 124.88 351.547 125.012 355.2C125.012 356.274 122.863 362.728 122.863 365.407C122.889 367.16 123.13 368.903 123.582 370.597C123.582 370.597 129.302 370.952 132.162 370.06C135.021 369.167 136.807 368.804 136.807 368.804L138.063 369.696V362.01C138.063 359.15 139.469 353.62 139.469 351.834C139.469 350.049 140.931 335.308 142.005 331.555C143.079 327.803 144.32 306.038 144.32 306.038C144.32 306.038 144.675 334.644 144.32 337.859C143.964 341.075 143.245 342.512 144.32 346.439C145.394 350.365 145.031 363.977 145.031 363.977C144.843 364.921 144.843 365.892 145.031 366.836C145.386 367.729 145.923 370.06 145.923 370.06C147.284 370.287 148.66 370.406 150.039 370.415C153.61 370.597 159.338 370.771 159.867 370.597C160.396 370.423 162.371 369.878 162.371 369.878C162.485 368.564 162.485 367.242 162.371 365.928C162.197 363.605 160.791 358.581 160.586 352.861C160.38 347.142 164.694 312.461 165.768 302.989C166.843 293.517 170.777 284.929 170.058 278.672C169.339 272.416 166.305 266.878 166.108 265.622C165.91 264.366 164.678 263.655 164.678 263.117C164.678 262.58 124.104 264.547 124.104 264.547L124.475 270.283Z" fill="#263238" stroke="#263238" stroke-linecap="round" stroke-linejoin="round"/>
<path d="M136.988 281.73L143.782 287.806L144.319 306.039" stroke="#757575" stroke-linecap="round" stroke-linejoin="round"/>
<path d="M136.932 193.606C136.932 193.606 121.495 203.086 121.495 205.006C121.495 206.925 120.389 226.415 122.056 233.367C123.723 240.319 126.796 248.795 126.796 248.795L120.871 273.341C120.871 273.341 124.726 276.106 135.715 278.871C146.704 281.636 156.255 281.193 157.48 280.909L157.211 274.921L161.659 261.712C161.659 261.712 167.355 253.093 167.773 250.312C168.192 247.531 167.639 243.202 167.355 240.832C167.07 238.462 165.135 229.156 164.44 226.794C163.744 224.432 163.326 207.47 161.659 205.527C159.636 203.452 157.398 201.598 154.983 199.997C153.877 199.302 144.279 192.35 136.497 193.321" fill="#F1C8CF"/>
<path d="M136.932 193.606C136.932 193.606 121.495 203.086 121.495 205.006C121.495 206.925 120.389 226.415 122.056 233.367C123.723 240.319 126.796 248.795 126.796 248.795L120.871 273.341C120.871 273.341 124.726 276.106 135.715 278.871C146.704 281.636 156.255 281.193 157.48 280.909L157.211 274.921L161.659 261.712C161.659 261.712 167.355 253.093 167.773 250.312C168.192 247.531 167.639 243.202 167.355 240.832C167.07 238.462 165.135 229.156 164.44 226.794C163.744 224.432 163.326 207.47 161.659 205.527C159.636 203.452 157.398 201.598 154.983 199.997C153.877 199.302 144.279 192.35 136.497 193.321" stroke="#263238" stroke-linecap="round" stroke-linejoin="round"/>
<path d="M140.793 239.654C141.346 240.207 141.891 240.713 142.42 241.163" stroke="#263238" stroke-linecap="round" stroke-linejoin="round"/>
<path d="M129.75 225.537C132.755 230.088 136.076 234.423 139.688 238.509" stroke="#263238" stroke-linecap="round" stroke-linejoin="round"/>
<path d="M142.645 245.556C143.792 245.986 145.006 246.215 146.231 246.235" stroke="#263238" stroke-linecap="round" stroke-linejoin="round"/>
<path d="M133.977 239.899C135.602 241.458 137.399 242.828 139.333 243.984" stroke="#263238" stroke-linecap="round" stroke-linejoin="round"/>
<path d="M161.531 261.175C159.571 264.766 156.984 267.976 153.892 270.655C148.741 275.103 147.074 276.777 147.074 276.777C147.074 276.777 155.835 277.054 156.665 278.997L157.502 280.941L161.531 261.175Z" fill="#F1C8CF" stroke="#263238" stroke-linecap="round" stroke-linejoin="round"/>
<path d="M162.371 271.46L166.677 279.518C166.677 279.518 169.6 275.489 168.351 272.013C167.103 268.537 166.677 267.423 166.677 267.423L162.371 271.46Z" stroke="#263238" stroke-linecap="round" stroke-linejoin="round"/>
<path d="M148.332 219.328C148.332 219.328 150.971 251.718 153.475 257.698C155.979 263.678 162.094 272.85 162.094 272.85C162.094 272.85 165.57 271.879 166.676 270.48C167.782 269.082 168.066 266.033 168.066 266.033C168.066 266.033 167.371 253.938 167.371 251.291C167.371 248.645 164.875 233.911 164.875 231.968C164.875 230.024 165.293 210.14 164.314 207.478C163.334 204.815 155.837 202.611 155.837 202.611" fill="#F1C8CF"/>
<path d="M148.332 219.328C148.332 219.328 150.971 251.718 153.475 257.698C155.979 263.678 162.094 272.85 162.094 272.85C162.094 272.85 165.57 271.879 166.676 270.48C167.782 269.082 168.066 266.033 168.066 266.033C168.066 266.033 167.371 253.938 167.371 251.291C167.371 248.645 164.875 233.911 164.875 231.968C164.875 230.024 165.293 210.14 164.314 207.478C163.334 204.815 155.837 202.611 155.837 202.611" stroke="#263238" stroke-linecap="round" stroke-linejoin="round"/>
</svg>
