<svg width="3015" height="984" viewBox="0 0 3015 984" fill="none" xmlns="http://www.w3.org/2000/svg">
<path d="M799.958 314.523C799.958 289.199 821.426 270.488 857.206 270.488C894.085 270.488 924.366 288.657 938.678 323.337L1012.44 283.142C987.654 224.253 933.164 190.115 861.062 190.115C779.59 190.115 710.788 242.964 710.788 320.022C710.788 353.06 724 380.584 743.81 399.837C766.936 422.962 802.715 438.374 848.95 452.128C911.696 470.854 930.407 482.409 930.407 507.734C930.407 534.158 903.44 553.411 864.903 553.411C821.426 553.411 787.304 530.843 770.792 493.422L693.719 533.058C719.043 594.705 780.69 634.325 862.162 634.325C963.987 634.325 1020.13 577.094 1020.13 501.12C1020.13 428.461 965.087 394.896 869.318 367.372C823.083 354.16 799.958 341.49 799.958 314.523Z" fill="#424242"/>
<path d="M1250.76 464.798V627.727H1336.09V444.972C1336.09 384.425 1302.51 328.277 1228.19 328.277C1212.78 328.277 1172.05 333.234 1147.28 368.472H1146.74V179.66H1060.87V627.727H1146.74V463.698C1146.74 435.616 1162.69 407.55 1199.57 407.55C1234.81 407.55 1250.76 432.875 1250.76 464.798Z" fill="#424242"/>
<path d="M1381.22 231.408C1381.22 260.574 1405.43 284.241 1434.05 284.241C1464.33 284.241 1488 260.574 1488 231.408C1488 201.685 1464.33 178.018 1434.05 178.018C1405.43 178.018 1381.22 201.685 1381.22 231.408ZM1391.67 627.726V333.791H1478.09V627.726H1391.67Z" fill="#424242"/>
<path d="M1622.31 488.464H1624.51L1728.53 627.726H1836.97L1715.32 469.196L1833.67 333.791H1724.13L1622.31 449.385V179.117H1536.44V627.726H1622.31V488.464Z" fill="#424242"/>
<path d="M2077.51 539.098C2077.51 485.707 2034.58 458.183 1964.12 443.329C1934.95 437.273 1925.58 427.918 1925.58 416.347C1925.58 404.792 1938.25 394.895 1956.42 394.895C1983.39 394.895 1999.9 405.892 2009.81 422.961L2072.01 386.082C2053.85 351.402 2014.77 326.635 1958.62 326.635C1899.17 326.635 1845.78 363.514 1845.78 419.662C1845.78 478.009 1895.86 502.776 1950.36 514.889C1991.08 523.686 1997.14 533.599 1997.14 543.512C1997.14 554.509 1983.39 564.98 1961.36 564.98C1928.9 564.98 1905.77 550.11 1895.32 529.2L1832.01 566.622C1853.48 607.358 1891.46 634.324 1960.26 634.324C2034.02 634.324 2077.51 594.146 2077.51 539.098Z" fill="#424242"/>
<path d="M2307.04 464.798V627.727H2392.37V444.972C2392.37 384.425 2358.78 328.277 2284.47 328.277C2269.06 328.277 2228.32 333.234 2203.55 368.472H2203.01V179.66H2117.14V627.727H2203.01V463.698C2203.01 435.616 2218.97 407.55 2255.84 407.55C2291.08 407.55 2307.04 432.875 2307.04 464.798Z" fill="#424242"/>
<path d="M2539.32 596.345L2467.22 772.487H2559.13L2737.49 333.791H2648.86L2583.35 501.677L2510.14 333.791H2415.47L2539.32 596.345Z" fill="#424242"/>
<path d="M2845.9 633.226C2877.84 633.226 2911.96 622.229 2933.97 590.848L2935.09 591.406V627.727H3014.35V445.53C3014.35 366.272 2961.5 327.178 2886.64 327.178C2820.04 327.178 2775.46 353.602 2751.78 397.096L2817.28 436.174C2831.59 410.308 2851.96 396.538 2882.78 396.538C2915.26 396.538 2930.13 414.149 2930.13 432.875C2930.13 444.972 2922.98 454.343 2907.01 454.343H2877.84C2818.38 454.343 2746.84 471.954 2746.84 544.613V545.713C2746.84 600.203 2793.07 633.226 2845.9 633.226ZM2870.69 570.48C2850.32 570.48 2833.25 561.666 2833.25 540.756C2833.25 517.631 2854.72 507.176 2877.84 507.176H2929.58V513.79C2929.58 544.613 2908.67 570.48 2870.69 570.48Z" fill="#424242"/>
<path d="M769.921 710.675C769.921 706.101 773.794 702.722 780.249 702.722C786.911 702.722 792.377 706.005 794.959 712.268L808.283 705.017C803.804 694.387 793.971 688.219 780.95 688.219C766.24 688.219 753.824 697.765 753.824 711.679C753.824 717.639 756.199 722.596 759.785 726.086C763.961 730.262 770.415 733.035 778.766 735.521C790.098 738.9 793.477 740.988 793.477 745.562C793.477 750.327 788.6 753.802 781.651 753.802C773.794 753.802 767.626 749.737 764.646 742.98L750.732 750.136C755.306 761.26 766.447 768.416 781.141 768.416C799.533 768.416 809.669 758.073 809.669 744.367C809.669 731.25 799.724 725.194 782.432 720.221C774.097 717.831 769.921 715.552 769.921 710.675Z" fill="#424242"/>
<path d="M909.046 715.838H909.141V767.221H925.047V689.414H903.675L882.016 741.577L859.958 689.414H839.176V767.221H854.986V716.237H855.081L876.645 767.221H887.371L909.046 715.838Z" fill="#424242"/>
<path d="M966.675 767.221L972.444 751.522H1006.92L1012.78 767.221H1029.37L999.57 689.414H980.19L950.482 767.221H966.675ZM989.736 705.017L1001.45 736.621H978.006L989.736 705.017Z" fill="#424242"/>
<path d="M1114.64 767.221L1097.05 736.812C1107.58 733.035 1113.05 725.194 1113.05 714.053C1113.05 697.558 1100.63 689.414 1085.53 689.414H1054.81V767.221H1070.91V739.298H1080.67L1096.76 767.221H1114.64ZM1084.33 724.397H1070.91V704.618H1084.24C1090.29 704.618 1096.76 706.897 1096.76 714.356C1096.76 721.703 1090.29 724.397 1084.33 724.397Z" fill="#424242"/>
<path d="M1160.35 767.221H1176.35V705.017H1199.7V689.414H1137V705.017H1160.35V767.221Z" fill="#424242"/>
<path d="M1280.8 710.675C1280.8 706.101 1284.67 702.722 1291.12 702.722C1297.79 702.722 1303.25 706.005 1305.83 712.268L1319.16 705.017C1314.68 694.387 1304.85 688.219 1291.82 688.219C1277.11 688.219 1264.7 697.765 1264.7 711.679C1264.7 717.639 1267.07 722.596 1270.66 726.086C1274.84 730.262 1281.29 733.035 1289.64 735.521C1300.97 738.9 1304.35 740.988 1304.35 745.562C1304.35 750.327 1299.47 753.802 1292.53 753.802C1284.67 753.802 1278.5 749.737 1275.52 742.98L1261.61 750.136C1266.18 761.26 1277.32 768.416 1292.02 768.416C1310.41 768.416 1320.54 758.073 1320.54 744.367C1320.54 731.25 1310.6 725.194 1293.31 720.221C1284.97 717.831 1280.8 715.552 1280.8 710.675Z" fill="#424242"/>
<path d="M1345.29 728.365C1345.29 751.028 1362.67 768.321 1385.34 768.321C1400.64 768.321 1415.84 759.874 1421.21 745.163L1406.41 738.31C1403.03 746.757 1395.27 752.718 1385.53 752.718C1371.73 752.718 1361.99 741.689 1361.99 728.174C1361.99 714.85 1372.01 703.917 1385.53 703.917C1395.27 703.917 1402.92 709.384 1406.2 717.926L1420.91 711.169C1415.65 696.57 1400.94 688.219 1385.64 688.219C1363.37 688.219 1345.29 705.909 1345.29 728.365Z" fill="#424242"/>
<path d="M1465.32 735.712H1497.93V767.221H1514.03V689.414H1497.93V720.126H1465.32V689.414H1449.22V767.221H1465.32V735.712Z" fill="#424242"/>
<path d="M1543.83 728.365C1543.83 750.821 1561.71 768.416 1584.07 768.416C1606.43 768.416 1624.62 750.63 1624.62 727.967C1624.62 705.607 1606.83 688.219 1584.47 688.219C1562.11 688.219 1543.83 706.005 1543.83 728.365ZM1560.33 728.27C1560.33 714.85 1570.86 703.822 1584.28 703.822C1597.7 703.822 1608.22 714.85 1608.22 728.27C1608.22 741.689 1597.7 752.813 1584.28 752.813C1570.86 752.813 1560.33 741.689 1560.33 728.27Z" fill="#424242"/>
<path d="M1649.66 728.365C1649.66 750.821 1667.54 768.416 1689.9 768.416C1712.26 768.416 1730.45 750.63 1730.45 727.967C1730.45 705.607 1712.66 688.219 1690.3 688.219C1667.94 688.219 1649.66 706.005 1649.66 728.365ZM1666.16 728.27C1666.16 714.85 1676.69 703.822 1690.11 703.822C1703.53 703.822 1714.05 714.85 1714.05 728.27C1714.05 741.689 1703.53 752.813 1690.11 752.813C1676.69 752.813 1666.16 741.689 1666.16 728.27Z" fill="#424242"/>
<path d="M1760.26 689.414V767.221H1809.55V751.921H1776.26V689.414H1760.26Z" fill="#424242"/>
<path d="M1890.25 710.675C1890.25 706.101 1894.12 702.722 1900.57 702.722C1907.24 702.722 1912.7 706.005 1915.29 712.268L1928.61 705.017C1924.13 694.387 1914.3 688.219 1901.28 688.219C1886.57 688.219 1874.15 697.765 1874.15 711.679C1874.15 717.639 1876.53 722.596 1880.11 726.086C1884.29 730.262 1890.74 733.035 1899.09 735.521C1910.42 738.9 1913.8 740.988 1913.8 745.562C1913.8 750.327 1908.93 753.802 1901.98 753.802C1894.12 753.802 1887.95 749.737 1884.97 742.98L1871.06 750.136C1875.63 761.26 1886.77 768.416 1901.47 768.416C1919.86 768.416 1930 758.073 1930 744.367C1930 731.25 1920.05 725.194 1902.76 720.221C1894.42 717.831 1890.25 715.552 1890.25 710.675Z" fill="#424242"/>
<path d="M1980.38 767.221H1996.48V735.712L2024.99 689.414H2006.61L1988.43 720.524L1970.43 689.414H1951.85L1980.38 736.414V767.221Z" fill="#424242"/>
<path d="M2063.85 710.675C2063.85 706.101 2067.73 702.722 2074.18 702.722C2080.84 702.722 2086.31 706.005 2088.89 712.268L2102.21 705.017C2097.74 694.387 2087.9 688.219 2074.88 688.219C2060.17 688.219 2047.76 697.765 2047.76 711.679C2047.76 717.639 2050.13 722.596 2053.72 726.086C2057.89 730.262 2064.35 733.035 2072.7 735.521C2084.03 738.9 2087.41 740.988 2087.41 745.562C2087.41 750.327 2082.53 753.802 2075.58 753.802C2067.73 753.802 2061.56 749.737 2058.58 742.98L2044.66 750.136C2049.24 761.26 2060.38 768.416 2075.07 768.416C2093.46 768.416 2103.6 758.073 2103.6 744.367C2103.6 731.25 2093.66 725.194 2076.36 720.221C2068.03 717.831 2063.85 715.552 2063.85 710.675Z" fill="#424242"/>
<path d="M2149.5 767.221H2165.51V705.017H2188.85V689.414H2126.16V705.017H2149.5V767.221Z" fill="#424242"/>
<path d="M2216.48 689.414V767.221H2267.65V752.208H2232.38V735.426H2263.78V720.317H2232.38V704.523H2267.46V689.414H2216.48Z" fill="#424242"/>
<path d="M2368.73 715.838H2368.83V767.221H2384.73V689.414H2363.36L2341.7 741.577L2319.64 689.414H2298.86V767.221H2314.67V716.237H2314.76L2336.33 767.221H2347.05L2368.73 715.838Z" fill="#424242"/>
<mask id="mask0_907_14494" style="mask-type:luminance" maskUnits="userSpaceOnUse" x="285" y="0" width="356" height="623">
<path d="M285.84 0.253906H640.8V622.039H285.84V0.253906Z" fill="white"/>
</mask>
<g mask="url(#mask0_907_14494)">
<path d="M611.555 0.253906C632.082 0.253906 644.354 16.4623 638.856 36.2727L480.533 604.237C475.002 624.064 465.647 624.175 459.75 604.476L288.789 36.0655C282.86 16.3986 294.797 0.253906 315.324 0.253906H422.058C442.585 0.253906 476.15 0.253906 496.677 0.253906H611.555Z" fill="#DF2B27"/>
</g>
<path d="M245.294 156.473C259.112 147.739 274.252 153.397 278.97 169.096L413.769 619.171C418.471 634.869 412.191 638.933 399.824 628.175L43.1744 318.446C30.8069 307.72 32.0182 291.751 45.8041 283.033L117.698 237.42C131.516 228.67 154.131 214.31 167.933 205.545L245.294 156.473Z" fill="#DF2B27"/>
<path d="M76.8513 445.055C82.015 433.516 94.1434 430.711 103.881 438.807L382.007 670.682C391.728 678.762 389.418 684.053 376.907 682.444L15.6991 635.635C3.18814 634.01 -2.83624 623.268 2.31157 611.729L29.1663 551.661C34.33 540.154 42.7769 521.236 47.9406 509.697L76.8513 445.055Z" fill="#DF2B27"/>
<path d="M82.8291 703.847C81.3309 694.029 88.1681 687.001 97.9856 688.18L380.127 722.159C389.945 723.338 390.726 727.817 381.737 732.104L123.613 855.715C114.672 860.002 106.162 855.444 104.616 845.658L96.7744 794.563C95.2603 784.761 92.79 768.68 91.2759 758.847L82.8291 703.847Z" fill="#DF2B27"/>
<path d="M197.515 873.725C192.128 867.797 193.578 859.987 200.718 856.385L405.754 752.855C412.926 749.238 415.396 751.947 411.316 758.848L292.646 957.7C288.55 964.569 280.756 965.35 275.37 959.421L247.32 928.503C241.949 922.59 233.103 912.868 227.732 906.939L197.515 873.725Z" fill="#DF2B27"/>
<mask id="mask1_907_14494" style="mask-type:luminance" maskUnits="userSpaceOnUse" x="347" y="781" width="115" height="203">
<path d="M347.039 781.16H461.279V983.71H347.039V781.16Z" fill="white"/>
</mask>
<g mask="url(#mask1_907_14494)">
<path d="M357.559 963.119C351.279 961.812 348.538 956.027 351.534 950.29L436.927 785.783C439.924 780.045 442.792 780.603 443.366 787.058L459.224 973.08C459.766 979.535 455.064 983.71 448.769 982.388L415.89 975.439C409.579 974.1 399.251 971.949 392.956 970.61L357.559 963.119Z" fill="#DF2B27"/>
</g>
<path d="M494.525 955.245C489.139 956.871 484.644 953.572 484.564 947.978L481.52 786.611C481.393 780.969 483.847 780.204 486.955 784.873L576.349 920.438C579.44 925.123 577.56 930.271 572.189 931.897L544.219 940.328C538.832 941.922 530.018 944.567 524.663 946.209L494.525 955.245Z" fill="#DF2B27"/>
<path d="M602.422 846.887C600.142 850.696 595.807 851.174 592.763 847.986L505.075 756.059C502.015 752.84 503.035 751.102 507.322 752.17L631.3 782.898C635.587 783.965 637.261 787.95 635.014 791.759L623.268 811.617C621.005 815.426 617.339 821.674 615.06 825.499L602.422 846.887Z" fill="#DF2B27"/>
<path d="M615.251 712.628C615.825 715.991 613.546 718.414 610.199 718.079L514.223 708.246C510.861 707.911 510.59 706.365 513.586 704.867L600.509 661.326C603.521 659.827 606.47 661.326 607.011 664.657L609.976 681.917C610.55 685.248 611.506 690.698 612.08 694.029L615.251 712.628Z" fill="#DF2B27"/>
<path d="M585.528 628.111C586.867 630.517 585.799 632.988 583.137 633.625L507.036 651.969C504.406 652.575 503.8 651.475 505.665 649.531L560.506 592.809C562.402 590.849 565.064 591.215 566.387 593.558L573.288 606.053C574.595 608.428 576.778 612.349 578.133 614.723L585.528 628.111Z" fill="#DF2B27"/>
</svg>
