<svg width="400" height="400" viewBox="0 0 400 400" fill="none" xmlns="http://www.w3.org/2000/svg">
<path d="M119.95 307.264C117.838 307.928 112.918 307.264 112.918 307.264C112.918 307.264 114.334 304.152 114.446 303.968C115.774 301.824 119.606 298.464 122.35 299.168C122.802 299.295 123.222 299.514 123.583 299.813C123.944 300.113 124.239 300.484 124.447 300.904C124.655 301.325 124.773 301.784 124.792 302.253C124.811 302.721 124.731 303.189 124.558 303.624C123.878 305.496 121.75 306.704 119.95 307.264Z" fill="#263238"/>
<path d="M74.1288 305.888C74.0808 305.888 73.5928 302.52 73.5848 302.296C73.5128 299.776 74.8568 294.864 77.5208 293.92C77.9672 293.776 78.4392 293.727 78.9058 293.777C79.3724 293.827 79.8231 293.975 80.2286 294.212C80.634 294.448 80.9851 294.767 81.2587 295.148C81.5324 295.53 81.7226 295.964 81.8168 296.424C82.2888 298.36 81.1768 300.544 79.9928 302.024C78.5928 303.72 74.1288 305.888 74.1288 305.888Z" fill="#263238"/>
<path d="M74.9833 342.2C76.6313 342.408 79.8953 341.48 80.8073 341.208C80.9593 342.616 81.1353 344 81.3833 345.36C81.4953 345.944 81.5753 346.552 81.7193 347.104C81.8633 347.656 81.9913 348.224 82.1193 348.776C82.4313 349.904 82.7113 350.952 83.0313 351.976C83.1833 352.512 83.3433 353 83.5033 353.512C83.1113 352.712 82.4713 351.432 82.3993 351.32C81.1833 349.464 77.7513 346.592 75.3593 347.248C74.9652 347.367 74.6005 347.568 74.2889 347.837C73.9773 348.106 73.7259 348.438 73.5508 348.811C73.3758 349.184 73.2811 349.589 73.273 350.001C73.2648 350.412 73.3433 350.821 73.5033 351.2C74.1353 352.8 76.0393 353.856 77.6313 354.312C79.3833 354.816 83.2313 354.264 83.7113 354.192C84.1113 355.44 84.5113 356.656 84.8953 357.784C85.1513 358.528 85.3993 359.224 85.6393 359.904H87.2393C86.9193 359.104 86.5913 358.216 86.2473 357.288C85.9033 356.36 85.4953 355.2 85.1113 354.088C85.5433 353.904 88.8873 352.488 90.2313 351.184C91.2959 351.845 92.3992 352.441 93.5353 352.968C93.1673 354.232 92.8313 355.464 92.5353 356.616C92.2393 357.768 91.9673 358.864 91.7353 359.904H93.3353C93.5353 358.968 93.7513 358.008 93.9913 356.968C94.2313 355.928 94.5193 354.808 94.7913 353.672C95.2633 353.76 99.0953 354.472 100.863 354.04C102.463 353.648 104.415 352.696 105.103 351.088C105.275 350.717 105.367 350.315 105.374 349.906C105.38 349.497 105.302 349.092 105.143 348.715C104.984 348.339 104.748 348 104.451 347.72C104.153 347.439 103.801 347.224 103.415 347.088C101.015 346.344 97.5033 349.072 96.2153 350.88C96.1353 351 95.3193 352.48 94.9193 353.232C95.0953 352.544 95.2793 351.864 95.4793 351.152C95.7593 350.128 96.0873 349.048 96.4073 348.008L96.9593 346.408C97.1353 345.848 97.3753 345.344 97.5833 344.808C97.9033 344.008 98.2713 343.208 98.6393 342.408C99.6633 342.752 102.695 343.728 104.295 343.592C105.895 343.456 108.007 342.792 108.935 341.32C109.167 340.978 109.323 340.592 109.395 340.185C109.467 339.779 109.453 339.362 109.354 338.961C109.254 338.561 109.071 338.185 108.817 337.86C108.563 337.535 108.244 337.266 107.879 337.072C105.647 335.976 101.735 338.144 100.191 339.736C100.135 339.784 99.8473 340.152 99.5033 340.6C99.8873 339.8 100.303 339.064 100.679 338.304C101.847 336.144 103.079 333.984 104.359 331.808L105.159 330.448C106.023 330.744 109.303 331.824 110.975 331.68C112.647 331.536 114.687 330.88 115.615 329.408C115.846 329.067 116.003 328.681 116.075 328.275C116.147 327.869 116.133 327.453 116.033 327.053C115.933 326.653 115.751 326.278 115.497 325.954C115.243 325.629 114.923 325.361 114.559 325.168C112.327 324.072 108.415 326.232 106.871 327.824C106.815 327.88 106.463 328.328 106.071 328.824C106.735 327.632 107.383 326.424 107.991 325.232C109.041 323.162 109.953 321.024 110.719 318.832C111.023 318.944 114.839 320.296 116.695 320.128C118.351 319.984 120.407 319.328 121.343 317.856C121.574 317.515 121.73 317.128 121.802 316.722C121.873 316.316 121.858 315.899 121.758 315.499C121.657 315.099 121.474 314.724 121.219 314.4C120.964 314.076 120.644 313.809 120.279 313.616C118.055 312.52 114.135 314.68 112.591 316.272C112.479 316.384 111.239 317.992 110.815 318.584V318.512C111.52 316.347 112.026 314.122 112.327 311.864C112.613 309.855 112.779 307.83 112.823 305.8C112.887 303.912 112.823 302.192 112.767 300.664C112.727 299.864 112.671 299.064 112.615 298.376H112.655C112.655 298.376 113.695 295.552 113.735 295.368C114.223 293.208 113.895 288.744 111.759 287.472C111.399 287.273 111 287.152 110.589 287.116C110.179 287.081 109.765 287.133 109.376 287.268C108.987 287.403 108.63 287.618 108.329 287.9C108.029 288.182 107.791 288.524 107.631 288.904C106.895 290.504 107.479 292.568 108.263 294.032C109.047 295.496 111.807 297.712 112.495 298.248C112.543 298.984 112.583 299.768 112.607 300.648C112.607 302.176 112.655 303.896 112.551 305.776C112.551 306.272 112.479 306.808 112.439 307.328C112.319 306.44 112.143 305.216 112.111 305.104C111.551 302.96 109.199 299.144 106.727 299.008C106.312 298.995 105.898 299.071 105.514 299.229C105.13 299.388 104.784 299.627 104.499 299.929C104.214 300.232 103.996 300.591 103.86 300.984C103.725 301.377 103.674 301.794 103.711 302.208C103.791 303.96 105.271 305.536 106.639 306.472C108.007 307.408 111.599 308.128 112.375 308.264C112.271 309.416 112.135 310.6 111.927 311.824C111.592 314.049 111.056 316.239 110.327 318.368H110.191C110.191 317.568 110.119 315.784 110.103 315.64C109.775 313.44 107.863 309.392 105.415 308.984C105.007 308.928 104.591 308.958 104.195 309.073C103.799 309.188 103.432 309.385 103.117 309.652C102.802 309.918 102.547 310.248 102.369 310.62C102.19 310.991 102.091 311.396 102.079 311.808C101.959 313.56 103.263 315.28 104.479 316.368C105.927 317.608 109.967 318.768 110.119 318.824C109.327 320.917 108.4 322.956 107.343 324.928C106.543 326.392 105.743 327.848 104.863 329.296C104.863 328.712 104.791 326.408 104.767 326.24C104.447 324.048 102.535 320 100.087 319.592C99.6841 319.545 99.2753 319.581 98.8866 319.699C98.498 319.816 98.138 320.013 97.8292 320.277C97.5204 320.541 97.2695 320.866 97.0922 321.231C96.915 321.596 96.8153 321.995 96.7993 322.4C96.6873 324.144 97.9833 325.872 99.2393 326.952C100.647 328.168 104.519 329.304 104.839 329.4C104.447 330.056 104.039 330.72 103.655 331.376C102.359 333.52 101.047 335.656 99.8233 337.816C99.3993 338.56 99.0233 339.312 98.6073 340.064C98.6073 339.184 98.5433 337.584 98.5193 337.448C98.1993 335.256 96.2873 331.208 93.8393 330.792C93.4305 330.736 93.0143 330.766 92.6179 330.881C92.2215 330.996 91.8537 331.193 91.5384 331.46C91.2231 331.726 90.9673 332.056 90.7876 332.427C90.6079 332.799 90.5083 333.204 90.4953 333.616C90.3833 335.368 91.6793 337.088 92.8953 338.176C94.1113 339.264 97.3833 340.28 98.2953 340.576C97.6473 341.832 97.0313 343.088 96.4873 344.352C96.2553 344.904 95.9913 345.456 95.8073 346C95.6233 346.544 95.4153 347.08 95.2153 347.6C94.8553 348.712 94.5113 349.744 94.1993 350.8C94.0393 351.328 93.9033 351.824 93.7513 352.344C93.8713 351.448 94.0393 350.032 94.0393 349.904C94.0393 347.68 92.7753 343.392 90.4153 342.616C90.0204 342.498 89.605 342.465 89.1962 342.518C88.7874 342.571 88.3944 342.71 88.0427 342.925C87.691 343.14 87.3886 343.426 87.1551 343.766C86.9215 344.106 86.7622 344.491 86.6873 344.896C86.641 345.109 86.6142 345.326 86.6073 345.544C85.5383 347.177 84.9023 349.054 84.7593 351C84.7593 351.136 84.8873 352.824 84.9753 353.68C84.7433 353.008 84.5193 352.336 84.2953 351.632C83.9593 350.624 83.6473 349.544 83.3353 348.496L82.9033 346.84C82.7433 346.28 82.6553 345.72 82.5353 345.16C82.3673 344.36 82.2313 343.456 82.1033 342.592C83.1513 342.32 86.2233 341.456 87.4793 340.464C88.7353 339.472 90.1353 337.76 90.0953 336.008C90.0992 335.598 90.0172 335.192 89.8544 334.815C89.6916 334.439 89.4517 334.101 89.1502 333.822C88.8487 333.544 88.4923 333.332 88.1039 333.2C87.7156 333.069 87.3039 333.019 86.8953 333.056C84.4313 333.36 82.3593 337.328 81.9433 339.512C81.9433 339.584 81.8953 340.048 81.8553 340.608C81.7513 339.76 81.6473 338.912 81.5673 338.048C81.3513 335.6 81.2073 333.104 81.0553 330.6C81.0553 330.08 80.9833 329.552 80.9513 329C81.8313 328.776 85.1673 327.872 86.4793 326.824C87.7913 325.776 89.1433 324.12 89.1033 322.368C89.106 321.959 89.0231 321.553 88.8599 321.177C88.6967 320.801 88.4568 320.463 88.1556 320.185C87.8544 319.907 87.4985 319.696 87.1106 319.563C86.7228 319.431 86.3116 319.381 85.9033 319.416C83.4393 319.728 81.3673 323.696 80.9513 325.872C80.9513 325.952 80.8953 326.512 80.8473 327.144C80.7433 325.784 80.6233 324.424 80.4633 323.088C80.1921 320.788 79.7699 318.509 79.1993 316.264C79.5113 316.184 83.4393 315.2 84.8953 314.04C86.1913 313.008 87.5593 311.336 87.5193 309.584C87.522 309.175 87.4391 308.769 87.2759 308.393C87.1127 308.017 86.8728 307.679 86.5716 307.401C86.2704 307.123 85.9145 306.912 85.5266 306.779C85.1388 306.647 84.7276 306.597 84.3193 306.632C81.8553 306.944 79.7833 310.912 79.3673 313.088C79.3673 313.248 79.1913 315.272 79.1593 316C79.1631 315.974 79.1631 315.947 79.1593 315.92C78.5549 313.719 77.7516 311.577 76.7593 309.52C75.8839 307.687 74.9036 305.905 73.8233 304.184C72.8313 302.584 71.8313 301.168 70.9353 299.928C70.4473 299.256 69.9913 298.656 69.5513 298.104H69.5993C69.5993 298.104 68.9033 295.184 68.7993 295.008C67.9993 292.936 65.2793 289.408 62.7993 289.512C62.388 289.545 61.988 289.663 61.6253 289.86C61.2627 290.057 60.9454 290.328 60.6943 290.655C60.4431 290.983 60.2635 291.359 60.1672 291.76C60.0709 292.162 60.0601 292.579 60.1353 292.984C60.3993 294.712 62.0393 296.12 63.4953 296.912C64.9513 297.704 68.4873 298.024 69.3513 298.088C69.7993 298.68 70.2633 299.312 70.7593 300.024C71.6233 301.28 72.5913 302.704 73.5433 304.32C73.7913 304.752 74.0473 305.232 74.3033 305.688C73.7113 305.008 72.8953 304.088 72.7993 304.008C71.1513 302.528 67.0873 300.64 64.9513 301.896C64.5991 302.112 64.2961 302.399 64.062 302.739C63.8279 303.079 63.668 303.464 63.5925 303.87C63.5171 304.276 63.5278 304.693 63.6241 305.095C63.7204 305.496 63.9 305.873 64.1513 306.2C65.1833 307.616 67.2873 308.112 68.9513 308.144C70.6153 308.176 73.9993 306.784 74.7273 306.48C75.2793 307.496 75.8153 308.552 76.3273 309.68C77.2638 311.742 78.0135 313.884 78.5673 316.08L78.4393 316.136C77.9673 315.448 76.9513 314.016 76.8393 313.912C75.3593 312.256 71.5353 309.912 69.2633 310.944C68.8919 311.124 68.5623 311.379 68.2958 311.694C68.0294 312.009 67.832 312.376 67.7166 312.772C67.6012 313.168 67.5703 313.584 67.6259 313.992C67.6815 314.401 67.8224 314.794 68.0393 315.144C68.9033 316.664 70.9433 317.392 72.5833 317.6C74.4793 317.84 78.4873 316.584 78.6393 316.536C79.1473 318.732 79.5107 320.958 79.7273 323.2C79.8873 324.856 79.9833 326.528 80.0633 328.216C79.7513 327.72 78.4153 325.816 78.3033 325.72C76.8233 324.064 72.9993 321.72 70.7273 322.752C70.3559 322.932 70.0263 323.187 69.7598 323.502C69.4934 323.817 69.296 324.184 69.1806 324.58C69.0652 324.976 69.0343 325.392 69.0899 325.8C69.1455 326.209 69.2864 326.602 69.5033 326.952C70.3673 328.472 72.4073 329.2 74.0473 329.408C75.8953 329.648 79.7513 328.456 80.0713 328.352C80.0713 329.152 80.1513 329.88 80.1753 330.648C80.2793 333.152 80.3673 335.664 80.5273 338.136C80.5833 339 80.6713 339.84 80.7593 340.688C80.2633 339.96 79.3353 338.656 79.2393 338.552C77.7593 336.896 73.9353 334.552 71.6633 335.592C71.2913 335.77 70.9608 336.024 70.6937 336.338C70.4266 336.652 70.2288 337.019 70.1133 337.414C69.9977 337.81 69.967 338.226 70.0232 338.634C70.0794 339.043 70.2212 339.435 70.4393 339.784C71.3033 341.264 73.3433 341.992 74.9833 342.2Z" fill="#263238"/>
<path d="M239.728 104.624C237.594 103.504 235.6 101.478 233.744 98.5442C231.815 95.4248 230.839 91.8103 230.936 88.1442C230.936 84.2829 231.965 81.3842 234.024 79.4482C236.082 77.5122 239.106 76.0456 243.096 75.0482L257.68 71.5202C263.92 69.9202 267.037 66.9282 267.032 62.5442C267.032 60.1762 265.88 58.1176 263.576 56.3682C261.272 54.6189 257.312 53.7469 251.696 53.7522C246.827 53.7201 241.978 54.38 237.296 55.7122C233.485 56.7313 229.834 58.274 226.448 60.2962C224.31 58.6615 222.475 56.6662 221.024 54.4002C219.474 51.9046 218.692 49.0086 218.776 46.0722C218.736 43.0109 219.731 40.0259 221.6 37.6002C223.67 35.0134 226.331 32.9612 229.36 31.6162C233.109 29.9245 237.075 28.7588 241.144 28.1522C246.124 27.3741 251.159 26.9996 256.2 27.0322C270.904 27.0109 282.037 30.2669 289.6 36.8002C297.162 43.3336 300.933 51.9069 300.912 62.5202C300.912 82.4722 286.821 95.2536 258.64 100.864L239.728 104.624ZM233.552 129.128C233.552 124.019 235.152 119.811 238.352 116.504C241.552 113.198 245.949 111.544 251.544 111.544C257.149 111.544 261.544 113.198 264.728 116.504C267.912 119.811 269.512 124.019 269.528 129.128C269.528 134.248 267.928 138.456 264.728 141.752C261.528 145.048 257.133 146.702 251.544 146.712C245.928 146.712 241.53 145.059 238.352 141.752C235.173 138.446 233.573 134.238 233.552 129.128Z" fill="#263238"/>
<path d="M251.513 147.112C245.817 147.112 241.281 145.4 238.033 142.032C234.785 138.664 233.153 134.328 233.153 129.128C233.153 123.928 234.793 119.592 238.033 116.224C241.273 112.856 245.817 111.144 251.513 111.144C257.209 111.144 261.745 112.856 264.985 116.224C268.225 119.592 269.865 123.936 269.865 129.128C269.865 134.32 268.225 138.672 264.985 142.032C261.745 145.392 257.209 147.112 251.513 147.112ZM251.513 111.912C246.041 111.912 241.697 113.512 238.609 116.712C235.521 119.912 233.953 124.08 233.953 129.056C233.953 134.032 235.553 138.192 238.609 141.408C241.665 144.624 246.041 146.208 251.513 146.208C256.985 146.208 261.321 144.608 264.409 141.408C267.497 138.208 269.065 134.04 269.065 129.056C269.065 124.072 267.505 120 264.409 116.8C261.313 113.6 256.985 111.944 251.513 111.944V111.912ZM239.729 104.992C239.662 104.991 239.597 104.975 239.537 104.944C237.369 103.8 235.305 101.744 233.401 98.7279C231.447 95.5465 230.452 91.8686 230.537 88.1358C230.537 84.1758 231.617 81.1518 233.737 79.1438C235.857 77.1358 238.953 75.6638 242.993 74.6558L257.601 71.1278C263.681 69.5279 266.641 66.7358 266.641 62.5438C266.641 60.3198 265.537 58.3438 263.345 56.6878C261.153 55.0318 257.201 54.1518 251.705 54.1518C246.875 54.1226 242.064 54.7771 237.417 56.0958C233.645 57.109 230.03 58.6353 226.673 60.6318C226.604 60.6769 226.524 60.701 226.441 60.701C226.359 60.701 226.278 60.6769 226.209 60.6318C224.041 58.9664 222.176 56.9393 220.697 54.6399C219.11 52.0731 218.311 49.0965 218.401 46.0798C218.351 42.9205 219.368 39.8365 221.289 37.3278C223.392 34.6845 226.096 32.5832 229.177 31.1998C232.961 29.4938 236.961 28.3174 241.065 27.7038C246.067 26.9233 251.123 26.5461 256.185 26.5758C270.929 26.5758 282.249 29.9118 289.841 36.4958C297.433 43.0798 301.289 51.8478 301.289 62.5198C301.289 82.5919 286.961 95.6238 258.697 101.256L239.801 104.992H239.729ZM251.729 53.3198C257.401 53.3198 261.481 54.2238 263.849 56.0158C266.217 57.8078 267.465 60.0158 267.465 62.5118C267.465 67.0558 264.225 70.2078 257.817 71.8718L243.201 75.4638C239.297 76.4398 236.297 77.8638 234.305 79.7598C232.313 81.6558 231.345 84.4318 231.345 88.1678C231.259 91.7511 232.212 95.2828 234.089 98.3358C235.873 101.136 237.793 103.136 239.801 104.208L258.553 100.496C286.385 94.9519 300.497 82.1838 300.497 62.5438C300.497 52.1438 296.737 43.5598 289.297 37.1198C281.857 30.6798 270.713 27.3998 256.169 27.3998C251.15 27.3674 246.136 27.742 241.177 28.5198C237.146 29.1204 233.215 30.2725 229.497 31.9438C226.529 33.266 223.92 35.2794 221.889 37.8158C220.087 40.1885 219.14 43.1008 219.201 46.0798C219.12 48.9367 219.88 51.7545 221.385 54.1839C222.765 56.323 224.492 58.2159 226.497 59.7839C229.854 57.8231 233.456 56.3166 237.209 55.3038C241.922 53.9727 246.8 53.3155 251.697 53.3519L251.729 53.3198Z" fill="#263238"/>
<path d="M173.672 231.937L175.256 360.049H237.92L232.768 233.521L173.672 231.937Z" fill="#263238"/>
<path d="M237.918 360.449H175.254C175.148 360.449 175.046 360.407 174.971 360.332C174.896 360.257 174.854 360.155 174.854 360.049L173.254 231.937C173.257 231.829 173.3 231.727 173.374 231.649C173.413 231.61 173.459 231.581 173.51 231.561C173.561 231.542 173.615 231.534 173.67 231.537L232.766 233.137C232.867 233.141 232.964 233.182 233.036 233.253C233.109 233.324 233.152 233.419 233.158 233.521L238.318 360.001C238.321 360.054 238.313 360.107 238.294 360.157C238.274 360.207 238.244 360.252 238.206 360.289C238.173 360.335 238.13 360.373 238.08 360.401C238.03 360.429 237.975 360.445 237.918 360.449ZM175.646 359.649H237.502L232.382 233.913L174.07 232.313L175.646 359.649Z" fill="#263238"/>
<path d="M173.672 186.168L175.256 314.28H237.92L232.768 187.752L173.672 186.168Z" fill="white"/>
<path d="M237.918 314.68H175.254C175.148 314.68 175.046 314.638 174.971 314.563C174.896 314.488 174.854 314.386 174.854 314.28L173.254 186.176C173.254 186.068 173.297 185.965 173.374 185.888C173.411 185.847 173.457 185.815 173.508 185.795C173.559 185.774 173.615 185.765 173.67 185.768L232.766 187.368C232.867 187.368 232.965 187.407 233.038 187.477C233.111 187.548 233.154 187.643 233.158 187.744L238.31 314.272C238.313 314.327 238.305 314.381 238.286 314.432C238.267 314.483 238.237 314.53 238.198 314.568C238.122 314.64 238.022 314.68 237.918 314.68ZM175.646 313.88H237.502L232.382 188.144L174.07 186.544L175.646 313.88Z" fill="#263238"/>
<path d="M195.47 199.984L201.998 210.864L190.582 292.976L207.798 310.2L219.038 288.632L206.166 211.408L212.694 202.528L205.446 190.92L195.47 199.984Z" fill="#263238"/>
<path d="M207.799 310.601C207.747 310.601 207.695 310.591 207.647 310.57C207.599 310.55 207.555 310.519 207.519 310.481L190.295 293.265C190.252 293.219 190.22 293.165 190.2 293.105C190.181 293.046 190.175 292.983 190.183 292.921L201.599 210.945L195.151 200.193C195.102 200.114 195.081 200.02 195.095 199.927C195.108 199.835 195.153 199.75 195.223 199.689L205.191 190.625C205.237 190.587 205.289 190.559 205.346 190.543C205.402 190.526 205.461 190.521 205.519 190.529C205.577 190.537 205.632 190.557 205.68 190.589C205.729 190.621 205.769 190.663 205.799 190.713L213.047 202.313C213.092 202.379 213.116 202.457 213.116 202.537C213.116 202.616 213.092 202.694 213.047 202.761L206.647 211.505L219.487 288.561C219.502 288.648 219.488 288.738 219.447 288.817L208.247 310.417C208.218 310.472 208.176 310.52 208.124 310.556C208.073 310.592 208.014 310.616 207.951 310.625L207.799 310.601ZM190.999 292.841L207.687 309.529L218.615 288.561L205.767 211.473C205.751 211.366 205.777 211.257 205.839 211.169L212.239 202.505L205.383 191.545L195.999 200.065L202.399 210.657C202.445 210.737 202.465 210.829 202.455 210.921L190.999 292.841Z" fill="#263238"/>
<path d="M201.997 210.865L201.749 212.665L209.029 207.513L212.693 202.529L209.197 196.929L198.277 204.657L201.997 210.865Z" fill="#F7DEDE"/>
<path d="M201.752 213.065C201.678 213.063 201.606 213.041 201.544 213.001C201.478 212.961 201.424 212.903 201.39 212.833C201.356 212.764 201.343 212.686 201.352 212.609L201.584 210.945L197.936 204.865C197.881 204.778 197.862 204.674 197.883 204.574C197.904 204.474 197.963 204.386 198.048 204.329L208.968 196.609C209.059 196.545 209.171 196.519 209.28 196.537C209.333 196.548 209.383 196.571 209.427 196.602C209.471 196.634 209.508 196.674 209.536 196.721L213.032 202.321C213.077 202.387 213.101 202.465 213.101 202.545C213.101 202.625 213.077 202.703 213.032 202.769L209.376 207.753C209.349 207.786 209.316 207.816 209.28 207.841L202 212.993C201.927 213.042 201.841 213.067 201.752 213.065ZM198.808 204.801L202.344 210.689C202.39 210.769 202.41 210.861 202.4 210.953L202.272 211.833L208.752 207.257L212.216 202.537L209.088 197.537L198.808 204.801Z" fill="#263238"/>
<path d="M198.223 238.04L209.303 230.2L207.743 220.84L199.831 226.432L198.223 238.04Z" fill="#F7DEDE"/>
<path d="M198.223 238.4C198.149 238.402 198.077 238.382 198.015 238.344C197.949 238.304 197.896 238.245 197.862 238.176C197.828 238.107 197.814 238.029 197.823 237.952L199.423 226.344C199.431 226.29 199.449 226.237 199.478 226.191C199.507 226.144 199.546 226.103 199.591 226.072L207.495 220.472C207.55 220.433 207.614 220.409 207.681 220.402C207.749 220.395 207.817 220.405 207.879 220.432C207.941 220.459 207.995 220.501 208.037 220.554C208.079 220.607 208.107 220.67 208.119 220.736L209.679 230.096C209.69 230.17 209.682 230.245 209.654 230.314C209.625 230.384 209.579 230.444 209.519 230.488L198.455 238.4C198.379 238.422 198.299 238.422 198.223 238.4ZM200.207 226.632L198.743 237.144L208.863 229.944L207.455 221.464L200.207 226.632Z" fill="#263238"/>
<path d="M208.117 309.585L216.749 293.017L201.445 303.849L207.573 309.977L208.117 309.585Z" fill="#F7DEDE"/>
<path d="M207.573 310.4C207.465 310.4 207.361 310.357 207.285 310.28L201.165 304.152C201.122 304.111 201.089 304.061 201.068 304.006C201.047 303.95 201.039 303.891 201.045 303.832C201.05 303.775 201.067 303.719 201.096 303.669C201.126 303.619 201.165 303.577 201.213 303.544L216.517 292.72C216.587 292.664 216.675 292.634 216.765 292.634C216.855 292.634 216.942 292.664 217.013 292.72C217.079 292.778 217.124 292.857 217.14 292.945C217.156 293.032 217.142 293.122 217.101 293.2L208.477 309.768C208.445 309.825 208.401 309.874 208.349 309.912L207.805 310.296C207.742 310.357 207.66 310.394 207.573 310.4ZM202.061 303.912L207.613 309.464L207.805 309.328L215.629 294.32L202.061 303.912Z" fill="#263238"/>
<path d="M211.151 241.305L196.303 251.809L194.695 263.409L212.711 250.665L211.151 241.305Z" fill="#F7DEDE"/>
<path d="M194.693 263.808C194.62 263.81 194.548 263.79 194.485 263.752C194.417 263.712 194.363 263.653 194.328 263.581C194.294 263.51 194.282 263.431 194.293 263.352L195.893 251.752C195.909 251.644 195.966 251.546 196.053 251.48L210.901 240.984C210.956 240.944 211.021 240.918 211.088 240.909C211.156 240.901 211.225 240.91 211.289 240.936C211.352 240.961 211.408 241.003 211.451 241.056C211.493 241.109 211.522 241.173 211.533 241.24L213.085 250.6C213.101 250.674 213.094 250.751 213.065 250.821C213.037 250.891 212.988 250.951 212.925 250.992L194.909 263.736C194.845 263.78 194.77 263.805 194.693 263.808ZM196.677 252L195.197 262.552L212.261 250.48L210.845 242L196.677 252Z" fill="#263238"/>
<path d="M215.302 266.208L192.014 282.68L190.582 292.976L191.27 293.664L216.862 275.568L215.302 266.208Z" fill="#F7DEDE"/>
<path d="M191.271 294.065C191.218 294.066 191.166 294.057 191.116 294.038C191.067 294.018 191.022 293.99 190.983 293.953L190.295 293.265C190.252 293.22 190.22 293.165 190.2 293.106C190.181 293.046 190.175 292.983 190.183 292.921L191.615 282.625C191.635 282.516 191.695 282.419 191.783 282.353L215.071 265.881C215.127 265.842 215.191 265.818 215.259 265.811C215.326 265.804 215.394 265.814 215.456 265.84C215.519 265.867 215.573 265.908 215.615 265.962C215.657 266.015 215.685 266.078 215.695 266.145L217.255 275.505C217.266 275.578 217.256 275.653 217.228 275.722C217.2 275.791 217.154 275.851 217.095 275.897L191.495 293.993C191.429 294.038 191.352 294.063 191.271 294.065ZM191.007 292.841L191.311 293.145L216.423 275.385L215.015 266.905L192.383 282.905L191.007 292.841Z" fill="#263238"/>
<path d="M204.72 194.728L188.768 211.952L183.328 189.656L185.032 182.824L204.72 194.728Z" fill="white"/>
<path d="M188.797 212.353H188.693C188.623 212.335 188.56 212.299 188.509 212.248C188.459 212.197 188.423 212.134 188.405 212.065L182.973 189.769C182.957 189.706 182.957 189.64 182.973 189.577L184.677 182.745C184.693 182.685 184.722 182.629 184.762 182.582C184.802 182.535 184.852 182.498 184.909 182.473C184.965 182.445 185.026 182.431 185.089 182.431C185.151 182.431 185.213 182.445 185.269 182.473L204.925 194.401C204.976 194.431 205.02 194.473 205.054 194.523C205.087 194.573 205.108 194.629 205.117 194.689C205.124 194.747 205.119 194.807 205.101 194.864C205.083 194.921 205.053 194.973 205.013 195.017L189.061 212.241C188.989 212.308 188.895 212.348 188.797 212.353ZM183.773 189.657L189.013 211.137L204.125 194.817L185.325 183.449L183.773 189.657Z" fill="#263238"/>
<path d="M204.719 194.728L216.863 210.68L222.663 188.752L220.671 183.672L204.719 194.728Z" fill="white"/>
<path d="M216.864 211.08C216.803 211.08 216.743 211.066 216.687 211.039C216.632 211.013 216.583 210.975 216.544 210.928L204.4 194.928C204.367 194.886 204.343 194.837 204.33 194.784C204.318 194.732 204.317 194.677 204.328 194.624C204.336 194.571 204.355 194.52 204.384 194.475C204.413 194.429 204.451 194.39 204.496 194.36L220.44 183.304C220.491 183.27 220.549 183.247 220.61 183.238C220.671 183.228 220.733 183.232 220.792 183.248C220.849 183.269 220.901 183.301 220.945 183.342C220.989 183.384 221.024 183.433 221.048 183.488L223.04 188.56C223.064 188.641 223.064 188.728 223.04 188.808L217.24 210.744C217.222 210.818 217.183 210.884 217.127 210.936C217.072 210.987 217.003 211.02 216.928 211.032L216.864 211.08ZM205.296 194.824L216.688 209.792L222.248 188.8L220.488 184.32L205.296 194.824Z" fill="#263238"/>
<path d="M90.8795 182.616C90.8795 182.616 85.4395 171.544 82.7195 167.92C79.9995 164.296 77.2715 162.112 74.1915 161.568C71.1115 161.024 68.9275 161.208 66.5675 160.296C64.2075 159.384 59.4875 158.12 58.2235 156.488C56.9595 154.856 54.5915 155.944 55.6795 158.664C56.7675 161.384 60.5835 163.2 60.5835 163.2L63.6635 164.648C63.6635 164.648 53.6875 166.104 52.9595 166.648C52.2315 167.192 43.5195 167.92 43.5195 167.92C43.5195 167.92 47.3355 174.632 52.7755 177.72C58.2155 180.808 75.2795 178.264 75.2795 178.264L80.3595 188.968L90.8795 182.616Z" fill="white"/>
<path d="M80.3603 189.368H80.2403C80.1875 189.351 80.1389 189.322 80.0976 189.285C80.0563 189.248 80.0231 189.203 80.0003 189.152L75.0403 178.752C72.6403 179.088 57.7523 181.048 52.5843 178.12C47.1043 174.96 43.3363 168.392 43.2003 168.112C43.1688 168.053 43.1523 167.987 43.1523 167.92C43.1523 167.853 43.1688 167.787 43.2003 167.728C43.2315 167.669 43.2773 167.619 43.3333 167.582C43.3893 167.546 43.4537 167.524 43.5203 167.52C47.6723 167.176 52.2643 166.632 52.7603 166.328C53.3923 165.848 59.1603 164.92 62.3603 164.448L60.4723 163.56C60.3123 163.488 56.4723 161.648 55.3763 158.816C54.6803 157.072 55.2803 155.968 56.0083 155.552C56.4496 155.329 56.9574 155.276 57.4353 155.402C57.9132 155.529 58.3278 155.827 58.6003 156.24C59.5123 157.416 62.6003 158.48 64.8883 159.256C65.5923 159.496 66.2483 159.72 66.7763 159.92C68.1719 160.41 69.6282 160.706 71.1043 160.8C72.0803 160.896 73.0963 161 74.2563 161.208C77.3283 161.744 80.1123 163.816 83.0563 167.712C85.7683 171.328 91.0563 182.016 91.2563 182.472C91.3009 182.562 91.3099 182.665 91.2818 182.762C91.2536 182.858 91.1903 182.94 91.1043 182.992L80.5843 189.344C80.5127 189.37 80.4358 189.378 80.3603 189.368ZM75.2803 177.864C75.3555 177.863 75.4294 177.883 75.4932 177.923C75.5571 177.963 75.6081 178.02 75.6403 178.088L80.5283 188.392L90.4003 182.464C89.4723 180.6 84.8003 171.368 82.4003 168.16C79.6003 164.432 76.9763 162.464 74.1203 161.96C72.9843 161.76 71.9843 161.664 71.0243 161.568C69.449 161.485 67.8928 161.183 66.4003 160.672C65.8803 160.472 65.2403 160.248 64.5443 160.016C62.0483 159.16 58.9443 158.096 57.8803 156.736C57.7249 156.478 57.4809 156.285 57.1938 156.194C56.9067 156.103 56.5963 156.119 56.3203 156.24C55.8643 156.504 55.5203 157.248 56.0323 158.512C57.0483 161.064 60.6883 162.824 60.7283 162.84L63.8083 164.288C63.8864 164.326 63.9506 164.387 63.9922 164.463C64.0338 164.539 64.0506 164.626 64.0403 164.712C64.026 164.797 63.9849 164.876 63.9231 164.936C63.8613 164.996 63.7819 165.036 63.6963 165.048C58.9843 165.736 53.6963 166.648 53.1683 166.968C52.4803 167.488 46.7683 168.04 44.1763 168.264C45.2083 169.864 48.5603 174.88 52.9763 177.368C58.2403 180.352 75.0483 177.888 75.2163 177.864H75.2803Z" fill="#263238"/>
<path d="M40.0856 166.128C40.0856 166.128 37.2856 160.168 37.5176 158.88C37.7496 157.592 40.2056 158.416 41.0216 160.168C41.8376 161.92 44.6456 166.128 44.6456 166.128H40.0856Z" fill="white"/>
<path d="M44.6475 166.528H40.0875C40.0119 166.527 39.9382 166.504 39.8746 166.463C39.8111 166.422 39.7601 166.364 39.7275 166.296C39.2475 165.28 36.8795 160.152 37.1275 158.808C37.1649 158.559 37.2857 158.33 37.4703 158.158C37.6549 157.987 37.8923 157.883 38.1435 157.864C38.8314 157.877 39.5017 158.084 40.0765 158.462C40.6514 158.84 41.1074 159.374 41.3915 160C42.1915 161.712 44.9515 165.872 44.9835 165.912C45.0216 165.973 45.0429 166.043 45.0453 166.115C45.0476 166.187 45.0308 166.258 44.9967 166.322C44.9626 166.385 44.9123 166.438 44.851 166.476C44.7897 166.514 44.7195 166.534 44.6475 166.536V166.528ZM40.3435 165.728H43.9035C42.7331 163.987 41.6517 162.187 40.6635 160.336C40.4518 159.866 40.117 159.462 39.6946 159.166C39.2722 158.87 38.7777 158.694 38.2635 158.656C38.0075 158.656 37.9515 158.816 37.9275 158.952C37.7675 159.768 39.2875 163.44 40.3435 165.728Z" fill="#263238"/>
<path d="M35.1172 163.288C35.1172 163.288 39.4692 172.544 42.3732 175.08C45.2772 177.616 51.0852 177.808 51.0852 177.808C51.0852 177.808 44.1892 170.544 42.7412 167.824C41.2932 165.104 35.9972 158.568 35.1172 163.288Z" fill="white"/>
<path d="M51.0865 178.208C50.8465 178.208 45.1025 177.992 42.1265 175.384C39.1505 172.776 34.9265 163.841 34.7745 163.457C34.747 163.379 34.747 163.294 34.7745 163.216C34.9985 162.024 35.5185 161.36 36.3105 161.24C38.5665 160.896 42.0625 165.616 43.1425 167.64C44.5505 170.28 51.3585 177.456 51.4225 177.528C51.4742 177.586 51.5084 177.657 51.5211 177.734C51.5338 177.81 51.5246 177.889 51.4944 177.96C51.4642 178.031 51.4143 178.092 51.3505 178.137C51.2868 178.181 51.2119 178.205 51.1345 178.208H51.0865ZM35.5345 163.24C36.0545 164.328 40.0065 172.48 42.6385 174.784C44.6865 176.576 48.3265 177.184 50.0865 177.328C48.2785 175.392 43.5825 170.256 42.3825 168.016C41.1825 165.776 37.9745 161.784 36.3825 162.032C35.9985 162.096 35.7025 162.496 35.5345 163.24Z" fill="#263238"/>
<path d="M38.6211 164.104C38.6211 164.104 42.9731 173.36 45.8771 175.904C48.7811 178.448 54.5891 178.624 54.5891 178.624C54.5891 178.624 47.6931 171.368 46.2451 168.64C44.7971 165.912 39.5251 159.392 38.6211 164.104Z" fill="white"/>
<path d="M54.5904 179.025C54.3504 179.025 48.6144 178.809 45.6304 176.201C42.6464 173.593 38.4304 164.657 38.2784 164.281C38.251 164.2 38.251 164.113 38.2784 164.033C38.5077 162.843 39.0197 162.187 39.8144 162.065C42.0784 161.713 45.5664 166.433 46.6464 168.465C48.0544 171.105 54.8624 178.281 54.9264 178.361C54.9813 178.416 55.0183 178.487 55.0326 178.564C55.0469 178.641 55.0377 178.721 55.0064 178.793C54.9701 178.87 54.9104 178.934 54.8358 178.976C54.7611 179.017 54.6753 179.034 54.5904 179.025ZM39.0384 164.057C39.5584 165.145 43.5104 173.297 46.1424 175.601C48.1984 177.393 51.8304 178.001 53.5984 178.145C51.7824 176.209 47.0864 171.081 45.8944 168.833C44.7024 166.585 41.4784 162.617 39.8864 162.857C39.4864 162.913 39.1984 163.321 39.0384 164.057Z" fill="#263238"/>
<path d="M77.9968 173.545C77.9968 173.545 77.0848 172.089 73.9968 170.097C70.9088 168.105 54.5808 173.177 54.5808 173.177C54.5808 173.177 47.1408 163.929 46.0528 163.017C44.9648 162.105 42.9648 161.569 42.6048 163.385C42.2448 165.201 47.1408 172.985 48.4128 174.273C49.6848 175.561 54.5808 178.625 54.5808 178.625C57.5569 179.648 60.6903 180.138 63.8368 180.073C67.6918 179.795 71.5163 179.19 75.2688 178.265" fill="white"/>
<path d="M63.0711 180.488C60.1351 180.459 57.223 179.957 54.4471 179L54.3991 178.96C54.1991 178.832 49.4471 175.84 48.1671 174.552C47.0391 173.424 41.8231 165.408 42.2471 163.304C42.286 162.988 42.411 162.689 42.6086 162.439C42.8061 162.189 43.0685 161.999 43.3671 161.888C43.8911 161.776 44.4341 161.79 44.9515 161.929C45.4688 162.069 45.9458 162.329 46.3431 162.688C47.3671 163.544 53.6151 171.272 54.7591 172.696C57.3431 171.896 71.2231 167.776 74.2471 169.736C77.2711 171.696 78.3191 173.248 78.3591 173.304C78.3881 173.348 78.4079 173.398 78.4171 173.45C78.4264 173.502 78.425 173.556 78.4131 173.607C78.4011 173.659 78.3788 173.707 78.3475 173.75C78.3163 173.793 78.2767 173.829 78.2311 173.856C78.1874 173.885 78.1383 173.904 78.0868 173.914C78.0353 173.923 77.9824 173.921 77.9315 173.909C77.8805 173.897 77.8326 173.875 77.7906 173.844C77.7485 173.813 77.7133 173.773 77.6871 173.728C76.6054 172.387 75.2844 171.259 73.7911 170.4C71.3911 168.84 59.1991 172.128 54.7111 173.528C54.6346 173.552 54.5524 173.553 54.4754 173.531C54.3983 173.508 54.3299 173.462 54.2791 173.4C51.7191 170.2 46.6471 163.992 45.8071 163.296C45.5163 163.022 45.1672 162.818 44.7862 162.699C44.4051 162.58 44.002 162.549 43.6071 162.608C43.4442 162.675 43.3025 162.784 43.1969 162.925C43.0912 163.066 43.0257 163.233 43.0071 163.408C42.7031 164.912 47.3191 172.544 48.7031 173.928C49.8711 175.096 54.3031 177.928 54.7671 178.208C57.686 179.191 60.7516 179.667 63.8311 179.616C67.6626 179.354 71.4652 178.77 75.1991 177.872C75.3052 177.846 75.4171 177.864 75.5101 177.921C75.6031 177.978 75.6697 178.07 75.6951 178.176C75.7206 178.282 75.7028 178.394 75.6458 178.487C75.5888 178.58 75.4972 178.646 75.3911 178.672C71.6121 179.604 67.761 180.214 63.8791 180.496C63.5911 180.488 63.3271 180.488 63.0711 180.488Z" fill="#263238"/>
<path d="M97.2157 192.113L90.6797 180.553L74.8477 190.105L78.8637 199.913L97.2157 192.113Z" fill="white"/>
<path d="M78.8644 200.312C78.814 200.32 78.7628 200.32 78.7124 200.312C78.6151 200.271 78.5377 200.194 78.4964 200.096L74.4964 190.288C74.4618 190.199 74.4596 190.101 74.4903 190.01C74.521 189.919 74.5826 189.842 74.6644 189.792L90.4964 180.24C90.5456 180.219 90.5987 180.208 90.6524 180.208C90.7061 180.208 90.7592 180.219 90.8084 180.24C90.9116 180.268 91.0004 180.334 91.0564 180.424L97.6004 191.92C97.622 191.971 97.6331 192.025 97.6331 192.08C97.6331 192.135 97.622 192.19 97.6004 192.24C97.5826 192.294 97.5534 192.344 97.5147 192.385C97.4761 192.426 97.4289 192.459 97.3764 192.48L79.0244 200.28C78.9731 200.299 78.9191 200.31 78.8644 200.312ZM75.3444 190.272L79.0804 199.384L96.6804 191.92L90.5684 181.104L75.3444 190.272Z" fill="#263238"/>
<path d="M183.326 189.657L177.158 360.057H132.414L141.462 238.633C141.462 238.633 117.078 265.281 114.31 266.785C111.542 268.289 108.03 263.521 108.03 263.521L75.0938 198.905L94.7017 188.097L116.302 223.297L119.566 221.033L122.078 222.289C122.078 222.289 144.478 182.825 146.214 181.817C147.95 180.809 156.27 181.313 156.27 181.313L177.87 183.073L185.19 181.473L183.326 189.657Z" fill="#E88A94"/>
<path d="M177.157 360.448H132.413C132.358 360.448 132.303 360.436 132.252 360.414C132.201 360.392 132.155 360.36 132.117 360.32C132.076 360.278 132.044 360.228 132.023 360.173C132.003 360.118 131.994 360.059 131.997 360L140.957 239.728C136.701 244.368 117.029 265.728 114.485 267.112C111.453 268.768 107.837 263.912 107.685 263.728L74.733 199.088C74.687 198.994 74.6788 198.886 74.7101 198.786C74.7413 198.687 74.8097 198.603 74.901 198.552L94.509 187.744C94.5991 187.695 94.7043 187.682 94.8036 187.707C94.9029 187.733 94.9891 187.794 95.045 187.88L116.437 222.72L119.365 220.696C119.426 220.661 119.495 220.642 119.565 220.642C119.635 220.642 119.704 220.661 119.765 220.696L121.941 221.784C124.973 216.44 144.277 182.496 146.037 181.496C147.797 180.496 155.453 180.888 156.317 180.936L177.917 182.696L185.173 181.096C185.238 181.08 185.306 181.082 185.371 181.1C185.435 181.118 185.494 181.153 185.541 181.2C185.588 181.249 185.623 181.309 185.641 181.375C185.659 181.44 185.66 181.51 185.645 181.576L183.757 189.712L177.597 360.056C177.595 360.111 177.582 360.165 177.558 360.215C177.535 360.265 177.502 360.309 177.461 360.346C177.42 360.383 177.371 360.41 177.319 360.428C177.267 360.446 177.212 360.452 177.157 360.448ZM132.845 359.648H176.797L182.949 189.64C182.946 189.613 182.946 189.587 182.949 189.56L184.701 182L178.005 183.456H177.885L156.285 181.696C154.021 181.56 147.821 181.368 146.461 182.144C145.117 183.056 131.381 206.76 122.461 222.472C122.41 222.561 122.327 222.628 122.229 222.658C122.131 222.687 122.025 222.678 121.933 222.632L119.629 221.48L116.557 223.608C116.512 223.64 116.462 223.662 116.408 223.673C116.354 223.684 116.299 223.684 116.245 223.672C116.192 223.66 116.142 223.638 116.098 223.606C116.054 223.575 116.017 223.534 115.989 223.488L94.557 188.624L75.629 199.064L108.381 263.328C108.381 263.328 111.693 267.752 114.117 266.424C116.261 265.256 132.749 247.552 141.165 238.352C141.221 238.29 141.296 238.248 141.378 238.231C141.459 238.213 141.544 238.222 141.621 238.256C141.697 238.29 141.761 238.347 141.804 238.418C141.847 238.49 141.867 238.573 141.861 238.656L132.845 359.648Z" fill="#263238"/>
<path d="M141.709 234.848L143.269 219.328L131.629 248.928L141.461 238.624L141.709 234.848Z" fill="#263238"/>
<path d="M131.629 249.329C131.552 249.328 131.477 249.306 131.413 249.265C131.335 249.215 131.276 249.141 131.247 249.053C131.218 248.966 131.22 248.871 131.253 248.785L142.901 219.185C142.936 219.095 143.002 219.021 143.087 218.976C143.172 218.931 143.27 218.917 143.365 218.937C143.459 218.959 143.542 219.016 143.598 219.095C143.654 219.175 143.679 219.272 143.669 219.369L142.069 234.889L141.821 238.649C141.813 238.742 141.774 238.83 141.709 238.897L131.917 249.201C131.88 249.241 131.836 249.274 131.786 249.296C131.737 249.318 131.683 249.329 131.629 249.329ZM142.581 222.129L132.749 247.201L141.069 238.473L141.309 234.849L142.581 222.129Z" fill="#263238"/>
<path d="M140.456 224.193C140.36 224.192 140.268 224.156 140.196 224.093C140.124 224.03 140.077 223.943 140.064 223.849C139.808 222.097 138.12 198.433 138.048 197.449C138.044 197.396 138.051 197.343 138.068 197.293C138.084 197.243 138.111 197.197 138.145 197.157C138.215 197.077 138.314 197.028 138.42 197.021C138.526 197.013 138.631 197.048 138.711 197.118C138.791 197.188 138.84 197.286 138.848 197.393C138.848 197.641 140.608 222.033 140.856 223.793C140.869 223.898 140.841 224.004 140.776 224.088C140.712 224.172 140.617 224.227 140.512 224.241L140.456 224.193Z" fill="#263238"/>
<path d="M138.447 233.24C138.351 233.242 138.258 233.208 138.185 233.147C138.111 233.085 138.063 232.999 138.047 232.904L135.287 215.304C135.278 215.253 135.279 215.2 135.291 215.149C135.303 215.098 135.324 215.05 135.355 215.007C135.386 214.965 135.424 214.929 135.469 214.901C135.514 214.874 135.563 214.856 135.615 214.848C135.721 214.832 135.829 214.858 135.916 214.921C136.003 214.984 136.062 215.079 136.079 215.184L138.839 232.784C138.848 232.836 138.847 232.889 138.835 232.94C138.824 232.991 138.802 233.039 138.771 233.082C138.741 233.124 138.702 233.16 138.657 233.187C138.613 233.215 138.563 233.233 138.511 233.24H138.447Z" fill="#263238"/>
<path d="M109.535 239.272C109.477 239.287 109.416 239.287 109.359 239.272C109.265 239.226 109.193 239.145 109.159 239.046C109.125 238.947 109.13 238.839 109.175 238.744L115.711 225.144C115.731 225.093 115.761 225.047 115.8 225.008C115.839 224.969 115.885 224.939 115.936 224.918C115.987 224.898 116.042 224.889 116.097 224.891C116.152 224.893 116.206 224.906 116.255 224.93C116.305 224.953 116.349 224.987 116.385 225.029C116.421 225.07 116.448 225.118 116.465 225.171C116.481 225.223 116.486 225.279 116.481 225.333C116.475 225.388 116.458 225.441 116.431 225.488L109.895 239.088C109.858 239.149 109.804 239.199 109.741 239.232C109.677 239.264 109.606 239.278 109.535 239.272Z" fill="#263238"/>
<path d="M116.574 235C116.513 234.999 116.453 234.986 116.398 234.96C116.304 234.912 116.232 234.829 116.198 234.729C116.164 234.629 116.169 234.52 116.214 234.424L121.494 223.864C121.517 223.817 121.549 223.774 121.589 223.74C121.629 223.705 121.675 223.679 121.725 223.662C121.775 223.646 121.828 223.64 121.88 223.644C121.933 223.648 121.984 223.663 122.03 223.688C122.077 223.711 122.12 223.743 122.155 223.783C122.19 223.822 122.216 223.868 122.233 223.918C122.251 223.968 122.258 224.02 122.254 224.073C122.251 224.125 122.237 224.177 122.214 224.224L116.934 234.776C116.901 234.843 116.85 234.9 116.786 234.94C116.723 234.979 116.649 235 116.574 235Z" fill="#263238"/>
<path d="M175.15 268.432C175.067 268.435 174.986 268.41 174.918 268.363C174.85 268.315 174.8 268.247 174.774 268.168C170.91 257.36 167.998 240.616 166.23 228.464C166.216 228.36 166.244 228.255 166.307 228.172C166.369 228.088 166.463 228.032 166.566 228.016C166.671 228.002 166.777 228.03 166.862 228.092C166.947 228.155 167.004 228.248 167.022 228.352C168.782 240.464 171.686 257.152 175.526 267.904C175.544 267.954 175.551 268.006 175.548 268.058C175.545 268.11 175.532 268.162 175.508 268.209C175.485 268.256 175.453 268.297 175.413 268.332C175.374 268.366 175.328 268.392 175.278 268.408C175.237 268.424 175.194 268.432 175.15 268.432Z" fill="#263238"/>
<path d="M165.837 223.121C165.741 223.12 165.648 223.085 165.574 223.022C165.501 222.959 165.453 222.872 165.437 222.777C164.957 219.129 164.693 216.817 164.693 216.801C164.686 216.726 164.699 216.65 164.731 216.583C164.764 216.515 164.814 216.457 164.877 216.417L174.061 210.441L162.765 208.601C162.695 208.59 162.629 208.561 162.574 208.516C162.519 208.471 162.477 208.411 162.453 208.345C162.429 208.277 162.424 208.205 162.436 208.135C162.449 208.065 162.48 207.999 162.525 207.945C162.525 207.945 165.053 204.905 167.525 201.193C169.997 197.481 177.997 185.193 178.077 185.113C178.136 185.023 178.228 184.96 178.333 184.938C178.438 184.915 178.547 184.935 178.637 184.993C178.725 185.051 178.786 185.142 178.807 185.245C178.828 185.349 178.807 185.456 178.749 185.545C178.669 185.673 170.677 197.913 168.189 201.641C166.309 204.457 164.413 206.881 163.573 207.921L175.197 209.825C175.277 209.837 175.351 209.874 175.41 209.93C175.468 209.985 175.509 210.057 175.525 210.137C175.54 210.216 175.532 210.297 175.5 210.371C175.469 210.445 175.417 210.508 175.349 210.553L165.501 216.953C165.581 217.633 165.821 219.713 166.213 222.673C166.227 222.778 166.199 222.884 166.134 222.968C166.07 223.052 165.974 223.107 165.869 223.121H165.837Z" fill="#263238"/>
<path d="M314.984 182.616C314.984 182.616 320.424 171.544 323.152 167.92C325.88 164.296 328.592 162.112 331.68 161.568C334.768 161.024 336.936 161.208 339.296 160.296C341.656 159.384 346.376 158.12 347.648 156.488C348.92 154.856 351.272 155.944 350.184 158.664C349.096 161.384 345.288 163.2 345.288 163.2L342.2 164.648C342.2 164.648 352.184 166.104 352.904 166.648C353.624 167.192 362.344 167.92 362.344 167.92C362.344 167.92 358.528 174.632 353.088 177.72C347.648 180.808 330.592 178.264 330.592 178.264L325.512 188.968L314.984 182.616Z" fill="white"/>
<path d="M325.501 189.368C325.431 189.366 325.362 189.347 325.301 189.312L314.773 182.96C314.689 182.907 314.626 182.825 314.598 182.729C314.57 182.633 314.578 182.531 314.621 182.44C314.845 181.984 320.117 171.296 322.829 167.68C325.749 163.784 328.541 161.712 331.629 161.176C332.789 160.968 333.805 160.864 334.781 160.768C336.278 160.692 337.756 160.406 339.173 159.92C339.709 159.72 340.357 159.496 341.061 159.256C343.333 158.456 346.437 157.416 347.349 156.24C347.62 155.826 348.035 155.527 348.513 155.4C348.992 155.273 349.5 155.327 349.941 155.552C350.669 155.968 351.277 157.072 350.581 158.816C349.445 161.648 345.637 163.488 345.477 163.56L343.589 164.448C346.725 164.92 352.525 165.848 353.189 166.328C353.677 166.632 358.269 167.176 362.421 167.52C362.488 167.525 362.553 167.546 362.609 167.582C362.666 167.619 362.712 167.669 362.743 167.729C362.775 167.788 362.79 167.855 362.788 167.922C362.787 167.989 362.768 168.055 362.733 168.112C362.581 168.392 358.805 174.96 353.333 178.064C348.165 180.992 333.237 179.032 330.869 178.696L325.917 189.096C325.893 189.147 325.858 189.193 325.815 189.23C325.773 189.267 325.723 189.295 325.669 189.312L325.501 189.368ZM315.501 182.464L325.333 188.392L330.221 178.088C330.259 178.011 330.321 177.948 330.397 177.907C330.473 177.867 330.56 177.852 330.645 177.864C330.813 177.864 347.629 180.352 352.885 177.368C357.277 174.88 360.637 169.904 361.685 168.264C359.117 168.04 353.381 167.464 352.685 166.968C352.173 166.64 346.877 165.736 342.165 165.048C342.08 165.037 342.001 164.998 341.94 164.937C341.88 164.876 341.841 164.797 341.829 164.712C341.816 164.627 341.83 164.539 341.871 164.463C341.911 164.387 341.975 164.325 342.053 164.288L345.133 162.84C345.173 162.84 348.821 161.056 349.837 158.512C350.341 157.248 349.997 156.504 349.549 156.24C349.268 156.11 348.949 156.088 348.654 156.18C348.358 156.272 348.107 156.47 347.949 156.736C346.893 158.096 343.781 159.136 341.285 160.016C340.597 160.248 339.957 160.472 339.429 160.672C337.944 161.181 336.396 161.483 334.829 161.568C333.869 161.664 332.869 161.76 331.733 161.96C328.885 162.464 326.253 164.432 323.461 168.16C321.061 171.368 316.429 180.6 315.501 182.464Z" fill="#263238"/>
<path d="M365.775 166.128C365.775 166.128 368.575 160.168 368.343 158.88C368.111 157.592 365.655 158.416 364.839 160.168C364.023 161.92 361.215 166.128 361.215 166.128H365.775Z" fill="white"/>
<path d="M365.773 166.528H361.213C361.141 166.526 361.07 166.505 361.008 166.467C360.946 166.429 360.896 166.376 360.861 166.312C360.822 166.251 360.801 166.181 360.801 166.108C360.801 166.036 360.822 165.965 360.861 165.904C360.861 165.904 363.653 161.704 364.453 159.992C364.732 159.373 365.181 158.844 365.747 158.468C366.313 158.092 366.973 157.882 367.653 157.864C367.904 157.883 368.142 157.987 368.326 158.158C368.511 158.33 368.632 158.559 368.669 158.808C368.917 160.152 366.549 165.28 366.069 166.296C366.042 166.356 366.001 166.408 365.949 166.448C365.898 166.489 365.837 166.516 365.773 166.528ZM361.957 165.728H365.517C366.581 163.44 368.093 159.768 367.917 158.952C367.917 158.816 367.837 158.688 367.581 158.656C367.067 158.695 366.573 158.872 366.151 159.167C365.728 159.463 365.393 159.867 365.181 160.336C364.198 162.187 363.122 163.987 361.957 165.728Z" fill="#263238"/>
<path d="M370.741 163.288C370.741 163.288 366.389 172.544 363.485 175.08C360.581 177.616 354.773 177.808 354.773 177.808C354.773 177.808 361.669 170.544 363.125 167.824C364.581 165.104 369.837 158.568 370.741 163.288Z" fill="white"/>
<path d="M354.774 178.208C354.697 178.207 354.622 178.184 354.558 178.141C354.495 178.099 354.444 178.039 354.414 177.968C354.382 177.896 354.371 177.816 354.384 177.738C354.397 177.659 354.432 177.587 354.486 177.528C354.558 177.456 361.366 170.28 362.774 167.64C363.854 165.616 367.35 160.888 369.606 161.24C370.406 161.36 370.91 162.04 371.134 163.216C371.158 163.295 371.158 163.378 371.134 163.456C370.95 163.84 366.71 172.816 363.774 175.384C360.838 177.952 355.054 178.2 354.814 178.208H354.774ZM369.342 162.024C367.742 162.024 364.614 165.888 363.478 168.016C362.342 170.144 357.582 175.392 355.774 177.328C357.534 177.152 361.174 176.576 363.222 174.784C365.854 172.48 369.806 164.328 370.326 163.24C370.166 162.496 369.878 162.096 369.486 162.032L369.342 162.024Z" fill="#263238"/>
<path d="M367.238 164.104C367.238 164.104 362.886 173.36 359.982 175.904C357.078 178.448 351.27 178.624 351.27 178.624C351.27 178.624 358.166 171.368 359.622 168.64C361.078 165.912 366.334 159.392 367.238 164.104Z" fill="white"/>
<path d="M351.27 179.024C351.193 179.023 351.118 178.999 351.054 178.957C350.991 178.914 350.94 178.854 350.91 178.784C350.875 178.713 350.863 178.634 350.876 178.556C350.889 178.479 350.926 178.407 350.982 178.352C351.054 178.272 357.854 171.096 359.262 168.456C360.342 166.432 363.822 161.712 366.094 162.056C366.894 162.176 367.406 162.856 367.63 164.024C367.657 164.104 367.657 164.192 367.63 164.272C367.454 164.648 363.206 173.632 360.278 176.192C357.35 178.752 351.558 179.008 351.318 179.016L351.27 179.024ZM365.838 162.84C364.198 162.84 361.102 166.704 359.974 168.832C358.774 171.08 354.078 176.208 352.27 178.144C354.03 177.968 357.67 177.392 359.718 175.6C362.35 173.296 366.302 165.144 366.822 164.056C366.662 163.32 366.374 162.912 365.974 162.856L365.838 162.84Z" fill="#263238"/>
<path d="M327.863 173.545C327.863 173.545 328.775 172.089 331.863 170.097C334.951 168.105 351.279 173.177 351.279 173.177C351.279 173.177 358.719 163.929 359.807 163.017C360.895 162.105 362.895 161.569 363.255 163.385C363.615 165.201 358.719 172.985 357.447 174.273C356.175 175.561 351.279 178.625 351.279 178.625C348.303 179.648 345.17 180.138 342.023 180.073C338.171 179.796 334.349 179.191 330.599 178.265" fill="white"/>
<path d="M342.798 180.488C342.534 180.488 342.27 180.488 341.998 180.488C338.116 180.207 334.265 179.597 330.486 178.664C330.38 178.639 330.288 178.572 330.231 178.479C330.174 178.386 330.156 178.274 330.182 178.168C330.207 178.062 330.274 177.97 330.367 177.913C330.46 177.856 330.572 177.839 330.678 177.864C334.402 178.782 338.197 179.384 342.022 179.664C345.102 179.721 348.168 179.244 351.086 178.256C351.534 177.968 355.982 175.144 357.15 173.976C358.534 172.592 363.15 164.96 362.846 163.456C362.829 163.281 362.764 163.113 362.658 162.972C362.552 162.831 362.41 162.722 362.246 162.656C361.851 162.598 361.448 162.629 361.067 162.748C360.686 162.867 360.337 163.071 360.046 163.344C359.246 164.04 354.142 170.256 351.574 173.448C351.523 173.51 351.455 173.556 351.377 173.579C351.3 173.602 351.218 173.601 351.142 173.576C346.654 172.184 334.47 168.896 332.062 170.448C329.118 172.352 328.206 173.76 328.198 173.768C328.141 173.858 328.052 173.923 327.948 173.947C327.845 173.971 327.736 173.952 327.646 173.896C327.556 173.84 327.491 173.75 327.467 173.647C327.443 173.543 327.461 173.434 327.518 173.344C327.518 173.288 328.51 171.8 331.63 169.776C334.75 167.752 348.534 171.936 351.126 172.736C352.27 171.312 358.51 163.584 359.534 162.728C359.932 162.371 360.409 162.113 360.926 161.974C361.443 161.835 361.986 161.819 362.51 161.928C362.809 162.037 363.073 162.227 363.27 162.477C363.468 162.727 363.593 163.028 363.63 163.344C364.054 165.448 358.83 173.464 357.718 174.592C356.43 175.88 351.678 178.872 351.478 179L351.406 179.04C348.633 179.983 345.726 180.472 342.798 180.488Z" fill="#263238"/>
<path d="M308.648 192.113L315.184 180.553L331.024 190.105L327 199.913L308.648 192.113Z" fill="white"/>
<path d="M326.998 200.312C326.945 200.32 326.891 200.32 326.838 200.312L308.486 192.512C308.434 192.492 308.387 192.46 308.35 192.418C308.312 192.376 308.285 192.326 308.27 192.272C308.247 192.222 308.234 192.168 308.234 192.112C308.234 192.057 308.247 192.002 308.27 191.952L314.806 180.384C314.862 180.293 314.951 180.228 315.054 180.2C315.103 180.179 315.156 180.168 315.21 180.168C315.264 180.168 315.317 180.179 315.366 180.2L331.198 189.76C331.278 189.811 331.338 189.889 331.368 189.979C331.397 190.07 331.393 190.168 331.358 190.256L327.358 200.064C327.317 200.162 327.239 200.239 327.142 200.28C327.096 200.298 327.047 200.309 326.998 200.312ZM309.214 191.92L326.814 199.384L330.55 190.272L315.35 181.104L309.214 191.92Z" fill="#263238"/>
<path d="M222.535 189.657L228.703 360.057H273.455L264.399 238.625C264.399 238.625 288.783 265.273 291.551 266.777C294.319 268.281 297.839 263.513 297.839 263.513L330.767 198.905L311.199 188.097L289.599 223.297L286.327 221.033L283.815 222.289C283.815 222.289 261.415 182.825 259.679 181.817C257.943 180.809 249.623 181.313 249.623 181.313L228.023 183.073L220.023 181.473L222.535 189.657Z" fill="#E88A94"/>
<path d="M273.453 360.448H228.701C228.597 360.446 228.497 360.405 228.423 360.332C228.349 360.259 228.305 360.161 228.301 360.056L222.133 189.72L219.541 181.6C219.521 181.533 219.518 181.462 219.533 181.393C219.549 181.324 219.582 181.261 219.629 181.208C219.675 181.156 219.734 181.117 219.8 181.095C219.866 181.072 219.937 181.067 220.005 181.08L228.005 182.68L249.565 180.92C250.437 180.872 258.045 180.44 259.853 181.48C261.661 182.52 280.917 216.424 283.949 221.768L286.125 220.68C286.187 220.645 286.257 220.627 286.329 220.627C286.4 220.627 286.471 220.645 286.533 220.68L289.453 222.704L310.853 187.864C310.907 187.779 310.992 187.718 311.09 187.693C311.188 187.667 311.292 187.68 311.381 187.728L330.989 198.536C331.08 198.587 331.149 198.671 331.18 198.771C331.211 198.871 331.203 198.979 331.157 199.072L298.221 263.68C298.037 263.936 294.429 268.776 291.389 267.112C288.853 265.728 269.181 244.368 264.917 239.728L273.853 360C273.857 360.056 273.848 360.112 273.829 360.164C273.81 360.217 273.78 360.264 273.741 360.304C273.706 360.348 273.662 360.383 273.613 360.408C273.563 360.433 273.509 360.447 273.453 360.448ZM229.085 359.648H273.021L263.997 238.656C263.991 238.572 264.011 238.488 264.056 238.416C264.1 238.344 264.167 238.288 264.245 238.256C264.32 238.222 264.404 238.213 264.485 238.23C264.566 238.248 264.638 238.29 264.693 238.352C273.117 247.552 289.597 265.256 291.741 266.4C294.141 267.728 297.477 263.296 297.517 263.248L330.237 199.04L311.301 188.6L289.877 223.472C289.85 223.52 289.813 223.56 289.769 223.592C289.725 223.624 289.674 223.646 289.621 223.656C289.567 223.668 289.512 223.669 289.458 223.658C289.404 223.647 289.354 223.624 289.309 223.592L286.237 221.464L283.933 222.616C283.842 222.662 283.738 222.671 283.641 222.641C283.544 222.612 283.462 222.545 283.413 222.456C274.501 206.744 260.765 183.04 259.413 182.128C258.061 181.328 251.861 181.544 249.581 181.68L227.981 183.44H227.869L220.509 181.984L222.909 189.52C222.913 189.555 222.913 189.59 222.909 189.624L229.085 359.648Z" fill="#263238"/>
<path d="M264.398 238.624L264.094 226.36L273.798 248.2L264.398 238.624Z" fill="#263238"/>
<path d="M273.799 248.6C273.747 248.601 273.695 248.591 273.647 248.57C273.598 248.549 273.555 248.519 273.519 248.48L264.119 238.88C264.048 238.807 264.005 238.71 263.999 238.608L263.695 226.4C263.695 226.308 263.725 226.219 263.782 226.146C263.838 226.073 263.918 226.022 264.007 226C264.098 225.977 264.193 225.987 264.277 226.028C264.36 226.069 264.426 226.139 264.463 226.224L274.167 248.064C274.205 248.149 274.212 248.245 274.185 248.335C274.159 248.424 274.101 248.501 274.023 248.552C273.955 248.591 273.877 248.608 273.799 248.6ZM264.799 238.456L272.535 246.344L264.535 228.36L264.799 238.456Z" fill="#263238"/>
<path d="M264.149 235.249C264.049 235.249 263.951 235.211 263.877 235.143C263.803 235.075 263.757 234.981 263.749 234.881L261.485 201.697C261.482 201.644 261.488 201.591 261.505 201.541C261.522 201.491 261.548 201.445 261.583 201.406C261.617 201.366 261.659 201.333 261.706 201.31C261.754 201.286 261.805 201.272 261.857 201.269C261.91 201.265 261.963 201.272 262.013 201.288C262.063 201.305 262.109 201.331 262.148 201.366C262.188 201.4 262.221 201.442 262.244 201.49C262.268 201.537 262.282 201.588 262.285 201.641L264.549 234.825C264.553 234.877 264.545 234.93 264.528 234.98C264.511 235.029 264.484 235.075 264.449 235.115C264.414 235.154 264.372 235.186 264.325 235.209C264.277 235.232 264.226 235.245 264.173 235.249H264.149Z" fill="#263238"/>
<path d="M265.407 224.192H265.351C265.248 224.176 265.155 224.121 265.092 224.037C265.029 223.953 265.001 223.848 265.015 223.744C265.255 222.016 266.463 208.096 266.471 207.96C266.485 207.855 266.538 207.759 266.62 207.691C266.701 207.622 266.805 207.587 266.911 207.592C267.016 207.602 267.113 207.653 267.18 207.734C267.247 207.815 267.28 207.919 267.271 208.024C267.223 208.6 266.055 222.104 265.807 223.856C265.79 223.95 265.741 224.035 265.668 224.097C265.595 224.158 265.503 224.192 265.407 224.192Z" fill="#263238"/>
<path d="M267.421 233.24H267.357C267.305 233.234 267.254 233.216 267.209 233.189C267.163 233.163 267.123 233.127 267.092 233.084C267.061 233.041 267.038 232.993 267.026 232.941C267.014 232.89 267.012 232.836 267.021 232.784L269.789 215.184C269.797 215.132 269.815 215.081 269.843 215.036C269.87 214.99 269.906 214.951 269.949 214.919C269.992 214.887 270.04 214.865 270.092 214.852C270.143 214.839 270.197 214.836 270.249 214.844C270.302 214.852 270.352 214.87 270.398 214.898C270.443 214.925 270.483 214.961 270.515 215.004C270.546 215.047 270.569 215.095 270.582 215.147C270.595 215.198 270.597 215.252 270.589 215.304L267.821 232.904C267.808 233 267.759 233.087 267.686 233.149C267.612 233.211 267.518 233.243 267.421 233.24Z" fill="#263238"/>
<path d="M291.064 232.976C290.97 232.974 290.88 232.939 290.808 232.878C290.737 232.817 290.689 232.733 290.672 232.64L289.4 225.368C289.391 225.316 289.393 225.262 289.405 225.21C289.417 225.158 289.439 225.109 289.469 225.066C289.5 225.022 289.539 224.985 289.584 224.957C289.629 224.928 289.68 224.909 289.732 224.9C289.785 224.891 289.839 224.893 289.891 224.905C289.942 224.917 289.992 224.939 290.035 224.969C290.078 225 290.115 225.039 290.144 225.084C290.172 225.129 290.191 225.18 290.2 225.232L291.48 232.504C291.497 232.609 291.472 232.716 291.41 232.803C291.349 232.889 291.257 232.949 291.152 232.968L291.064 232.976Z" fill="#263238"/>
<path d="M283.927 229.409C283.822 229.403 283.724 229.357 283.651 229.282C283.578 229.206 283.537 229.106 283.535 229.001L283.615 224.033C283.626 223.93 283.673 223.834 283.748 223.762C283.822 223.691 283.92 223.648 284.023 223.641C284.076 223.642 284.128 223.653 284.176 223.674C284.224 223.695 284.267 223.726 284.304 223.763C284.34 223.801 284.369 223.846 284.388 223.895C284.407 223.944 284.416 223.996 284.415 224.049L284.335 229.009C284.335 229.062 284.325 229.115 284.304 229.164C284.283 229.213 284.253 229.257 284.215 229.294C284.177 229.332 284.132 229.361 284.083 229.381C284.033 229.4 283.98 229.41 283.927 229.409Z" fill="#263238"/>
<path d="M230.717 268.432C230.672 268.445 230.625 268.445 230.581 268.432C230.482 268.398 230.4 268.326 230.354 268.231C230.307 268.137 230.3 268.028 230.333 267.928C230.941 266.232 231.549 264.312 232.141 262.216C232.155 262.164 232.18 262.115 232.213 262.072C232.246 262.029 232.287 261.992 232.334 261.965C232.382 261.938 232.434 261.921 232.488 261.914C232.542 261.907 232.596 261.91 232.649 261.924C232.701 261.939 232.751 261.963 232.794 261.996C232.837 262.029 232.873 262.071 232.9 262.118C232.927 262.165 232.945 262.217 232.952 262.271C232.959 262.325 232.955 262.38 232.941 262.432C232.341 264.544 231.725 266.488 231.117 268.192C231.084 268.269 231.027 268.334 230.956 268.377C230.884 268.42 230.8 268.439 230.717 268.432Z" fill="#263238"/>
<path d="M233.598 258.872H233.494C233.392 258.846 233.306 258.781 233.252 258.691C233.198 258.601 233.181 258.494 233.206 258.392C237.462 241.592 240.086 219.536 240.406 216.968L230.558 210.568C230.49 210.524 230.438 210.461 230.408 210.387C230.378 210.312 230.372 210.23 230.39 210.152C230.404 210.073 230.442 210.001 230.5 209.945C230.557 209.889 230.63 209.852 230.71 209.84L242.35 207.936C241.55 206.896 239.614 204.472 237.734 201.656C235.246 197.928 227.254 185.656 227.174 185.56C227.123 185.471 227.108 185.366 227.133 185.267C227.157 185.167 227.219 185.081 227.305 185.025C227.391 184.97 227.495 184.95 227.596 184.969C227.696 184.988 227.786 185.045 227.846 185.128C227.926 185.248 235.918 197.488 238.398 201.208C240.878 204.928 243.382 207.936 243.406 207.96C243.449 208.016 243.477 208.082 243.489 208.152C243.5 208.222 243.493 208.293 243.47 208.36C243.446 208.427 243.404 208.486 243.349 208.531C243.294 208.576 243.228 208.606 243.158 208.616L231.862 210.456L241.054 216.432C241.116 216.473 241.165 216.531 241.196 216.599C241.228 216.667 241.239 216.742 241.23 216.816C241.23 217.048 238.526 240.736 234.03 258.584C234.004 258.676 233.946 258.755 233.867 258.808C233.788 258.861 233.692 258.883 233.598 258.872Z" fill="#263238"/>
<path d="M184.957 165.728L185.029 182.824L204.717 194.728L220.669 183.672L219.197 164.28C219.197 164.28 206.869 172.28 205.237 172.616C203.605 172.952 184.957 165.728 184.957 165.728Z" fill="white"/>
<path d="M204.719 195.129C204.646 195.13 204.574 195.111 204.511 195.073L184.799 183.201C184.74 183.164 184.691 183.114 184.656 183.054C184.622 182.994 184.602 182.926 184.599 182.857L184.527 165.761C184.529 165.696 184.545 165.633 184.576 165.576C184.607 165.519 184.65 165.47 184.703 165.434C184.756 165.397 184.817 165.373 184.881 165.365C184.945 165.356 185.01 165.363 185.071 165.385C192.271 168.169 203.999 172.489 205.143 172.257C206.287 172.025 214.039 167.161 218.975 163.977C219.035 163.941 219.102 163.923 219.171 163.923C219.24 163.923 219.308 163.941 219.367 163.977C219.43 164.008 219.483 164.054 219.522 164.112C219.561 164.169 219.585 164.235 219.591 164.305L221.039 183.697C221.044 183.767 221.031 183.837 221 183.9C220.969 183.963 220.922 184.017 220.863 184.057L204.919 195.113C204.855 195.134 204.786 195.14 204.719 195.129ZM185.431 182.601L204.703 194.257L220.255 183.473L218.871 164.977C216.247 166.673 206.871 172.673 205.351 172.977C203.831 173.281 189.455 167.865 185.351 166.281L185.431 182.601Z" fill="#263238"/>
<path d="M185.231 179.552L203.927 174.92L185.031 167.208L185.231 179.552Z" fill="#263238"/>
<path d="M185.229 179.944C185.14 179.946 185.052 179.918 184.981 179.864C184.933 179.828 184.895 179.78 184.869 179.726C184.842 179.672 184.829 179.613 184.829 179.552L184.629 167.2C184.629 167.134 184.645 167.069 184.675 167.011C184.706 166.952 184.751 166.902 184.805 166.864C184.863 166.833 184.927 166.816 184.993 166.816C185.059 166.816 185.123 166.833 185.181 166.864L204.077 174.576C204.155 174.608 204.221 174.664 204.266 174.736C204.311 174.808 204.331 174.892 204.325 174.976C204.317 175.06 204.283 175.139 204.229 175.204C204.175 175.268 204.102 175.314 204.021 175.336L185.325 179.96L185.229 179.944ZM185.445 167.808L185.621 179.008L202.637 174.792L185.445 167.808Z" fill="#263238"/>
<path d="M219.2 144.336C219.2 144.336 219.016 136.545 221.192 132.193C221.889 130.783 222.251 129.233 222.251 127.66C222.251 126.088 221.889 124.538 221.192 123.129L223.2 122.4C222.107 121.485 220.958 120.638 219.76 119.865C219.216 119.681 220.12 114.792 218.488 112.248C216.856 109.704 215.224 109.169 215.224 109.169L214.32 112.432C214.32 112.432 209.424 106.632 206.704 105.544C203.984 104.456 196.2 99.2005 196 101.921C195.8 104.641 196.912 105.729 196.912 105.729C196.912 105.729 191.472 102.641 187.312 103.729C183.152 104.817 179.152 107.361 180.056 108.265C180.96 109.169 184.952 112.977 184.952 112.977C184.952 112.977 175.712 113.336 174.624 114.424C173.894 115.27 173.349 116.259 173.024 117.329L178.28 120.048C178.28 120.048 173.568 119.68 171.752 122.584C169.936 125.488 169.576 126.584 170.848 127.112C172.105 127.753 173.316 128.48 174.472 129.288C174.472 129.288 173.2 131.464 174.656 135.088C176.112 138.712 179.544 146.696 179.544 146.696C179.544 146.696 180.816 133.641 181.72 131.105C182.624 128.569 193.872 122.585 195.496 122.041C197.12 121.497 208.552 124.576 209.28 124.576C210.008 124.576 214.712 142.888 215.8 143.608C216.888 144.328 219.2 144.336 219.2 144.336Z" fill="#263238"/>
<path d="M179.519 147.096C179.441 147.094 179.366 147.07 179.302 147.026C179.238 146.982 179.189 146.92 179.159 146.848C179.159 146.768 175.695 138.848 174.255 135.24C173.063 132.264 173.631 130.208 173.943 129.432C172.897 128.705 171.801 128.053 170.663 127.48C170.45 127.408 170.255 127.288 170.095 127.13C169.934 126.973 169.811 126.78 169.735 126.568C169.463 125.696 170.079 124.472 171.391 122.368C172.623 120.392 175.047 119.824 176.671 119.68L172.799 117.68C172.715 117.64 172.649 117.571 172.612 117.486C172.575 117.401 172.571 117.305 172.599 117.216C172.949 116.081 173.538 115.033 174.327 114.144C175.319 113.152 181.367 112.752 183.991 112.616C182.815 111.488 180.439 109.216 179.767 108.544C179.654 108.438 179.574 108.302 179.537 108.151C179.5 108.001 179.508 107.843 179.559 107.696C179.951 106.248 183.919 104.2 187.199 103.344C190.335 102.544 194.079 103.936 195.943 104.792C195.632 103.861 195.515 102.875 195.599 101.896C195.6 101.697 195.654 101.502 195.756 101.331C195.857 101.159 196.001 101.018 196.175 100.92C197.383 100.256 200.111 101.624 203.831 103.64C205.015 104.28 206.135 104.888 206.847 105.176C209.143 106.088 212.799 110.096 214.127 111.576L214.831 109.032C214.846 108.98 214.872 108.931 214.906 108.888C214.941 108.846 214.983 108.81 215.031 108.784C215.08 108.761 215.133 108.749 215.187 108.749C215.241 108.749 215.294 108.761 215.343 108.784C215.415 108.784 217.127 109.4 218.815 111.984C219.911 113.688 219.927 116.32 219.935 118.064C219.924 118.54 219.945 119.016 219.999 119.488C221.198 120.269 222.35 121.122 223.447 122.04C223.502 122.086 223.544 122.146 223.57 122.213C223.595 122.281 223.602 122.353 223.591 122.424C223.577 122.493 223.545 122.558 223.499 122.611C223.453 122.664 223.394 122.705 223.327 122.728L221.727 123.304C222.366 124.727 222.68 126.275 222.647 127.834C222.614 129.393 222.234 130.926 221.535 132.32C219.431 136.536 219.583 144.2 219.583 144.28C219.583 144.388 219.54 144.492 219.463 144.568C219.427 144.607 219.384 144.637 219.336 144.658C219.288 144.679 219.236 144.689 219.183 144.688C219.079 144.688 216.687 144.688 215.519 143.888C214.927 143.496 214.063 140.888 211.767 133.248C210.735 129.832 209.471 125.616 209.039 124.904C208.671 124.856 207.863 124.664 206.135 124.264C203.039 123.536 196.599 122.016 195.559 122.36C193.863 122.928 182.855 128.872 182.031 131.16C181.159 133.624 179.895 146.52 179.879 146.648C179.871 146.737 179.834 146.821 179.773 146.886C179.712 146.951 179.631 146.994 179.543 147.008L179.519 147.096ZM177.775 120.432C176.591 120.432 173.415 120.64 172.063 122.832C170.999 124.544 170.319 125.8 170.463 126.368C170.463 126.472 170.583 126.632 170.951 126.792C172.231 127.44 173.464 128.178 174.639 129C174.724 129.057 174.783 129.145 174.806 129.244C174.828 129.344 174.811 129.449 174.759 129.536C174.759 129.536 173.615 131.608 174.967 134.984C176.031 137.64 178.167 142.696 179.247 145.16C179.615 141.608 180.559 133.064 181.287 131.008C182.303 128.168 193.991 122.144 195.319 121.704C196.471 121.312 201.183 122.368 206.319 123.576C207.703 123.904 209.015 124.208 209.223 124.216C209.751 124.216 209.951 124.52 212.535 133.112C213.775 137.216 215.463 142.824 215.983 143.328C216.858 143.744 217.814 143.962 218.783 143.968C218.783 142.264 218.895 135.912 220.823 132.056C221.484 130.702 221.828 129.215 221.828 127.708C221.828 126.201 221.484 124.714 220.823 123.36C220.795 123.31 220.779 123.254 220.775 123.196C220.771 123.138 220.78 123.081 220.8 123.027C220.821 122.973 220.853 122.924 220.894 122.883C220.935 122.843 220.985 122.812 221.039 122.792L222.367 122.312C221.492 121.572 220.567 120.893 219.599 120.28C219.127 120.128 219.127 119.552 219.111 118.152C219.111 116.504 219.111 114.016 218.119 112.504C217.458 111.395 216.542 110.46 215.447 109.776L214.647 112.576C214.629 112.647 214.591 112.711 214.539 112.761C214.487 112.812 214.422 112.848 214.351 112.864C214.28 112.879 214.205 112.874 214.136 112.85C214.068 112.826 214.006 112.784 213.959 112.728C213.911 112.672 209.095 106.992 206.503 105.952C205.442 105.472 204.406 104.938 203.399 104.352C200.999 103.064 197.431 101.152 196.511 101.624C196.471 101.624 196.367 101.704 196.351 101.952C196.191 104.424 197.151 105.44 197.151 105.456C197.215 105.528 197.25 105.621 197.25 105.716C197.25 105.812 197.215 105.905 197.151 105.976C197.092 106.052 197.008 106.104 196.914 106.123C196.82 106.143 196.723 106.127 196.639 106.08C196.591 106.08 191.295 103.096 187.327 104.128C183.615 105.096 180.479 107.096 180.255 107.92C181.151 108.88 185.111 112.656 185.151 112.72C185.208 112.775 185.247 112.845 185.264 112.922C185.281 112.998 185.275 113.078 185.247 113.152C185.219 113.225 185.17 113.289 185.106 113.334C185.042 113.38 184.966 113.406 184.887 113.408C181.111 113.552 175.495 114.064 174.823 114.744C174.195 115.442 173.711 116.258 173.399 117.144L178.351 119.704C178.432 119.748 178.495 119.817 178.532 119.902C178.568 119.986 178.575 120.08 178.551 120.168C178.524 120.257 178.469 120.334 178.394 120.388C178.318 120.441 178.227 120.468 178.135 120.464C178.135 120.464 178.047 120.432 177.775 120.432Z" fill="#263238"/>
<path d="M189.309 117.512C189.309 117.512 177.165 129.512 176.981 131.464C176.797 133.416 182.237 164.456 182.581 165.544C182.925 166.632 195.813 174.792 199.797 175.696C203.781 176.6 207.957 175.512 209.045 174.608C210.133 173.704 220.645 167.72 221.733 162.824C222.821 157.928 215.997 124.576 215.197 123.312C214.397 122.048 197.469 113.88 189.309 117.512Z" fill="white"/>
<path d="M202.974 176.432C201.885 176.436 200.799 176.32 199.734 176.088C195.934 175.224 182.678 167.04 182.222 165.688C181.726 164.2 176.406 133.432 176.582 131.448C176.758 129.464 186.982 119.256 189.03 117.24C189.064 117.204 189.105 117.177 189.15 117.16C197.214 113.576 214.63 121.464 215.55 123.128C216.302 124.44 223.23 157.904 222.118 162.928C221.19 167.112 213.782 171.96 210.622 174.032C209.974 174.456 209.47 174.784 209.294 174.936C208.39 175.696 205.814 176.432 202.974 176.432ZM189.542 117.848C184.878 122.44 177.502 130.16 177.382 131.504C177.222 133.304 182.526 164.056 182.982 165.416C183.542 166.472 195.91 174.4 199.91 175.304C203.91 176.208 207.846 175.112 208.814 174.304C209.022 174.128 209.494 173.816 210.214 173.344C213.294 171.328 220.51 166.608 221.366 162.736C222.414 158.032 215.606 124.864 214.886 123.536C214.214 122.504 197.598 114.4 189.542 117.848Z" fill="#263238"/>
<path d="M189.309 117.512C189.309 117.512 193.517 119.592 195.253 120.368C196.989 121.144 198.909 118.44 198.909 118.44C198.909 118.44 213.813 123.552 215.229 123.312C216.645 123.072 211.229 117.472 205.629 115.352C200.029 113.232 189.341 113.496 189.309 117.512Z" fill="#263238"/>
<path d="M215.151 123.712C213.223 123.712 201.999 119.92 199.055 118.912C198.495 119.6 196.783 121.48 195.055 120.736C193.327 119.992 189.143 117.888 189.103 117.864C189.036 117.831 188.979 117.78 188.939 117.716C188.9 117.652 188.879 117.579 188.879 117.504C188.895 117.032 189.031 116.572 189.273 116.166C189.515 115.76 189.855 115.422 190.263 115.184C193.463 113.016 201.343 113.296 205.775 114.984C210.687 116.848 215.967 121.672 215.823 123.12C215.811 123.266 215.75 123.403 215.65 123.509C215.55 123.616 215.416 123.684 215.271 123.704L215.151 123.712ZM198.911 118.04C198.956 118.032 199.002 118.032 199.047 118.04C204.575 119.936 213.575 122.84 215.047 122.896C214.711 121.8 210.391 117.552 205.527 115.696C201.303 114.096 193.655 113.832 190.759 115.816C190.497 115.967 190.271 116.172 190.094 116.418C189.917 116.663 189.795 116.944 189.735 117.24C190.655 117.688 193.951 119.32 195.423 119.968C196.599 120.488 198.111 118.848 198.623 118.176C198.658 118.134 198.702 118.1 198.752 118.077C198.802 118.053 198.856 118.041 198.911 118.04Z" fill="#263238"/>
<path d="M200.432 151.824C200.328 151.833 200.223 151.833 200.12 151.824L199.104 151.656C198.384 151.774 197.656 151.832 196.928 151.832C196.446 151.799 195.988 151.611 195.622 151.295C195.257 150.979 195.005 150.552 194.904 150.08C194.882 149.977 194.9 149.87 194.955 149.781C195.01 149.691 195.098 149.627 195.2 149.6C195.301 149.576 195.409 149.592 195.498 149.646C195.588 149.7 195.653 149.787 195.68 149.888C195.68 149.936 195.992 151.04 196.928 151.04C197.63 151.043 198.331 150.984 199.024 150.864H199.2L200.288 151.04C201.256 151.208 203.344 150.168 203.488 149.712C203.632 149.256 202.584 144.624 201.888 141.272C201.088 137.336 200.576 134.872 200.576 134.4C200.576 133.216 202.784 130.792 203.224 130.32C203.3 130.246 203.402 130.205 203.508 130.205C203.614 130.205 203.715 130.246 203.792 130.32C203.829 130.357 203.859 130.402 203.879 130.45C203.899 130.499 203.91 130.551 203.91 130.604C203.91 130.657 203.899 130.709 203.879 130.758C203.859 130.807 203.829 130.851 203.792 130.888C202.784 131.968 201.392 133.784 201.392 134.424C201.392 134.872 202.08 138.2 202.688 141.136C203.976 147.368 204.384 149.512 204.288 149.936C204 150.8 201.712 151.824 200.432 151.824Z" fill="#263238"/>
<path d="M204.454 150.232C204.213 150.23 203.972 150.209 203.734 150.168C203.683 150.158 203.634 150.137 203.59 150.108C203.547 150.079 203.509 150.041 203.48 149.997C203.451 149.953 203.431 149.904 203.421 149.852C203.411 149.801 203.412 149.748 203.422 149.696C203.432 149.644 203.452 149.595 203.481 149.551C203.51 149.507 203.548 149.469 203.592 149.44C203.636 149.411 203.685 149.391 203.737 149.381C203.789 149.372 203.843 149.373 203.894 149.384C204.344 149.484 204.813 149.442 205.238 149.264C205.331 149.197 205.394 149.097 205.414 148.984L205.59 147.896C205.61 147.792 205.669 147.7 205.756 147.638C205.842 147.577 205.949 147.552 206.054 147.568C206.106 147.576 206.156 147.594 206.2 147.621C206.245 147.649 206.284 147.685 206.314 147.727C206.345 147.77 206.367 147.818 206.378 147.869C206.39 147.92 206.391 147.973 206.382 148.024L206.198 149.112C206.172 149.273 206.114 149.426 206.027 149.563C205.941 149.701 205.827 149.819 205.694 149.912C205.321 150.138 204.89 150.25 204.454 150.232Z" fill="#263238"/>
<path d="M199.096 151.624C199.016 151.625 198.937 151.599 198.872 151.552C198.429 151.21 198.106 150.735 197.95 150.198C197.793 149.66 197.811 149.087 198 148.56C198.012 148.505 198.035 148.453 198.069 148.407C198.102 148.361 198.145 148.323 198.194 148.295C198.243 148.267 198.298 148.25 198.354 148.245C198.41 148.24 198.467 148.246 198.52 148.265C198.574 148.283 198.623 148.312 198.664 148.351C198.706 148.389 198.738 148.436 198.76 148.488C198.782 148.54 198.793 148.596 198.791 148.653C198.79 148.709 198.777 148.765 198.752 148.816C198.617 149.181 198.601 149.58 198.706 149.955C198.811 150.33 199.031 150.662 199.336 150.904C199.403 150.954 199.453 151.025 199.478 151.105C199.503 151.185 199.502 151.271 199.476 151.35C199.449 151.43 199.398 151.499 199.33 151.548C199.262 151.598 199.18 151.624 199.096 151.624Z" fill="#263238"/>
<path d="M195.84 162.68C195.741 162.68 195.645 162.646 195.568 162.584C195.494 162.508 195.453 162.406 195.453 162.3C195.453 162.194 195.494 162.092 195.568 162.016C195.632 161.944 201.816 155.128 208.888 157.92C208.937 157.94 208.982 157.969 209.019 158.005C209.057 158.042 209.087 158.086 209.108 158.134C209.129 158.182 209.14 158.234 209.141 158.287C209.141 158.339 209.132 158.391 209.112 158.44C209.093 158.489 209.064 158.534 209.027 158.571C208.991 158.609 208.947 158.639 208.899 158.66C208.85 158.681 208.798 158.692 208.746 158.693C208.693 158.693 208.641 158.684 208.592 158.664C202.04 156.08 196.224 162.48 196.168 162.552C196.127 162.597 196.076 162.632 196.019 162.654C195.962 162.676 195.901 162.685 195.84 162.68Z" fill="#263238"/>
<path d="M183.325 137.705C183.229 137.706 183.133 137.687 183.045 137.649C182.848 137.573 182.689 137.424 182.603 137.232C182.516 137.04 182.508 136.822 182.581 136.625C183.434 134.566 184.861 132.797 186.693 131.529C189.749 129.489 195.045 131.905 195.269 132.009C195.364 132.053 195.45 132.116 195.521 132.194C195.593 132.272 195.648 132.363 195.684 132.462C195.72 132.562 195.736 132.667 195.731 132.772C195.727 132.878 195.701 132.981 195.657 133.077C195.612 133.172 195.549 133.258 195.471 133.329C195.393 133.401 195.302 133.456 195.203 133.492C195.104 133.528 194.999 133.544 194.893 133.539C194.788 133.535 194.684 133.509 194.589 133.465C193.293 132.857 189.493 131.577 187.581 132.857C186.032 133.945 184.819 135.444 184.077 137.185C184.02 137.338 183.917 137.47 183.782 137.563C183.648 137.656 183.488 137.705 183.325 137.705Z" fill="#263238"/>
<path d="M215.055 134.264C214.909 134.265 214.765 134.226 214.64 134.151C214.514 134.077 214.411 133.969 214.343 133.84C213.436 132.296 212.052 131.089 210.399 130.4C209.686 130.141 208.917 130.075 208.17 130.207C207.423 130.339 206.724 130.665 206.143 131.152C206.065 131.223 205.973 131.279 205.874 131.314C205.774 131.35 205.669 131.366 205.563 131.361C205.457 131.356 205.354 131.33 205.258 131.284C205.163 131.239 205.077 131.175 205.007 131.096C204.865 130.939 204.791 130.732 204.802 130.52C204.812 130.309 204.906 130.11 205.063 129.968C205.863 129.283 206.83 128.823 207.867 128.636C208.903 128.449 209.97 128.542 210.959 128.904C212.977 129.726 214.665 131.195 215.759 133.08C215.809 133.173 215.841 133.275 215.851 133.38C215.862 133.485 215.852 133.591 215.822 133.692C215.791 133.793 215.741 133.888 215.674 133.969C215.607 134.051 215.524 134.118 215.431 134.168C215.315 134.23 215.186 134.263 215.055 134.264Z" fill="#263238"/>
<path d="M191.399 142.344C192.15 142.344 192.759 141.492 192.759 140.44C192.759 139.389 192.15 138.536 191.399 138.536C190.648 138.536 190.039 139.389 190.039 140.44C190.039 141.492 190.648 142.344 191.399 142.344Z" fill="#263238"/>
<path d="M208.982 137.72C208.982 138.768 208.366 139.624 207.622 139.624C206.878 139.624 206.262 138.768 206.262 137.72C206.262 136.672 206.87 135.816 207.622 135.816C208.374 135.816 208.982 136.672 208.982 137.72Z" fill="#263238"/>
<path d="M179.198 144.697C179.198 144.697 175.758 139.809 174.126 143.609C172.494 147.409 174.126 150.497 175.726 153.041C177.326 155.585 180.798 156.849 180.798 156.849L179.198 144.697Z" fill="white"/>
<path d="M180.798 157.248C180.753 157.257 180.707 157.257 180.662 157.248C180.518 157.2 177.07 155.904 175.39 153.248C173.558 150.4 172.094 147.248 173.726 143.448C173.85 143.023 174.089 142.64 174.416 142.343C174.744 142.045 175.147 141.843 175.582 141.76C177.398 141.576 179.286 144.16 179.494 144.464C179.534 144.515 179.559 144.576 179.566 144.64L181.166 156.784C181.174 156.853 181.164 156.923 181.137 156.988C181.111 157.052 181.068 157.109 181.014 157.152C180.953 157.205 180.878 157.238 180.798 157.248ZM175.774 142.56H175.662C175.182 142.608 174.782 143.016 174.462 143.76C172.902 147.392 174.462 150.336 176.062 152.816C177.159 154.293 178.624 155.457 180.31 156.192L178.782 144.84C178.254 144.136 176.862 142.56 175.766 142.56H175.774Z" fill="#263238"/>
<path d="M219.583 138.721C219.583 138.721 219.943 135.273 221.399 135.633C222.855 135.993 225.567 138.721 223.935 142.521C222.303 146.321 220.671 150.321 220.671 150.321L219.199 142.889L219.583 138.721Z" fill="white"/>
<path d="M220.67 150.72C220.585 150.71 220.504 150.672 220.441 150.613C220.378 150.555 220.335 150.477 220.318 150.392L218.87 142.96C218.866 142.923 218.866 142.885 218.87 142.848L219.23 138.68C219.23 138.424 219.526 136.152 220.542 135.44C220.686 135.339 220.849 135.269 221.022 135.238C221.195 135.206 221.372 135.212 221.542 135.256C222.151 135.474 222.71 135.812 223.187 136.249C223.663 136.685 224.048 137.213 224.318 137.8C224.688 138.562 224.88 139.397 224.88 140.244C224.88 141.091 224.688 141.926 224.318 142.688C222.718 146.448 221.07 150.44 221.054 150.48C221.023 150.555 220.969 150.618 220.901 150.661C220.832 150.704 220.751 150.725 220.67 150.72ZM219.622 142.864L220.806 148.936C221.422 147.456 222.494 144.856 223.566 142.368C223.882 141.71 224.045 140.99 224.045 140.26C224.045 139.53 223.882 138.81 223.566 138.152C223.124 137.173 222.313 136.409 221.31 136.024C221.251 136.006 221.188 136.002 221.127 136.014C221.065 136.025 221.008 136.05 220.958 136.088C220.422 136.464 220.078 137.92 219.99 138.752L219.622 142.864Z" fill="#263238"/>
<path d="M375.673 360.448H40.3531C40.247 360.448 40.1453 360.406 40.0703 360.331C39.9953 360.256 39.9531 360.155 39.9531 360.048C39.9531 359.942 39.9953 359.841 40.0703 359.766C40.1453 359.691 40.247 359.648 40.3531 359.648H375.673C375.779 359.648 375.881 359.691 375.956 359.766C376.031 359.841 376.073 359.942 376.073 360.048C376.071 360.154 376.028 360.254 375.954 360.329C375.879 360.404 375.779 360.446 375.673 360.448Z" fill="#263238"/>
</svg>
